<svg width="1419" height="49" viewBox="0 0 1419 49" fill="none" xmlns="http://www.w3.org/2000/svg">
<path d="M80.2908 15.6154L82.6216 22.0026L85.0771 15.6154H92.6824V30.2584H87.6538V22.7248L84.3108 30.2619L80.975 30.2479L77.7141 22.8475V30.2584H72.746V15.6154H80.2908Z" fill="black"/>
<path d="M127.89 22.7248V15.6154H133.35V30.2584H127.737L121.757 23.149V30.2584H116.051V15.6154H121.664L127.89 22.7248Z" fill="black"/>
<path d="M149.544 22.7248V15.6154H154.94V30.2584H149.298L143.347 23.149V30.2584H137.644V15.6154H143.254L149.544 22.7248Z" fill="black"/>
<path d="M69.1893 8.14488V12.243H57.6886C57.5924 12.243 57.1861 12.4288 57.1006 12.5094C56.6943 12.9125 57.0293 13.5015 57.5318 13.5996C60.8676 13.9748 66.8336 12.5234 69.0574 15.7171C70.4652 17.7398 69.9377 21.1227 67.835 22.511C67.3182 22.851 65.9604 23.3909 65.3581 23.3909H52.5673V19.1736H64.4351C64.5099 19.1736 64.8021 19.0088 64.8627 18.9317C65.2013 18.5005 64.959 17.8134 64.4208 17.6802C61.9154 17.5295 59.2532 17.8345 56.7691 17.6662C53.3799 17.4383 51.6193 14.7916 52.3606 11.5909C53.2908 7.58047 57.7314 8.13086 60.8747 8.14839C63.6474 8.16241 66.4201 8.13086 69.1893 8.14839V8.14488Z" fill="black"/>
<path d="M69.1893 25.3155V29.4136H57.7492C57.6815 29.4136 57.2039 29.5924 57.1326 29.652C56.5695 30.1568 57.154 30.7492 57.7456 30.8018C61.1278 31.0963 67.0438 29.7221 69.1786 33.07C70.2442 34.7421 69.9769 37.6027 68.6084 39.0541C67.9704 39.7307 66.356 40.558 65.4187 40.558H52.5673V36.4003H64.1891C64.2996 36.4003 64.7095 36.2461 64.8021 36.1619C65.2334 35.7693 64.9839 34.956 64.4065 34.8613C61.8869 34.6825 59.2068 35.0051 56.7014 34.8368C54.3991 34.6825 52.6065 33.2908 52.2644 31.0016C51.9222 28.7125 52.8881 26.574 55.1404 25.7081C55.397 25.61 56.3557 25.3155 56.5802 25.3155H69.1857H69.1893Z" fill="black"/>
<path d="M49.9906 15.6154V19.412H40.0545V20.9194H48.1802L48.2728 21.0105V24.4145H40.1472L40.0545 24.5021V26.1603H50.4183V30.2584H34.6552V15.6154H49.9906Z" fill="black"/>
<path d="M114.64 30.2585H108.599L107.273 27.7029L107.07 27.6012L101.125 27.6153L99.7353 30.255H93.6625L101.236 15.6085L107.127 15.6716L114.64 30.2515V30.2585ZM102.619 23.6889H105.687L104.122 20.7372L102.619 23.6889Z" fill="black"/>
<path d="M6.87117 15.6154L11.408 24.6529L15.8237 15.6154H22.2672L14.4444 30.2584L14.2662 30.3215L7.97241 30.2864L0 15.6154H6.87117Z" fill="black"/>
<path d="M29.9973 15.6154H24.2915V30.2549H29.9973V15.6154Z" fill="black"/>
<path fill-rule="evenodd" clip-rule="evenodd" d="M230.503 12.586L221.341 20.9904C221.008 21.2948 220.818 21.7261 220.818 22.1791V34.8926C220.818 35.7805 221.531 36.5017 222.408 36.5017H240.897C241.77 36.5017 242.483 35.7805 242.483 34.8926V22.1827C242.483 21.7261 242.289 21.2876 241.949 20.9831L232.623 12.5751C232.017 12.0315 231.101 12.0351 230.499 12.586H230.503ZM231.574 15.4201C233.224 16.9096 238.881 22.0088 239.762 22.7988V33.8053H223.539V22.7916C224.402 21.9979 229.937 16.9205 231.577 15.4201H231.574Z" fill="#010101"/>
<path fill-rule="evenodd" clip-rule="evenodd" d="M231.581 21.4977C230.825 22.1899 228.272 24.5311 227.875 24.8935V29.971H235.354V24.9008C234.946 24.5348 232.34 22.1863 231.581 21.4977ZM323.341 20.8925V23.9186H329.284V35.2876H332.542V23.9186H338.339V20.8925H323.341ZM373.376 20.8925V31.1162L364.454 21.7913C363.662 20.9469 362.742 20.5989 361.715 20.762C360.784 20.907 360.179 21.6789 360.179 22.7227V35.2912H363.369V25.0675L372.144 34.2475C373.053 35.2187 373.881 35.5884 374.826 35.4543C376.38 35.2296 376.559 34.0699 376.559 33.2182V20.8925H373.369H373.376ZM339.903 28.0719C339.903 34.3127 343.007 35.5304 348.596 35.5304C354.185 35.5304 357.286 34.3127 357.286 28.0719C357.286 21.8311 354.182 20.6134 348.596 20.6134C343.011 20.6134 339.903 21.8311 339.903 28.0719ZM353.845 28.0719C353.845 32.2324 352.044 32.4245 348.596 32.4245C345.148 32.4245 343.344 32.2324 343.344 28.0719C343.344 23.9114 345.141 23.7193 348.596 23.7193C352.051 23.7193 353.845 23.9114 353.845 28.0719ZM298.107 35.284H301.34V20.8925H298.107V35.284ZM291.046 29.8188C293.076 29.3114 294.229 27.7457 294.229 25.6075C294.229 22.6973 292.332 20.8889 289.278 20.8889H279.106V35.2803H282.296V30.1449H287.466L291.046 35.2803H294.791L291.046 29.8151V29.8188ZM282.296 23.8788H288.83C290.753 23.8788 290.985 24.7631 290.985 25.5966C290.985 26.4302 290.735 27.329 288.841 27.329H282.299V23.8788H282.296ZM314.623 26.2381H311.766C309.317 26.2381 308.815 25.7706 308.815 24.8827C308.815 23.8027 310.455 23.3859 312.768 23.3859C314.802 23.3859 316.724 23.7338 318.948 24.7884L320.655 22.353C318.228 20.8707 315.822 20.3307 312.79 20.3307C308.157 20.3307 305.385 22.0921 305.385 25.0421C305.385 28.2567 308.013 29.3549 311.397 29.3222H314.54C317.634 29.3222 318.045 29.681 318.045 30.8734C318.045 32.0657 316.334 32.7905 313.577 32.7905C311.153 32.7905 308.661 32.3085 306.474 30.8263L304.741 33.3197C307.065 35.1897 309.929 35.8348 313.559 35.8348C318.625 35.8348 321.533 33.9684 321.533 30.7175C321.533 27.7276 319.205 26.2345 314.615 26.2345L314.623 26.2381ZM267.119 20.4648C266.46 20.4648 265.812 20.7729 265.501 21.2839L257.062 35.2912H260.857L262.4 32.6601H271.834L273.377 35.2912H277.172L268.734 21.2839C268.422 20.7693 267.774 20.4648 267.112 20.4648H267.119ZM267.123 24.6217C267.233 24.8138 268.762 27.4232 270.284 30.0108H263.961C263.961 30.0108 267.008 24.8174 267.123 24.6217Z" fill="#010101"/>
<path d="M486.635 34.0916L486.802 33.74L492.456 12.605C492.578 12.3624 492.788 12.169 493.059 12.0987C494.397 12.1831 495.899 11.9756 497.215 12.0916C497.711 12.1373 497.893 12.489 497.772 12.9531L489.827 38.6132C489.66 38.9437 489.389 39.0703 489.021 39.1055C487.459 39.2426 485.7 38.9965 484.116 39.1055C483.82 39.0703 483.567 38.8734 483.431 38.6167L475.458 12.7351C475.476 12.3729 475.672 12.1303 476.047 12.0916C477.367 11.958 478.926 12.2006 480.271 12.0916C480.659 12.1373 480.881 12.4468 480.981 12.7984L486.631 34.0881L486.635 34.0916Z" fill="black"/>
<path d="M462.438 17.9564C462.338 17.9002 462.452 17.633 462.484 17.5521C462.841 16.6098 463.647 15.4811 464.1 14.5002C464.864 12.8476 465.713 10.5938 466.016 8.80766C466.084 8.41386 466.358 6.2972 465.484 7.18676C465.042 7.63681 464.593 8.80414 464.329 9.40891C463.066 12.3026 461.996 15.2877 461.264 18.3608C461.271 18.5928 462.063 19.1378 462.281 19.3664C463.619 20.7693 464.107 22.3128 463.926 24.2256C463.708 26.4899 462.905 28.7331 463.244 31.0397L467.364 30.8146C467.728 30.8779 467.885 31.2506 467.543 31.4546C465.531 31.6163 463.505 31.6831 461.486 31.778C461.279 30.9729 459.841 30.9025 460.305 29.8864C460.519 29.4153 461.471 28.5433 461.842 28.0405C462.92 26.5919 463.444 25.0202 462.966 23.22C462.342 20.8642 460.537 21.8909 459.559 23.3465C458.403 25.0729 457.715 27.7873 457.911 29.8477C457.997 30.7303 458.817 31.3174 458.803 32.0277C458.785 32.8504 458.015 32.8258 457.722 33.3919C457.248 34.3026 458.257 35.1113 459.12 35.1956C460.262 35.3082 461.186 34.9003 461.55 33.7892L465.634 33.9756C465.823 34.06 466.273 33.9932 466.394 34.1127C466.533 34.2498 466.505 34.6296 466.251 34.6471C464.974 34.6155 463.69 34.5065 462.417 34.4116C461.625 35.5859 460.48 36.5247 459.231 37.2033C457.644 38.0683 456.798 38.2159 455.136 37.4108C453.734 36.7322 452.443 35.6598 451.54 34.4116L448.326 34.6507C448.066 34.612 447.545 34.7772 447.488 34.4327C447.452 34.2217 447.502 34.1021 447.72 34.0529C449.278 33.9263 450.848 33.8842 452.41 33.7927C452.792 34.8827 453.762 35.3257 454.904 35.2027C455.781 35.1077 456.809 34.2111 456.202 33.311C455.896 32.8575 455.232 32.7696 455.182 32.1156C455.132 31.4405 455.81 30.9482 455.996 30.347C456.62 28.3042 455.254 23.6349 453.506 22.2847C452.064 21.1701 451.144 22.239 450.912 23.6911C450.645 25.3612 451.198 26.7923 452.182 28.1108C452.557 28.6101 453.37 29.3344 453.623 29.8055C454.205 30.8814 452.749 30.9518 452.475 31.7851L448.201 31.6022C447.666 31.444 446.928 31.6444 446.417 31.4616C446.104 31.3491 446.207 30.8217 446.589 30.8639C447.541 30.9236 448.49 30.9482 449.442 30.9869C449.664 30.9975 450.573 31.1522 450.687 30.9869C450.752 30.8955 450.784 29.686 450.777 29.4856C450.63 25.741 448.565 22.464 451.768 19.2785C451.986 19.0605 452.621 18.6843 452.646 18.4241C452.264 16.6836 451.765 14.9643 451.151 13.2906C450.559 11.6697 449.706 9.30694 448.865 7.84426C447.934 6.23039 447.702 7.24302 447.873 8.51583C448.19 10.9138 449.442 13.804 450.559 15.9523C450.755 16.3285 451.608 17.5908 451.526 17.9283C451.501 17.9881 451.369 18.0232 451.312 18.0162C450.93 17.9599 450.341 17.0106 450.127 16.6836C448.344 13.9481 446.51 8.92017 446.803 5.66079C447.102 2.32757 449.974 6.9547 450.488 7.77394C452.435 10.8786 454.126 14.2997 455.393 17.7279L455.703 17.7912C456.548 17.6611 457.401 17.6822 458.246 17.7912L458.457 17.6892C459.281 15.3897 460.319 13.1605 461.471 11.0017C462.206 9.6269 464.618 5.22129 465.891 4.59894C466.719 4.1946 467.011 4.97516 467.083 5.66431C467.414 8.91666 465.609 13.8884 463.826 16.6203C463.644 16.9016 462.852 18.2061 462.438 17.9635V17.9564ZM458.585 36.2927C457.993 36.1485 457.49 35.7863 457.055 35.3785C456.548 35.7125 456.092 36.1415 455.482 36.2927C456.263 37.1892 457.804 37.1892 458.585 36.2927Z" fill="#070707"/>
<path d="M555.818 37.2667C553.72 39.2743 550.906 40.1744 547.998 39.5591C544.381 38.7926 543.225 35.0938 544.021 31.852C545.212 26.9928 551.423 27.3971 555.383 27.4288V25.6883C555.383 25.0027 554.965 24.0744 554.37 23.6912C553.089 22.8614 549.861 23.1989 548.348 23.4064C547.695 23.4943 546.55 23.8494 545.979 23.8318C545.623 23.8213 545.43 23.5857 545.387 23.2482C545.323 22.7172 545.334 21.4058 545.387 20.8643C545.451 20.2455 545.705 20.1083 546.265 19.9571C548.976 19.2364 554.723 18.8918 557.298 19.9466C559.574 20.8783 560.198 23.0161 560.338 25.2629L560.323 38.5676C560.241 38.8032 560.081 39.0563 559.806 39.0985C558.75 39.0282 557.555 39.204 556.517 39.1056C556.225 39.0774 555.807 38.8313 555.807 38.5219V37.2702L555.818 37.2667ZM555.383 30.6073C554.569 30.6319 553.745 30.5721 552.928 30.6073C551.409 30.667 549.322 30.7796 548.883 32.5516C548.523 34.0073 548.812 36.015 550.642 36.2224C552.515 36.4369 554.016 35.6423 555.383 34.489V30.6108V30.6073Z" fill="black"/>
<path d="M507.978 25.6284C507.76 23.3008 505.966 23.118 503.972 23.1531C502.277 23.1813 500.611 23.5047 498.949 23.7684C498.531 23.7438 498.449 23.3535 498.421 23.0055C498.378 22.4956 498.36 20.8396 498.535 20.4247C498.735 19.95 499.141 19.9219 499.591 19.8129C502.159 19.2046 507.203 18.9198 509.668 19.8094C512.116 20.6919 512.775 22.7558 512.94 25.1397L512.929 38.5675C512.822 38.8629 512.608 39.0492 512.283 39.0949C511.63 39.1863 509.8 39.1688 509.123 39.102C508.83 39.0738 508.413 38.8277 508.413 38.5183V37.2666C506.929 38.5851 505.224 39.5837 503.172 39.7137C499.948 39.9177 497.304 38.8136 496.591 35.4945C496.256 33.9369 496.348 31.894 497.154 30.4876C499.156 26.9997 504.503 27.4392 507.978 27.4287C507.938 26.845 508.031 26.2016 507.978 25.6249V25.6284ZM507.978 30.6072C507.182 30.6318 506.379 30.5755 505.587 30.6072C502.933 30.7056 501.178 31.0502 501.4 34.1267C501.528 35.927 502.759 36.3665 504.41 36.2293C505.787 36.1168 506.939 35.3081 507.978 34.4889V30.6107V30.6072Z" fill="black"/>
<path d="M569.035 21.6869L570.565 20.6602C575.049 18.2623 581.263 18.4908 581.627 24.7107C581.798 27.622 581.606 30.8075 581.627 33.754C581.638 35.2026 581.848 36.9641 581.691 38.3952C581.648 38.7995 581.409 39.1089 580.978 39.1617C580.196 39.2531 578.238 39.2355 577.435 39.1617C577.022 39.123 576.683 38.8839 576.658 38.4585C576.483 34.4853 576.904 30.3047 576.665 26.3562C576.561 24.6263 576.026 23.6418 574.15 23.5188C572.901 23.4379 571.699 23.793 570.626 24.3872C570.379 24.5208 569.513 25.0166 569.466 25.2627V38.5218C569.473 38.9156 569.124 39.13 568.753 39.1652C567.961 39.239 565.985 39.2566 565.21 39.1652C564.939 39.1336 564.654 38.9542 564.575 38.6905C564.39 32.7625 564.55 26.8028 564.493 20.8641C564.501 20.4141 564.633 19.9429 565.153 19.8621C565.767 19.7671 567.597 19.7988 568.253 19.855C568.421 19.8691 568.642 19.9113 568.778 20.0133C568.838 20.059 569.027 20.3402 569.027 20.3789V21.6939L569.035 21.6869Z" fill="black"/>
<path d="M466.654 12.5839C466.754 12.496 467.132 13.0832 467.2 13.1746C471.998 19.718 473.232 29.7774 469.023 36.8798C463.39 46.3837 451.358 46.7283 445.347 37.3826C440.478 29.8231 442.115 19.5386 447.324 12.5839L448.511 15.3018C446.813 18.0338 445.608 21.2193 445.19 24.4154C444.641 28.6382 445.408 33.1071 447.923 36.6161C452.774 43.3845 461.336 43.3388 466.141 36.5563C470.578 30.2907 469.451 21.5322 465.534 15.3053C465.934 14.4122 466.398 13.5367 466.651 12.5874L466.654 12.5839Z" fill="black"/>
<path d="M590.752 19.8551H596.492C596.556 19.8551 596.87 20.0837 596.923 20.161C596.998 20.27 597.045 20.4423 597.066 20.5724C597.148 21.1244 597.134 22.4289 597.084 23.002C597.059 23.2973 597.002 23.5892 596.731 23.7544C596.691 23.779 596.445 23.8845 596.431 23.8845H590.752V33.4482C590.752 33.9967 591.151 34.837 591.59 35.1886C592.664 36.0466 595.154 35.6 596.488 35.5543C596.905 35.5402 597.273 35.6 597.33 36.0747C597.398 36.6548 597.387 38.0542 597.33 38.6449C597.298 38.9649 597.116 39.2286 596.802 39.3481C596.395 39.5028 595.289 39.6118 594.811 39.6505C589.91 40.0513 586.09 39.4009 585.783 33.8174L585.801 15.6816C585.911 15.2069 586.307 15.1155 586.746 15.0838C587.556 15.0241 589.182 15.003 589.967 15.0944C590.11 15.112 590.317 15.1647 590.438 15.2421C590.52 15.2948 590.752 15.6077 590.752 15.6675V19.8516V19.8551Z" fill="black"/>
<path d="M536.191 12.1093L540.083 12.0988C540.45 12.1867 540.625 12.5101 540.668 12.8653L540.678 38.1562C540.657 38.5922 540.514 39.0212 540.022 39.0985C538.913 39.2673 537.397 38.9825 536.244 39.0985C535.877 39.0106 535.702 38.6872 535.659 38.332L535.649 12.9813C535.684 12.591 535.799 12.2605 536.191 12.1093Z" fill="black"/>
<path d="M526.884 12.1093L530.776 12.0988C531.004 12.1339 531.268 12.3941 531.304 12.6191L531.279 38.6133C531.193 38.863 530.983 39.0563 530.715 39.095C530.134 39.1829 527.519 39.1829 526.937 39.095C526.631 39.0493 526.409 38.8102 526.349 38.5149L526.374 12.5805C526.463 12.3308 526.631 12.1831 526.887 12.1058L526.884 12.1093Z" fill="black"/>
<path d="M517.702 19.8692C518.847 19.9536 520.299 19.7075 521.405 19.8622C521.708 19.9044 521.993 20.154 522.047 20.4529L522.032 38.6168C521.943 38.8243 521.815 39.0212 521.583 39.0915L517.627 39.102C517.334 39.0106 517.167 38.8032 517.11 38.5113L517.092 20.5619C517.135 20.2208 517.374 19.9747 517.698 19.8762L517.702 19.8692Z" fill="black"/>
<path d="M456.031 7.04258C457.85 6.89491 459.591 7.16916 461.236 7.92863C461.393 8.00246 462.067 8.28023 462.053 8.449L460.847 10.5622C458.425 9.2155 455.649 9.2155 453.227 10.5622L451.95 8.39626C453.152 7.69305 454.626 7.1551 456.031 7.03907V7.04258Z" fill="black"/>
<path d="M517.516 12.1092C518.776 12.1971 520.31 11.951 521.537 12.0951C521.954 12.1444 522.143 12.4081 522.186 12.7984C522.268 13.5227 522.261 15.2455 522.186 15.9804C522.139 16.4375 521.868 16.6941 521.408 16.7398C520.566 16.8277 518.658 16.8207 517.805 16.7398C517.399 16.7012 517.081 16.5289 517.031 16.0964C516.946 15.3932 516.953 13.4418 517.031 12.7351C517.067 12.4292 517.213 12.2182 517.509 12.1057L517.516 12.1092Z" fill="black"/>
<path d="M461.054 24.1447C462.26 23.9548 462.131 25.4808 461.864 26.2262C461.582 27.0068 460.533 28.1776 459.609 27.8014C459.017 27.5623 459.381 26.1488 459.563 26.0891C459.766 26.0258 460.333 26.3844 460.444 25.857C460.544 25.3718 459.93 25.4702 460.048 25.0448C460.148 24.6897 460.687 24.2009 461.061 24.1447H461.054Z" fill="black"/>
<path d="M453.98 25.3402C453.812 25.4949 453.616 25.3859 453.62 25.8113C453.627 26.4372 454.412 26.0574 454.494 26.1137C454.718 26.2684 454.986 27.7522 454.333 27.8577C452.814 28.1003 451.679 25.9836 452.057 24.7002C452.271 23.983 453.117 24.0638 453.591 24.4998C453.723 24.6194 454.148 25.1854 453.98 25.3402Z" fill="black"/>
<path d="M466.993 32.4426C467.329 32.534 467.272 33.2231 466.808 33.1423L461.625 33.1141V32.4426H466.993Z" fill="black"/>
<path d="M452.443 32.4426C452.375 32.541 452.41 33.0544 452.382 33.0544H447.013C446.81 33.0544 446.81 32.4426 447.013 32.4426H452.443Z" fill="black"/>
<path d="M681.2 41.3689H679.521C666.129 40.5671 658.531 25.3963 666.507 14.3694C673.47 4.74389 688.113 4.9816 694.706 14.8696C702.104 25.9639 694.446 40.6984 681.2 41.3725V41.3689ZM680.116 8.84527C668.461 9.02622 661.109 21.7135 666.828 31.8605C672.322 41.6102 686.195 42.5468 692.916 33.5458C700.639 23.2001 692.998 8.63949 680.116 8.84172V8.84527Z" fill="black"/>
<path d="M714.655 13.0709H725.847C728.468 13.2305 730.996 14.2736 731.937 16.8813C732.746 19.1236 732.386 21.7313 730.382 23.193C730.011 23.4627 729.584 23.6259 729.245 23.9204C733.784 25.1621 734.643 30.8743 731.156 33.8226C730.322 34.5286 728.311 35.5291 727.223 35.5291H714.659V13.0709H714.655ZM720.271 17.6973L720.156 17.8109V21.8306L720.271 21.9442H724.471C726.631 21.9442 727.302 18.6375 725.273 17.8854C725.113 17.8251 724.61 17.6938 724.471 17.6938H720.271V17.6973ZM720.231 26.4252V30.7891L720.345 30.9026H724.699C724.906 30.9026 725.622 30.7536 725.847 30.6791C727.662 30.0902 727.79 27.5428 726.111 26.7693C725.9 26.6735 725.048 26.4287 724.852 26.4287H720.231V26.4252Z" fill="black"/>
<path d="M804.63 13.0709V21.341H811.504V13.0709H817.384V35.5291H811.504V26.6523H804.63V35.5291H798.672V13.0709H804.63Z" fill="black"/>
<path d="M744.352 12.5635C753.298 11.8114 757.287 19.9822 755.544 27.777C754.307 33.3081 749.882 36.6751 744.109 35.9762C731.901 34.4967 732.308 13.5747 744.352 12.5635ZM744.887 17.9493C739.489 18.5276 739.317 29.3061 744.366 30.5585C752.003 32.4566 752.702 17.1119 744.887 17.9493Z" fill="black"/>
<path d="M765.278 12.4854C768.793 12.2122 772.262 13.2482 774.605 15.9269L771.136 19.4429C769.77 17.8321 766.811 16.6862 764.832 17.7363C763.855 18.2543 763.356 19.5103 764.105 20.4328C764.996 21.5255 768.472 21.9229 769.906 22.3344C772.64 23.1221 774.648 24.4596 775.058 27.4576C776.192 35.7029 765.759 37.8317 759.997 34.4505C758.824 33.7622 757.847 32.7937 756.967 31.7719L760.528 28.3268C760.668 28.302 761.263 29.0684 761.438 29.2316C763.024 30.6968 765.805 31.6974 767.909 30.8849C769.546 30.2498 769.998 28.2098 768.34 27.3086C766.957 26.5564 764.786 26.4252 763.235 25.932C755.08 23.3349 756.942 13.1418 765.278 12.489V12.4854Z" fill="black"/>
<path d="M786.817 12.56C788.76 12.4393 790.771 12.7764 792.486 13.713C794.015 14.5468 795.271 15.9305 796.219 17.3709L791.759 20.4292C789.605 16.5514 784.535 17.3284 783.109 21.3978C782.499 23.1363 782.542 25.4921 783.166 27.2235C784.603 31.2113 789.666 32.0947 791.798 28.2027L791.901 28.1779L796.369 31.2432C794.622 34.0284 792.169 35.8342 788.781 36.0613C773.714 37.0654 773.072 13.4079 786.82 12.5635L786.817 12.56Z" fill="black"/>
<path d="M674.558 13.6775V19.5209H686.32V13.6775H687.504C687.736 13.6775 689.568 15.3273 689.836 15.6111C694.752 20.8762 694.328 29.157 688.919 33.9006C688.766 34.0354 687.664 34.9224 687.582 34.9224H686.324V29.157H674.558V34.9224H673.299C673.024 34.9224 671.035 33.0136 670.742 32.6836C666.418 27.7911 666.585 20.3582 671.046 15.6111C671.324 15.3131 673.117 13.6775 673.377 13.6775H674.561H674.558ZM672.953 16.0298C672.821 15.9978 672.8 16.083 672.725 16.1433C672.329 16.4449 671.787 17.0799 671.473 17.4808C668.111 21.7525 668.418 27.9614 672.112 31.9279C672.34 32.1727 672.65 32.5275 672.953 32.6482V16.0298ZM687.925 32.6446C692.392 28.7206 692.941 21.9264 689.222 17.2822C688.955 16.9487 688.488 16.3916 688.156 16.1433C688.078 16.083 688.06 15.9978 687.928 16.0298V32.6446H687.925ZM686.32 21.1139H674.558V27.4859H686.32V21.1139Z" fill="black"/>
<path d="M883.262 9.49026L883.49 9.38654C888.43 9.54033 893.476 9.1934 898.401 9.39011C901.424 9.51172 905.729 10.1197 906.392 13.7213C906.812 16.0103 906.039 18.0096 903.95 19.0862L902.297 19.7264C905.551 20.1413 907.953 22.6484 907.325 26.0676C906.677 29.5941 902.963 31.1321 899.738 31.2715H883.262V9.49026ZM889.852 18.0633H897.072C897.382 18.0633 898.241 17.7557 898.523 17.584C899.595 16.9367 899.887 15.0053 898.829 14.2328C898.448 13.9538 897.4 13.6605 896.937 13.6605H889.848V18.0633H889.852ZM889.852 27.0691C891.947 26.9868 894.125 27.1799 896.21 27.0691C897.46 27.0047 899.756 26.7937 899.962 25.2271C900.28 22.7987 898.879 22.1048 896.744 21.9939C894.485 21.8759 892.122 22.0869 889.855 21.9939V27.0655L889.852 27.0691Z" fill="black"/>
<path d="M954.404 31.207H948.281V29.3401L947.615 30.109C943.463 33.378 936.246 31.6434 933.506 27.3086C930.858 23.124 933.352 17.7663 937.544 15.8099C940.655 14.3578 945.309 14.4329 948.082 16.6003V9.45795H954.304L954.404 9.55809V31.207ZM943.666 18.757C940.031 18.7749 937.693 22.8522 939.906 25.8923C941.927 28.6713 946.361 28.3494 947.907 25.2628C949.465 22.1512 947.023 18.7391 943.666 18.757Z" fill="black"/>
<path d="M1037.32 37.6091H883.33V39.3437H1037.32V37.6091Z" fill="black"/>
<path d="M978.76 24.7335H963.988C964.055 26.8294 965.645 28.1992 967.68 28.3387C969.333 28.4532 971.151 28.1098 972.074 26.6005H978.097C977.566 28.1563 976.158 29.476 974.747 30.2808C968.97 33.5784 957.27 31.9582 957.198 23.6284C957.134 16.2714 964.711 14.036 970.791 15.0124C975.738 15.8064 979.423 19.4867 978.763 24.7335H978.76ZM971.971 21.4002C971.614 19.0861 969.433 17.913 967.231 18.2814C965.573 18.5604 964.369 19.7514 964.052 21.4002H971.971Z" fill="black"/>
<path d="M1037.46 19.9302H1031.53C1031.59 19.476 1031.1 18.9932 1030.77 18.7321C1029.83 17.9989 1027.74 17.9452 1026.61 18.1598C1024.58 18.5461 1024.42 19.8372 1026.5 20.4059C1030.09 21.3895 1038.62 20.7314 1038.19 26.4324C1037.69 32.9024 1025.97 32.602 1021.82 30.5061C1020.04 29.612 1018.69 28.0419 1018.29 26.0676H1024.38C1024.73 27.044 1025.28 27.6771 1026.26 28.0526C1027.48 28.5247 1030.76 28.7679 1031.6 27.5698C1032.61 26.1248 1029.6 25.6384 1028.75 25.4882C1025.19 24.8551 1017.37 24.7979 1018.81 19.1469C1019.98 14.5511 1028.05 14.222 1031.71 15.1197C1034.22 15.7349 1036.73 17.305 1037.46 19.9302H1037.46Z" fill="black"/>
<path d="M1002.38 15.5275V24.2329C1002.38 24.5619 1002.63 25.3237 1002.77 25.6456C1004.05 28.5891 1008.27 28.2959 1009.19 25.2522C1009.23 25.1056 1009.37 24.612 1009.37 24.5011V15.5275H1015.63V30.9032L1015.53 31.0033H1009.57V29.2687L1008.24 30.2987C1003.75 33.1779 996.658 31.0355 996.198 25.2343V15.4631L1002.38 15.5311V15.5275Z" fill="black"/>
<path d="M916.271 15.6633V24.3687C916.271 27.1513 919.688 28.8609 921.891 27.137C922.475 26.6792 923.256 25.4524 923.256 24.7049V15.6669H929.51V31.0783H923.455V29.3437C919.229 33.6928 910.472 31.8258 910.077 25.177V15.6669H916.267L916.271 15.6633Z" fill="black"/>
<path d="M994.398 14.9945V19.6655C991.861 19.1934 988.746 19.9659 987.99 22.7485C987.948 22.9023 987.809 23.4531 987.809 23.5675V31.0712H981.618V15.5954H987.541V18.7964L987.972 17.727C989.188 15.2735 991.925 14.9301 994.398 14.9945Z" fill="black"/>
<path d="M1107.65 38.7567C1105.71 37.0846 1104.51 34.1888 1104.28 31.6345C1103.98 28.1374 1103.89 17.0593 1104.94 14.1136C1106.3 10.275 1109.73 7.90571 1113.71 7.5962C1117.48 7.30093 1126.9 7.1017 1130.42 7.63178C1134.25 8.2081 1137.76 12.5127 1138.11 16.3086C1138.47 20.3037 1138.52 29.0873 1138.05 33.0042C1137.57 37.0348 1133.78 40.7027 1129.75 41.062C1125.76 41.4177 1115.8 41.5422 1111.98 41.0157C1110.59 40.8236 1108.7 39.6674 1107.65 38.7531V38.7567ZM1129.55 38.2053C1129.37 30.9799 1127.45 22.8829 1123.3 16.8921C1119.15 10.9012 1112.47 7.00209 1107.86 14.7184C1120.99 10.7268 1127.88 27.7603 1128.13 38.2053H1129.55ZM1129.73 10.4529C1127.41 10.0687 1124.17 10.7375 1121.73 10.4529C1127.8 16.7426 1130.15 25.2345 1130.97 33.7584C1131.07 34.7011 1130.91 35.6652 1130.97 36.6079C1131.01 37.138 1130.7 37.6361 1131.51 37.4973C1133.5 36.455 1134.83 34.4485 1135.15 32.2393C1135.63 28.9023 1135.58 20.4709 1135.24 17.0379C1134.94 14.0958 1132.8 10.9616 1129.73 10.4529H1129.73ZM1126.71 38.2017C1126.44 32.2784 1121.09 19.3041 1114.71 18.0056C1112.09 17.4684 1108.62 18.3222 1107.74 21.186C1107.22 22.8403 1107.31 29.9909 1107.49 31.9938C1107.62 33.5022 1108.23 35.1458 1109.28 36.2451C1109.76 36.7431 1112.12 38.2053 1112.66 38.2053H1126.71V38.2017Z" fill="black"/>
<path d="M1159.97 10.8086C1161.96 11.0896 1164.62 12.9146 1165.04 14.9816C1165.58 17.6248 1165.42 20.5242 1163.36 22.3812C1162.58 23.0856 1161.39 23.0145 1161.57 23.9644C1167.21 24.8324 1167.45 33.5413 1163.47 36.3624C1163.12 36.6078 1160.53 37.8459 1160.33 37.8459H1146.63V22.1927H1155.7C1156.02 22.1927 1158.76 21.499 1159.07 21.2891C1160.49 20.3321 1160.57 16.6821 1159.33 15.5472C1159.19 15.4191 1157.92 14.7254 1157.84 14.7254H1146.63V10.8121C1150.77 11.2319 1155.97 10.25 1159.97 10.8121L1159.97 10.8086ZM1151.96 34.2883H1157.12C1161.02 34.2883 1162.25 27.7923 1158.93 26.0775C1157.59 25.3838 1153.59 25.0672 1152.19 25.4372C1151.31 25.6684 1151.96 26.2056 1151.96 26.2839V34.2883Z" fill="black"/>
<path d="M1202.48 28.5963C1201.41 34.4022 1207.01 38.593 1208.37 31.0652L1212.79 31.0865C1212.79 36.9849 1207.87 39.8666 1202.4 38.0985C1196.3 36.124 1196.32 23.8256 1199.64 19.5317C1201 17.7707 1202.25 17.3082 1204.42 17.1944C1208.82 16.9631 1211.65 17.7742 1212.71 22.4524C1213.06 23.9821 1213.54 27.4152 1212.62 28.5927H1202.48L1202.48 28.5963ZM1202.48 25.3945H1208.17C1209.09 18.3043 1202.07 18.8735 1202.48 25.3945Z" fill="black"/>
<path d="M1172.95 28.5963C1173.01 30.9869 1173.57 36.4869 1177.22 34.8149C1178.83 34.0749 1178.45 31.7909 1178.69 31.4886C1179.1 30.9727 1183.12 30.9976 1183.29 31.6558C1182.67 41.1971 1169.16 41.0761 1168.31 31.2787C1167.92 26.7143 1167.86 18.066 1173.87 17.2442C1182.5 16.0702 1183.82 21.097 1183.62 28.5963H1172.95H1172.95ZM1179 25.3945C1178.75 22.7121 1178.41 19.1439 1174.82 20.6843C1173.49 21.2535 1172.69 24.2952 1173.49 25.3945H1179Z" fill="black"/>
<path d="M1253.34 37.8459H1248.36C1247.94 34.0216 1246.65 37.7214 1244.75 38.3191C1237.48 40.6066 1234.94 29.8095 1240.7 27.152C1242.71 26.2235 1247.82 25.9317 1247.99 23.4201C1248.3 18.8807 1242.25 19.5638 1242.67 23.6158H1238.4C1236.91 16.0702 1250.7 15.0279 1252.4 20.4709C1253.46 23.8719 1252.24 31.4851 1252.63 35.5335C1252.71 36.3767 1252.98 37.0989 1253.34 37.8459ZM1248 27.8884C1245.24 28.7066 1241.98 28.9272 1242.33 32.6448C1242.51 34.5837 1243.42 35.2418 1245.31 34.9821C1248.88 34.4947 1247.89 30.5352 1248 27.8848L1248 27.8884Z" fill="black"/>
<path d="M1221.68 11.5201V17.0343C1222.13 18.0304 1224.66 17.3402 1224.89 17.5679V20.5669L1221.68 20.7732V33.0468C1221.68 34.6441 1223.69 34.6583 1224.88 34.6512L1224.55 38.0487C1222.84 38.2835 1219.21 38.5254 1217.87 37.387C1215.87 35.6829 1216.82 24.2418 1216.96 21.3033C1216.58 20.2503 1214.12 21.2606 1213.95 20.2538L1214.21 17.5679L1216.47 17.5145L1217.01 17.0058L1216.7 11.5201H1221.68H1221.68Z" fill="black"/>
<path d="M1233.42 17.5679H1236.27L1236.28 20.5633L1233.42 20.7696V33.7547C1233.42 34.5124 1235.59 34.8504 1236.27 34.6405L1236.22 37.6181L1235.69 38.1518C1233.13 38.3012 1229.17 38.6712 1228.53 35.4516C1227.72 31.4423 1229 25.5759 1228.39 21.3531L1227.86 20.8194L1225.59 20.5669V17.5679C1226.57 17.5038 1227.77 17.9129 1228.44 17.0342V11.52C1230.02 11.7406 1232.19 10.9651 1233.42 12.0537V17.5679Z" fill="black"/>
<path d="M1186.11 17.5679H1190.74C1190.95 17.7743 1190.27 20.5598 1191.27 20.0546C1192.5 18.0944 1194.12 16.8564 1196.43 17.2086L1196.4 21.8085C1194.86 21.8583 1193.11 21.6128 1191.99 22.9113C1191.86 23.0643 1191.09 24.4126 1191.09 24.5016V37.8423H1186.11V17.5679Z" fill="black"/>
<path d="M1319.22 48.6717V15.6215C1319.35 13.7588 1319.77 11.6016 1321.34 10.4023C1322.91 9.2031 1325 9.07182 1326.91 8.97247H1335.26V12.5667C1332.98 12.595 1330.69 12.5063 1328.42 12.6199C1324.77 12.8753 1325.98 17.1436 1325.76 19.5883L1325.83 19.7479H1333.61C1333.63 19.7834 1333.56 19.8047 1333.56 19.8189V23.9949H1325.83L1325.76 48.6717H1319.22Z" fill="black"/>
<path d="M1389.79 16.3135C1391.78 16.1857 1394.04 16.5831 1395.58 17.9101C1398.03 20.0105 1398.56 24.2114 1398.69 27.2379C1398.93 32.7622 1398.55 41.2882 1391.23 41.7211C1382.87 42.2143 1382.06 33.5889 1382.33 27.3302C1382.53 22.3168 1383.72 16.6966 1389.79 16.3135H1389.79ZM1390.45 20.0425C1388.69 20.0886 1388.74 22.8028 1388.67 24.0624C1388.52 26.9754 1388.58 30.1012 1388.67 33.0177C1388.71 34.1211 1388.66 36.4948 1389.33 37.357C1389.81 37.9708 1390.64 38.1624 1391.28 37.6586C1392.34 36.8283 1392.26 33.6386 1392.3 32.3649C1392.38 29.5654 1392.4 26.7199 1392.25 23.924C1392.18 22.6609 1392.33 19.9928 1390.46 20.0425H1390.45Z" fill="black"/>
<path d="M1351.95 29.3597H1342.94C1342.88 29.4023 1342.88 29.4519 1342.87 29.5193C1342.81 30.0657 1342.91 30.6583 1342.92 31.1976C1342.96 32.6878 1342.93 34.2347 1343.17 35.7107C1343.37 36.9561 1343.9 38.0666 1345.38 37.9353C1346.86 37.804 1346.98 36.5338 1347.01 35.3772H1351.33C1351.37 37.428 1350.82 39.5674 1348.98 40.7135C1346.97 41.9624 1343.3 42.0653 1341.19 41.0292C1336.79 38.8614 1336.37 31.6659 1336.57 27.4224C1336.83 21.8484 1338.64 15.9374 1345.43 16.2957C1352.23 16.6541 1352.02 24.3569 1351.94 29.3597H1351.95ZM1342.92 25.8152H1346.85C1346.92 25.7726 1346.91 25.7229 1346.92 25.6555C1346.98 25.1197 1346.91 24.0802 1346.87 23.5089C1346.79 22.3452 1346.73 20.2944 1345.24 20.0922C1342.87 19.7728 1343.08 22.3026 1342.92 23.8779V25.8152H1342.92Z" fill="black"/>
<path d="M1385.73 11.6655C1386.45 12.3715 1387.19 13.106 1387.82 13.8972C1387.91 14.0107 1388.39 14.5713 1388.3 14.6671H1388.18C1382.09 10.154 1374.69 7.08494 1367.11 6.13761C1359.42 5.17964 1349.08 6.35404 1344.52 13.3827C1344.44 13.514 1344 14.3265 1343.93 14.3301C1343.87 14.3123 1343.82 14.2662 1343.78 14.2165C1343.48 13.8866 1343.02 13.0599 1342.78 12.6447C1341.68 10.7465 1340.56 8.06066 1340.39 5.86796C1340.35 5.3393 1340.45 5.32511 1340.81 4.98804C1343.47 2.52214 1347.45 1.06034 1351 0.453627C1362.84 -1.57231 1377.24 3.36658 1385.73 11.6655H1385.73Z" fill="black"/>
<path d="M1408.04 8.97595V36.7998C1408.04 36.8317 1408.18 37.2717 1408.21 37.3356C1408.56 38.1658 1409.61 38.2226 1410.4 38.2226V41.4868H1405.95C1402.99 41.2633 1402 39.3189 1401.88 36.6153V8.97595H1408.05H1408.04Z" fill="black"/>
<path d="M1366.85 16.7639V21.8944C1365.34 21.3587 1363.78 21.1848 1362.18 21.4332C1361.76 21.5006 1361.24 21.6212 1360.93 21.9157V41.4832H1354.82V16.6468L1354.89 16.5759H1359.85L1360.23 17.7432C1361.03 17.0726 1362.12 16.5475 1363.17 16.3949C1364.41 16.2175 1365.71 16.2211 1366.86 16.7639H1366.85Z" fill="black"/>
<path d="M1380.87 16.764V21.8945C1379.35 21.3694 1377.8 21.1778 1376.19 21.4333C1375.76 21.5042 1375.26 21.6036 1374.94 21.9158V41.4833H1368.83V16.5795H1373.86L1374.19 17.7007C1374.27 17.7681 1374.72 17.3565 1374.83 17.2891C1375.84 16.6576 1377.01 16.3524 1378.21 16.2992C1379.15 16.2566 1380.01 16.3808 1380.87 16.7676V16.764Z" fill="black"/>
<path d="M1419 16.5796V41.4869H1412.89V16.647L1412.96 16.5796H1419Z" fill="black"/>
<path d="M1419 8.97595V14.6209H1412.89V9.04691L1412.96 8.97595H1418.88C1418.91 8.97595 1418.95 9.01498 1419 8.97595Z" fill="black"/>
</svg>
