<svg width="19" height="20" viewBox="0 0 19 20" fill="none" xmlns="http://www.w3.org/2000/svg">
<path d="M9.5 0.406738C4.25328 0.406738 0 4.66002 0 9.90674C0 15.1535 4.25328 19.4067 9.5 19.4067C14.7467 19.4067 19 15.1535 19 9.90674C19 4.66002 14.7467 0.406738 9.5 0.406738ZM9.5 2.24545C13.7341 2.24545 17.1613 5.672 17.1613 9.90674C17.1613 14.1408 13.7347 17.568 9.5 17.568C5.26591 17.568 1.83871 14.1415 1.83871 9.90674C1.83871 5.67265 5.26526 2.24545 9.5 2.24545ZM14.8707 7.23551L14.0074 6.36527C13.8287 6.18504 13.5376 6.18385 13.3574 6.36266L7.94269 11.7338L5.65227 9.42484C5.47349 9.24461 5.18244 9.24342 5.00221 9.4222L4.13193 10.2855C3.95169 10.4643 3.95051 10.7553 4.12932 10.9356L7.60682 14.4412C7.7856 14.6215 8.07665 14.6226 8.25688 14.4438L14.8682 7.88561C15.0483 7.7068 15.0495 7.41575 14.8707 7.23551Z" fill="#F2B821"/>
</svg>
