<svg width="20" height="20" viewBox="0 0 20 20" fill="none" xmlns="http://www.w3.org/2000/svg">
<path d="M10 0.5C4.75328 0.5 0.5 4.75328 0.5 10C0.5 15.2467 4.75328 19.5 10 19.5C15.2467 19.5 19.5 15.2467 19.5 10C19.5 4.75328 15.2467 0.5 10 0.5ZM10 2.33871C14.2341 2.33871 17.6613 5.76526 17.6613 10C17.6613 14.2341 14.2347 17.6613 10 17.6613C5.76591 17.6613 2.33871 14.2347 2.33871 10C2.33871 5.76591 5.76526 2.33871 10 2.33871ZM15.3707 7.32878L14.5074 6.45853C14.3287 6.2783 14.0376 6.27711 13.8574 6.45593L8.44269 11.8271L6.15227 9.5181C5.97349 9.33787 5.68244 9.33669 5.50221 9.51546L4.63193 10.3787C4.45169 10.5575 4.45051 10.8486 4.62932 11.0288L8.10682 14.5345C8.28559 14.7147 8.57665 14.7159 8.75688 14.5371L15.3682 7.97888C15.5483 7.80006 15.5495 7.50901 15.3707 7.32878Z" fill="#F2B821"/>
</svg>
