<svg width="19" height="20" viewBox="0 0 19 20" fill="none" xmlns="http://www.w3.org/2000/svg">
<path d="M9.5 0.47998C4.25328 0.47998 0 4.73326 0 9.97998C0 15.2267 4.25328 19.48 9.5 19.48C14.7467 19.48 19 15.2267 19 9.97998C19 4.73326 14.7467 0.47998 9.5 0.47998ZM9.5 2.31869C13.7341 2.31869 17.1613 5.74524 17.1613 9.97998C17.1613 14.2141 13.7347 17.6413 9.5 17.6413C5.26591 17.6413 1.83871 14.2147 1.83871 9.97998C1.83871 5.74589 5.26526 2.31869 9.5 2.31869ZM14.8707 7.30876L14.0074 6.43851C13.8287 6.25828 13.5376 6.25709 13.3574 6.43591L7.94269 11.8071L5.65227 9.49809C5.47349 9.31785 5.18244 9.31667 5.00221 9.49544L4.13193 10.3587C3.95169 10.5375 3.95051 10.8285 4.12932 11.0088L7.60682 14.5145C7.78559 14.6947 8.07665 14.6959 8.25688 14.5171L14.8682 7.95886C15.0483 7.78004 15.0495 7.48899 14.8707 7.30876Z" fill="#F2B821"/>
</svg>
