<svg width="20" height="20" viewBox="0 0 20 20" fill="none" xmlns="http://www.w3.org/2000/svg">
<path d="M10 0.777344C4.75328 0.777344 0.5 5.03062 0.5 10.2773C0.5 15.5241 4.75328 19.7773 10 19.7773C15.2467 19.7773 19.5 15.5241 19.5 10.2773C19.5 5.03062 15.2467 0.777344 10 0.777344ZM10 2.61605C14.2341 2.61605 17.6613 6.0426 17.6613 10.2773C17.6613 14.5114 14.2347 17.9386 10 17.9386C5.76591 17.9386 2.33871 14.5121 2.33871 10.2773C2.33871 6.04326 5.76526 2.61605 10 2.61605ZM15.3707 7.60612L14.5074 6.73587C14.3287 6.55564 14.0376 6.55445 13.8574 6.73327L8.44269 12.1044L6.15227 9.79545C5.97349 9.61522 5.68244 9.61403 5.50221 9.79281L4.63193 10.6561C4.45169 10.8349 4.45051 11.1259 4.62932 11.3062L8.10682 14.8118C8.2856 14.9921 8.57665 14.9933 8.75688 14.8144L15.3682 8.25622C15.5483 8.0774 15.5495 7.78635 15.3707 7.60612Z" fill="#F2B821"/>
</svg>
