<svg width="35" height="35" viewBox="0 0 35 35" fill="none" xmlns="http://www.w3.org/2000/svg">
<path d="M18.263 0.408203L19.56 0.54337C26.9373 1.498 32.9391 7.29689 34.1839 14.673L34.411 16.4434V18.8079L34.1839 20.5783C32.9391 27.9526 26.9015 33.783 19.5173 34.708L18.135 34.8432H16.4689L14.5323 34.6211C6.95049 33.399 1.02186 27.0384 0.278443 19.3451L0.192419 18.0774C0.20151 17.7637 0.180071 17.4455 0.192419 17.1317C0.543301 8.22107 7.4471 0.854524 16.3833 0.408203H18.263ZM21.8088 15.4548C22.1451 13.9107 22.216 12.3095 21.7771 10.7789C20.925 7.80875 18.1855 5.60527 15.358 4.66443C15.639 5.68842 15.8071 6.80361 15.6993 7.86596C15.0396 14.3502 5.94995 15.5098 6.64371 22.7408C7.07885 27.2751 11.1627 29.8302 15.2723 30.5434C13.6593 28.7248 12.139 26.338 12.4581 23.7781C12.7772 21.2183 14.9554 18.9864 17.1943 17.7327C16.5224 19.4079 17.312 21.1318 18.3314 22.4572C19.2699 23.6775 20.4069 24.2302 20.6499 25.9274C20.8031 26.9962 20.4548 28.2165 20.0083 29.1833C19.7974 29.64 19.5069 30.0493 19.2883 30.5004C21.3147 30.3834 23.4377 29.2001 24.9277 27.8574C29.5733 23.671 28.6006 17.8329 24.266 13.8626C24.1783 13.782 23.7761 13.3967 23.6881 13.4523C23.1909 14.2305 22.5737 14.9355 21.8088 15.4542V15.4548Z" fill="#05213C"/>
</svg>
