<svg width="35" height="35" viewBox="0 0 35 35" fill="none" xmlns="http://www.w3.org/2000/svg">
<path d="M18.263 0.408356L19.56 0.543523C26.9373 1.49815 32.9391 7.29705 34.1839 14.6732L34.411 16.4436V18.808L34.1839 20.5784C32.9391 27.9527 26.9015 33.7832 19.5173 34.7082L18.135 34.8433H16.4689L14.5323 34.6212C6.95049 33.3991 1.02186 27.0385 0.278443 19.3453L0.192419 18.0776C0.20151 17.7638 0.180071 17.4457 0.192419 17.1318C0.543301 8.22123 7.4471 0.854677 16.3833 0.408356H18.263ZM21.8088 15.4549C22.1451 13.9109 22.216 12.3097 21.7771 10.779C20.925 7.8089 18.1855 5.60542 15.358 4.66458C15.639 5.68857 15.8071 6.80376 15.6993 7.86611C15.0396 14.3504 5.94995 15.51 6.64371 22.7409C7.07885 27.2753 11.1627 29.8303 15.2723 30.5436C13.6593 28.725 12.139 26.3381 12.4581 23.7783C12.7772 21.2185 14.9554 18.9866 17.1943 17.7328C16.5224 19.4081 17.312 21.1319 18.3314 22.4574C19.2699 23.6777 20.4069 24.2303 20.6499 25.9276C20.8031 26.9963 20.4548 28.2167 20.0083 29.1834C19.7974 29.6401 19.5069 30.0495 19.2883 30.5006C21.3147 30.3835 23.4377 29.2002 24.9277 27.8576C29.5733 23.6711 28.6006 17.833 24.266 13.8627C24.1783 13.7822 23.7761 13.3969 23.6881 13.4524C23.1909 14.2307 22.5737 14.9357 21.8088 15.4544V15.4549Z" fill="#05213C"/>
</svg>
