<svg width="198" height="36" viewBox="0 0 198 36" fill="none" xmlns="http://www.w3.org/2000/svg">
<path d="M0 17.8422C0 14.4249 0.702089 11.3855 2.10624 8.72395C3.54307 6.0295 5.56767 3.94303 8.18005 2.46439C10.7925 0.952853 13.7967 0.197151 17.1929 0.197151C21.5033 0.197151 25.128 1.36367 28.0669 3.69659C31.0059 5.99673 32.8998 9.13463 33.7489 13.1106H23.4136C22.7931 11.7962 21.9277 10.794 20.8176 10.104C19.7399 9.41397 18.4827 9.06896 17.0459 9.06896C14.8253 9.06896 13.0456 9.87395 11.7068 11.4841C10.4006 13.0613 9.74749 15.1806 9.74749 17.8422C9.74749 20.5366 10.4006 22.6888 11.7068 24.2989C13.0456 25.8761 14.8253 26.6647 17.0459 26.6647C18.4827 26.6647 19.7399 26.3197 20.8176 25.6297C21.9277 24.9396 22.7931 23.9375 23.4136 22.6231H33.7489C32.8998 26.599 31.0059 29.7535 28.0669 32.0864C25.128 34.3865 21.5033 35.5365 17.1929 35.5365C13.7967 35.5365 10.7925 34.7972 8.18005 33.3186C5.56767 31.807 3.54307 29.7206 2.10624 27.059C0.702089 24.3646 0 21.2923 0 17.8422ZM54.8511 35.6351C51.6182 35.6351 48.6466 34.8794 45.9363 33.3679C43.226 31.8235 41.0707 29.7042 39.4706 27.0097C37.9032 24.2825 37.1195 21.2101 37.1195 17.7929C37.1195 14.3757 37.9032 11.3198 39.4706 8.62537C41.0707 5.89816 43.226 3.77878 45.9363 2.26724C48.6466 0.755701 51.6182 0 54.8511 0C58.1166 0 61.0881 0.755701 63.7659 2.26724C66.4762 3.77878 68.6151 5.89816 70.1825 8.62537C71.75 11.3198 72.5337 14.3757 72.5337 17.7929C72.5337 21.2101 71.75 24.2825 70.1825 27.0097C68.6151 29.7042 66.4762 31.8235 63.7659 33.3679C61.0555 34.8794 58.0839 35.6351 54.8511 35.6351ZM54.8511 26.6647C57.3002 26.6647 59.2268 25.8597 60.631 24.2496C62.0678 22.6395 62.7862 20.4874 62.7862 17.7929C62.7862 15.0328 62.0678 12.8641 60.631 11.2869C59.2268 9.6768 57.3002 8.87181 54.8511 8.87181C52.3693 8.87181 50.4264 9.6768 49.0222 11.2869C47.618 12.8641 46.9159 15.0328 46.9159 17.7929C46.9159 20.5201 47.618 22.6888 49.0222 24.2989C50.4264 25.8761 52.3693 26.6647 54.8511 26.6647ZM108.835 35.2901H99.2344L86.45 15.8707V35.2901H76.8494V0.542165H86.45L99.2344 20.208V0.542165H108.835V35.2901ZM123.904 8.28035V13.9485H134.925V21.2923H123.904V27.5519H136.395V35.2901H114.304V0.542165H136.395V8.28035H123.904ZM154.168 35.6351C150.152 35.6351 146.853 34.6822 144.274 32.7764C141.694 30.8378 140.306 28.0777 140.11 24.496H150.347C150.445 25.7119 150.804 26.599 151.424 27.1576C152.046 27.7161 152.845 27.9955 153.825 27.9955C154.707 27.9955 155.426 27.7819 155.981 27.3547C156.568 26.8948 156.863 26.2704 156.863 25.4818C156.863 24.4631 156.389 23.6745 155.442 23.116C154.495 22.5574 152.96 21.9331 150.837 21.243C148.585 20.4873 146.756 19.7644 145.351 19.0744C143.979 18.3515 142.772 17.3164 141.727 15.9693C140.715 14.5892 140.209 12.7985 140.209 10.5969C140.209 8.36255 140.764 6.4567 141.874 4.87949C142.983 3.26938 144.518 2.0537 146.477 1.23219C148.437 0.410685 150.658 0 153.14 0C157.156 0 160.357 0.952853 162.741 2.85869C165.157 4.73163 166.446 7.37679 166.609 10.794H156.176C156.144 9.7426 155.817 8.954 155.197 8.42822C154.609 7.90244 153.841 7.63961 152.894 7.63961C152.176 7.63961 151.589 7.85315 151.131 8.28035C150.674 8.70756 150.445 9.3154 150.445 10.104C150.445 10.7611 150.69 11.3362 151.18 11.8291C151.703 12.2891 152.339 12.6999 153.091 13.0613C153.841 13.3899 154.952 13.817 156.422 14.3428C158.609 15.0985 160.405 15.8543 161.81 16.61C163.247 17.3329 164.471 18.368 165.483 19.7151C166.528 21.0295 167.05 22.7053 167.05 24.7425C167.05 26.8126 166.528 28.6691 165.483 30.312C164.471 31.9549 162.985 33.2529 161.026 34.2057C159.099 35.1586 156.813 35.6351 154.168 35.6351ZM197.524 0.542165V8.23107H188.315V35.2901H178.713V8.23107H169.604V0.542165H197.524Z" fill="#05213C"/>
</svg>
