<svg width="23" height="28" viewBox="0 0 23 28" fill="none" xmlns="http://www.w3.org/2000/svg">
<path d="M15.6966 11.8107C16.1392 11.494 16.5685 11.1102 16.9253 10.7017C17.0771 10.5277 17.4462 9.93868 17.561 9.85246C17.6978 9.74991 17.993 10.0343 18.1136 10.1375C20.8425 12.4716 22.6703 16.1473 21.826 19.7631C20.9634 23.4575 17.1052 26.5517 13.3676 27.0621L14.2229 26.453C17.5408 23.3319 14.5936 19.5843 13.0368 16.5045C12.0773 14.6069 11.2552 12.5978 11.0382 10.4642L10.7012 12.3679C10.4399 13.3943 10.0836 14.398 9.64056 15.3599C8.17208 18.5497 4.39839 22.8772 7.58923 26.2375C7.89456 26.5591 8.26893 26.7997 8.62221 27.0621C4.50451 26.2954 0.48581 23.6612 0.0546164 19.2188C-0.649667 11.9551 8.65647 10.704 9.36868 4.2281C9.49065 3.12007 9.28553 2.01894 9.01768 0.948242C12.1442 1.93193 15.1476 4.42297 15.8074 7.72514C16.0741 9.0598 15.9962 10.489 15.6966 11.8111V11.8107Z" fill="#F2B821"/>
</svg>
