<svg width="23" height="28" viewBox="0 0 23 28" fill="none" xmlns="http://www.w3.org/2000/svg">
<path d="M15.6966 11.8108C16.1392 11.4941 16.5685 11.1103 16.9253 10.7018C17.0771 10.5278 17.4462 9.93878 17.561 9.85256C17.6978 9.75001 17.993 10.0344 18.1136 10.1376C20.8425 12.4717 22.6703 16.1474 21.826 19.7632C20.9634 23.4576 17.1052 26.5518 13.3676 27.0622L14.2229 26.4531C17.5408 23.332 14.5936 19.5844 13.0368 16.5046C12.0773 14.607 11.2552 12.5979 11.0382 10.4643L10.7012 12.368C10.4399 13.3944 10.0836 14.3981 9.64056 15.36C8.17208 18.5498 4.39839 22.8773 7.58923 26.2376C7.89456 26.5592 8.26893 26.7998 8.62221 27.0622C4.50451 26.2955 0.48581 23.6613 0.0546164 19.2189C-0.649667 11.9552 8.65647 10.7041 9.36868 4.22819C9.49065 3.12016 9.28553 2.01904 9.01768 0.948341C12.1442 1.93203 15.1476 4.42307 15.8074 7.72524C16.0741 9.0599 15.9962 10.4891 15.6966 11.8112V11.8108Z" fill="#F2B821"/>
</svg>
