<svg width="23" height="27" viewBox="0 0 23 27" fill="none" xmlns="http://www.w3.org/2000/svg">
<path d="M15.6956 11.2169C16.1383 10.9002 16.5676 10.5165 16.9243 10.108C17.0761 9.93395 17.4453 9.34493 17.56 9.25871C17.6969 9.15616 17.992 9.44057 18.1126 9.54379C20.8415 11.8778 22.6693 15.5535 21.825 19.1693C20.9624 22.8638 17.1042 25.9579 13.3667 26.4683L14.2219 25.8592C17.5398 22.7381 14.5927 18.9905 13.0358 15.9107C12.0763 14.0131 11.2542 12.004 11.0373 9.87045L10.7002 11.7742C10.439 12.8005 10.0826 13.8043 9.63958 14.7662C8.1711 17.956 4.39742 22.2834 7.58825 25.6438C7.89358 25.9654 8.26795 26.2059 8.62124 26.4683C4.50354 25.7017 0.484834 23.0674 0.0536398 18.6251C-0.650644 11.3613 8.65549 10.1102 9.3677 3.63435C9.48967 2.52632 9.28455 1.42519 9.0167 0.354492C12.1432 1.33818 15.1466 3.82922 15.8065 7.13139C16.0731 8.46605 15.9952 9.89529 15.6956 11.2173V11.2169Z" fill="#F2B821"/>
</svg>
