<svg width="23" height="27" viewBox="0 0 23 27" fill="none" xmlns="http://www.w3.org/2000/svg">
<path d="M15.6966 11.3108C16.1392 10.9941 16.5685 10.6103 16.9253 10.2018C17.0771 10.0278 17.4462 9.43877 17.561 9.35256C17.6978 9.25 17.993 9.53442 18.1136 9.63763C20.8425 11.9717 22.6703 15.6474 21.826 19.2632C20.9634 22.9576 17.1052 26.0518 13.3676 26.5622L14.2229 25.9531C17.5408 22.832 14.5936 19.0844 13.0368 16.0046C12.0773 14.1069 11.2552 12.0979 11.0382 9.96429L10.7012 11.868C10.4399 12.8944 10.0836 13.8981 9.64056 14.86C8.17208 18.0498 4.39839 22.3773 7.58923 25.7376C7.89456 26.0592 8.26893 26.2998 8.62221 26.5622C4.50451 25.7955 0.48581 23.1613 0.0546164 18.7189C-0.649667 11.4552 8.65647 10.2041 9.36868 3.72819C9.49065 2.62016 9.28553 1.51903 9.01768 0.448334C12.1442 1.43202 15.1476 3.92306 15.8074 7.22523C16.0741 8.55989 15.9962 9.98913 15.6966 11.3112V11.3108Z" fill="#F2B821"/>
</svg>
