<svg width="23" height="28" viewBox="0 0 23 28" fill="none" xmlns="http://www.w3.org/2000/svg">
<path d="M15.6956 11.8108C16.1383 11.4941 16.5676 11.1103 16.9243 10.7018C17.0761 10.5278 17.4453 9.93877 17.56 9.85256C17.6969 9.75 17.992 10.0344 18.1126 10.1376C20.8415 12.4717 22.6693 16.1474 21.825 19.7632C20.9624 23.4576 17.1042 26.5518 13.3667 27.0622L14.2219 26.4531C17.5398 23.332 14.5927 19.5844 13.0358 16.5046C12.0763 14.6069 11.2542 12.5979 11.0373 10.4643L10.7002 12.368C10.439 13.3944 10.0826 14.3981 9.63958 15.36C8.1711 18.5498 4.39742 22.8773 7.58825 26.2376C7.89358 26.5592 8.26795 26.7998 8.62124 27.0622C4.50354 26.2955 0.484834 23.6613 0.0536398 19.2189C-0.650644 11.9552 8.65549 10.7041 9.3677 4.22819C9.48967 3.12016 9.28455 2.01903 9.0167 0.948334C12.1432 1.93202 15.1466 4.42306 15.8065 7.72523C16.0731 9.05989 15.9952 10.4891 15.6956 11.8112V11.8108Z" fill="#F2B821"/>
</svg>
