<svg width="340" height="491" viewBox="0 0 340 491" fill="none" xmlns="http://www.w3.org/2000/svg">
<g opacity="0.5">
<path d="M173.602 9.58057L176.579 17.7379L179.715 9.58057H189.428V28.2816H183.006V18.6602L178.737 28.2861L174.476 28.2681L170.312 18.8169V28.2816H163.967V9.58057H173.602Z" fill="black"/>
<path d="M234.392 18.6602V9.58057H241.365V28.2816H234.196L226.558 19.2019V28.2816H219.271V9.58057H226.44L234.392 18.6602Z" fill="black"/>
<path d="M262.047 18.6602V9.58057H268.938V28.2816H261.733L254.132 19.2019V28.2816H246.85V9.58057H254.014L262.047 18.6602Z" fill="black"/>
<path d="M159.425 0.0398892V5.27367H144.737C144.615 5.27367 144.096 5.51095 143.986 5.61393C143.468 6.1288 143.895 6.88096 144.537 7.00632C148.797 7.48537 156.417 5.63184 159.257 9.71051C161.055 12.2938 160.381 16.6143 157.696 18.3872C157.036 18.8215 155.302 19.511 154.532 19.511H138.197V14.125H153.354C153.449 14.125 153.822 13.9145 153.9 13.816C154.332 13.2654 154.023 12.3878 153.335 12.2177C150.136 12.0252 146.736 12.4147 143.563 12.1998C139.235 11.9088 136.986 8.52855 137.933 4.44092C139.121 -0.68093 144.792 0.0219806 148.807 0.0443663C152.348 0.0622749 155.889 0.0219806 159.425 0.0443663V0.0398892Z" fill="black"/>
<path d="M159.424 21.969V27.2028H144.813C144.727 27.2028 144.117 27.4311 144.026 27.5072C143.307 28.1519 144.053 28.9086 144.809 28.9757C149.128 29.3518 156.684 27.5968 159.41 31.8724C160.771 34.008 160.43 37.6614 158.682 39.5149C157.867 40.379 155.805 41.4356 154.608 41.4356H138.195V36.1257H153.038C153.179 36.1257 153.702 35.9287 153.821 35.8213C154.371 35.3198 154.053 34.2811 153.316 34.1602C150.098 33.9319 146.675 34.3438 143.475 34.1289C140.535 33.9319 138.245 32.1545 137.808 29.2309C137.371 26.3073 138.605 23.5763 141.482 22.4704C141.809 22.3451 143.034 21.969 143.32 21.969H159.419H159.424Z" fill="black"/>
<path d="M134.904 9.58057V14.4293H122.214V16.3545H132.591L132.71 16.4709V20.8182H122.332L122.214 20.9301V23.0478H135.45V28.2816H115.318V9.58057H134.904Z" fill="black"/>
<path d="M217.47 28.2815H209.755L208.062 25.0177L207.803 24.8878L200.211 24.9057L198.436 28.277H190.68L200.352 9.57153L207.875 9.65212L217.47 28.2725V28.2815ZM202.118 19.8913H206.037L204.038 16.1216L202.118 19.8913Z" fill="black"/>
<path d="M79.8359 9.58057L85.63 21.1226L91.2694 9.58057H99.4985L89.5079 28.2816L89.2803 28.3622L81.2423 28.3174L71.0605 9.58057H79.8359Z" fill="black"/>
<path d="M109.371 9.58057H102.084V28.2771H109.371V9.58057Z" fill="black"/>
<path fill-rule="evenodd" clip-rule="evenodd" d="M82.9195 71.9667L71.2184 82.7002C70.7931 83.0889 70.5508 83.6397 70.5508 84.2183V100.455C70.5508 101.589 71.4607 102.51 72.581 102.51H96.1935C97.3092 102.51 98.2191 101.589 98.2191 100.455V84.2229C98.2191 83.6397 97.9722 83.0797 97.5378 82.6909L85.6264 71.9528C84.8536 71.2585 83.6831 71.2632 82.9149 71.9667H82.9195ZM84.2866 75.5862C86.3946 77.4885 93.6192 84.0008 94.744 85.0098V99.0665H74.0259V85.0005C75.1279 83.9869 82.197 77.5024 84.2912 75.5862H84.2866Z" fill="black"/>
<path fill-rule="evenodd" clip-rule="evenodd" d="M84.2951 83.348C83.3303 84.2321 80.0701 87.2221 79.5625 87.6849V94.1694H89.1145V87.6942C88.5932 87.2267 85.2644 84.2275 84.2951 83.348ZM201.484 82.5751V86.4399H209.075V100.959H213.236V86.4399H220.639V82.5751H201.484ZM265.385 82.5751V95.632L253.991 83.7229C252.98 82.6445 251.805 82.2002 250.493 82.4085C249.304 82.5936 248.531 83.5795 248.531 84.9125V100.964H252.605V87.9071L263.812 99.6311C264.974 100.871 266.03 101.344 267.237 101.172C269.222 100.885 269.45 99.4043 269.45 98.3166V82.5751H265.376H265.385ZM222.637 91.7441C222.637 99.7144 226.601 101.27 233.739 101.27C240.877 101.27 244.836 99.7144 244.836 91.7441C244.836 83.7739 240.872 82.2187 233.739 82.2187C226.606 82.2187 222.637 83.7739 222.637 91.7441ZM240.442 91.7441C240.442 97.0576 238.142 97.3029 233.739 97.3029C229.336 97.3029 227.031 97.0576 227.031 91.7441C227.031 86.4306 229.326 86.1853 233.739 86.1853C238.151 86.1853 240.442 86.4306 240.442 91.7441ZM169.257 100.955H173.386V82.5751H169.257V100.955ZM160.24 93.975C162.833 93.3271 164.305 91.3276 164.305 88.5967C164.305 84.8801 161.882 82.5705 157.981 82.5705H144.991V100.95H149.065V94.3916H155.668L160.24 100.95H165.023L160.24 93.9704V93.975ZM149.065 86.389H157.41C159.865 86.389 160.162 87.5183 160.162 88.5829C160.162 89.6474 159.842 90.7953 157.423 90.7953H149.069V86.389H149.065ZM190.35 89.4021H186.701C183.574 89.4021 182.934 88.805 182.934 87.671C182.934 86.2918 185.028 85.7595 187.982 85.7595C190.579 85.7595 193.034 86.2038 195.874 87.5507L198.055 84.4404C194.955 82.5473 191.882 81.8577 188.009 81.8577C182.092 81.8577 178.553 84.1071 178.553 87.8747C178.553 91.9802 181.909 93.3826 186.23 93.3409H190.245C194.196 93.3409 194.722 93.7992 194.722 95.3219C194.722 96.8447 192.536 97.7704 189.015 97.7704C185.919 97.7704 182.737 97.1548 179.943 95.2618L177.73 98.4462C180.698 100.834 184.356 101.658 188.992 101.658C195.462 101.658 199.175 99.2747 199.175 95.1229C199.175 91.3044 196.203 89.3975 190.341 89.3975L190.35 89.4021ZM129.682 82.0289C128.841 82.0289 128.013 82.4223 127.615 83.075L116.838 100.964H121.685L123.655 97.6038H135.704L137.675 100.964H142.522L131.744 83.075C131.346 82.4177 130.519 82.0289 129.673 82.0289H129.682ZM129.687 87.3378C129.828 87.5831 131.781 90.9156 133.724 94.2204H125.649C125.649 94.2204 129.54 87.5877 129.687 87.3378Z" fill="black"/>
<path d="M127.506 170.343L127.72 169.894L134.941 142.902C135.096 142.592 135.365 142.345 135.711 142.255C137.419 142.363 139.337 142.098 141.018 142.246C141.652 142.305 141.884 142.754 141.729 143.347L131.583 176.118C131.369 176.54 131.023 176.702 130.554 176.747C128.558 176.922 126.312 176.607 124.289 176.747C123.911 176.702 123.588 176.45 123.415 176.122L113.232 143.068C113.255 142.606 113.506 142.296 113.984 142.246C115.67 142.076 117.661 142.386 119.378 142.246C119.875 142.305 120.157 142.7 120.285 143.149L127.501 170.339L127.506 170.343Z" fill="black"/>
<path d="M96.6031 149.736C96.4755 149.664 96.6213 149.323 96.6623 149.22C97.1179 148.016 98.1475 146.575 98.7261 145.322C99.7011 143.212 100.785 140.333 101.173 138.052C101.259 137.549 101.61 134.846 100.494 135.982C99.9289 136.557 99.3548 138.048 99.0177 138.82C97.4049 142.516 96.0382 146.328 95.1042 150.253C95.1134 150.549 96.1247 151.245 96.4027 151.537C98.1111 153.329 98.7352 155.3 98.5029 157.743C98.225 160.635 97.1999 163.499 97.6327 166.445L102.895 166.158C103.359 166.239 103.56 166.715 103.122 166.975C100.553 167.182 97.9653 167.267 95.3867 167.388C95.1225 166.36 93.2865 166.27 93.8787 164.972C94.1521 164.371 95.3685 163.257 95.8423 162.615C97.2181 160.765 97.8879 158.758 97.2774 156.458C96.4801 153.45 94.1749 154.761 92.9266 156.62C91.4505 158.825 90.5712 162.291 90.8218 164.923C90.9311 166.05 91.9789 166.8 91.9607 167.707C91.9379 168.758 90.9539 168.726 90.5803 169.449C89.9744 170.612 91.2637 171.645 92.3662 171.753C93.8241 171.897 95.004 171.376 95.4687 169.957L100.685 170.195C100.927 170.302 101.501 170.217 101.656 170.37C101.833 170.545 101.797 171.03 101.473 171.052C99.8423 171.012 98.2022 170.873 96.5758 170.751C95.5644 172.251 94.102 173.45 92.5074 174.317C90.4801 175.422 89.4003 175.61 87.2773 174.582C85.4869 173.715 83.8377 172.346 82.685 170.751L78.5802 171.057C78.2477 171.007 77.5825 171.218 77.5096 170.778C77.4641 170.509 77.5278 170.356 77.8058 170.293C79.7967 170.132 81.8012 170.078 83.7967 169.961C84.2841 171.353 85.5233 171.919 86.9812 171.762C88.1019 171.641 89.414 170.496 88.6395 169.346C88.2477 168.767 87.4003 168.654 87.3365 167.819C87.2728 166.957 88.1384 166.328 88.3753 165.561C89.1725 162.952 87.4277 156.988 85.1953 155.264C83.3548 153.84 82.1794 155.206 81.8832 157.06C81.5415 159.193 82.2477 161.021 83.5051 162.705C83.9835 163.342 85.0222 164.267 85.3457 164.869C86.0883 166.243 84.2295 166.333 83.8787 167.397L78.4208 167.164C77.7374 166.962 76.7944 167.218 76.1429 166.984C75.742 166.84 75.8741 166.167 76.3616 166.221C77.578 166.297 78.7898 166.328 80.0062 166.378C80.2887 166.391 81.4504 166.589 81.5962 166.378C81.6782 166.261 81.7192 164.716 81.7101 164.46C81.5233 159.678 78.8855 155.493 82.9766 151.425C83.2545 151.146 84.0655 150.666 84.0974 150.333C83.6099 148.111 82.9721 145.915 82.1885 143.777C81.4322 141.707 80.3434 138.69 79.2682 136.822C78.0791 134.761 77.783 136.054 78.0017 137.679C78.4071 140.742 80.0062 144.433 81.4322 147.177C81.6828 147.657 82.7716 149.269 82.6668 149.7C82.6349 149.777 82.4664 149.822 82.3935 149.813C81.906 149.741 81.1543 148.528 80.8809 148.111C78.603 144.617 76.2613 138.196 76.6349 134.033C77.0176 129.776 80.685 135.686 81.3411 136.732C83.8286 140.697 85.988 145.066 87.6053 149.444L88.0017 149.525C89.0814 149.359 90.1703 149.386 91.25 149.525L91.5188 149.395C92.5712 146.458 93.8969 143.611 95.3685 140.854C96.307 139.098 99.3867 133.472 101.013 132.677C102.07 132.161 102.444 133.157 102.535 134.038C102.958 138.191 100.653 144.541 98.3753 148.03C98.143 148.389 97.1316 150.055 96.6031 149.745V149.736ZM91.6828 173.154C90.9265 172.97 90.2842 172.507 89.7284 171.986C89.0814 172.413 88.4983 172.961 87.7192 173.154C88.717 174.299 90.6851 174.299 91.6828 173.154Z" fill="black"/>
<path d="M215.864 174.398C213.185 176.962 209.59 178.111 205.877 177.325C201.258 176.347 199.782 171.623 200.798 167.482C202.319 161.277 210.251 161.793 215.308 161.833V159.611C215.308 158.735 214.775 157.55 214.014 157.06C212.378 156 208.255 156.431 206.324 156.696C205.49 156.809 204.028 157.262 203.299 157.24C202.843 157.226 202.597 156.925 202.542 156.494C202.46 155.816 202.474 154.141 202.542 153.45C202.624 152.659 202.948 152.484 203.663 152.291C207.126 151.371 214.465 150.931 217.754 152.278C220.661 153.468 221.458 156.198 221.636 159.067L221.618 176.059C221.513 176.36 221.308 176.683 220.957 176.737C219.609 176.647 218.082 176.872 216.757 176.746C216.383 176.71 215.85 176.396 215.85 176.001V174.402L215.864 174.398ZM215.308 165.893C214.269 165.924 213.217 165.848 212.173 165.893C210.233 165.969 207.567 166.113 207.007 168.376C206.547 170.235 206.916 172.799 209.253 173.064C211.645 173.338 213.563 172.323 215.308 170.85V165.897V165.893Z" fill="black"/>
<path d="M154.764 159.534C154.486 156.562 152.194 156.328 149.647 156.373C147.483 156.409 145.356 156.822 143.233 157.159C142.7 157.128 142.595 156.629 142.559 156.185C142.504 155.533 142.481 153.418 142.704 152.889C142.959 152.282 143.479 152.246 144.053 152.107C147.333 151.33 153.775 150.967 156.923 152.103C160.048 153.23 160.891 155.866 161.101 158.91L161.087 176.059C160.95 176.436 160.677 176.674 160.263 176.733C159.429 176.85 157.092 176.827 156.226 176.742C155.852 176.706 155.319 176.392 155.319 175.996V174.398C153.424 176.082 151.247 177.357 148.627 177.523C144.508 177.784 141.133 176.374 140.221 172.135C139.793 170.145 139.912 167.536 140.941 165.74C143.497 161.286 150.326 161.847 154.764 161.834C154.713 161.088 154.832 160.266 154.764 159.53V159.534ZM154.764 165.893C153.748 165.924 152.723 165.852 151.711 165.893C148.322 166.019 146.08 166.459 146.363 170.388C146.527 172.687 148.098 173.248 150.208 173.073C151.966 172.929 153.438 171.897 154.764 170.85V165.897V165.893Z" fill="black"/>
<path d="M232.743 154.501L234.697 153.189C240.424 150.127 248.36 150.419 248.825 158.362C249.043 162.08 248.797 166.149 248.825 169.912C248.838 171.762 249.107 174.012 248.907 175.839C248.852 176.356 248.547 176.751 247.996 176.818C246.998 176.935 244.497 176.912 243.472 176.818C242.943 176.769 242.51 176.463 242.479 175.92C242.255 170.846 242.793 165.507 242.488 160.464C242.356 158.255 241.672 156.997 239.276 156.84C237.681 156.737 236.146 157.19 234.775 157.949C234.46 158.12 233.353 158.753 233.294 159.067V176.001C233.303 176.504 232.857 176.778 232.383 176.823C231.371 176.917 228.847 176.939 227.859 176.823C227.513 176.782 227.148 176.553 227.048 176.216C226.811 168.645 227.016 161.034 226.943 153.45C226.952 152.875 227.121 152.273 227.786 152.17C228.57 152.049 230.907 152.089 231.745 152.161C231.959 152.179 232.242 152.233 232.415 152.363C232.492 152.421 232.734 152.781 232.734 152.83V154.51L232.743 154.501Z" fill="black"/>
<path d="M101.989 142.875C102.117 142.762 102.6 143.512 102.686 143.629C108.814 151.986 110.39 164.833 105.015 173.904C97.8208 186.041 82.454 186.481 74.7775 174.546C68.5588 164.891 70.6499 151.757 77.3014 142.875L78.8185 146.346C76.6499 149.835 75.11 153.903 74.577 157.985C73.8754 163.378 74.8549 169.085 78.0668 173.567C84.2627 182.211 95.1967 182.153 101.333 173.491C107.001 165.489 105.561 154.303 100.559 146.35C101.069 145.21 101.661 144.092 101.985 142.879L101.989 142.875Z" fill="black"/>
<path d="M260.477 152.161H267.807C267.889 152.161 268.29 152.453 268.359 152.552C268.454 152.691 268.514 152.911 268.541 153.077C268.646 153.782 268.628 155.448 268.564 156.18C268.532 156.557 268.459 156.93 268.113 157.141C268.063 157.173 267.748 157.307 267.73 157.307H260.477V169.521C260.477 170.222 260.987 171.295 261.548 171.744C262.919 172.84 266.099 172.269 267.803 172.211C268.336 172.193 268.805 172.269 268.878 172.876C268.965 173.617 268.951 175.404 268.878 176.158C268.837 176.567 268.605 176.904 268.204 177.056C267.684 177.254 266.272 177.393 265.662 177.442C259.402 177.954 254.523 177.124 254.131 169.993L254.154 146.831C254.295 146.225 254.801 146.108 255.361 146.068C256.395 145.991 258.473 145.964 259.475 146.081C259.657 146.104 259.921 146.171 260.076 146.27C260.181 146.337 260.477 146.737 260.477 146.813V152.157V152.161Z" fill="black"/>
<path d="M190.794 142.269L195.764 142.255C196.234 142.368 196.457 142.781 196.512 143.234L196.525 175.534C196.498 176.091 196.316 176.639 195.687 176.738C194.27 176.953 192.334 176.589 190.862 176.738C190.393 176.625 190.17 176.212 190.115 175.759L190.102 143.382C190.147 142.884 190.293 142.462 190.794 142.269Z" fill="black"/>
<path d="M178.91 142.269L183.88 142.255C184.172 142.3 184.509 142.633 184.555 142.92L184.523 176.118C184.413 176.437 184.145 176.684 183.803 176.733C183.06 176.845 179.721 176.845 178.978 176.733C178.586 176.675 178.304 176.369 178.227 175.992L178.258 142.871C178.372 142.552 178.586 142.363 178.914 142.264L178.91 142.269Z" fill="black"/>
<path d="M167.183 152.179C168.646 152.287 170.5 151.973 171.912 152.17C172.3 152.224 172.664 152.543 172.732 152.925L172.714 176.122C172.6 176.387 172.436 176.639 172.14 176.729L167.088 176.742C166.714 176.625 166.5 176.36 166.427 175.988L166.404 153.064C166.459 152.628 166.764 152.314 167.179 152.188L167.183 152.179Z" fill="black"/>
<path d="M88.4228 135.798C90.7463 135.609 92.9695 135.96 95.0698 136.929C95.2702 137.024 96.1313 137.378 96.1131 137.594L94.5732 140.293C91.4798 138.573 87.9353 138.573 84.8419 140.293L83.2109 137.527C84.7463 136.629 86.6278 135.942 88.4228 135.793V135.798Z" fill="black"/>
<path d="M166.946 142.269C168.554 142.381 170.513 142.067 172.081 142.251C172.614 142.313 172.855 142.65 172.91 143.149C173.015 144.074 173.006 146.274 172.91 147.213C172.851 147.796 172.504 148.124 171.917 148.183C170.842 148.295 168.404 148.286 167.315 148.183C166.796 148.133 166.39 147.913 166.327 147.361C166.217 146.463 166.226 143.97 166.327 143.068C166.372 142.677 166.559 142.408 166.937 142.264L166.946 142.269Z" fill="black"/>
<path d="M94.8359 157.64C96.3758 157.397 96.2118 159.346 95.8701 160.298C95.5102 161.295 94.1708 162.79 92.9908 162.31C92.2345 162.004 92.6992 160.199 92.9316 160.123C93.1913 160.042 93.9156 160.5 94.0569 159.826C94.1844 159.207 93.4008 159.332 93.5512 158.789C93.6787 158.336 94.3667 157.711 94.845 157.64H94.8359Z" fill="black"/>
<path d="M85.8011 159.166C85.587 159.364 85.3364 159.225 85.341 159.768C85.3501 160.567 86.3524 160.082 86.4572 160.154C86.7442 160.352 87.0859 162.247 86.2521 162.381C84.3114 162.691 82.8626 159.988 83.3455 158.349C83.6189 157.433 84.6986 157.536 85.3045 158.093C85.4731 158.246 86.0152 158.969 85.8011 159.166Z" fill="black"/>
<path d="M102.421 168.237C102.849 168.354 102.776 169.234 102.184 169.13L95.5645 169.094V168.237H102.421Z" fill="black"/>
<path d="M83.8397 168.237C83.7531 168.363 83.7987 169.018 83.7622 169.018H76.9057C76.646 169.018 76.646 168.237 76.9057 168.237H83.8397Z" fill="black"/>
<path d="M94.498 256.768H92.3532C75.25 255.744 65.5464 236.369 75.7327 222.286C84.6258 209.993 103.327 210.297 111.747 222.925C121.196 237.094 111.415 255.911 94.498 256.772V256.768ZM93.1137 215.231C78.2281 215.462 68.8386 231.665 76.1425 244.624C83.1596 257.076 100.878 258.272 109.461 246.777C119.324 233.564 109.566 214.968 93.1137 215.226V215.231Z" fill="black"/>
<path d="M137.225 220.628H151.518C154.865 220.832 158.094 222.164 159.296 225.494C160.329 228.358 159.87 231.688 157.31 233.555C156.837 233.899 156.29 234.108 155.858 234.484C161.655 236.07 162.752 243.365 158.299 247.13C157.233 248.032 154.665 249.31 153.276 249.31H137.229V220.628H137.225ZM144.396 226.536L144.251 226.681V231.815L144.396 231.96H149.761C152.52 231.96 153.376 227.737 150.785 226.776C150.58 226.699 149.938 226.532 149.761 226.532H144.396V226.536ZM144.346 237.683V243.256L144.492 243.401H150.052C150.316 243.401 151.231 243.211 151.518 243.116C153.836 242.364 154 239.11 151.855 238.122C151.587 238 150.498 237.687 150.248 237.687H144.346V237.683Z" fill="black"/>
<path d="M252.132 220.628V231.19H260.912V220.628H268.421V249.31H260.912V237.973H252.132V249.31H244.523V220.628H252.132Z" fill="black"/>
<path d="M175.149 219.98C186.574 219.019 191.669 229.454 189.443 239.409C187.862 246.473 182.211 250.773 174.839 249.881C159.248 247.991 159.767 221.271 175.149 219.98ZM175.832 226.858C168.938 227.596 168.719 241.362 175.167 242.962C184.921 245.386 185.813 225.789 175.832 226.858Z" fill="black"/>
<path d="M201.874 219.88C206.364 219.531 210.795 220.854 213.786 224.275L209.356 228.766C207.612 226.708 203.832 225.245 201.305 226.586C200.057 227.248 199.42 228.852 200.376 230.03C201.514 231.425 205.954 231.933 207.785 232.458C211.277 233.464 213.841 235.173 214.365 239.001C215.813 249.532 202.489 252.25 195.13 247.932C193.632 247.053 192.384 245.816 191.26 244.511L195.809 240.112C195.986 240.08 196.747 241.059 196.97 241.267C198.996 243.138 202.548 244.416 205.235 243.378C207.325 242.567 207.903 239.962 205.786 238.811C204.019 237.851 201.246 237.683 199.265 237.053C188.851 233.736 191.228 220.718 201.874 219.885V219.88Z" fill="black"/>
<path d="M229.383 219.975C231.864 219.821 234.433 220.252 236.623 221.448C238.576 222.513 240.179 224.28 241.39 226.119L235.694 230.025C232.944 225.073 226.468 226.065 224.647 231.262C223.868 233.482 223.923 236.491 224.72 238.702C226.555 243.795 233.021 244.924 235.744 239.953L235.876 239.921L241.582 243.836C239.35 247.393 236.218 249.699 231.892 249.989C212.648 251.272 211.829 221.058 229.387 219.98L229.383 219.975Z" fill="black"/>
<path d="M86.0143 221.402V228.865H101.037V221.402H102.548C102.844 221.402 105.185 223.509 105.526 223.872C111.806 230.596 111.264 241.172 104.356 247.23C104.16 247.402 102.753 248.535 102.649 248.535H101.041V241.172H86.0143V248.535H84.4069C84.0563 248.535 81.5154 246.097 81.142 245.676C75.6185 239.427 75.8325 229.934 81.529 223.872C81.8842 223.491 84.1747 221.402 84.5071 221.402H86.0189H86.0143ZM83.9652 224.406C83.7967 224.366 83.7694 224.474 83.6738 224.551C83.1683 224.937 82.4762 225.748 82.0755 226.26C77.7815 231.715 78.1731 239.645 82.8906 244.71C83.182 245.023 83.5782 245.476 83.9652 245.63V224.406ZM103.086 245.626C108.791 240.614 109.493 231.937 104.743 226.006C104.402 225.58 103.805 224.869 103.382 224.551C103.281 224.474 103.259 224.366 103.09 224.406V245.626H103.086ZM101.037 230.9H86.0143V239.037H101.037V230.9Z" fill="black"/>
<path d="M71.0586 286.98L71.3499 286.847C77.6583 287.044 84.1033 286.601 90.3935 286.852C94.2532 287.007 99.7515 287.784 100.598 292.383C101.135 295.307 100.147 297.86 97.4802 299.235L95.3683 300.053C99.5239 300.582 102.592 303.784 101.791 308.151C100.962 312.655 96.2195 314.619 92.1003 314.797H71.0586V286.98ZM79.4744 297.929H88.6958C89.0918 297.929 90.1887 297.536 90.5483 297.317C91.9183 296.49 92.2915 294.023 90.9397 293.037C90.4527 292.68 89.1145 292.306 88.5228 292.306H79.4698V297.929H79.4744ZM79.4744 309.43C82.1507 309.325 84.9317 309.572 87.5943 309.43C89.1919 309.348 92.1231 309.078 92.3871 307.078C92.7922 303.976 91.0034 303.09 88.277 302.949C85.3914 302.798 82.3737 303.067 79.4789 302.949V309.426L79.4744 309.43Z" fill="black"/>
<path d="M161.915 314.715H154.096V312.331L153.244 313.313C147.942 317.488 138.725 315.272 135.225 309.736C131.843 304.392 135.029 297.55 140.382 295.051C144.355 293.197 150.3 293.292 153.841 296.06V286.939H161.788L161.915 287.067V314.715ZM148.201 298.815C143.559 298.838 140.573 304.045 143.399 307.927C145.98 311.477 151.642 311.065 153.618 307.124C155.607 303.15 152.489 298.792 148.201 298.815Z" fill="black"/>
<path d="M267.814 322.891H71.1465V325.107H267.814V322.891Z" fill="black"/>
<path d="M193.022 306.447H174.156C174.242 309.124 176.272 310.873 178.871 311.052C180.983 311.198 183.304 310.759 184.483 308.832H192.175C191.497 310.819 189.699 312.504 187.897 313.532C180.519 317.743 165.576 315.674 165.485 305.036C165.403 295.64 175.08 292.785 182.844 294.032C189.162 295.046 193.868 299.746 193.026 306.447H193.022ZM184.351 302.19C183.896 299.235 181.11 297.737 178.297 298.207C176.181 298.563 174.643 300.084 174.237 302.19H184.351Z" fill="black"/>
<path d="M267.986 300.313H260.421C260.494 299.733 259.871 299.116 259.443 298.783C258.241 297.847 255.578 297.778 254.131 298.052C251.546 298.545 251.336 300.194 253.995 300.921C258.578 302.177 269.474 301.336 268.919 308.617C268.286 316.88 253.321 316.497 248.009 313.82C245.747 312.678 244.018 310.673 243.508 308.151H251.286C251.732 309.398 252.438 310.207 253.685 310.687C255.246 311.289 259.438 311.6 260.508 310.07C261.796 308.224 257.945 307.603 256.871 307.411C252.315 306.603 242.329 306.53 244.168 299.313C245.661 293.443 255.974 293.023 260.649 294.17C263.858 294.955 267.062 296.96 267.991 300.313H267.986Z" fill="black"/>
<path d="M223.192 294.69V305.808C223.192 306.228 223.511 307.201 223.689 307.612C225.313 311.372 230.707 310.997 231.886 307.11C231.941 306.923 232.118 306.292 232.118 306.151V294.69H240.106V314.327L239.979 314.455H232.373V312.24L230.666 313.555C224.931 317.232 215.878 314.496 215.291 307.087V294.608L223.192 294.695V294.69Z" fill="black"/>
<path d="M113.215 294.864V305.982C113.215 309.535 117.58 311.719 120.393 309.517C121.139 308.932 122.136 307.366 122.136 306.411V294.868H130.124V314.551H122.391V312.335C116.993 317.89 105.81 315.505 105.305 307.014V294.868H113.211L113.215 294.864Z" fill="black"/>
<path d="M212.992 294.01V299.975C209.751 299.372 205.773 300.359 204.808 303.912C204.753 304.109 204.576 304.812 204.576 304.958V314.542H196.67V294.777H204.235V298.865L204.785 297.499C206.337 294.366 209.833 293.927 212.992 294.01Z" fill="black"/>
<path d="M79.2397 395.279C76.7684 393.144 75.2329 389.445 74.9467 386.183C74.5605 381.717 74.4424 367.569 75.778 363.807C77.518 358.904 81.8973 355.878 86.9854 355.483C91.7964 355.106 103.831 354.852 108.324 355.528C113.212 356.265 117.705 361.762 118.141 366.61C118.6 371.712 118.668 382.93 118.073 387.932C117.459 393.08 112.621 397.764 107.465 398.223C102.372 398.677 89.6567 398.836 84.773 398.164C83.0013 397.919 80.589 396.442 79.2397 395.274V395.279ZM107.215 394.575C106.979 385.347 104.526 375.006 99.2286 367.355C93.9316 359.704 85.3999 354.724 79.5078 364.579C96.2757 359.481 105.08 381.235 105.402 394.575H107.215ZM107.447 359.131C104.476 358.641 100.342 359.495 97.2252 359.131C104.98 367.164 107.974 378.009 109.032 388.895C109.15 390.099 108.946 391.331 109.032 392.535C109.082 393.212 108.682 393.848 109.718 393.671C112.262 392.339 113.961 389.777 114.366 386.955C114.979 382.694 114.92 371.926 114.479 367.541C114.102 363.784 111.358 359.781 107.442 359.131H107.447ZM103.585 394.57C103.245 387.005 96.4075 370.435 88.262 368.777C84.9093 368.091 80.489 369.181 79.3533 372.839C78.6946 374.952 78.8082 384.084 79.0353 386.642C79.2079 388.568 79.9802 390.667 81.3295 392.071C81.9382 392.707 84.9547 394.575 85.6407 394.575H103.585V394.57Z" fill="black"/>
<path d="M146.061 359.586C148.605 359.945 152.007 362.275 152.544 364.915C153.229 368.291 153.021 371.994 150.395 374.366C149.4 375.265 147.873 375.174 148.11 376.387C155.306 377.496 155.615 388.618 150.531 392.221C150.086 392.535 146.779 394.116 146.52 394.116H129.029V374.125H140.614C141.018 374.125 144.512 373.239 144.911 372.971C146.729 371.749 146.828 367.087 145.243 365.638C145.066 365.474 143.449 364.588 143.34 364.588H129.029V359.59C134.313 360.126 140.959 358.872 146.065 359.59L146.061 359.586ZM135.839 389.572H142.426C147.41 389.572 148.977 381.276 144.734 379.086C143.022 378.2 137.915 377.796 136.121 378.268C134.999 378.564 135.839 379.25 135.839 379.35V389.572Z" fill="black"/>
<path d="M200.348 382.303C198.981 389.718 206.136 395.07 207.88 385.456L213.523 385.483C213.523 393.016 207.235 396.697 200.253 394.439C192.457 391.917 192.484 376.21 196.728 370.726C198.467 368.477 200.053 367.887 202.833 367.741C208.444 367.446 212.064 368.482 213.423 374.457C213.868 376.41 214.481 380.795 213.305 382.299H200.357L200.348 382.303ZM200.348 378.214H207.617C208.794 369.159 199.835 369.886 200.348 378.214Z" fill="black"/>
<path d="M162.643 382.303C162.715 385.356 163.429 392.38 168.09 390.245C170.152 389.3 169.662 386.383 169.97 385.997C170.497 385.338 175.626 385.37 175.849 386.21C175.059 398.396 157.8 398.241 156.719 385.729C156.214 379.899 156.137 368.854 163.815 367.805C174.836 366.305 176.521 372.725 176.267 382.303H162.638H162.643ZM170.366 378.214C170.043 374.788 169.616 370.231 165.028 372.198C163.329 372.925 162.307 376.81 163.324 378.214H170.366Z" fill="black"/>
<path d="M265.313 394.116H258.953C258.408 389.232 256.768 393.957 254.338 394.72C245.057 397.642 241.813 383.852 249.163 380.458C251.739 379.272 258.263 378.9 258.481 375.692C258.876 369.895 251.149 370.767 251.685 375.942H246.233C244.321 366.305 261.943 364.974 264.105 371.926C265.459 376.269 263.91 385.992 264.405 391.163C264.509 392.239 264.85 393.162 265.313 394.116ZM258.495 381.399C254.96 382.444 250.803 382.725 251.249 387.473C251.48 389.95 252.639 390.79 255.051 390.458C259.608 389.836 258.354 384.779 258.49 381.394L258.495 381.399Z" fill="black"/>
<path d="M224.883 360.494V367.537C225.455 368.809 228.685 367.927 228.971 368.218V372.048L224.883 372.312V387.987C224.883 390.027 227.45 390.045 228.967 390.036L228.544 394.375C226.364 394.675 221.721 394.984 220.013 393.53C217.46 391.353 218.664 376.742 218.85 372.989C218.368 371.644 215.225 372.934 215.002 371.649L215.338 368.218L218.223 368.15L218.918 367.5L218.518 360.494H224.878H224.883Z" fill="black"/>
<path d="M239.875 368.218H243.514L243.518 372.044L239.875 372.307V388.891C239.875 389.859 242.646 390.29 243.514 390.022L243.445 393.825L242.764 394.507C239.502 394.697 234.446 395.17 233.619 391.058C232.588 385.938 234.223 378.446 233.451 373.052L232.769 372.371L229.871 372.048V368.218C231.125 368.137 232.651 368.659 233.515 367.537V360.494C235.532 360.776 238.303 359.786 239.875 361.176V368.218Z" fill="black"/>
<path d="M179.451 368.218H185.362C185.625 368.482 184.762 372.039 186.034 371.394C187.601 368.891 189.673 367.31 192.63 367.759L192.594 373.634C190.618 373.698 188.383 373.384 186.961 375.043C186.793 375.238 185.811 376.96 185.811 377.073V394.111H179.451V368.218Z" fill="black"/>
<path d="M106.283 490.777V448.568C106.448 446.189 106.986 443.434 108.991 441.902C110.995 440.371 113.666 440.203 116.099 440.076H126.76V444.666C123.851 444.703 120.934 444.589 118.03 444.734C113.369 445.061 114.912 450.512 114.629 453.634L114.72 453.838H124.66C124.678 453.883 124.6 453.91 124.6 453.928V459.262H114.72L114.629 490.777H106.283Z" fill="black"/>
<path d="M196.41 449.452C198.953 449.289 201.843 449.796 203.811 451.491C206.929 454.173 207.605 459.538 207.774 463.404C208.084 470.459 207.6 481.348 198.255 481.901C187.571 482.53 186.544 471.515 186.877 463.521C187.142 457.119 188.653 449.941 196.415 449.452H196.41ZM197.255 454.214C194.999 454.273 195.063 457.74 194.981 459.348C194.789 463.068 194.862 467.06 194.986 470.785C195.031 472.194 194.972 475.226 195.826 476.327C196.433 477.111 197.501 477.356 198.318 476.712C199.661 475.652 199.56 471.578 199.611 469.951C199.72 466.376 199.748 462.742 199.556 459.171C199.469 457.558 199.652 454.151 197.264 454.214H197.255Z" fill="black"/>
<path d="M148.082 466.114H136.582C136.495 466.168 136.5 466.231 136.49 466.317C136.408 467.015 136.541 467.772 136.554 468.461C136.596 470.364 136.559 472.34 136.869 474.225C137.13 475.815 137.805 477.233 139.696 477.066C141.586 476.898 141.732 475.276 141.773 473.799H147.297C147.347 476.418 146.635 479.15 144.288 480.614C141.727 482.209 137.038 482.34 134.345 481.017C128.724 478.248 128.181 469.059 128.437 463.639C128.775 456.521 131.089 448.972 139.759 449.429C148.434 449.887 148.174 459.724 148.073 466.114H148.082ZM136.554 461.587H141.567C141.654 461.532 141.65 461.469 141.659 461.383C141.741 460.699 141.64 459.371 141.595 458.641C141.499 457.155 141.412 454.536 139.508 454.278C136.486 453.87 136.76 457.101 136.55 459.113V461.587H136.554Z" fill="black"/>
<path d="M191.217 443.515C192.139 444.417 193.093 445.355 193.897 446.366C194.011 446.511 194.618 447.227 194.5 447.349H194.354C186.578 441.585 177.119 437.665 167.44 436.456C157.624 435.232 144.416 436.732 138.594 445.709C138.485 445.876 137.923 446.914 137.846 446.918C137.759 446.896 137.704 446.837 137.645 446.773C137.261 446.352 136.672 445.296 136.366 444.766C134.969 442.342 133.531 438.912 133.321 436.111C133.271 435.436 133.39 435.418 133.851 434.987C137.248 431.838 142.338 429.971 146.872 429.196C161.988 426.609 180.383 432.917 191.222 443.515H191.217Z" fill="black"/>
<path d="M219.72 440.081V475.615C219.72 475.656 219.893 476.218 219.93 476.299C220.377 477.36 221.72 477.432 222.724 477.432V481.601H217.049C213.269 481.316 212 478.832 211.854 475.38V440.081H219.725H219.72Z" fill="black"/>
<path d="M167.116 450.027V456.579C165.181 455.895 163.195 455.673 161.149 455.99C160.61 456.076 159.948 456.23 159.551 456.607V481.597H151.744V449.878L151.835 449.787H158.172L158.652 451.278C159.679 450.421 161.072 449.751 162.414 449.556C163.994 449.329 165.655 449.334 167.121 450.027H167.116Z" fill="black"/>
<path d="M185.013 450.027V456.579C183.077 455.909 181.091 455.664 179.046 455.99C178.493 456.081 177.854 456.208 177.448 456.607V481.597H169.641V449.791H176.064L176.484 451.223C176.585 451.309 177.165 450.784 177.306 450.698C178.598 449.891 180.091 449.501 181.616 449.434C182.817 449.379 183.922 449.538 185.013 450.032V450.027Z" fill="black"/>
<path d="M233.715 449.792V481.601H225.908V449.878L226 449.792H233.715Z" fill="black"/>
<path d="M233.715 440.081V447.29H225.908V440.171L226 440.081H233.565C233.601 440.081 233.656 440.13 233.715 440.081Z" fill="black"/>
</g>
</svg>
