<svg width="1240" height="119" viewBox="0 0 1240 119" fill="none" xmlns="http://www.w3.org/2000/svg">
<g opacity="0.6">
<path d="M112.943 7.50159L115.274 13.8889L117.729 7.50159H125.335V22.1446H120.306V14.611L116.963 22.1481L113.627 22.1341L110.366 14.7337V22.1446H105.398V7.50159H112.943Z" fill="black"/>
<path d="M160.542 14.611V7.50159H166.002V22.1446H160.389L154.409 15.0352V22.1446H148.703V7.50159H154.316L160.542 14.611Z" fill="black"/>
<path d="M182.197 14.611V7.50159H187.592V22.1446H181.951L175.999 15.0352V22.1446H170.297V7.50159H175.906L182.197 14.611Z" fill="black"/>
<path d="M101.84 0.0311115V4.1292H90.3394C90.2432 4.1292 89.8369 4.315 89.7514 4.39563C89.3451 4.79877 89.6801 5.38772 90.1826 5.48588C93.5184 5.86098 99.4844 4.40965 101.708 7.60328C103.116 9.62603 102.589 13.009 100.486 14.3972C99.9691 14.7372 98.6112 15.2771 98.0089 15.2771H85.2181V11.0598H97.0859C97.1607 11.0598 97.453 10.8951 97.5135 10.8179C97.8521 10.3868 97.6098 9.69965 97.0716 9.56644C94.5662 9.4157 91.904 9.72069 89.42 9.55241C86.0307 9.32455 84.2701 6.67779 85.0114 3.47715C85.9416 -0.533296 90.3822 0.0170889 93.5256 0.0346171C96.2983 0.0486396 99.071 0.0170889 101.84 0.0346171V0.0311115Z" fill="black"/>
<path d="M101.84 17.2017V21.2998H90.3996C90.3319 21.2998 89.8544 21.4786 89.7831 21.5382C89.22 22.043 89.8045 22.6355 90.3961 22.688C93.7782 22.9825 99.6943 21.6083 101.829 24.9562C102.895 26.6284 102.627 29.489 101.259 30.9403C100.621 31.6169 99.0064 32.4442 98.0691 32.4442H85.2178V28.2865H96.8396C96.9501 28.2865 97.3599 28.1323 97.4526 28.0482C97.8838 27.6555 97.6343 26.8422 97.057 26.7476C94.5373 26.5688 91.8573 26.8913 89.3519 26.723C87.0496 26.5688 85.257 25.177 84.9148 22.8879C84.5727 20.5987 85.5385 18.4602 87.7909 17.5944C88.0475 17.4962 89.0062 17.2017 89.2307 17.2017H101.836H101.84Z" fill="black"/>
<path d="M82.644 7.50159V11.2982H72.7079V12.8056H80.8335L80.9262 12.8968V16.3007H72.8005L72.7079 16.3884V18.0465H83.0717V22.1446H67.3086V7.50159H82.644Z" fill="black"/>
<path d="M147.293 22.1447H141.253L139.927 19.5891L139.724 19.4875L133.779 19.5015L132.389 22.1412H126.316L133.89 7.49469L139.781 7.55779L147.293 22.1377V22.1447ZM135.272 15.5752H138.341L136.776 12.6234L135.272 15.5752Z" fill="black"/>
<path d="M39.5235 7.50159L44.0603 16.5391L48.476 7.50159H54.9195L47.0968 22.1446L46.9186 22.2077L40.6248 22.1727L32.6523 7.50159H39.5235Z" fill="black"/>
<path d="M62.6511 7.50159H56.9453V22.1411H62.6511V7.50159Z" fill="black"/>
<path fill-rule="evenodd" clip-rule="evenodd" d="M297.279 0.415888L288.116 8.82027C287.784 9.1247 287.594 9.55597 287.594 10.009V22.7225C287.594 23.6104 288.306 24.3316 289.183 24.3316H307.672C308.546 24.3316 309.258 23.6104 309.258 22.7225V10.0126C309.258 9.55597 309.065 9.11745 308.725 8.81303L299.398 0.405016C298.793 -0.138605 297.876 -0.134981 297.275 0.415888H297.279ZM298.349 3.24997C300 4.73949 305.656 9.83866 306.537 10.6287V21.6352H290.315V10.6215C291.178 9.82778 296.713 4.75036 298.353 3.24997H298.349Z" fill="#010101"/>
<path fill-rule="evenodd" clip-rule="evenodd" d="M298.358 9.32762C297.603 10.0198 295.05 12.361 294.652 12.7234V17.8009H302.132V12.7307C301.723 12.3646 299.117 10.0162 298.358 9.32762ZM390.118 8.72239V11.7485H396.061V23.1175H399.319V11.7485H405.116V8.72239H390.118ZM440.153 8.72239V18.9461L431.231 9.62117C430.44 8.77675 429.519 8.42883 428.492 8.59192C427.561 8.73688 426.956 9.50883 426.956 10.5526V23.1211H430.146V12.8974L438.921 22.0773C439.831 23.0486 440.658 23.4183 441.603 23.2842C443.157 23.0595 443.336 21.8998 443.336 21.0481V8.72239H440.146H440.153ZM406.681 15.9018C406.681 22.1426 409.785 23.3603 415.374 23.3603C420.962 23.3603 424.063 22.1426 424.063 15.9018C424.063 9.66104 420.959 8.44333 415.374 8.44333C409.788 8.44333 406.681 9.66104 406.681 15.9018ZM420.622 15.9018C420.622 20.0623 418.821 20.2544 415.374 20.2544C411.926 20.2544 410.121 20.0623 410.121 15.9018C410.121 11.7413 411.919 11.5492 415.374 11.5492C418.829 11.5492 420.622 11.7413 420.622 15.9018ZM364.884 23.1139H368.117V8.72239H364.884V23.1139ZM357.824 17.6486C359.854 17.1413 361.006 15.5756 361.006 13.4374C361.006 10.5272 359.109 8.71876 356.055 8.71876H345.883V23.1102H349.073V17.9748H354.243L357.824 23.1102H361.569L357.824 17.645V17.6486ZM349.073 11.7087H355.607C357.53 11.7087 357.763 12.593 357.763 13.4265C357.763 14.2601 357.512 15.1589 355.618 15.1589H349.077V11.7087H349.073ZM381.4 14.068H378.543C376.094 14.068 375.593 13.6005 375.593 12.7126C375.593 11.6326 377.232 11.2158 379.545 11.2158C381.579 11.2158 383.502 11.5637 385.725 12.6183L387.433 10.1829C385.005 8.70064 382.599 8.16064 379.567 8.16064C374.934 8.16064 372.163 9.92198 372.163 12.872C372.163 16.0866 374.791 17.1848 378.174 17.1521H381.318C384.411 17.1521 384.823 17.5109 384.823 18.7033C384.823 19.8956 383.111 20.6204 380.354 20.6204C377.931 20.6204 375.439 20.1384 373.251 18.6562L371.518 21.1496C373.842 23.0196 376.706 23.6647 380.337 23.6647C385.403 23.6647 388.31 21.7983 388.31 18.5474C388.31 15.5575 385.983 14.0644 381.393 14.0644L381.4 14.068ZM333.896 8.29474C333.237 8.29474 332.589 8.60279 332.278 9.11379L323.839 23.1211H327.634L329.177 20.49H338.612L340.155 23.1211H343.95L335.511 9.11379C335.199 8.59917 334.551 8.29474 333.889 8.29474H333.896ZM333.9 12.4516C334.011 12.6437 335.54 15.2531 337.061 17.8407H330.738C330.738 17.8407 333.785 12.6473 333.9 12.4516Z" fill="#010101"/>
<path d="M587.532 29.6232L587.699 29.2716L593.353 8.1366C593.475 7.89399 593.685 7.70061 593.956 7.63029C595.294 7.71467 596.796 7.50722 598.112 7.62325C598.608 7.66896 598.79 8.02057 598.669 8.48469L590.724 34.1448C590.557 34.4754 590.286 34.6019 589.918 34.6371C588.356 34.7742 586.597 34.5281 585.013 34.6371C584.717 34.6019 584.464 34.405 584.328 34.1484L576.355 8.26669C576.373 7.90454 576.57 7.66193 576.944 7.62325C578.264 7.48964 579.823 7.73225 581.168 7.62325C581.557 7.66896 581.778 7.97837 581.878 8.32998L587.528 29.6197L587.532 29.6232Z" fill="black"/>
<path d="M563.339 13.488C563.239 13.4318 563.353 13.1646 563.385 13.0837C563.742 12.1414 564.548 11.0127 565.001 10.0318C565.764 8.37922 566.613 6.12543 566.917 4.33928C566.984 3.94548 567.259 1.82881 566.385 2.71838C565.943 3.16843 565.493 4.33576 565.229 4.94052C563.966 7.83423 562.896 10.8194 562.165 13.8924C562.172 14.1245 562.964 14.6694 563.182 14.898C564.519 16.3009 565.008 17.8444 564.826 19.7572C564.609 22.0215 563.806 24.2648 564.145 26.5713L568.265 26.3463C568.629 26.4095 568.786 26.7822 568.443 26.9862C566.431 27.1479 564.405 27.2147 562.386 27.3097C562.179 26.5045 560.742 26.4342 561.205 25.418C561.419 24.9469 562.372 24.0749 562.743 23.5721C563.82 22.1235 564.345 20.5518 563.867 18.7516C563.242 16.3958 561.437 17.4225 560.46 18.8782C559.304 20.6045 558.616 23.3189 558.812 25.3793C558.897 26.2619 559.718 26.8491 559.704 27.5593C559.686 28.3821 558.915 28.3574 558.623 28.9235C558.148 29.8342 559.158 30.6429 560.021 30.7273C561.163 30.8398 562.087 30.4319 562.45 29.3208L566.535 29.5072C566.724 29.5916 567.173 29.5248 567.295 29.6443C567.434 29.7814 567.405 30.1612 567.152 30.1788C565.875 30.1471 564.591 30.0381 563.317 29.9432C562.525 31.1175 561.38 32.0563 560.132 32.7349C558.544 33.5999 557.699 33.7476 556.036 32.9424C554.635 32.2638 553.343 31.1914 552.441 29.9432L549.227 30.1823C548.966 30.1436 548.445 30.3088 548.388 29.9643C548.353 29.7533 548.403 29.6338 548.62 29.5845C550.179 29.458 551.749 29.4158 553.311 29.3244C553.693 30.4143 554.663 30.8574 555.805 30.7343C556.682 30.6394 557.709 29.7428 557.103 28.8427C556.796 28.3891 556.133 28.3012 556.083 27.6472C556.033 26.9721 556.711 26.4799 556.896 25.8786C557.52 23.8358 556.154 19.1665 554.406 17.8163C552.965 16.7017 552.045 17.7706 551.813 19.2227C551.545 20.8929 552.098 22.3239 553.083 23.6424C553.457 24.1417 554.271 24.866 554.524 25.3371C555.105 26.4131 553.65 26.4834 553.375 27.3167L549.102 27.1339C548.567 26.9756 547.828 27.176 547.318 26.9932C547.004 26.8807 547.108 26.3533 547.489 26.3955C548.442 26.4553 549.391 26.4799 550.343 26.5185C550.564 26.5291 551.474 26.6838 551.588 26.5185C551.652 26.4271 551.684 25.2176 551.677 25.0172C551.531 21.2726 549.466 17.9956 552.669 14.8101C552.887 14.5921 553.522 14.2159 553.547 13.9557C553.165 12.2152 552.665 10.4959 552.052 8.82224C551.46 7.20134 550.607 4.83856 549.765 3.37588C548.834 1.76201 548.602 2.77463 548.774 4.04744C549.091 6.44539 550.343 9.33559 551.46 11.4839C551.656 11.8601 552.508 13.1224 552.426 13.4599C552.401 13.5197 552.269 13.5549 552.212 13.5478C551.831 13.4916 551.242 12.5422 551.028 12.2152C549.244 9.47975 547.411 4.45179 547.703 1.19241C548.003 -2.14081 550.875 2.48632 551.388 3.30556C553.336 6.41023 555.027 9.83135 556.293 13.2595L556.604 13.3228C557.449 13.1927 558.302 13.2138 559.147 13.3228L559.358 13.2208C560.182 10.9213 561.22 8.69215 562.372 6.53329C563.107 5.15852 565.518 0.752901 566.792 0.13056C567.619 -0.273786 567.912 0.506778 567.983 1.19592C568.315 4.44827 566.51 9.41997 564.726 12.1519C564.544 12.4332 563.752 13.7377 563.339 13.4951V13.488ZM559.486 31.8243C558.894 31.6801 558.391 31.318 557.956 30.9101C557.449 31.2441 556.992 31.6731 556.382 31.8243C557.164 32.7209 558.705 32.7209 559.486 31.8243Z" fill="#070707"/>
<path d="M656.716 32.7983C654.618 34.806 651.804 35.7061 648.896 35.0908C645.279 34.3243 644.123 30.6254 644.919 27.3836C646.11 22.5244 652.321 22.9287 656.28 22.9604V21.2199C656.28 20.5343 655.863 19.6061 655.267 19.2228C653.987 18.393 650.758 18.7306 649.246 18.938C648.593 19.0259 647.448 19.381 646.877 19.3634C646.52 19.3529 646.328 19.1173 646.285 18.7798C646.221 18.2489 646.232 16.9374 646.285 16.3959C646.349 15.7771 646.603 15.6399 647.163 15.4888C649.874 14.768 655.621 14.4234 658.196 15.4782C660.472 16.41 661.096 18.5477 661.235 20.7945L661.221 34.0992C661.139 34.3348 660.979 34.588 660.704 34.6302C659.648 34.5598 658.453 34.7356 657.415 34.6372C657.122 34.6091 656.705 34.3629 656.705 34.0535V32.8018L656.716 32.7983ZM656.28 26.1389C655.467 26.1635 654.643 26.1037 653.826 26.1389C652.307 26.1987 650.22 26.3112 649.781 28.0833C649.421 29.5389 649.71 31.5466 651.54 31.754C653.412 31.9685 654.914 31.1739 656.28 30.0206V26.1424V26.1389Z" fill="black"/>
<path d="M608.878 21.1601C608.66 18.8324 606.866 18.6496 604.872 18.6847C603.177 18.7129 601.511 19.0364 599.849 19.3001C599.432 19.2754 599.35 18.8852 599.321 18.5371C599.278 18.0272 599.26 16.3712 599.435 15.9563C599.635 15.4816 600.042 15.4535 600.491 15.3445C603.06 14.7362 608.104 14.4514 610.569 15.341C613.016 16.2235 613.676 18.2874 613.84 20.6713L613.829 34.0991C613.722 34.3945 613.508 34.5808 613.183 34.6265C612.531 34.718 610.701 34.7004 610.023 34.6336C609.73 34.6054 609.313 34.3593 609.313 34.0499V32.7982C607.829 34.1167 606.124 35.1153 604.073 35.2454C600.848 35.4493 598.205 34.3453 597.491 31.0261C597.156 29.4685 597.249 27.4257 598.055 26.0192C600.056 22.5313 605.403 22.9708 608.878 22.9603C608.839 22.3766 608.931 21.7332 608.878 21.1565V21.1601ZM608.878 26.1388C608.082 26.1634 607.28 26.1071 606.488 26.1388C603.834 26.2372 602.079 26.5818 602.3 29.6584C602.428 31.4586 603.659 31.8981 605.311 31.761C606.687 31.6484 607.84 30.8397 608.878 30.0205V26.1423V26.1388Z" fill="black"/>
<path d="M669.934 17.2185L671.465 16.1918C675.949 13.7939 682.163 14.0224 682.527 20.2423C682.698 23.1536 682.505 26.3392 682.527 29.2856C682.538 30.7342 682.748 32.4958 682.591 33.9268C682.548 34.3311 682.309 34.6406 681.878 34.6933C681.096 34.7847 679.138 34.7671 678.335 34.6933C677.922 34.6546 677.583 34.4155 677.558 33.9901C677.383 30.0169 677.804 25.8364 677.565 21.8878C677.461 20.1579 676.926 19.1734 675.05 19.0504C673.801 18.9695 672.599 19.3246 671.525 19.9188C671.279 20.0525 670.412 20.5482 670.366 20.7943V34.0534C670.373 34.4472 670.024 34.6617 669.653 34.6968C668.861 34.7707 666.884 34.7882 666.11 34.6968C665.839 34.6652 665.554 34.4859 665.475 34.2221C665.29 28.2941 665.45 22.3344 665.393 16.3958C665.4 15.9457 665.532 15.4746 666.053 15.3937C666.667 15.2987 668.497 15.3304 669.153 15.3866C669.321 15.4007 669.542 15.4429 669.678 15.5449C669.738 15.5906 669.927 15.8719 669.927 15.9105V17.2255L669.934 17.2185Z" fill="black"/>
<path d="M567.553 8.11551C567.653 8.0276 568.031 8.61479 568.099 8.7062C572.897 15.2496 574.131 25.309 569.922 32.4114C564.289 41.9153 552.257 42.2599 546.246 32.9142C541.377 25.3547 543.014 15.0703 548.223 8.11551L549.41 10.8334C547.712 13.5654 546.507 16.7509 546.089 19.947C545.54 24.1698 546.307 28.6387 548.822 32.1477C553.673 38.9161 562.235 38.8704 567.04 32.088C571.477 25.8223 570.35 17.0639 566.433 10.8369C566.833 9.94385 567.297 9.06836 567.55 8.11902L567.553 8.11551Z" fill="black"/>
<path d="M691.653 15.3867H697.392C697.457 15.3867 697.771 15.6153 697.824 15.6926C697.899 15.8016 697.945 15.9739 697.967 16.104C698.049 16.656 698.035 17.9605 697.985 18.5336C697.96 18.829 697.903 19.1208 697.631 19.286C697.592 19.3107 697.346 19.4161 697.332 19.4161H691.653V28.9798C691.653 29.5283 692.052 30.3686 692.491 30.7203C693.565 31.5782 696.055 31.1316 697.389 31.0859C697.806 31.0719 698.174 31.1316 698.231 31.6063C698.299 32.1864 698.288 33.5858 698.231 34.1765C698.199 34.4965 698.017 34.7602 697.703 34.8797C697.296 35.0344 696.19 35.1434 695.712 35.1821C690.811 35.583 686.99 34.9325 686.684 29.349L686.701 11.2132C686.812 10.7385 687.208 10.6471 687.647 10.6155C688.457 10.5557 690.083 10.5346 690.868 10.626C691.011 10.6436 691.218 10.6963 691.339 10.7737C691.421 10.8264 691.653 11.1393 691.653 11.1991V15.3832V15.3867Z" fill="black"/>
<path d="M637.089 7.64092L640.981 7.63037C641.348 7.71827 641.523 8.04175 641.566 8.39687L641.577 33.6878C641.555 34.1238 641.413 34.5528 640.92 34.6301C639.811 34.7989 638.295 34.5141 637.143 34.6301C636.775 34.5422 636.6 34.2188 636.558 33.8636L636.547 8.5129C636.583 8.12262 636.697 7.79211 637.089 7.64092Z" fill="black"/>
<path d="M627.781 7.64092L631.673 7.63037C631.901 7.66553 632.165 7.92572 632.201 8.15075L632.176 34.1449C632.09 34.3946 631.88 34.588 631.612 34.6266C631.031 34.7145 628.416 34.7145 627.835 34.6266C627.528 34.5809 627.307 34.3418 627.246 34.0465L627.271 8.11207C627.36 7.86243 627.528 7.71476 627.785 7.6374L627.781 7.64092Z" fill="black"/>
<path d="M618.602 15.4008C619.747 15.4852 621.199 15.2391 622.305 15.3938C622.608 15.436 622.894 15.6856 622.947 15.9845L622.933 34.1484C622.844 34.3559 622.715 34.5528 622.483 34.6231L618.527 34.6336C618.235 34.5422 618.067 34.3348 618.01 34.0429L617.992 16.0935C618.035 15.7524 618.274 15.5063 618.599 15.4079L618.602 15.4008Z" fill="black"/>
<path d="M556.929 2.5742C558.748 2.42652 560.489 2.70078 562.133 3.46024C562.29 3.53408 562.964 3.81185 562.95 3.98062L561.744 6.09377C559.322 4.74712 556.547 4.74712 554.125 6.09377L552.848 3.92788C554.05 3.22467 555.523 2.68671 556.929 2.57068V2.5742Z" fill="black"/>
<path d="M618.414 7.64082C619.673 7.72872 621.207 7.4826 622.434 7.62676C622.852 7.67598 623.041 7.93969 623.083 8.32997C623.165 9.05427 623.158 10.7771 623.083 11.512C623.037 11.9691 622.766 12.2258 622.306 12.2715C621.464 12.3594 619.555 12.3523 618.703 12.2715C618.296 12.2328 617.979 12.0605 617.929 11.628C617.843 10.9248 617.85 8.97341 617.929 8.26668C617.964 7.96078 618.111 7.74982 618.407 7.6373L618.414 7.64082Z" fill="black"/>
<path d="M561.953 19.6763C563.159 19.4864 563.03 21.0124 562.763 21.7578C562.481 22.5384 561.432 23.7092 560.508 23.333C559.916 23.0939 560.28 21.6805 560.462 21.6207C560.665 21.5574 561.232 21.916 561.343 21.3886C561.443 20.9034 560.829 21.0019 560.947 20.5764C561.047 20.2213 561.586 19.7326 561.96 19.6763H561.953Z" fill="black"/>
<path d="M554.879 20.8718C554.711 21.0265 554.515 20.9175 554.519 21.3429C554.526 21.9688 555.31 21.589 555.393 21.6453C555.617 21.8 555.885 23.2838 555.232 23.3893C553.712 23.6319 552.578 21.5152 552.956 20.2318C553.17 19.5146 554.016 19.5954 554.49 20.0314C554.622 20.151 555.046 20.7171 554.879 20.8718Z" fill="black"/>
<path d="M567.892 27.9742C568.227 28.0656 568.17 28.7547 567.707 28.6739L562.523 28.6457V27.9742H567.892Z" fill="black"/>
<path d="M553.34 27.9742C553.272 28.0726 553.308 28.586 553.279 28.586H547.91C547.707 28.586 547.707 27.9742 547.91 27.9742H553.34Z" fill="black"/>
<path d="M816.222 34.0696H814.543C801.151 33.2678 793.553 18.0969 801.529 7.07005C808.492 -2.55542 823.136 -2.31772 829.728 7.5703C837.127 18.6646 829.468 33.3991 816.222 34.0732V34.0696ZM815.138 1.54596C803.483 1.7269 796.131 14.4142 801.85 24.5612C807.344 34.3109 821.217 35.2475 827.938 26.2465C835.661 15.9008 828.02 1.34018 815.138 1.54241V1.54596Z" fill="black"/>
<path d="M849.676 5.77155H860.868C863.488 5.9312 866.016 6.97429 866.958 9.582C867.767 11.8243 867.407 14.432 865.403 15.8937C865.032 16.1634 864.604 16.3266 864.266 16.621C868.805 17.8628 869.664 23.5749 866.177 26.5233C865.343 27.2293 863.332 28.2298 862.244 28.2298H849.679V5.77155H849.676ZM855.291 10.398L855.177 10.5115V14.5313L855.291 14.6449H859.492C861.652 14.6449 862.323 11.3382 860.294 10.5861C860.133 10.5257 859.631 10.3945 859.492 10.3945H855.291V10.398ZM855.252 19.1259V23.4898L855.366 23.6033H859.72C859.927 23.6033 860.643 23.4543 860.868 23.3798C862.683 22.7909 862.811 20.2435 861.132 19.47C860.921 19.3742 860.069 19.1294 859.873 19.1294H855.252V19.1259Z" fill="black"/>
<path d="M939.653 5.77155V14.0417H946.527V5.77155H952.407V28.2298H946.527V19.3529H939.653V28.2298H933.695V5.77155H939.653Z" fill="black"/>
<path d="M879.374 5.26421C888.32 4.51206 892.309 12.6829 890.566 20.4776C889.329 26.0088 884.904 29.3758 879.131 28.6769C866.923 27.1974 867.33 6.27537 879.374 5.26421ZM879.909 10.6499C874.51 11.2282 874.339 22.0068 879.388 23.2592C887.025 25.1573 887.724 9.81263 879.909 10.6499Z" fill="black"/>
<path d="M900.299 5.18612C903.815 4.91293 907.284 5.94892 909.627 8.62759L906.158 12.1436C904.792 10.5328 901.833 9.38684 899.854 10.437C898.877 10.955 898.378 12.211 899.126 13.1334C900.018 14.2262 903.494 14.6236 904.927 15.0351C907.662 15.8228 909.67 17.1603 910.08 20.1583C911.213 28.4036 900.781 30.5324 895.019 27.1512C893.846 26.4629 892.869 25.4943 891.988 24.4725L895.55 21.0275C895.689 21.0027 896.285 21.769 896.459 21.9322C898.046 23.3975 900.827 24.398 902.931 23.5856C904.567 22.9505 905.02 20.9104 903.362 20.0093C901.979 19.2571 899.807 19.1259 898.256 18.6327C890.102 16.0356 891.963 5.84248 900.299 5.18967V5.18612Z" fill="black"/>
<path d="M921.84 5.26065C923.783 5.14002 925.794 5.47707 927.509 6.41372C929.039 7.24748 930.294 8.63116 931.242 10.0716L926.782 13.1299C924.628 9.25205 919.558 10.029 918.132 14.0985C917.522 15.837 917.565 18.1928 918.189 19.9242C919.626 23.912 924.689 24.7954 926.821 20.9034L926.925 20.8785L931.392 23.9439C929.645 26.729 927.192 28.5349 923.805 28.762C908.737 29.766 908.095 6.1086 921.844 5.2642L921.84 5.26065Z" fill="black"/>
<path d="M809.581 6.37817V12.2216H821.344V6.37817H822.528C822.76 6.37817 824.592 8.02795 824.86 8.31178C829.776 13.5769 829.352 21.8577 823.943 26.6012C823.79 26.7361 822.688 27.623 822.606 27.623H821.348V21.8577H809.581V27.623H808.323C808.048 27.623 806.059 25.7143 805.766 25.3843C801.441 20.4918 801.609 13.0589 806.069 8.31178C806.348 8.01376 808.141 6.37817 808.401 6.37817H809.585H809.581ZM807.977 8.73044C807.845 8.69851 807.824 8.78366 807.749 8.84397C807.353 9.14554 806.811 9.78062 806.497 10.1815C803.135 14.4532 803.442 20.662 807.136 24.6286C807.364 24.8734 807.674 25.2282 807.977 25.3488V8.73044ZM822.948 25.3453C827.416 21.4213 827.965 14.6271 824.246 9.98285C823.979 9.64934 823.512 9.09232 823.18 8.84397C823.102 8.78366 823.084 8.69851 822.952 8.73044V25.3453H822.948ZM821.344 13.8146H809.581V20.1866H821.344V13.8146Z" fill="black"/>
<path d="M1052.41 0.162315L1052.63 0.0585942C1057.57 0.212387 1062.62 -0.13454 1067.55 0.0621708C1070.57 0.183774 1074.87 0.79179 1075.54 4.39339C1075.96 6.68239 1075.18 8.68169 1073.09 9.75824L1071.44 10.3984C1074.69 10.8133 1077.1 13.3205 1076.47 16.7397C1075.82 20.2662 1072.11 21.8041 1068.88 21.9436H1052.41V0.162315ZM1059 8.73534H1066.22C1066.53 8.73534 1067.39 8.42776 1067.67 8.25608C1068.74 7.60872 1069.03 5.67738 1067.97 4.90484C1067.59 4.62587 1066.54 4.33259 1066.08 4.33259H1058.99V8.73534H1059ZM1059 17.7411C1061.09 17.6589 1063.27 17.852 1065.35 17.7411C1066.6 17.6768 1068.9 17.4657 1069.11 15.8992C1069.42 13.4707 1068.02 12.7769 1065.89 12.666C1063.63 12.548 1061.27 12.759 1059 12.666V17.7376L1059 17.7411Z" fill="black"/>
<path d="M1123.55 21.8791H1117.43V20.0121L1116.76 20.7811C1112.61 24.0501 1105.39 22.3154 1102.65 17.9806C1100 13.7961 1102.5 8.43837 1106.69 6.48199C1109.8 5.0299 1114.45 5.10501 1117.23 7.27241V0.130005H1123.45L1123.55 0.230149V21.8791ZM1112.81 9.42908C1109.17 9.44696 1106.84 13.5242 1109.05 16.5643C1111.07 19.3433 1115.5 19.0214 1117.05 15.9348C1118.61 12.8232 1116.17 9.41119 1112.81 9.42908Z" fill="black"/>
<path d="M1206.46 28.2811H1052.47V30.0158H1206.46V28.2811Z" fill="black"/>
<path d="M1147.91 15.4056H1133.13C1133.2 17.5014 1134.79 18.8713 1136.83 19.0108C1138.48 19.1252 1140.3 18.7819 1141.22 17.2725H1147.24C1146.71 18.8284 1145.3 20.1481 1143.89 20.9528C1138.12 24.2504 1126.42 22.6302 1126.34 14.3004C1126.28 6.94343 1133.86 4.70807 1139.94 5.68448C1144.88 6.47847 1148.57 10.1588 1147.91 15.4056H1147.91ZM1141.12 12.0722C1140.76 9.75818 1138.58 8.58507 1136.38 8.95346C1134.72 9.23243 1133.51 10.4234 1133.2 12.0722H1141.12Z" fill="black"/>
<path d="M1206.6 10.6023H1200.68C1200.73 10.148 1200.25 9.66521 1199.91 9.40412C1198.97 8.67092 1196.89 8.61728 1195.75 8.83187C1193.73 9.21814 1193.56 10.5093 1195.64 11.078C1199.23 12.0615 1207.77 11.4034 1207.33 17.1045C1206.84 23.5745 1195.12 23.274 1190.96 21.1782C1189.19 20.284 1187.83 18.7139 1187.43 16.7397H1193.52C1193.87 17.7161 1194.43 18.3491 1195.4 18.7246C1196.62 19.1968 1199.91 19.44 1200.74 18.2418C1201.75 16.7969 1198.74 16.3105 1197.9 16.1603C1194.33 15.5272 1186.51 15.47 1187.95 9.819C1189.12 5.22312 1197.2 4.89407 1200.86 5.79179C1203.37 6.40696 1205.88 7.97707 1206.6 10.6023H1206.6Z" fill="black"/>
<path d="M1171.53 6.19957V14.9049C1171.53 15.234 1171.78 15.9958 1171.92 16.3177C1173.19 19.2612 1177.41 18.9679 1178.34 15.9243C1178.38 15.7776 1178.52 15.284 1178.52 15.1732V6.19957H1184.77V21.5752L1184.67 21.6754H1178.72V19.9407L1177.38 20.9708C1172.89 23.8499 1165.8 21.7076 1165.34 15.9064V6.13519L1171.53 6.20315V6.19957Z" fill="black"/>
<path d="M1085.42 6.33539V15.0407C1085.42 17.8233 1088.83 19.5329 1091.04 17.809C1091.62 17.3512 1092.4 16.1244 1092.4 15.3769V6.33896H1098.66V21.7504H1092.6V20.0158C1088.37 24.3649 1079.62 22.4979 1079.22 15.8491V6.33896H1085.41L1085.42 6.33539Z" fill="black"/>
<path d="M1163.54 5.66655V10.3375C1161 9.86544 1157.89 10.638 1157.13 13.4205C1157.09 13.5743 1156.95 14.1251 1156.95 14.2396V21.7432H1150.76V6.26741H1156.68V9.46844L1157.12 8.39905C1158.33 5.94552 1161.07 5.60217 1163.54 5.66655Z" fill="black"/>
<path d="M449.045 101.19C447.11 99.5181 445.907 96.6223 445.683 94.068C445.381 90.5709 445.289 79.4927 446.334 76.5471C447.697 72.7085 451.126 70.3392 455.11 70.0297C458.877 69.7344 468.3 69.5352 471.818 70.0652C475.645 70.6416 479.163 74.9462 479.505 78.7421C479.864 82.7372 479.917 91.5208 479.451 95.4376C478.971 99.4683 475.183 103.136 471.145 103.495C467.158 103.851 457.201 103.976 453.378 103.449C451.99 103.257 450.101 102.101 449.045 101.187V101.19ZM470.95 100.639C470.765 93.4134 468.844 85.3164 464.696 79.3255C460.549 73.3346 453.868 69.4356 449.255 77.1519C462.384 73.1603 469.278 90.1938 469.531 100.639H470.95ZM471.131 72.8864C468.805 72.5022 465.568 73.171 463.128 72.8864C469.2 79.1761 471.544 87.668 472.373 96.1918C472.465 97.1346 472.305 98.0987 472.373 99.0414C472.412 99.5715 472.099 100.07 472.91 99.9308C474.902 98.8884 476.232 96.882 476.549 94.6728C477.029 91.3358 476.983 82.9044 476.638 79.4714C476.342 76.5293 474.194 73.3951 471.128 72.8864H471.131ZM468.108 100.635C467.841 94.7119 462.487 81.7375 456.109 80.439C453.484 79.9018 450.023 80.7557 449.134 83.6195C448.618 85.2737 448.707 92.4244 448.885 94.4273C449.02 95.9357 449.625 97.5793 450.681 98.6785C451.158 99.1766 453.52 100.639 454.057 100.639H468.108V100.635Z" fill="black"/>
<path d="M501.367 73.242C503.359 73.5231 506.023 75.3481 506.443 77.415C506.98 80.0583 506.817 82.9577 504.761 84.8147C503.981 85.5191 502.786 85.448 502.971 86.3978C508.606 87.2659 508.848 95.9747 504.867 98.7959C504.519 99.0413 501.929 100.279 501.726 100.279H488.031V84.6262H497.102C497.419 84.6262 500.154 83.9324 500.467 83.7226C501.89 82.7656 501.968 79.1155 500.727 77.9807C500.588 77.8526 499.322 77.1589 499.236 77.1589H488.031V73.2456C492.168 73.6654 497.372 72.6835 501.371 73.2456L501.367 73.242ZM493.363 96.7218H498.521C502.423 96.7218 503.651 90.2257 500.328 88.511C498.987 87.8173 494.989 87.5007 493.584 87.8706C492.705 88.1019 493.363 88.6391 493.363 88.7173V96.7218Z" fill="black"/>
<path d="M543.874 91.0297C542.803 96.8356 548.406 101.026 549.772 93.4987L554.19 93.52C554.19 99.4184 549.267 102.3 543.799 100.532C537.695 98.5575 537.717 86.2591 541.039 81.9651C542.401 80.2041 543.643 79.7417 545.82 79.6278C550.213 79.3966 553.048 80.2077 554.112 84.8859C554.46 86.4156 554.94 89.8486 554.019 91.0262H543.881L543.874 91.0297ZM543.874 87.828H549.566C550.487 80.7378 543.472 81.307 543.874 87.828Z" fill="black"/>
<path d="M514.352 91.0297C514.409 93.4204 514.968 98.9204 518.617 97.2483C520.232 96.5084 519.848 94.2244 520.09 93.922C520.503 93.4062 524.519 93.4311 524.693 94.0892C524.074 103.631 510.56 103.51 509.714 93.7121C509.319 89.1478 509.259 80.4994 515.27 79.6776C523.9 78.5036 525.219 83.5305 525.02 91.0297H514.349H514.352ZM520.4 87.828C520.147 85.1456 519.813 81.5774 516.22 83.1178C514.89 83.687 514.089 86.7287 514.886 87.828H520.4Z" fill="black"/>
<path d="M594.743 100.279H589.763C589.336 96.4551 588.052 100.155 586.149 100.753C578.882 103.04 576.342 92.2429 582.097 89.5855C584.114 88.6569 589.222 88.3652 589.393 85.8536C589.702 81.3142 583.652 81.9972 584.071 86.0493H579.803C578.305 78.5037 592.103 77.4614 593.797 82.9044C594.857 86.3054 593.644 93.9185 594.031 97.967C594.113 98.8102 594.38 99.5323 594.743 100.279ZM589.404 90.3219C586.636 91.1401 583.381 91.3607 583.73 95.0783C583.911 97.0172 584.818 97.6753 586.707 97.4156C590.275 96.9282 589.293 92.9687 589.4 90.3183L589.404 90.3219Z" fill="black"/>
<path d="M563.084 73.9536V79.4677C563.533 80.4639 566.062 79.7737 566.286 80.0014V83.0004L563.084 83.2067V95.4802C563.084 97.0776 565.094 97.0918 566.282 97.0847L565.952 100.482C564.244 100.717 560.609 100.959 559.271 99.8204C557.272 98.1164 558.215 86.6753 558.361 83.7368C557.984 82.6838 555.522 83.6941 555.348 82.6873L555.611 80.0014L557.87 79.948L558.414 79.4393L558.101 73.9536H563.081H563.084Z" fill="black"/>
<path d="M574.821 80.0013H577.67L577.674 82.9968L574.821 83.2031V96.1881C574.821 96.9459 576.991 97.2838 577.67 97.074L577.617 100.052L577.083 100.585C574.529 100.735 570.57 101.105 569.923 97.8851C569.115 93.8757 570.396 88.0093 569.791 83.7865L569.258 83.2529L566.988 83.0003V80.0013C567.97 79.9373 569.165 80.3464 569.841 79.4677V73.9535C571.42 74.1741 573.59 73.3985 574.821 74.4871V80.0013Z" fill="black"/>
<path d="M527.512 80.0014H532.14C532.346 80.2077 531.67 82.9933 532.666 82.4881C533.893 80.5279 535.515 79.2899 537.831 79.6421L537.803 84.242C536.255 84.2918 534.505 84.0463 533.392 85.3448C533.26 85.4978 532.492 86.8461 532.492 86.935V100.276H527.512V80.0014Z" fill="black"/>
<path d="M694.742 118.407V85.3565C694.871 83.4938 695.293 81.3366 696.862 80.1373C698.431 78.9381 700.523 78.8068 702.428 78.7075H710.775V82.3016C708.498 82.33 706.214 82.2413 703.94 82.3549C700.29 82.6103 701.499 86.8786 701.277 89.3232L701.349 89.4829H709.131C709.145 89.5184 709.085 89.5397 709.085 89.5539V93.7299H701.349L701.277 118.407H694.742Z" fill="black"/>
<path d="M765.309 86.0484C767.3 85.9207 769.563 86.3181 771.104 87.6451C773.545 89.7455 774.075 93.9464 774.207 96.9729C774.45 102.497 774.071 111.023 766.753 111.456C758.388 111.949 757.584 103.324 757.845 97.0652C758.052 92.0517 759.235 86.4316 765.313 86.0484H765.309ZM765.97 89.7774C764.204 89.8236 764.254 92.5378 764.19 93.7974C764.04 96.7103 764.097 99.8362 764.194 102.753C764.229 103.856 764.183 106.23 764.851 107.092C765.327 107.706 766.163 107.897 766.803 107.394C767.854 106.563 767.776 103.374 767.815 102.1C767.901 99.3004 767.922 96.4549 767.772 93.659C767.704 92.3959 767.847 89.7278 765.977 89.7774H765.97Z" fill="black"/>
<path d="M727.469 99.0947H718.464C718.396 99.1372 718.399 99.1869 718.392 99.2543C718.328 99.8007 718.432 100.393 718.442 100.933C718.474 102.423 718.446 103.97 718.689 105.446C718.893 106.691 719.422 107.802 720.902 107.67C722.382 107.539 722.496 106.269 722.528 105.112H726.854C726.893 107.163 726.336 109.302 724.498 110.448C722.493 111.697 718.821 111.8 716.712 110.764C712.311 108.596 711.886 101.401 712.086 97.1574C712.351 91.5834 714.163 85.6724 720.952 86.0307C727.744 86.3891 727.54 94.0919 727.462 99.0947H727.469ZM718.442 95.5502H722.367C722.435 95.5076 722.432 95.4579 722.439 95.3905C722.503 94.8547 722.425 93.8152 722.389 93.2439C722.314 92.0802 722.246 90.0294 720.755 89.8271C718.389 89.5078 718.603 92.0376 718.439 93.6129V95.5502H718.442Z" fill="black"/>
<path d="M761.244 81.4005C761.966 82.1065 762.713 82.841 763.342 83.6322C763.431 83.7457 763.907 84.3063 763.814 84.4021H763.7C757.612 79.889 750.204 76.8199 742.626 75.8726C734.94 74.9146 724.598 76.089 720.04 83.1177C719.954 83.249 719.514 84.0615 719.453 84.0651C719.385 84.0473 719.343 84.0012 719.296 83.9515C718.996 83.6216 718.535 82.7949 718.295 82.3797C717.201 80.4815 716.075 77.7956 715.911 75.6029C715.871 75.0743 715.964 75.0601 716.325 74.723C718.985 72.2571 722.971 70.7953 726.521 70.1886C738.357 68.1627 752.76 73.1016 761.247 81.4005H761.244Z" fill="black"/>
<path d="M783.562 78.7109V106.535C783.562 106.567 783.698 107.007 783.726 107.071C784.077 107.901 785.128 107.958 785.914 107.958V111.222H781.471C778.511 110.998 777.517 109.054 777.402 106.35V78.7109H783.565H783.562Z" fill="black"/>
<path d="M742.373 86.4989V91.6294C740.857 91.0936 739.302 90.9198 737.7 91.1682C737.278 91.2356 736.76 91.3562 736.449 91.6507V111.218H730.336V86.3818L730.407 86.3109H735.369L735.745 87.4782C736.549 86.8076 737.639 86.2825 738.69 86.1299C739.927 85.9525 741.229 85.9561 742.376 86.4989H742.373Z" fill="black"/>
<path d="M756.388 86.499V91.6295C754.872 91.1044 753.317 90.9128 751.716 91.1682C751.283 91.2392 750.783 91.3386 750.465 91.6508V111.218H744.352V86.3145H749.381L749.71 87.4357C749.789 87.5031 750.243 87.0915 750.354 87.0241C751.365 86.3926 752.534 86.0874 753.728 86.0342C754.669 85.9916 755.534 86.1158 756.388 86.5026V86.499Z" fill="black"/>
<path d="M794.519 86.3146V111.222H788.406V86.382L788.478 86.3146H794.519Z" fill="black"/>
<path d="M794.519 78.7109V84.3559H788.406V78.7819L788.478 78.7109H794.401C794.43 78.7109 794.473 78.75 794.519 78.7109Z" fill="black"/>
</g>
</svg>
