<svg width="857" height="183" viewBox="0 0 857 183" fill="none" xmlns="http://www.w3.org/2000/svg">
<g opacity="0.6">
<path d="M175.978 7.50171L178.309 13.889L180.765 7.50171H188.37V22.1447H183.341V14.6111L179.998 22.1482L176.663 22.1342L173.402 14.7338V22.1447H168.434V7.50171H175.978Z" fill="black"/>
<path d="M223.578 14.6111V7.50171H229.037V22.1447H223.424L217.444 15.0353V22.1447H211.738V7.50171H217.351L223.578 14.6111Z" fill="black"/>
<path d="M245.232 14.6111V7.50171H250.628V22.1447H244.986L239.034 15.0353V22.1447H233.332V7.50171H238.942L245.232 14.6111Z" fill="black"/>
<path d="M164.875 0.0312335V4.12932H153.375C153.278 4.12932 152.872 4.31512 152.787 4.39575C152.38 4.7989 152.715 5.38784 153.218 5.486C156.554 5.8611 162.52 4.40977 164.743 7.6034C166.151 9.62615 165.624 13.0091 163.521 14.3973C163.004 14.7374 161.646 15.2772 161.044 15.2772H148.253V11.06H160.121C160.196 11.06 160.488 10.8952 160.549 10.8181C160.887 10.3869 160.645 9.69977 160.107 9.56656C157.601 9.41582 154.939 9.72081 152.455 9.55254C149.066 9.32467 147.305 6.67792 148.047 3.47727C148.977 -0.533174 153.417 0.017211 156.561 0.0347392C159.333 0.0487617 162.106 0.017211 164.875 0.0347392V0.0312335Z" fill="black"/>
<path d="M164.875 17.2019V21.3H153.435C153.367 21.3 152.89 21.4788 152.818 21.5384C152.255 22.0432 152.84 22.6356 153.431 22.6882C156.813 22.9827 162.729 21.6085 164.864 24.9564C165.93 26.6286 165.662 29.4892 164.294 30.9405C163.656 31.6171 162.042 32.4444 161.104 32.4444H148.253V28.2867H159.875C159.985 28.2867 160.395 28.1325 160.488 28.0483C160.919 27.6557 160.669 26.8424 160.092 26.7477C157.572 26.569 154.892 26.8915 152.387 26.7232C150.085 26.569 148.292 25.1772 147.95 22.888C147.608 20.5989 148.574 18.4604 150.826 17.5945C151.083 17.4964 152.041 17.2019 152.266 17.2019H164.871H164.875Z" fill="black"/>
<path d="M145.679 7.50171V11.2983H135.743V12.8057H143.869L143.961 12.8969V16.3009H135.836L135.743 16.3885V18.0467H146.107V22.1447H130.344V7.50171H145.679Z" fill="black"/>
<path d="M210.329 22.1447H204.288L202.962 19.5891L202.759 19.4874L196.814 19.5014L195.424 22.1412H189.352L196.925 7.49463L202.816 7.55773L210.329 22.1377V22.1447ZM198.308 15.5751H201.376L199.812 12.6234L198.308 15.5751Z" fill="black"/>
<path d="M102.559 7.50171L107.095 16.5392L111.511 7.50171H117.955L110.132 22.1447L109.954 22.2078L103.66 22.1728L95.6875 7.50171H102.559Z" fill="black"/>
<path d="M125.686 7.50171H119.98V22.1412H125.686V7.50171Z" fill="black"/>
<path fill-rule="evenodd" clip-rule="evenodd" d="M360.314 0.415888L351.152 8.82027C350.819 9.1247 350.629 9.55597 350.629 10.009V22.7225C350.629 23.6104 351.341 24.3316 352.219 24.3316H370.707C371.581 24.3316 372.293 23.6104 372.293 22.7225V10.0126C372.293 9.55597 372.1 9.11745 371.76 8.81303L362.433 0.405016C361.828 -0.138605 360.912 -0.134981 360.31 0.415888H360.314ZM361.384 3.24997C363.035 4.73949 368.692 9.83866 369.572 10.6287V21.6352H353.35V10.6215C354.213 9.82778 359.748 4.75036 361.388 3.24997H361.384Z" fill="#010101"/>
<path fill-rule="evenodd" clip-rule="evenodd" d="M361.393 9.32762C360.638 10.0198 358.085 12.361 357.688 12.7234V17.8009H365.167V12.7307C364.759 12.3646 362.152 10.0162 361.393 9.32762ZM453.153 8.72239V11.7485H459.097V23.1175H462.355V11.7485H468.151V8.72239H453.153ZM503.188 8.72239V18.9461L494.266 9.62117C493.475 8.77675 492.555 8.42883 491.527 8.59192C490.596 8.73688 489.991 9.50883 489.991 10.5526V23.1211H493.181V12.8974L501.957 22.0773C502.866 23.0486 503.693 23.4183 504.638 23.2842C506.192 23.0595 506.371 21.8998 506.371 21.0481V8.72239H503.181H503.188ZM469.716 15.9018C469.716 22.1426 472.82 23.3603 478.409 23.3603C483.998 23.3603 487.098 22.1426 487.098 15.9018C487.098 9.66104 483.994 8.44333 478.409 8.44333C472.823 8.44333 469.716 9.66104 469.716 15.9018ZM483.658 15.9018C483.658 20.0623 481.857 20.2544 478.409 20.2544C474.961 20.2544 473.156 20.0623 473.156 15.9018C473.156 11.7413 474.954 11.5492 478.409 11.5492C481.864 11.5492 483.658 11.7413 483.658 15.9018ZM427.919 23.1139H431.152V8.72239H427.919V23.1139ZM420.859 17.6486C422.889 17.1413 424.042 15.5756 424.042 13.4374C424.042 10.5272 422.144 8.71876 419.09 8.71876H408.918V23.1102H412.108V17.9748H417.278L420.859 23.1102H424.604L420.859 17.645V17.6486ZM412.108 11.7087H418.642C420.565 11.7087 420.798 12.593 420.798 13.4265C420.798 14.2601 420.547 15.1589 418.653 15.1589H412.112V11.7087H412.108ZM444.435 14.068H441.578C439.129 14.068 438.628 13.6005 438.628 12.7126C438.628 11.6326 440.268 11.2158 442.58 11.2158C444.614 11.2158 446.537 11.5637 448.76 12.6183L450.468 10.1829C448.04 8.70064 445.635 8.16064 442.602 8.16064C437.969 8.16064 435.198 9.92198 435.198 12.872C435.198 16.0866 437.826 17.1848 441.209 17.1521H444.353C447.446 17.1521 447.858 17.5109 447.858 18.7033C447.858 19.8956 446.146 20.6204 443.39 20.6204C440.966 20.6204 438.474 20.1384 436.286 18.6562L434.553 21.1496C436.877 23.0196 439.741 23.6647 443.372 23.6647C448.438 23.6647 451.345 21.7983 451.345 18.5474C451.345 15.5575 449.018 14.0644 444.428 14.0644L444.435 14.068ZM396.931 8.29474C396.273 8.29474 395.625 8.60279 395.313 9.11379L386.874 23.1211H390.669L392.213 20.49H401.647L403.19 23.1211H406.985L398.546 9.11379C398.235 8.59917 397.587 8.29474 396.924 8.29474H396.931ZM396.935 12.4516C397.046 12.6437 398.575 15.2531 400.096 17.8407H393.774C393.774 17.8407 396.82 12.6473 396.935 12.4516Z" fill="#010101"/>
<path d="M650.567 29.6233L650.734 29.2717L656.389 8.13672C656.51 7.89411 656.72 7.70073 656.991 7.63041C658.329 7.71479 659.831 7.50735 661.147 7.62338C661.643 7.66908 661.825 8.02069 661.704 8.48481L653.76 34.145C653.592 34.4755 653.321 34.6021 652.953 34.6372C651.391 34.7743 649.632 34.5282 648.048 34.6372C647.752 34.6021 647.499 34.4052 647.363 34.1485L639.391 8.26681C639.408 7.90466 639.605 7.66205 639.979 7.62338C641.299 7.48977 642.858 7.73237 644.203 7.62338C644.592 7.66908 644.813 7.9785 644.913 8.3301L650.563 29.6198L650.567 29.6233Z" fill="black"/>
<path d="M626.374 13.488C626.274 13.4318 626.388 13.1646 626.42 13.0837C626.777 12.1414 627.583 11.0127 628.036 10.0318C628.799 8.37922 629.649 6.12543 629.952 4.33928C630.019 3.94548 630.294 1.82881 629.42 2.71838C628.978 3.16843 628.528 4.33576 628.264 4.94052C627.002 7.83423 625.931 10.8194 625.2 13.8924C625.207 14.1245 625.999 14.6694 626.217 14.898C627.555 16.3009 628.043 17.8444 627.861 19.7572C627.644 22.0215 626.841 24.2648 627.18 26.5713L631.3 26.3463C631.664 26.4095 631.821 26.7822 631.478 26.9862C629.467 27.1479 627.44 27.2147 625.421 27.3097C625.214 26.5045 623.777 26.4342 624.241 25.418C624.455 24.9469 625.407 24.0749 625.778 23.5721C626.855 22.1235 627.38 20.5518 626.902 18.7516C626.277 16.3958 624.472 17.4225 623.495 18.8782C622.339 20.6045 621.651 23.3189 621.847 25.3793C621.933 26.2619 622.753 26.8491 622.739 27.5593C622.721 28.3821 621.95 28.3574 621.658 28.9235C621.183 29.8342 622.193 30.6429 623.056 30.7273C624.198 30.8398 625.122 30.4319 625.486 29.3208L629.57 29.5072C629.759 29.5916 630.209 29.5248 630.33 29.6443C630.469 29.7814 630.44 30.1612 630.187 30.1788C628.91 30.1471 627.626 30.0381 626.352 29.9432C625.56 31.1175 624.415 32.0563 623.167 32.7349C621.579 33.5999 620.734 33.7476 619.072 32.9424C617.67 32.2638 616.378 31.1914 615.476 29.9432L612.262 30.1823C612.001 30.1436 611.48 30.3088 611.423 29.9643C611.388 29.7533 611.438 29.6338 611.655 29.5845C613.214 29.458 614.784 29.4158 616.346 29.3244C616.728 30.4143 617.698 30.8574 618.84 30.7343C619.717 30.6394 620.745 29.7428 620.138 28.8427C619.831 28.3891 619.168 28.3012 619.118 27.6472C619.068 26.9721 619.746 26.4799 619.931 25.8786C620.556 23.8358 619.189 19.1665 617.441 17.8163C616 16.7017 615.08 17.7706 614.848 19.2227C614.58 20.8929 615.133 22.3239 616.118 23.6424C616.492 24.1417 617.306 24.866 617.559 25.3371C618.141 26.4131 616.685 26.4834 616.41 27.3167L612.137 27.1339C611.602 26.9756 610.863 27.176 610.353 26.9932C610.039 26.8807 610.143 26.3533 610.524 26.3955C611.477 26.4553 612.426 26.4799 613.378 26.5185C613.599 26.5291 614.509 26.6838 614.623 26.5185C614.687 26.4271 614.72 25.2176 614.712 25.0172C614.566 21.2726 612.501 17.9956 615.704 14.8101C615.922 14.5921 616.557 14.2159 616.582 13.9557C616.2 12.2152 615.701 10.4959 615.087 8.82224C614.495 7.20134 613.642 4.83856 612.8 3.37588C611.869 1.76201 611.637 2.77463 611.809 4.04744C612.126 6.44539 613.378 9.33559 614.495 11.4839C614.691 11.8601 615.544 13.1224 615.462 13.4599C615.437 13.5197 615.305 13.5549 615.248 13.5478C614.866 13.4916 614.277 12.5422 614.063 12.2152C612.28 9.47975 610.446 4.45179 610.739 1.19241C611.038 -2.14081 613.91 2.48632 614.423 3.30556C616.371 6.41023 618.062 9.83135 619.328 13.2595L619.639 13.3228C620.484 13.1927 621.337 13.2138 622.182 13.3228L622.393 13.2208C623.217 10.9213 624.255 8.69215 625.407 6.53329C626.142 5.15852 628.553 0.752901 629.827 0.13056C630.654 -0.273786 630.947 0.506778 631.018 1.19592C631.35 4.44827 629.545 9.41997 627.761 12.1519C627.579 12.4332 626.788 13.7377 626.374 13.4951V13.488ZM622.521 31.8243C621.929 31.6801 621.426 31.318 620.991 30.9101C620.484 31.2441 620.028 31.6731 619.418 31.8243C620.199 32.7209 621.74 32.7209 622.521 31.8243Z" fill="#070707"/>
<path d="M719.751 32.7982C717.653 34.8059 714.839 35.706 711.931 35.0907C708.314 34.3242 707.158 30.6253 707.954 27.3835C709.145 22.5243 715.356 22.9287 719.316 22.9603V21.2199C719.316 20.5342 718.898 19.606 718.303 19.2227C717.022 18.393 713.794 18.7305 712.281 18.9379C711.628 19.0258 710.483 19.381 709.912 19.3634C709.556 19.3528 709.363 19.1173 709.32 18.7797C709.256 18.2488 709.267 16.9373 709.32 16.3958C709.384 15.777 709.638 15.6399 710.198 15.4887C712.909 14.7679 718.656 14.4233 721.231 15.4781C723.507 16.4099 724.131 18.5477 724.271 20.7944L724.256 34.0992C724.174 34.3347 724.014 34.5879 723.739 34.6301C722.683 34.5598 721.488 34.7356 720.45 34.6371C720.157 34.609 719.74 34.3629 719.74 34.0535V32.8017L719.751 32.7982ZM719.316 26.1388C718.502 26.1634 717.678 26.1037 716.861 26.1388C715.342 26.1986 713.255 26.3111 712.816 28.0832C712.456 29.5388 712.745 31.5465 714.575 31.754C716.448 31.9684 717.949 31.1738 719.316 30.0205V26.1423V26.1388Z" fill="black"/>
<path d="M671.913 21.16C671.695 18.8324 669.901 18.6495 667.907 18.6847C666.212 18.7128 664.547 19.0363 662.884 19.3C662.467 19.2754 662.385 18.8851 662.356 18.537C662.313 18.0272 662.296 16.3711 662.47 15.9562C662.67 15.4816 663.077 15.4534 663.526 15.3444C666.095 14.7362 671.139 14.4514 673.604 15.3409C676.051 16.2235 676.711 18.2874 676.875 20.6713L676.864 34.0991C676.757 34.3944 676.543 34.5808 676.219 34.6265C675.566 34.7179 673.736 34.7003 673.058 34.6335C672.766 34.6054 672.348 34.3593 672.348 34.0498V32.7981C670.864 34.1166 669.159 35.1152 667.108 35.2453C663.883 35.4492 661.24 34.3452 660.526 31.026C660.191 29.4684 660.284 27.4256 661.09 26.0192C663.091 22.5313 668.438 22.9708 671.913 22.9602C671.874 22.3765 671.966 21.7331 671.913 21.1565V21.16ZM671.913 26.1387C671.117 26.1633 670.315 26.1071 669.523 26.1387C666.869 26.2372 665.114 26.5817 665.335 29.6583C665.463 31.4585 666.694 31.898 668.346 31.7609C669.723 31.6484 670.875 30.8397 671.913 30.0204V26.1422V26.1387Z" fill="black"/>
<path d="M732.97 17.2186L734.5 16.1919C738.984 13.7939 745.198 14.0225 745.562 20.2424C745.733 23.1537 745.541 26.3392 745.562 29.2857C745.573 30.7343 745.783 32.4958 745.626 33.9269C745.583 34.3312 745.344 34.6406 744.913 34.6934C744.132 34.7848 742.173 34.7672 741.37 34.6934C740.957 34.6547 740.618 34.4156 740.593 33.9901C740.418 30.017 740.839 25.8364 740.6 21.8879C740.497 20.158 739.961 19.1735 738.085 19.0504C736.837 18.9696 735.634 19.3247 734.561 19.9189C734.314 20.0525 733.448 20.5483 733.401 20.7944V34.0534C733.408 34.4472 733.059 34.6617 732.688 34.6969C731.896 34.7707 729.92 34.7883 729.146 34.6969C728.874 34.6652 728.589 34.4859 728.511 34.2222C728.325 28.2941 728.486 22.3344 728.429 16.3958C728.436 15.9458 728.568 15.4746 729.088 15.3937C729.702 15.2988 731.532 15.3305 732.188 15.3867C732.356 15.4008 732.577 15.443 732.713 15.5449C732.773 15.5906 732.962 15.8719 732.962 15.9106V17.2256L732.97 17.2186Z" fill="black"/>
<path d="M630.589 8.11538C630.689 8.02748 631.067 8.61466 631.134 8.70608C635.932 15.2495 637.167 25.3089 632.957 32.4113C627.325 41.9152 615.292 42.2598 609.281 32.9141C604.412 25.3546 606.05 15.0701 611.258 8.11538L612.446 10.8333C610.748 13.5653 609.542 16.7508 609.125 19.9469C608.575 24.1697 609.342 28.6386 611.857 32.1476C616.708 38.916 625.27 38.8703 630.075 32.0878C634.513 25.8222 633.385 17.0637 629.469 10.8368C629.868 9.94373 630.332 9.06823 630.585 8.1189L630.589 8.11538Z" fill="black"/>
<path d="M754.688 15.3867H760.428C760.492 15.3867 760.806 15.6153 760.859 15.6926C760.934 15.8016 760.981 15.9739 761.002 16.104C761.084 16.656 761.07 17.9605 761.02 18.5336C760.995 18.829 760.938 19.1208 760.667 19.286C760.627 19.3107 760.381 19.4161 760.367 19.4161H754.688V28.9798C754.688 29.5283 755.087 30.3686 755.526 30.7203C756.6 31.5782 759.09 31.1316 760.424 31.0859C760.841 31.0719 761.209 31.1316 761.266 31.6063C761.334 32.1864 761.323 33.5858 761.266 34.1765C761.234 34.4965 761.052 34.7602 760.738 34.8797C760.331 35.0344 759.225 35.1434 758.747 35.1821C753.846 35.583 750.026 34.9325 749.719 29.349L749.737 11.2132C749.847 10.7385 750.243 10.6471 750.682 10.6155C751.492 10.5557 753.118 10.5346 753.903 10.626C754.046 10.6436 754.253 10.6963 754.374 10.7737C754.456 10.8264 754.688 11.1393 754.688 11.1991V15.3832V15.3867Z" fill="black"/>
<path d="M700.124 7.64092L704.016 7.63037C704.384 7.71827 704.558 8.04175 704.601 8.39687L704.612 33.6878C704.59 34.1238 704.448 34.5528 703.955 34.6301C702.846 34.7989 701.33 34.5141 700.178 34.6301C699.81 34.5422 699.636 34.2188 699.593 33.8636L699.582 8.5129C699.618 8.12262 699.732 7.79211 700.124 7.64092Z" fill="black"/>
<path d="M690.816 7.64092L694.708 7.63037C694.937 7.66553 695.2 7.92572 695.236 8.15075L695.211 34.1449C695.126 34.3946 694.915 34.588 694.648 34.6266C694.066 34.7145 691.451 34.7145 690.87 34.6266C690.563 34.5809 690.342 34.3418 690.281 34.0465L690.306 8.11207C690.395 7.86243 690.563 7.71476 690.82 7.6374L690.816 7.64092Z" fill="black"/>
<path d="M681.637 15.4009C682.782 15.4853 684.234 15.2391 685.34 15.3939C685.643 15.436 685.929 15.6857 685.982 15.9846L685.968 34.1485C685.879 34.3559 685.75 34.5528 685.519 34.6231L681.562 34.6337C681.27 34.5423 681.102 34.3348 681.045 34.043L681.027 16.0935C681.07 15.7525 681.309 15.5064 681.634 15.4079L681.637 15.4009Z" fill="black"/>
<path d="M619.964 2.57408C621.783 2.4264 623.524 2.70065 625.168 3.46012C625.325 3.53396 626 3.81173 625.985 3.9805L624.78 6.09365C622.357 4.747 619.582 4.747 617.16 6.09365L615.883 3.92776C617.085 3.22455 618.558 2.68659 619.964 2.57056V2.57408Z" fill="black"/>
<path d="M681.449 7.64076C682.708 7.72866 684.242 7.48254 685.469 7.6267C685.887 7.67592 686.076 7.93962 686.119 8.32991C686.201 9.05421 686.193 10.7771 686.119 11.5119C686.072 11.969 685.801 12.2257 685.341 12.2714C684.499 12.3593 682.591 12.3523 681.738 12.2714C681.331 12.2327 681.014 12.0604 680.964 11.628C680.878 10.9248 680.885 8.97334 680.964 8.26662C681 7.96072 681.146 7.74976 681.442 7.63724L681.449 7.64076Z" fill="black"/>
<path d="M624.988 19.6764C626.194 19.4865 626.065 21.0125 625.798 21.7579C625.516 22.5384 624.467 23.7093 623.543 23.3331C622.951 23.094 623.315 21.6805 623.497 21.6207C623.7 21.5575 624.268 21.9161 624.378 21.3887C624.478 20.9035 623.864 21.0019 623.982 20.5765C624.082 20.2214 624.621 19.7326 624.995 19.6764H624.988Z" fill="black"/>
<path d="M617.914 20.8718C617.746 21.0265 617.55 20.9175 617.554 21.3429C617.561 21.9688 618.346 21.589 618.428 21.6453C618.652 21.8 618.92 23.2838 618.267 23.3893C616.747 23.6319 615.613 21.5152 615.991 20.2318C616.205 19.5146 617.051 19.5954 617.525 20.0314C617.657 20.151 618.082 20.7171 617.914 20.8718Z" fill="black"/>
<path d="M630.927 27.9741C631.263 28.0655 631.206 28.7547 630.742 28.6738L625.559 28.6457V27.9741H630.927Z" fill="black"/>
<path d="M616.375 27.9741C616.307 28.0726 616.343 28.5859 616.314 28.5859H610.945C610.742 28.5859 610.742 27.9741 610.945 27.9741H616.375Z" fill="black"/>
<path d="M113.632 103.804H111.953C98.5611 103.003 90.963 87.8318 98.939 76.8049C105.902 67.1794 120.546 67.4171 127.138 77.3052C134.537 88.3995 126.878 103.134 113.632 103.808V103.804ZM112.548 71.2808C100.893 71.4618 93.5409 84.1491 99.2599 94.2961C104.754 104.046 118.628 104.982 125.349 95.9814C133.071 85.6357 125.431 71.075 112.548 71.2773V71.2808Z" fill="black"/>
<path d="M147.086 75.5063H158.278C160.899 75.666 163.427 76.7091 164.368 79.3168C165.177 81.5591 164.817 84.1668 162.813 85.6285C162.442 85.8982 162.015 86.0614 161.676 86.3558C166.215 87.5976 167.074 93.3097 163.587 96.2581C162.753 96.9641 160.742 97.9646 159.654 97.9646H147.09V75.5063H147.086ZM152.702 80.1328L152.587 80.2464V84.2661L152.702 84.3797H156.902C159.062 84.3797 159.733 81.073 157.704 80.3209C157.543 80.2605 157.041 80.1293 156.902 80.1293H152.702V80.1328ZM152.662 88.8607V93.2246L152.776 93.3381H157.13C157.337 93.3381 158.053 93.1891 158.278 93.1146C160.093 92.5257 160.221 89.9783 158.542 89.2048C158.331 89.109 157.479 88.8642 157.283 88.8642H152.662V88.8607Z" fill="black"/>
<path d="M237.063 75.5063V83.7765H243.938V75.5063H249.817V97.9646H243.938V89.0877H237.063V97.9646H231.105V75.5063H237.063Z" fill="black"/>
<path d="M176.784 74.999C185.73 74.2468 189.719 82.4176 187.976 90.2124C186.739 95.7436 182.314 99.1105 176.541 98.4116C164.333 96.9321 164.74 76.0101 176.784 74.999ZM177.319 80.3847C171.921 80.963 171.749 91.7415 176.798 92.9939C184.435 94.8921 185.134 79.5474 177.319 80.3847Z" fill="black"/>
<path d="M197.71 74.921C201.225 74.6479 204.694 75.6838 207.037 78.3625L203.568 81.8785C202.202 80.2677 199.243 79.1218 197.264 80.1719C196.287 80.6899 195.788 81.9459 196.537 82.8684C197.428 83.9611 200.904 84.3585 202.338 84.77C205.072 85.5577 207.08 86.8952 207.49 89.8932C208.624 98.1386 198.191 100.267 192.429 96.8861C191.256 96.1978 190.279 95.2293 189.398 94.2075L192.96 90.7625C193.099 90.7376 193.695 91.504 193.87 91.6672C195.456 93.1325 198.237 94.133 200.341 93.3205C201.977 92.6854 202.43 90.6454 200.772 89.7442C199.389 88.992 197.218 88.8608 195.667 88.3676C187.512 85.7705 189.373 75.5774 197.71 74.9246V74.921Z" fill="black"/>
<path d="M219.25 74.9955C221.193 74.8748 223.204 75.2119 224.919 76.1485C226.449 76.9823 227.704 78.366 228.652 79.8064L224.192 82.8647C222.039 78.9868 216.968 79.7638 215.542 83.8333C214.933 85.5718 214.975 87.9276 215.599 89.659C217.036 93.6468 222.099 94.5302 224.231 90.6382L224.335 90.6133L228.802 93.6787C227.055 96.4638 224.602 98.2697 221.215 98.4968C206.147 99.5009 205.505 75.8434 219.254 74.999L219.25 74.9955Z" fill="black"/>
<path d="M106.992 76.113V81.9564H118.754V76.113H119.938C120.17 76.113 122.002 77.7628 122.27 78.0466C127.187 83.3117 126.762 91.5926 121.353 96.3361C121.2 96.4709 120.098 97.3579 120.016 97.3579H118.758V91.5926H106.992V97.3579H105.733C105.458 97.3579 103.469 95.4491 103.177 95.1192C98.8517 90.2266 99.0192 82.7937 103.48 78.0466C103.758 77.7486 105.551 76.113 105.811 76.113H106.995H106.992ZM105.387 78.4653C105.255 78.4334 105.234 78.5185 105.159 78.5788C104.763 78.8804 104.221 79.5155 103.908 79.9164C100.545 84.1881 100.852 90.3969 104.546 94.3635C104.774 94.6083 105.084 94.9631 105.387 95.0837V78.4653ZM120.359 95.0802C124.826 91.1562 125.375 84.3619 121.656 79.7177C121.389 79.3842 120.922 78.8272 120.59 78.5788C120.512 78.5185 120.494 78.4334 120.362 78.4653V95.0802H120.359ZM118.754 83.5495H106.992V89.9215H118.754V83.5495Z" fill="black"/>
<path d="M350.629 69.8972L350.857 69.7935C355.797 69.9472 360.843 69.6003 365.768 69.797C368.79 69.9186 373.096 70.5267 373.759 74.1283C374.179 76.4173 373.406 78.4166 371.317 79.4931L369.664 80.1333C372.917 80.5482 375.32 83.0554 374.692 86.4746C374.044 90.0011 370.33 91.539 367.105 91.6785H350.629V69.8972ZM357.219 78.4702H364.439C364.749 78.4702 365.608 78.1626 365.889 77.9909C366.962 77.3436 367.254 75.4122 366.196 74.6397C365.815 74.3607 364.767 74.0675 364.304 74.0675H357.215V78.4702H357.219ZM357.219 87.476C359.314 87.3937 361.492 87.5869 363.577 87.476C364.827 87.4116 367.123 87.2006 367.329 85.6341C367.646 83.2056 366.246 82.5117 364.111 82.4009C361.852 82.2828 359.489 82.4938 357.222 82.4009V87.4724L357.219 87.476Z" fill="black"/>
<path d="M421.771 91.6141H415.648V89.7471L414.981 90.5161C410.829 93.7851 403.613 92.0504 400.872 87.7156C398.224 83.531 400.719 78.1734 404.91 76.217C408.021 74.7649 412.675 74.84 415.448 77.0074V69.865H421.671L421.771 69.9651V91.6141ZM411.033 79.1641C407.397 79.1819 405.059 83.2592 407.273 86.2993C409.293 89.0783 413.727 88.7564 415.274 85.6698C416.831 82.5582 414.39 79.1462 411.033 79.1641Z" fill="black"/>
<path d="M504.687 98.0161H350.695V99.7507H504.687V98.0161Z" fill="black"/>
<path d="M446.128 85.1403H431.356C431.424 87.2362 433.013 88.606 435.048 88.7455C436.702 88.86 438.519 88.5166 439.442 87.0073H445.465C444.934 88.5631 443.527 89.8828 442.115 90.6876C436.338 93.9852 424.638 92.365 424.567 84.0352C424.503 76.6782 432.079 74.4428 438.159 75.4192C443.106 76.2132 446.791 79.8935 446.132 85.1403H446.128ZM439.339 81.807C438.983 79.4929 436.802 78.3198 434.599 78.6882C432.942 78.9672 431.737 80.1582 431.42 81.807H439.339Z" fill="black"/>
<path d="M504.823 80.3373H498.9C498.957 79.883 498.468 79.4002 498.133 79.1391C497.193 78.4059 495.108 78.3523 493.974 78.5669C491.95 78.9531 491.786 80.2443 493.867 80.8129C497.456 81.7965 505.988 81.1384 505.553 86.8395C505.058 93.3095 493.34 93.009 489.181 90.9132C487.41 90.019 486.055 88.4489 485.656 86.4746H491.747C492.096 87.451 492.649 88.0841 493.625 88.4596C494.848 88.9317 498.13 89.1749 498.967 87.9768C499.976 86.5319 496.961 86.0455 496.12 85.8952C492.552 85.2622 484.733 85.205 486.173 79.554C487.342 74.9581 495.418 74.6291 499.078 75.5268C501.59 76.1419 504.099 77.7121 504.826 80.3373H504.823Z" fill="black"/>
<path d="M469.753 75.9345V84.6399C469.753 84.9689 470.003 85.7307 470.142 86.0526C471.414 88.9961 475.637 88.7028 476.56 85.6592C476.603 85.5125 476.742 85.019 476.742 84.9081V75.9345H482.997V91.3102L482.897 91.4103H476.942V89.6757L475.605 90.7057C471.115 93.5849 464.026 91.4425 463.566 85.6413V75.8701L469.753 75.9381V75.9345Z" fill="black"/>
<path d="M383.639 76.0703V84.7757C383.639 87.5582 387.057 89.2678 389.26 87.5439C389.844 87.0861 390.625 85.8594 390.625 85.1119V76.0739H396.879V91.4853H390.824V89.7507C386.597 94.0998 377.841 92.2328 377.445 85.584V76.0739H383.636L383.639 76.0703Z" fill="black"/>
<path d="M461.764 75.4015V80.0725C459.227 79.6004 456.112 80.3729 455.357 83.1555C455.314 83.3093 455.175 83.8601 455.175 83.9745V91.4781H448.984V76.0023H454.908V79.2034L455.339 78.134C456.554 75.6804 459.291 75.3371 461.764 75.4015Z" fill="black"/>
<path d="M609.936 101.19C608 99.518 606.798 96.6222 606.574 94.0678C606.272 90.5708 606.179 79.4926 607.225 76.547C608.587 72.7084 612.016 70.3391 616 70.0296C619.767 69.7343 629.19 69.5351 632.708 70.0651C636.536 70.6414 640.054 74.9461 640.395 78.742C640.755 82.7371 640.808 91.5206 640.342 95.4375C639.862 99.4682 636.073 103.136 632.036 103.495C628.049 103.851 618.092 103.976 614.268 103.449C612.881 103.257 610.992 102.101 609.936 101.186V101.19ZM631.84 100.639C631.655 93.4133 629.735 85.3163 625.587 79.3254C621.439 73.3345 614.759 69.4354 610.145 77.1517C623.275 73.1602 630.169 90.1937 630.421 100.639H631.84ZM632.022 72.8863C629.695 72.502 626.458 73.1709 624.018 72.8863C630.09 79.176 632.434 87.6678 633.263 96.1917C633.356 97.1344 633.196 98.0985 633.263 99.0413C633.302 99.5714 632.989 100.069 633.8 99.9307C635.792 98.8883 637.123 96.8819 637.439 94.6726C637.92 91.3357 637.873 82.9043 637.528 79.4713C637.233 76.5292 635.085 73.395 632.018 72.8863H632.022ZM628.998 100.635C628.731 94.7118 623.378 81.7374 617 80.4389C614.375 79.9017 610.914 80.7555 610.024 83.6194C609.509 85.2736 609.598 92.4243 609.775 94.4272C609.911 95.9356 610.515 97.5791 611.572 98.6784C612.048 99.1765 614.41 100.639 614.948 100.639H628.998V100.635Z" fill="black"/>
<path d="M662.258 73.242C664.25 73.5231 666.914 75.3481 667.334 77.415C667.871 80.0583 667.707 82.9577 665.651 84.8147C664.872 85.5191 663.677 85.448 663.862 86.3978C669.496 87.2659 669.738 95.9747 665.758 98.7959C665.409 99.0413 662.82 100.279 662.617 100.279H648.922V84.6262H657.993C658.309 84.6262 661.045 83.9324 661.358 83.7226C662.781 82.7656 662.859 79.1155 661.617 77.9807C661.479 77.8526 660.212 77.1589 660.127 77.1589H648.922V73.2456C653.059 73.6654 658.263 72.6835 662.261 73.2456L662.258 73.242ZM654.254 96.7218H659.412C663.314 96.7218 664.541 90.2257 661.219 88.511C659.878 87.8173 655.88 87.5007 654.475 87.8706C653.596 88.1019 654.254 88.6391 654.254 88.7173V96.7218Z" fill="black"/>
<path d="M704.765 91.0297C703.694 96.8356 709.297 101.026 710.662 93.4987L715.08 93.52C715.08 99.4184 710.157 102.3 704.69 100.532C698.586 98.5575 698.607 86.2591 701.93 81.9651C703.292 80.2041 704.534 79.7417 706.71 79.6278C711.104 79.3966 713.939 80.2077 715.002 84.8859C715.351 86.4156 715.831 89.8486 714.91 91.0262H704.772L704.765 91.0297ZM704.765 87.828H710.456C711.377 80.7378 704.363 81.307 704.765 87.828Z" fill="black"/>
<path d="M675.243 91.0297C675.3 93.4204 675.858 98.9203 679.508 97.2483C681.123 96.5083 680.739 94.2244 680.981 93.922C681.393 93.4061 685.409 93.431 685.584 94.0892C684.965 103.63 671.451 103.51 670.605 93.7121C670.21 89.1477 670.149 80.4994 676.161 79.6776C684.79 78.5036 686.11 83.5304 685.911 91.0297H675.239H675.243ZM681.29 87.8279C681.038 85.1455 680.703 81.5773 677.111 83.1177C675.78 83.6869 674.98 86.7286 675.777 87.8279H681.29Z" fill="black"/>
<path d="M755.633 100.279H750.653C750.227 96.455 748.943 100.155 747.039 100.753C739.772 103.04 737.232 92.2429 742.988 89.5854C745.005 88.6569 750.113 88.3652 750.284 85.8535C750.593 81.3141 744.542 81.9972 744.962 86.0492H740.693C739.196 78.5037 752.994 77.4613 754.687 82.9043C755.747 86.3053 754.534 93.9185 754.922 97.967C755.004 98.8101 755.271 99.5323 755.633 100.279ZM750.294 90.3218C747.527 91.14 744.272 91.3606 744.621 95.0782C744.802 97.0171 745.709 97.6752 747.598 97.4155C751.166 96.9282 750.184 92.9686 750.291 90.3182L750.294 90.3218Z" fill="black"/>
<path d="M723.975 73.9534V79.4676C724.423 80.4637 726.952 79.7735 727.177 80.0012V83.0002L723.975 83.2065V95.48C723.975 97.0774 725.985 97.0916 727.173 97.0845L726.842 100.482C725.135 100.717 721.499 100.959 720.162 99.8202C718.163 98.1162 719.105 86.6751 719.251 83.7366C718.874 82.6836 716.413 83.6939 716.238 82.6871L716.502 80.0012L718.76 79.9478L719.305 79.4391L718.992 73.9534H723.972H723.975Z" fill="black"/>
<path d="M735.712 80.0013H738.561L738.565 82.9967L735.712 83.203V96.1881C735.712 96.9458 737.882 97.2838 738.561 97.0739L738.508 100.052L737.974 100.585C735.42 100.735 731.461 101.105 730.814 97.885C730.006 93.8757 731.287 88.0093 730.682 83.7865L730.148 83.2529L727.879 83.0003V80.0013C728.861 79.9372 730.056 80.3463 730.732 79.4676V73.9534C732.311 74.174 734.481 73.3985 735.712 74.4871V80.0013Z" fill="black"/>
<path d="M688.402 80.0013H693.03C693.237 80.2077 692.561 82.9932 693.557 82.488C694.784 80.5278 696.406 79.2898 698.722 79.642L698.693 84.2419C697.146 84.2917 695.396 84.0462 694.282 85.3447C694.151 85.4977 693.382 86.846 693.382 86.935V100.276H688.402V80.0013Z" fill="black"/>
<path d="M350.629 182.48V149.43C350.758 147.567 351.179 145.41 352.749 144.211C354.318 143.011 356.409 142.88 358.315 142.781H366.662V146.375C364.385 146.403 362.101 146.315 359.827 146.428C356.177 146.684 357.385 150.952 357.164 153.397L357.235 153.556H365.018C365.032 153.592 364.971 153.613 364.971 153.627V157.803H357.235L357.164 182.48H350.629Z" fill="black"/>
<path d="M421.196 150.122C423.187 149.994 425.45 150.391 426.991 151.718C429.432 153.819 429.961 158.02 430.094 161.046C430.337 166.571 429.958 175.097 422.64 175.529C414.275 176.023 413.47 167.397 413.731 161.138C413.939 156.125 415.122 150.505 421.199 150.122H421.196ZM421.857 153.851C420.091 153.897 420.141 156.611 420.077 157.871C419.927 160.784 419.984 163.909 420.08 166.826C420.116 167.929 420.07 170.303 420.738 171.165C421.214 171.779 422.05 171.971 422.69 171.467C423.741 170.637 423.662 167.447 423.702 166.173C423.787 163.374 423.809 160.528 423.659 157.732C423.591 156.469 423.734 153.801 421.864 153.851H421.857Z" fill="black"/>
<path d="M383.355 163.168H374.35C374.282 163.211 374.286 163.26 374.279 163.328C374.215 163.874 374.318 164.467 374.329 165.006C374.361 166.496 374.333 168.043 374.576 169.519C374.779 170.764 375.308 171.875 376.788 171.744C378.268 171.612 378.383 170.342 378.415 169.186H382.741C382.78 171.236 382.222 173.376 380.385 174.522C378.379 175.771 374.708 175.874 372.599 174.838C368.198 172.67 367.773 165.474 367.973 161.231C368.237 155.657 370.05 149.746 376.839 150.104C383.631 150.462 383.427 158.165 383.348 163.168H383.355ZM374.329 159.624H378.254C378.322 159.581 378.319 159.531 378.326 159.464C378.39 158.928 378.311 157.889 378.276 157.317C378.201 156.154 378.133 154.103 376.642 153.901C374.275 153.581 374.49 156.111 374.325 157.686V159.624H374.329Z" fill="black"/>
<path d="M417.13 145.474C417.852 146.18 418.6 146.914 419.229 147.705C419.318 147.819 419.794 148.38 419.701 148.475H419.586C413.498 143.962 406.091 140.893 398.512 139.946C390.826 138.988 380.484 140.162 375.926 147.191C375.841 147.322 375.401 148.135 375.34 148.138C375.272 148.121 375.229 148.074 375.183 148.025C374.883 147.695 374.421 146.868 374.182 146.453C373.088 144.555 371.962 141.869 371.797 139.676C371.758 139.148 371.851 139.133 372.212 138.796C374.872 136.33 378.858 134.869 382.408 134.262C394.244 132.236 408.647 137.175 417.134 145.474H417.13Z" fill="black"/>
<path d="M439.449 142.784V170.608C439.449 170.64 439.584 171.08 439.613 171.144C439.963 171.974 441.014 172.031 441.801 172.031V175.295H437.357C434.397 175.071 433.403 173.127 433.289 170.424V142.784H439.452H439.449Z" fill="black"/>
<path d="M398.259 150.572V155.703C396.743 155.167 395.188 154.993 393.587 155.242C393.165 155.309 392.647 155.43 392.336 155.724V175.292H386.223V150.455L386.294 150.384H391.256L391.631 151.552C392.436 150.881 393.526 150.356 394.577 150.203C395.814 150.026 397.115 150.03 398.263 150.572H398.259Z" fill="black"/>
<path d="M412.275 150.572V155.703C410.759 155.178 409.204 154.986 407.603 155.242C407.17 155.313 406.669 155.412 406.351 155.724V175.292H400.238V150.388H405.268L405.597 151.509C405.676 151.576 406.13 151.165 406.24 151.097C407.252 150.466 408.421 150.161 409.615 150.108C410.555 150.065 411.42 150.189 412.275 150.576V150.572Z" fill="black"/>
<path d="M450.406 150.388V175.295H444.293V150.455L444.364 150.388H450.406Z" fill="black"/>
<path d="M450.406 142.784V148.429H444.293V142.855L444.364 142.784H450.288C450.317 142.784 450.36 142.823 450.406 142.784Z" fill="black"/>
</g>
</svg>
