<svg width="1164" height="119" viewBox="0 0 1164 119" fill="none" xmlns="http://www.w3.org/2000/svg">
<g opacity="0.6">
<path d="M202.416 11.1471L204.747 17.5344L207.202 11.1471H214.807V25.7901H209.779V18.2565L206.436 25.7936L203.1 25.7796L199.839 18.3792V25.7901H194.871V11.1471H202.416Z" fill="black"/>
<path d="M250.015 18.2565V11.1471H255.475V25.7901H249.862L243.882 18.6807V25.7901H238.176V11.1471H243.789L250.015 18.2565Z" fill="black"/>
<path d="M271.669 18.2565V11.1471H277.065V25.7901H271.423L265.472 18.6807V25.7901H259.77V11.1471H265.379L271.669 18.2565Z" fill="black"/>
<path d="M191.313 3.67662V7.77471H179.812C179.716 7.77471 179.31 7.9605 179.224 8.04113C178.818 8.44428 179.153 9.03323 179.655 9.13139C182.991 9.50649 188.957 8.05516 191.181 11.2488C192.589 13.2715 192.061 16.6545 189.958 18.0427C189.442 18.3828 188.084 18.9226 187.482 18.9226H174.691V14.7053H186.559C186.633 14.7053 186.926 14.5406 186.986 14.4635C187.325 14.0323 187.082 13.3452 186.544 13.2119C184.039 13.0612 181.377 13.3662 178.893 13.1979C175.503 12.9701 173.743 10.3233 174.484 7.12266C175.414 3.11221 179.855 3.6626 182.998 3.68012C185.771 3.69415 188.544 3.6626 191.313 3.68012V3.67662Z" fill="black"/>
<path d="M191.312 20.8472V24.9453H179.872C179.805 24.9453 179.327 25.124 179.256 25.1836C178.693 25.6884 179.277 26.2809 179.869 26.3335C183.251 26.628 189.167 25.2538 191.302 28.6016C192.367 30.2738 192.1 33.1344 190.731 34.5857C190.094 35.2623 188.479 36.0897 187.542 36.0897H174.69V31.932H186.312C186.423 31.932 186.833 31.7777 186.925 31.6936C187.356 31.301 187.107 30.4877 186.53 30.393C184.01 30.2142 181.33 30.5367 178.825 30.3685C176.522 30.2142 174.73 28.8225 174.387 26.5333C174.045 24.2441 175.011 22.1057 177.264 21.2398C177.52 21.1416 178.479 20.8472 178.703 20.8472H191.309H191.312Z" fill="black"/>
<path d="M172.117 11.1471V14.9437H162.181V16.4511H170.306L170.399 16.5423V19.9462H162.273L162.181 20.0339V21.692H172.544V25.7901H156.781V11.1471H172.117Z" fill="black"/>
<path d="M236.766 25.7902H230.725L229.4 23.2346L229.196 23.1329L223.252 23.1469L221.862 25.7867H215.789L223.362 11.1401L229.253 11.2032L236.766 25.7832V25.7902ZM224.745 19.2206H227.814L226.249 16.2689L224.745 19.2206Z" fill="black"/>
<path d="M128.996 11.1471L133.533 20.1846L137.949 11.1471H144.392L136.569 25.7901L136.391 25.8532L130.097 25.8182L122.125 11.1471H128.996Z" fill="black"/>
<path d="M152.124 11.1471H146.418V25.7866H152.124V11.1471Z" fill="black"/>
<path fill-rule="evenodd" clip-rule="evenodd" d="M386.747 8.11767L377.585 16.5221C377.252 16.8265 377.062 17.2578 377.062 17.7108V30.4243C377.062 31.3122 377.775 32.0334 378.652 32.0334H397.141C398.015 32.0334 398.727 31.3122 398.727 30.4243V17.7144C398.727 17.2578 398.534 16.8192 398.194 16.5148L388.867 8.1068C388.262 7.56318 387.345 7.5668 386.744 8.11767H386.747ZM387.818 10.9517C389.468 12.4413 395.125 17.5404 396.006 18.3305V29.337H379.784V18.3233C380.646 17.5296 386.182 12.4521 387.821 10.9517H387.818Z" fill="#010101"/>
<path fill-rule="evenodd" clip-rule="evenodd" d="M387.827 17.0294C387.071 17.7216 384.519 20.0628 384.121 20.4252V25.5026H391.6V20.4325C391.192 20.0664 388.586 17.718 387.827 17.0294ZM479.587 16.4242V19.4503H485.53V30.8193H488.788V19.4503H494.585V16.4242H479.587ZM529.622 16.4242V26.6479L520.7 17.323C519.908 16.4785 518.988 16.1306 517.961 16.2937C517.03 16.4387 516.425 17.2106 516.425 18.2544V30.8229H519.615V20.5992L528.39 29.7791C529.3 30.7504 530.127 31.1201 531.072 30.986C532.626 30.7613 532.805 29.6015 532.805 28.7499V16.4242H529.615H529.622ZM496.149 23.6036C496.149 29.8444 499.253 31.0621 504.842 31.0621C510.431 31.0621 513.532 29.8444 513.532 23.6036C513.532 17.3628 510.428 16.1451 504.842 16.1451C499.257 16.1451 496.149 17.3628 496.149 23.6036ZM510.091 23.6036C510.091 27.7641 508.29 27.9562 504.842 27.9562C501.395 27.9562 499.59 27.7641 499.59 23.6036C499.59 19.4431 501.387 19.251 504.842 19.251C508.297 19.251 510.091 19.4431 510.091 23.6036ZM454.353 30.8156H457.586V16.4242H454.353V30.8156ZM447.292 25.3504C449.322 24.8431 450.475 23.2774 450.475 21.1392C450.475 18.229 448.578 16.4205 445.524 16.4205H435.352V30.812H438.542V25.6766H443.712L447.292 30.812H451.037L447.292 25.3468V25.3504ZM438.542 19.4105H445.076C446.999 19.4105 447.231 20.2948 447.231 21.1283C447.231 21.9619 446.981 22.8606 445.087 22.8606H438.546V19.4105H438.542ZM470.869 21.7698H468.012C465.563 21.7698 465.061 21.3023 465.061 20.4143C465.061 19.3344 466.701 18.9176 469.014 18.9176C471.048 18.9176 472.97 19.2655 475.194 20.3201L476.902 17.8847C474.474 16.4024 472.068 15.8624 469.036 15.8624C464.403 15.8624 461.631 17.6238 461.631 20.5738C461.631 23.7884 464.259 24.8865 467.643 24.8539H470.786C473.88 24.8539 474.291 25.2127 474.291 26.4051C474.291 27.5974 472.58 28.3222 469.823 28.3222C467.399 28.3222 464.907 27.8402 462.72 26.3579L460.987 28.8514C463.311 30.7214 466.175 31.3665 469.805 31.3665C474.871 31.3665 477.779 29.5001 477.779 26.2492C477.779 23.2593 475.452 21.7662 470.862 21.7662L470.869 21.7698ZM423.365 15.9965C422.706 15.9965 422.058 16.3046 421.747 16.8156L413.308 30.8229H417.103L418.646 28.1918H428.08L429.623 30.8229H433.419L424.98 16.8156C424.668 16.3009 424.02 15.9965 423.358 15.9965H423.365ZM423.369 20.1534C423.48 20.3455 425.008 22.9549 426.53 25.5425H420.207C420.207 25.5425 423.254 20.3491 423.369 20.1534Z" fill="#010101"/>
<path d="M677 29.6232L677.168 29.2716L682.822 8.1366C682.943 7.89399 683.154 7.70061 683.425 7.63029C684.763 7.71467 686.265 7.50722 687.581 7.62325C688.077 7.66896 688.259 8.02057 688.137 8.48469L680.193 34.1448C680.025 34.4754 679.754 34.6019 679.387 34.6371C677.824 34.7742 676.066 34.5281 674.482 34.6371C674.186 34.6019 673.933 34.405 673.797 34.1484L665.824 8.26669C665.842 7.90454 666.038 7.66193 666.413 7.62325C667.733 7.48964 669.292 7.73225 670.636 7.62325C671.025 7.66896 671.246 7.97837 671.346 8.32998L676.997 29.6197L677 29.6232Z" fill="black"/>
<path d="M652.807 13.488C652.707 13.4318 652.822 13.1646 652.854 13.0837C653.21 12.1414 654.017 11.0127 654.47 10.0318C655.233 8.37922 656.082 6.12543 656.385 4.33928C656.453 3.94548 656.728 1.82881 655.854 2.71838C655.411 3.16843 654.962 4.33576 654.698 4.94052C653.435 7.83423 652.365 10.8194 651.634 13.8924C651.641 14.1245 652.433 14.6694 652.65 14.898C653.988 16.3009 654.477 17.8444 654.295 19.7572C654.077 22.0215 653.275 24.2648 653.614 26.5713L657.734 26.3463C658.098 26.4095 658.255 26.7822 657.912 26.9862C655.9 27.1479 653.874 27.2147 651.855 27.3097C651.648 26.5045 650.21 26.4342 650.674 25.418C650.888 24.9469 651.841 24.0749 652.212 23.5721C653.289 22.1235 653.813 20.5518 653.335 18.7516C652.711 16.3958 650.906 17.4225 649.929 18.8782C648.773 20.6045 648.084 23.3189 648.281 25.3793C648.366 26.2619 649.187 26.8491 649.172 27.5593C649.154 28.3821 648.384 28.3574 648.091 28.9235C647.617 29.8342 648.627 30.6429 649.49 30.7273C650.631 30.8398 651.555 30.4319 651.919 29.3208L656.004 29.5072C656.193 29.5916 656.642 29.5248 656.763 29.6443C656.903 29.7814 656.874 30.1612 656.621 30.1788C655.344 30.1471 654.059 30.0381 652.786 29.9432C651.994 31.1175 650.849 32.0563 649.6 32.7349C648.013 33.5999 647.168 33.7475 645.505 32.9424C644.103 32.2638 642.812 31.1914 641.909 29.9432L638.695 30.1823C638.435 30.1436 637.914 30.3088 637.857 29.9643C637.821 29.7533 637.871 29.6338 638.089 29.5845C639.648 29.458 641.217 29.4158 642.78 29.3244C643.162 30.4143 644.132 30.8574 645.273 30.7343C646.151 30.6394 647.178 29.7428 646.572 28.8427C646.265 28.3891 645.602 28.3012 645.552 27.6472C645.502 26.9721 646.179 26.4799 646.365 25.8786C646.989 23.8358 645.623 19.1665 643.875 17.8163C642.434 16.7017 641.513 17.7706 641.282 19.2227C641.014 20.8929 641.567 22.3239 642.552 23.6424C642.926 24.1417 643.739 24.866 643.993 25.3371C644.574 26.4131 643.119 26.4834 642.844 27.3167L638.57 27.1339C638.035 26.9756 637.297 27.176 636.787 26.9932C636.473 26.8807 636.576 26.3533 636.958 26.3955C637.911 26.4553 638.859 26.4799 639.812 26.5185C640.033 26.5291 640.943 26.6838 641.057 26.5185C641.121 26.4271 641.153 25.2176 641.146 25.0172C641 21.2726 638.934 17.9956 642.138 14.8101C642.355 14.5921 642.99 14.2159 643.015 13.9557C642.634 12.2152 642.134 10.4959 641.521 8.82224C640.928 7.20134 640.076 4.83856 639.234 3.37588C638.303 1.76201 638.071 2.77463 638.242 4.04744C638.56 6.44539 639.812 9.33559 640.928 11.4839C641.125 11.8601 641.977 13.1224 641.895 13.4599C641.87 13.5197 641.738 13.5549 641.681 13.5478C641.299 13.4916 640.711 12.5422 640.497 12.2152C638.713 9.47975 636.88 4.45179 637.172 1.19241C637.472 -2.14081 640.343 2.48632 640.857 3.30556C642.805 6.41023 644.496 9.83135 645.762 13.2595L646.072 13.3228C646.918 13.1927 647.77 13.2138 648.616 13.3228L648.826 13.2208C649.65 10.9213 650.688 8.69215 651.841 6.53329C652.575 5.15852 654.987 0.752902 656.26 0.13056C657.088 -0.273786 657.381 0.506778 657.452 1.19592C657.784 4.44827 655.979 9.41997 654.195 12.1519C654.013 12.4332 653.221 13.7377 652.807 13.4951V13.488ZM648.955 31.8243C648.363 31.6801 647.86 31.318 647.424 30.9101C646.918 31.2441 646.461 31.6731 645.851 31.8243C646.632 32.7209 648.174 32.7209 648.955 31.8243Z" fill="#070707"/>
<path d="M746.184 32.7982C744.087 34.8059 741.272 35.706 738.365 35.0907C734.748 34.3242 733.592 30.6253 734.388 27.3835C735.579 22.5243 741.79 22.9287 745.749 22.9603V21.2199C745.749 20.5342 745.332 19.606 744.736 19.2227C743.455 18.393 740.227 18.7305 738.715 18.9379C738.062 19.0258 736.917 19.381 736.346 19.3634C735.989 19.3528 735.797 19.1173 735.754 18.7797C735.69 18.2488 735.7 16.9373 735.754 16.3958C735.818 15.777 736.071 15.6399 736.631 15.4887C739.342 14.7679 745.089 14.4233 747.665 15.4781C749.941 16.4099 750.565 18.5477 750.704 20.7944L750.69 34.0992C750.608 34.3347 750.447 34.5879 750.173 34.6301C749.117 34.5598 747.922 34.7356 746.884 34.6371C746.591 34.609 746.174 34.3629 746.174 34.0535V32.8017L746.184 32.7982ZM745.749 26.1388C744.936 26.1634 744.112 26.1037 743.295 26.1388C741.775 26.1986 739.688 26.3111 739.25 28.0832C738.889 29.5388 739.178 31.5465 741.008 31.754C742.881 31.9684 744.383 31.1738 745.749 30.0205V26.1423V26.1388Z" fill="black"/>
<path d="M698.347 21.16C698.129 18.8324 696.335 18.6495 694.341 18.6847C692.646 18.7128 690.98 19.0363 689.318 19.3C688.9 19.2754 688.818 18.8851 688.79 18.537C688.747 18.0272 688.729 16.3711 688.904 15.9562C689.104 15.4816 689.51 15.4534 689.96 15.3444C692.528 14.7362 697.572 14.4514 700.037 15.3409C702.485 16.2235 703.144 18.2874 703.309 20.6713L703.298 34.0991C703.191 34.3944 702.977 34.5808 702.652 34.6265C701.999 34.7179 700.169 34.7003 699.492 34.6335C699.199 34.6054 698.782 34.3593 698.782 34.0498V32.7981C697.298 34.1166 695.593 35.1152 693.541 35.2453C690.317 35.4492 687.673 34.3452 686.96 31.026C686.625 29.4684 686.717 27.4256 687.524 26.0192C689.525 22.5313 694.872 22.9708 698.347 22.9602C698.307 22.3765 698.4 21.7331 698.347 21.1565V21.16ZM698.347 26.1387C697.551 26.1633 696.748 26.1071 695.956 26.1387C693.302 26.2372 691.547 26.5817 691.769 29.6583C691.897 31.4585 693.128 31.898 694.779 31.7609C696.156 31.6484 697.308 30.8397 698.347 30.0204V26.1422V26.1387Z" fill="black"/>
<path d="M759.403 17.2186L760.934 16.1919C765.418 13.7939 771.632 14.0225 771.996 20.2424C772.167 23.1537 771.974 26.3392 771.996 29.2857C772.006 30.7343 772.217 32.4958 772.06 33.9269C772.017 34.3312 771.778 34.6406 771.346 34.6934C770.565 34.7848 768.607 34.7672 767.804 34.6934C767.39 34.6547 767.051 34.4156 767.026 33.9901C766.852 30.017 767.273 25.8364 767.034 21.8879C766.93 20.158 766.395 19.1735 764.519 19.0504C763.27 18.9696 762.068 19.3247 760.994 19.9189C760.748 20.0525 759.881 20.5483 759.835 20.7944V34.0534C759.842 34.4472 759.492 34.6617 759.121 34.6969C758.329 34.7707 756.353 34.7883 755.579 34.6969C755.308 34.6652 755.023 34.4859 754.944 34.2222C754.759 28.2941 754.919 22.3344 754.862 16.3958C754.869 15.9458 755.001 15.4746 755.522 15.3937C756.136 15.2988 757.966 15.3305 758.622 15.3867C758.79 15.4008 759.011 15.443 759.146 15.5449C759.207 15.5906 759.396 15.8719 759.396 15.9106V17.2256L759.403 17.2186Z" fill="black"/>
<path d="M657.022 8.11551C657.122 8.0276 657.5 8.61479 657.568 8.7062C662.366 15.2496 663.6 25.309 659.391 32.4114C653.758 41.9153 641.726 42.2599 635.715 32.9142C630.846 25.3547 632.483 15.0703 637.691 8.11551L638.879 10.8334C637.181 13.5654 635.975 16.7509 635.558 19.947C635.009 24.1698 635.776 28.6387 638.291 32.1477C643.142 38.9161 651.703 38.8704 656.509 32.088C660.946 25.8224 659.819 17.0639 655.902 10.8369C656.302 9.94385 656.765 9.06836 657.019 8.11902L657.022 8.11551Z" fill="black"/>
<path d="M781.122 15.3867H786.861C786.925 15.3867 787.239 15.6153 787.293 15.6926C787.368 15.8016 787.414 15.9739 787.436 16.104C787.518 16.656 787.503 17.9605 787.453 18.5336C787.428 18.829 787.371 19.1208 787.1 19.286C787.061 19.3107 786.815 19.4161 786.801 19.4161H781.122V28.9798C781.122 29.5283 781.521 30.3686 781.96 30.7203C783.034 31.5782 785.524 31.1316 786.858 31.0859C787.275 31.0719 787.642 31.1316 787.7 31.6063C787.767 32.1864 787.757 33.5858 787.7 34.1765C787.667 34.4965 787.486 34.7602 787.172 34.8797C786.765 35.0344 785.659 35.1434 785.181 35.1821C780.28 35.583 776.459 34.9325 776.152 29.349L776.17 11.2132C776.281 10.7385 776.677 10.6471 777.116 10.6155C777.925 10.5557 779.552 10.5346 780.337 10.626C780.479 10.6436 780.686 10.6963 780.808 10.7737C780.89 10.8264 781.122 11.1393 781.122 11.1991V15.3832V15.3867Z" fill="black"/>
<path d="M726.558 7.64092L730.45 7.63037C730.817 7.71827 730.992 8.04175 731.035 8.39687L731.045 33.6878C731.024 34.1238 730.881 34.5528 730.389 34.6301C729.28 34.7989 727.764 34.5141 726.611 34.6301C726.244 34.5422 726.069 34.2188 726.026 33.8636L726.016 8.5129C726.051 8.12262 726.165 7.79211 726.558 7.64092Z" fill="black"/>
<path d="M717.25 7.64092L721.142 7.63037C721.37 7.66553 721.634 7.92572 721.67 8.15075L721.645 34.1449C721.559 34.3946 721.349 34.588 721.081 34.6266C720.5 34.7145 717.885 34.7145 717.303 34.6266C716.997 34.5809 716.775 34.3418 716.715 34.0465L716.74 8.11207C716.829 7.86243 716.997 7.71476 717.254 7.6374L717.25 7.64092Z" fill="black"/>
<path d="M708.071 15.4009C709.216 15.4853 710.668 15.2391 711.774 15.3939C712.077 15.436 712.362 15.6857 712.416 15.9846L712.402 34.1485C712.312 34.3559 712.184 34.5528 711.952 34.6232L707.996 34.6337C707.704 34.5423 707.536 34.3348 707.479 34.043L707.461 16.0935C707.504 15.7525 707.743 15.5064 708.067 15.4079L708.071 15.4009Z" fill="black"/>
<path d="M646.397 2.5742C648.217 2.42652 649.957 2.70078 651.602 3.46024C651.759 3.53408 652.433 3.81185 652.419 3.98062L651.213 6.09377C648.791 4.74712 646.016 4.74712 643.593 6.09377L642.316 3.92788C643.519 3.22467 644.992 2.68671 646.397 2.57068V2.5742Z" fill="black"/>
<path d="M707.883 7.64088C709.142 7.72878 710.676 7.48266 711.903 7.62682C712.32 7.67604 712.509 7.93975 712.552 8.33003C712.634 9.05434 712.627 10.7772 712.552 11.5121C712.506 11.9691 712.235 12.2258 711.775 12.2715C710.933 12.3594 709.024 12.3524 708.172 12.2715C707.765 12.2328 707.447 12.0606 707.398 11.6281C707.312 10.9249 707.319 8.97347 707.398 8.26674C707.433 7.96084 707.579 7.74988 707.876 7.63737L707.883 7.64088Z" fill="black"/>
<path d="M651.422 19.6764C652.627 19.4865 652.499 21.0125 652.232 21.7579C651.95 22.5384 650.901 23.7093 649.977 23.3331C649.385 23.094 649.749 21.6805 649.931 21.6207C650.134 21.5575 650.701 21.9161 650.812 21.3887C650.912 20.9035 650.298 21.0019 650.416 20.5765C650.516 20.2214 651.054 19.7326 651.429 19.6764H651.422Z" fill="black"/>
<path d="M644.348 20.8718C644.18 21.0265 643.984 20.9175 643.987 21.3429C643.994 21.9688 644.779 21.589 644.861 21.6453C645.086 21.8 645.354 23.2838 644.701 23.3893C643.181 23.6319 642.047 21.5152 642.425 20.2318C642.639 19.5146 643.484 19.5954 643.959 20.0314C644.091 20.151 644.515 20.7171 644.348 20.8718Z" fill="black"/>
<path d="M657.361 27.9741C657.696 28.0655 657.639 28.7547 657.175 28.6738L651.992 28.6457V27.9741H657.361Z" fill="black"/>
<path d="M642.808 27.9741C642.741 28.0726 642.776 28.5859 642.748 28.5859H637.379C637.176 28.5859 637.176 27.9741 637.379 27.9741H642.808Z" fill="black"/>
<path d="M905.691 36.9006H904.012C890.62 36.0987 883.022 20.9279 890.998 9.90098C897.961 0.275508 912.604 0.513217 919.197 10.4012C926.595 21.4955 918.937 36.23 905.691 36.9041V36.9006ZM904.607 4.37689C892.952 4.55783 885.599 17.2452 891.319 27.3922C896.813 37.1418 910.686 38.0785 917.407 29.0774C925.13 18.7317 917.489 4.17111 904.607 4.37334V4.37689Z" fill="black"/>
<path d="M939.145 8.60242H950.337C952.957 8.76207 955.485 9.80516 956.426 12.4129C957.236 14.6551 956.876 17.2629 954.872 18.7246C954.501 18.9942 954.073 19.1574 953.734 19.4519C958.273 20.6937 959.133 26.4058 955.646 29.3541C954.811 30.0602 952.8 31.0607 951.713 31.0607H939.148V8.60242H939.145ZM944.76 13.2289L944.646 13.3424V17.3622L944.76 17.4757H948.96C951.121 17.4757 951.791 14.1691 949.763 13.4169C949.602 13.3566 949.099 13.2253 948.96 13.2253H944.76V13.2289ZM944.721 21.9567V26.3207L944.835 26.4342H949.188C949.395 26.4342 950.112 26.2852 950.337 26.2107C952.151 25.6217 952.28 23.0743 950.6 22.3009C950.39 22.2051 949.538 21.9603 949.342 21.9603H944.721V21.9567Z" fill="black"/>
<path d="M1029.12 8.60242V16.8726H1036V8.60242H1041.88V31.0607H1036V22.1838H1029.12V31.0607H1023.16V8.60242H1029.12Z" fill="black"/>
<path d="M968.843 8.09515C977.788 7.34299 981.778 15.5138 980.035 23.3086C978.797 28.8398 974.373 32.2067 968.6 31.5078C956.392 30.0283 956.798 9.1063 968.843 8.09515ZM969.377 13.4809C963.979 14.0592 963.808 24.8377 968.857 26.0901C976.494 27.9883 977.193 12.6436 969.377 13.4809Z" fill="black"/>
<path d="M989.768 8.01699C993.284 7.7438 996.753 8.77979 999.095 11.4585L995.626 14.9744C994.261 13.3637 991.301 12.2177 989.322 13.2679C988.346 13.7859 987.846 15.0419 988.595 15.9643C989.487 17.0571 992.963 17.4544 994.396 17.866C997.131 18.6536 999.138 19.9912 999.548 22.9892C1000.68 31.2345 990.25 33.3632 984.488 29.9821C983.315 29.2938 982.338 28.3252 981.457 27.3034L985.019 23.8584C985.158 23.8336 985.753 24.5999 985.928 24.7631C987.515 26.2284 990.296 27.2289 992.399 26.4164C994.036 25.7814 994.489 23.7413 992.831 22.8402C991.448 22.088 989.276 21.9567 987.725 21.4636C979.571 18.8665 981.432 8.67336 989.768 8.02054V8.01699Z" fill="black"/>
<path d="M1011.31 8.09152C1013.25 7.97089 1015.26 8.30795 1016.98 9.24459C1018.51 10.0784 1019.76 11.462 1020.71 12.9025L1016.25 15.9608C1014.1 12.0829 1009.03 12.8599 1007.6 16.9294C1006.99 18.6678 1007.03 21.0236 1007.66 22.755C1009.09 26.7429 1014.16 27.6263 1016.29 23.7342L1016.39 23.7094L1020.86 26.7748C1019.11 29.5599 1016.66 31.3658 1013.27 31.5929C998.206 32.5969 997.564 8.93947 1011.31 8.09507L1011.31 8.09152Z" fill="black"/>
<path d="M899.05 9.20911V15.0525H910.813V9.20911H911.997C912.228 9.20911 914.061 10.8589 914.328 11.1427C919.245 16.4078 918.821 24.6886 913.412 29.4322C913.259 29.567 912.157 30.454 912.075 30.454H910.816V24.6886H899.05V30.454H897.792C897.517 30.454 895.528 28.5452 895.235 28.2152C890.91 23.3227 891.078 15.8898 895.538 11.1427C895.816 10.8447 897.61 9.20911 897.87 9.20911H899.054H899.05ZM897.446 11.5614C897.314 11.5294 897.292 11.6146 897.218 11.6749C896.822 11.9765 896.28 12.6116 895.966 13.0125C892.604 17.2841 892.91 23.493 896.604 27.4595C896.833 27.7043 897.143 28.0591 897.446 28.1798V11.5614ZM912.417 28.1762C916.885 24.2522 917.434 17.458 913.715 12.8138C913.448 12.4803 912.981 11.9233 912.649 11.6749C912.571 11.6146 912.553 11.5294 912.421 11.5614V28.1762H912.417ZM910.813 16.6455H899.05V23.0176H910.813V16.6455Z" fill="black"/>
<path d="M280.012 79.2253L280.24 79.1216C285.179 79.2754 290.226 78.9284 295.151 79.1252C298.173 79.2468 302.478 79.8548 303.141 83.4564C303.562 85.7454 302.789 87.7447 300.7 88.8212L299.046 89.4614C302.3 89.8763 304.702 92.3835 304.075 95.8027C303.426 99.3292 299.713 100.867 296.488 101.007H280.012V79.2253ZM286.601 87.7983H293.822C294.132 87.7983 294.991 87.4907 295.272 87.3191C296.345 86.6717 296.637 84.7404 295.579 83.9678C295.197 83.6889 294.15 83.3956 293.686 83.3956H286.598V87.7983H286.601ZM286.601 96.8041C288.697 96.7219 290.874 96.915 292.959 96.8041C294.21 96.7397 296.505 96.5287 296.712 94.9622C297.029 92.5337 295.629 91.8398 293.494 91.729C291.234 91.6109 288.872 91.822 286.605 91.729V96.8005L286.601 96.8041Z" fill="black"/>
<path d="M351.153 100.942H345.031V99.0751L344.364 99.8441C340.212 103.113 332.995 101.378 330.255 97.0436C327.607 92.8591 330.101 87.5014 334.293 85.545C337.404 84.0929 342.058 84.168 344.831 86.3354V79.193H351.054L351.153 79.2931V100.942ZM340.415 88.4921C336.78 88.5099 334.442 92.5872 336.655 95.6273C338.676 98.4063 343.11 98.0844 344.656 94.9978C346.214 91.8862 343.773 88.4742 340.415 88.4921Z" fill="black"/>
<path d="M434.07 107.344H280.078V109.079H434.07V107.344Z" fill="black"/>
<path d="M375.511 94.4686H360.739C360.807 96.5644 362.396 97.9343 364.431 98.0737C366.085 98.1882 367.902 97.8448 368.825 96.3355H374.848C374.317 97.8913 372.909 99.2111 371.498 100.016C365.721 103.313 354.021 101.693 353.95 93.3634C353.885 86.0064 361.462 83.7711 367.542 84.7475C372.489 85.5415 376.174 89.2217 375.515 94.4686H375.511ZM368.722 91.1352C368.366 88.8212 366.184 87.6481 363.982 88.0164C362.325 88.2954 361.12 89.4864 360.803 91.1352H368.722Z" fill="black"/>
<path d="M434.206 89.6653H428.282C428.339 89.211 427.851 88.7282 427.516 88.4671C426.575 87.7339 424.49 87.6803 423.357 87.8949C421.333 88.2811 421.169 89.5723 423.25 90.1409C426.839 91.1245 435.371 90.4664 434.936 96.1675C434.441 102.637 422.723 102.337 418.564 100.241C416.792 99.347 415.438 97.7769 415.039 95.8026H421.13C421.479 96.779 422.031 97.4121 423.008 97.7876C424.23 98.2597 427.513 98.503 428.35 97.3048C429.359 95.8599 426.344 95.3735 425.503 95.2232C421.935 94.5902 414.116 94.533 415.556 88.882C416.725 84.2861 424.801 83.9571 428.461 84.8548C430.973 85.4699 433.482 87.0401 434.209 89.6653H434.206Z" fill="black"/>
<path d="M399.136 85.2626V93.968C399.136 94.297 399.386 95.0588 399.525 95.3807C400.797 98.3242 405.02 98.031 405.943 94.9873C405.986 94.8407 406.125 94.3471 406.125 94.2362V85.2626H412.38V100.638L412.28 100.738H406.324V99.0038L404.988 100.034C400.498 102.913 393.409 100.771 392.949 94.9694V85.1982L399.136 85.2662V85.2626Z" fill="black"/>
<path d="M313.022 85.3984V94.1038C313.022 96.8864 316.44 98.596 318.642 96.8721C319.227 96.4143 320.007 95.1875 320.007 94.44V85.402H326.262V100.813H320.207V99.0788C315.98 103.428 307.224 101.561 306.828 94.9121V85.402H313.019L313.022 85.3984Z" fill="black"/>
<path d="M391.147 84.7295V89.4005C388.61 88.9284 385.495 89.7009 384.739 92.4835C384.697 92.6373 384.558 93.1881 384.558 93.3025V100.806H378.367V85.3303H384.29V88.5314L384.722 87.462C385.937 85.0084 388.674 84.6651 391.147 84.7295Z" fill="black"/>
<path d="M538.514 108.492C536.579 106.82 535.376 103.924 535.152 101.369C534.85 97.8724 534.757 86.7942 535.803 83.8486C537.165 80.01 540.595 77.6407 544.579 77.3312C548.346 77.0359 557.768 76.8367 561.287 77.3668C565.114 77.9431 568.632 82.2477 568.974 86.0436C569.333 90.0387 569.386 98.8223 568.92 102.739C568.44 106.77 564.652 110.438 560.614 110.797C556.627 111.153 546.67 111.277 542.846 110.751C541.459 110.559 539.57 109.402 538.514 108.488V108.492ZM560.419 107.94C560.234 100.715 558.313 92.6179 554.165 86.627C550.017 80.6361 543.337 76.7371 538.724 84.4534C551.853 80.4618 558.747 97.4953 558.999 107.94H560.419ZM560.6 80.1879C558.274 79.8037 555.037 80.4725 552.596 80.1879C558.668 86.4776 561.013 94.9695 561.841 103.493C561.934 104.436 561.774 105.4 561.841 106.343C561.881 106.873 561.568 107.371 562.379 107.232C564.371 106.19 565.701 104.183 566.018 101.974C566.498 98.6373 566.451 90.2059 566.106 86.7729C565.811 83.8308 563.663 80.6966 560.596 80.1879H560.6ZM557.576 107.937C557.31 102.013 551.956 89.039 545.578 87.7405C542.953 87.2034 539.492 88.0572 538.603 90.921C538.087 92.5752 538.176 99.7259 538.354 101.729C538.489 103.237 539.093 104.881 540.15 105.98C540.627 106.478 542.989 107.94 543.526 107.94H557.576V107.937Z" fill="black"/>
<path d="M590.836 80.5436C592.828 80.8246 595.492 82.6496 595.912 84.7166C596.449 87.3598 596.285 90.2592 594.229 92.1162C593.45 92.8206 592.255 92.7495 592.44 93.6993C598.075 94.5674 598.316 103.276 594.336 106.097C593.987 106.343 591.398 107.581 591.195 107.581H577.5V91.9277H586.571C586.887 91.9277 589.623 91.234 589.936 91.0241C591.359 90.0671 591.437 86.4171 590.195 85.2822C590.057 85.1541 588.79 84.4604 588.705 84.4604H577.5V80.5471C581.637 80.9669 586.841 79.985 590.839 80.5471L590.836 80.5436ZM582.832 104.023H587.99C591.892 104.023 593.119 97.5272 589.797 95.8125C588.456 95.1188 584.458 94.8022 583.053 95.1722C582.174 95.4034 582.832 95.9406 582.832 96.0189V104.023Z" fill="black"/>
<path d="M633.343 98.3313C632.272 104.137 637.875 108.328 639.241 100.8L643.659 100.822C643.659 106.72 638.735 109.602 633.268 107.833C627.164 105.859 627.185 93.5606 630.508 89.2666C631.87 87.5057 633.112 87.0432 635.289 86.9293C639.682 86.6981 642.517 87.5092 643.58 92.1874C643.929 93.7171 644.409 97.1501 643.488 98.3277H633.35L633.343 98.3313ZM633.343 95.1295H639.034C639.956 88.0393 632.941 88.6085 633.343 95.1295Z" fill="black"/>
<path d="M603.821 98.3312C603.878 100.722 604.437 106.222 608.086 104.55C609.701 103.81 609.317 101.526 609.559 101.223C609.971 100.708 613.987 100.733 614.162 101.391C613.543 110.932 600.029 110.811 599.183 101.014C598.788 96.4493 598.727 87.8009 604.739 86.9791C613.369 85.8051 614.688 90.8319 614.489 98.3312H603.818H603.821ZM609.868 95.1294C609.616 92.447 609.281 88.8788 605.689 90.4192C604.358 90.9884 603.558 94.0301 604.355 95.1294H609.868Z" fill="black"/>
<path d="M684.212 107.581H679.232C678.805 103.757 677.521 107.456 675.618 108.054C668.35 110.342 665.81 99.5444 671.566 96.8869C673.583 95.9584 678.691 95.6667 678.862 93.155C679.171 88.6156 673.12 89.2987 673.54 93.3507H669.272C667.774 85.8052 681.572 84.7628 683.265 90.2058C684.325 93.6069 683.112 101.22 683.5 105.268C683.582 106.112 683.849 106.834 684.212 107.581ZM678.872 97.6233C676.105 98.4416 672.85 98.6621 673.199 102.38C673.38 104.319 674.287 104.977 676.176 104.717C679.744 104.23 678.762 100.27 678.869 97.6198L678.872 97.6233Z" fill="black"/>
<path d="M652.553 81.2551V86.7693C653.001 87.7654 655.531 87.0753 655.755 87.3029V90.302L652.553 90.5083V102.782C652.553 104.379 654.563 104.393 655.751 104.386L655.42 107.784C653.713 108.018 650.077 108.26 648.74 107.122C646.741 105.418 647.683 93.9769 647.829 91.0384C647.452 89.9853 644.991 90.9957 644.816 89.9889L645.08 87.3029L647.338 87.2496L647.883 86.7409L647.57 81.2551H652.55H652.553Z" fill="black"/>
<path d="M664.29 87.3029H667.139L667.143 90.2983L664.29 90.5047V103.49C664.29 104.247 666.46 104.585 667.139 104.376L667.086 107.353L666.552 107.887C663.998 108.036 660.039 108.406 659.392 105.187C658.584 101.177 659.865 95.3109 659.26 91.0881L658.726 90.5545L656.457 90.3019V87.3029C657.439 87.2389 658.634 87.648 659.31 86.7693V81.2551C660.889 81.4756 663.059 80.7001 664.29 81.7887V87.3029Z" fill="black"/>
<path d="M616.98 87.3028H621.608C621.815 87.5092 621.139 90.2947 622.135 89.7896C623.362 87.8294 624.984 86.5913 627.3 86.9435L627.271 91.5434C625.724 91.5932 623.974 91.3478 622.86 92.6463C622.729 92.7992 621.96 94.1475 621.96 94.2365V107.577H616.98V87.3028Z" fill="black"/>
<path d="M784.215 118.407V85.3567C784.344 83.494 784.765 81.3368 786.335 80.1375C787.904 78.9383 789.995 78.807 791.901 78.7076H800.248V82.3018C797.971 82.3302 795.687 82.2415 793.413 82.355C789.763 82.6105 790.971 86.8788 790.75 89.3234L790.821 89.4831H798.604C798.618 89.5186 798.557 89.5399 798.557 89.554V93.7301H790.821L790.75 118.407H784.215Z" fill="black"/>
<path d="M854.782 86.0487C856.773 85.921 859.036 86.3184 860.576 87.6454C863.018 89.7458 863.547 93.9467 863.679 96.9732C863.923 102.498 863.544 111.024 856.226 111.456C847.861 111.95 847.056 103.324 847.317 97.0655C847.525 92.0521 848.708 86.4319 854.785 86.0487H854.782ZM855.443 89.7778C853.677 89.8239 853.727 92.5381 853.663 93.7977C853.513 96.7107 853.57 99.8365 853.666 102.753C853.702 103.856 853.656 106.23 854.324 107.092C854.799 107.706 855.636 107.898 856.276 107.394C857.327 106.564 857.248 103.374 857.288 102.1C857.373 99.3007 857.395 96.4552 857.245 93.6593C857.177 92.3962 857.32 89.7281 855.45 89.7778H855.443Z" fill="black"/>
<path d="M816.941 99.0948H807.936C807.868 99.1374 807.872 99.1871 807.865 99.2545C807.801 99.8009 807.904 100.393 807.915 100.933C807.947 102.423 807.918 103.97 808.162 105.446C808.365 106.691 808.894 107.802 810.374 107.67C811.854 107.539 811.969 106.269 812.001 105.112H816.327C816.366 107.163 815.808 109.303 813.971 110.449C811.965 111.698 808.294 111.8 806.185 110.764C801.784 108.597 801.359 101.401 801.559 97.1576C801.823 91.5836 803.636 85.6725 810.424 86.0309C817.217 86.3893 817.013 94.0921 816.934 99.0948H816.941ZM807.915 95.5503H811.84C811.908 95.5078 811.904 95.4581 811.912 95.3907C811.976 94.8549 811.897 93.8153 811.862 93.2441C811.786 92.0803 811.719 90.0296 810.228 89.8273C807.861 89.508 808.076 92.0378 807.911 93.6131V95.5503H807.915Z" fill="black"/>
<path d="M850.716 81.4007C851.438 82.1068 852.185 82.8412 852.815 83.6324C852.904 83.746 853.38 84.3066 853.287 84.4024H853.172C847.084 79.8892 839.677 76.8202 832.098 75.8728C824.412 74.9149 814.07 76.0893 809.512 83.118C809.427 83.2492 808.987 84.0618 808.926 84.0653C808.858 84.0476 808.815 84.0014 808.769 83.9518C808.468 83.6218 808.007 82.7951 807.768 82.38C806.674 80.4818 805.548 77.7959 805.383 75.6032C805.344 75.0745 805.437 75.0603 805.798 74.7233C808.458 72.2574 812.444 70.7956 815.994 70.1889C827.83 68.1629 842.233 73.1018 850.72 81.4007H850.716Z" fill="black"/>
<path d="M873.034 78.7112V106.535C873.034 106.567 873.17 107.007 873.199 107.071C873.549 107.901 874.6 107.958 875.387 107.958V111.222H870.943C867.983 110.998 866.989 109.054 866.875 106.351V78.7112H873.038H873.034Z" fill="black"/>
<path d="M831.845 86.4992V91.6296C830.329 91.0939 828.774 90.92 827.173 91.1684C826.751 91.2358 826.233 91.3564 825.922 91.6509V111.218H819.809V86.3821L819.88 86.3111H824.842L825.217 87.4784C826.022 86.8078 827.112 86.2827 828.163 86.1302C829.4 85.9528 830.701 85.9563 831.849 86.4992H831.845Z" fill="black"/>
<path d="M845.861 86.4992V91.6297C844.345 91.1046 842.79 90.913 841.188 91.1685C840.756 91.2395 840.255 91.3388 839.937 91.651V111.219H833.824V86.3147H838.854L839.183 87.4359C839.262 87.5033 839.716 87.0918 839.826 87.0244C840.838 86.3928 842.007 86.0877 843.201 86.0345C844.141 85.9919 845.006 86.1161 845.861 86.5028V86.4992Z" fill="black"/>
<path d="M883.992 86.3148V111.222H877.879V86.3822L877.95 86.3148H883.992Z" fill="black"/>
<path d="M883.992 78.7112V84.3561H877.879V78.7821L877.95 78.7112H883.874C883.903 78.7112 883.945 78.7502 883.992 78.7112Z" fill="black"/>
</g>
</svg>
