<svg width="400" height="491" viewBox="0 0 400 491" fill="none" xmlns="http://www.w3.org/2000/svg">
<g opacity="0.5">
<path d="M203.604 9.58044L206.581 17.7378L209.717 9.58044H219.43V28.2815H213.008V18.6601L208.738 28.2859L204.478 28.268L200.314 18.8168V28.2815H193.969V9.58044H203.604Z" fill="black"/>
<path d="M264.394 18.6601V9.58044H271.367V28.2815H264.198L256.56 19.2018V28.2815H249.273V9.58044H256.442L264.394 18.6601Z" fill="black"/>
<path d="M292.049 18.6601V9.58044H298.94V28.2815H291.735L284.134 19.2018V28.2815H276.852V9.58044H284.016L292.049 18.6601Z" fill="black"/>
<path d="M189.425 0.039645V5.27342H174.737C174.615 5.27342 174.096 5.51071 173.986 5.61368C173.468 6.12855 173.895 6.88071 174.537 7.00607C178.797 7.48513 186.417 5.63159 189.257 9.71027C191.055 12.2936 190.381 16.614 187.696 18.387C187.036 18.8212 185.302 19.5107 184.532 19.5107H168.197V14.1247H183.354C183.449 14.1247 183.822 13.9143 183.9 13.8158C184.332 13.2651 184.023 12.3876 183.335 12.2175C180.136 12.0249 176.736 12.4145 173.563 12.1996C169.235 11.9085 166.986 8.5283 167.933 4.44067C169.121 -0.681174 174.792 0.0217365 178.807 0.0441222C182.348 0.0620307 185.889 0.0217365 189.425 0.0441222V0.039645Z" fill="black"/>
<path d="M189.428 21.9688V27.2025H174.817C174.731 27.2025 174.121 27.4309 174.03 27.507C173.311 28.1517 174.057 28.9083 174.813 28.9755C179.132 29.3516 186.688 27.5965 189.414 31.8722C190.775 34.0078 190.433 37.6611 188.686 39.5147C187.871 40.3788 185.809 41.4354 184.612 41.4354H168.199V36.1255H183.042C183.183 36.1255 183.706 35.9285 183.825 35.821C184.375 35.3196 184.057 34.2809 183.319 34.16C180.101 33.9317 176.679 34.3436 173.479 34.1287C170.539 33.9317 168.249 32.1542 167.812 29.2307C167.375 26.3071 168.609 23.576 171.485 22.4702C171.813 22.3448 173.038 21.9688 173.324 21.9688H189.423H189.428Z" fill="black"/>
<path d="M164.906 9.58044V14.4292H152.216V16.3544H162.593L162.712 16.4708V20.8181H152.334L152.216 20.93V23.0477H165.452V28.2815H145.32V9.58044H164.906Z" fill="black"/>
<path d="M247.47 28.2814H239.755L238.062 25.0175L237.803 24.8877L230.211 24.9056L228.436 28.2769H220.68L230.352 9.57141L237.875 9.652L247.47 28.2724V28.2814ZM232.118 19.8912H236.037L234.038 16.1215L232.118 19.8912Z" fill="black"/>
<path d="M109.838 9.58044L115.632 21.1225L121.271 9.58044H129.5L119.51 28.2815L119.282 28.362L111.244 28.3173L101.062 9.58044H109.838Z" fill="black"/>
<path d="M139.373 9.58044H132.086V28.277H139.373V9.58044Z" fill="black"/>
<path fill-rule="evenodd" clip-rule="evenodd" d="M112.919 71.9667L101.218 82.7002C100.793 83.0889 100.551 83.6397 100.551 84.2183V100.455C100.551 101.589 101.461 102.51 102.581 102.51H126.193C127.309 102.51 128.219 101.589 128.219 100.455V84.2229C128.219 83.6397 127.972 83.0797 127.538 82.6909L115.626 71.9528C114.854 71.2585 113.683 71.2632 112.915 71.9667H112.919ZM114.287 75.5862C116.395 77.4885 123.619 84.0008 124.744 85.0098V99.0665H104.026V85.0005C105.128 83.9869 112.197 77.5024 114.291 75.5862H114.287Z" fill="black"/>
<path fill-rule="evenodd" clip-rule="evenodd" d="M114.295 83.348C113.33 84.2321 110.07 87.2221 109.562 87.6849V94.1694H119.115V87.6942C118.593 87.2267 115.264 84.2275 114.295 83.348ZM231.484 82.5751V86.4399H239.075V100.959H243.236V86.4399H250.639V82.5751H231.484ZM295.385 82.5751V95.632L283.991 83.7229C282.98 82.6445 281.805 82.2002 280.493 82.4085C279.304 82.5936 278.531 83.5795 278.531 84.9125V100.964H282.605V87.9071L293.812 99.6311C294.974 100.871 296.03 101.344 297.237 101.172C299.222 100.885 299.45 99.4043 299.45 98.3166V82.5751H295.376H295.385ZM252.637 91.7441C252.637 99.7144 256.601 101.27 263.739 101.27C270.877 101.27 274.836 99.7144 274.836 91.7441C274.836 83.7739 270.872 82.2187 263.739 82.2187C256.606 82.2187 252.637 83.7739 252.637 91.7441ZM270.442 91.7441C270.442 97.0576 268.142 97.3029 263.739 97.3029C259.336 97.3029 257.031 97.0576 257.031 91.7441C257.031 86.4306 259.326 86.1853 263.739 86.1853C268.151 86.1853 270.442 86.4306 270.442 91.7441ZM199.257 100.955H203.386V82.5751H199.257V100.955ZM190.24 93.975C192.833 93.3271 194.305 91.3276 194.305 88.5967C194.305 84.8801 191.882 82.5705 187.981 82.5705H174.991V100.95H179.065V94.3916H185.668L190.24 100.95H195.023L190.24 93.9704V93.975ZM179.065 86.389H187.41C189.865 86.389 190.162 87.5183 190.162 88.5829C190.162 89.6474 189.842 90.7953 187.423 90.7953H179.069V86.389H179.065ZM220.35 89.4021H216.701C213.574 89.4021 212.934 88.805 212.934 87.671C212.934 86.2918 215.028 85.7595 217.982 85.7595C220.579 85.7595 223.034 86.2038 225.874 87.5507L228.055 84.4404C224.955 82.5473 221.882 81.8577 218.009 81.8577C212.092 81.8577 208.553 84.1071 208.553 87.8747C208.553 91.9802 211.909 93.3826 216.23 93.3409H220.245C224.196 93.3409 224.722 93.7992 224.722 95.3219C224.722 96.8447 222.536 97.7704 219.015 97.7704C215.919 97.7704 212.737 97.1548 209.943 95.2618L207.73 98.4462C210.698 100.834 214.356 101.658 218.992 101.658C225.462 101.658 229.175 99.2747 229.175 95.1229C229.175 91.3044 226.203 89.3975 220.341 89.3975L220.35 89.4021ZM159.682 82.0289C158.841 82.0289 158.013 82.4223 157.615 83.075L146.838 100.964H151.685L153.655 97.6038H165.704L167.675 100.964H172.522L161.744 83.075C161.346 82.4177 160.519 82.0289 159.673 82.0289H159.682ZM159.687 87.3378C159.828 87.5831 161.781 90.9156 163.724 94.2204H155.649C155.649 94.2204 159.54 87.5877 159.687 87.3378Z" fill="black"/>
<path d="M157.508 170.343L157.722 169.894L164.943 142.902C165.098 142.592 165.367 142.345 165.713 142.255C167.421 142.363 169.339 142.098 171.02 142.246C171.654 142.305 171.886 142.754 171.731 143.347L161.585 176.118C161.371 176.54 161.025 176.702 160.556 176.747C158.56 176.922 156.314 176.607 154.291 176.747C153.913 176.702 153.59 176.45 153.417 176.122L143.234 143.068C143.257 142.606 143.508 142.296 143.986 142.246C145.672 142.076 147.663 142.386 149.38 142.246C149.877 142.305 150.159 142.7 150.287 143.149L157.503 170.339L157.508 170.343Z" fill="black"/>
<path d="M126.607 149.736C126.479 149.664 126.625 149.323 126.666 149.22C127.122 148.016 128.151 146.575 128.73 145.322C129.705 143.212 130.789 140.333 131.177 138.052C131.263 137.549 131.614 134.846 130.498 135.982C129.933 136.557 129.359 138.048 129.022 138.82C127.409 142.516 126.042 146.328 125.108 150.253C125.117 150.549 126.129 151.245 126.407 151.537C128.115 153.329 128.739 155.3 128.507 157.743C128.229 160.635 127.204 163.5 127.637 166.445L132.899 166.158C133.363 166.239 133.564 166.715 133.126 166.975C130.557 167.182 127.969 167.267 125.391 167.388C125.126 166.36 123.29 166.27 123.883 164.972C124.156 164.371 125.372 163.257 125.846 162.615C127.222 160.765 127.892 158.758 127.281 156.459C126.484 153.45 124.179 154.761 122.93 156.62C121.454 158.825 120.575 162.292 120.826 164.923C120.935 166.05 121.983 166.8 121.965 167.707C121.942 168.758 120.958 168.726 120.584 169.449C119.978 170.612 121.268 171.645 122.37 171.753C123.828 171.897 125.008 171.376 125.473 169.957L130.689 170.195C130.93 170.303 131.505 170.217 131.659 170.37C131.837 170.545 131.801 171.03 131.477 171.052C129.846 171.012 128.206 170.873 126.58 170.752C125.568 172.251 124.106 173.45 122.511 174.317C120.484 175.422 119.404 175.61 117.281 174.582C115.491 173.715 113.842 172.346 112.689 170.752L108.584 171.057C108.252 171.008 107.586 171.219 107.514 170.779C107.468 170.509 107.532 170.356 107.81 170.294C109.801 170.132 111.805 170.078 113.801 169.961C114.288 171.353 115.527 171.919 116.985 171.762C118.106 171.641 119.418 170.496 118.643 169.346C118.252 168.767 117.404 168.655 117.34 167.819C117.277 166.957 118.142 166.329 118.379 165.561C119.176 162.952 117.432 156.988 115.199 155.264C113.359 153.841 112.183 155.206 111.887 157.06C111.545 159.193 112.252 161.021 113.509 162.705C113.987 163.342 115.026 164.267 115.35 164.869C116.092 166.243 114.233 166.333 113.883 167.397L108.425 167.164C107.741 166.962 106.798 167.218 106.147 166.984C105.746 166.84 105.878 166.167 106.365 166.221C107.582 166.297 108.794 166.329 110.01 166.378C110.293 166.391 111.454 166.589 111.6 166.378C111.682 166.261 111.723 164.716 111.714 164.46C111.527 159.678 108.889 155.493 112.981 151.425C113.258 151.146 114.069 150.666 114.101 150.334C113.614 148.111 112.976 145.915 112.192 143.778C111.436 141.707 110.347 138.69 109.272 136.822C108.083 134.761 107.787 136.054 108.006 137.679C108.411 140.742 110.01 144.433 111.436 147.177C111.687 147.657 112.776 149.269 112.671 149.7C112.639 149.777 112.47 149.822 112.397 149.813C111.91 149.741 111.158 148.528 110.885 148.111C108.607 144.617 106.265 138.196 106.639 134.033C107.022 129.776 110.689 135.686 111.345 136.732C113.832 140.697 115.992 145.066 117.609 149.444L118.006 149.525C119.085 149.359 120.174 149.386 121.254 149.525L121.523 149.395C122.575 146.458 123.901 143.611 125.372 140.854C126.311 139.098 129.391 133.472 131.017 132.677C132.074 132.161 132.448 133.158 132.539 134.038C132.962 138.191 130.657 144.541 128.379 148.03C128.147 148.389 127.135 150.055 126.607 149.745V149.736ZM121.687 173.154C120.93 172.97 120.288 172.507 119.732 171.986C119.085 172.413 118.502 172.961 117.723 173.154C118.721 174.299 120.689 174.299 121.687 173.154Z" fill="black"/>
<path d="M245.864 174.398C243.185 176.962 239.59 178.111 235.877 177.326C231.258 176.347 229.782 171.623 230.798 167.483C232.319 161.277 240.251 161.793 245.308 161.834V159.611C245.308 158.735 244.775 157.55 244.014 157.06C242.378 156 238.255 156.432 236.324 156.696C235.49 156.809 234.028 157.262 233.299 157.24C232.843 157.226 232.597 156.926 232.542 156.494C232.46 155.816 232.474 154.141 232.542 153.45C232.624 152.66 232.948 152.484 233.663 152.291C237.126 151.371 244.465 150.931 247.754 152.278C250.661 153.468 251.458 156.198 251.636 159.067L251.618 176.059C251.513 176.36 251.308 176.683 250.957 176.737C249.609 176.648 248.082 176.872 246.757 176.746C246.383 176.71 245.85 176.396 245.85 176.001V174.402L245.864 174.398ZM245.308 165.893C244.269 165.924 243.217 165.848 242.173 165.893C240.233 165.969 237.567 166.113 237.007 168.376C236.547 170.235 236.916 172.799 239.253 173.064C241.645 173.338 243.563 172.323 245.308 170.85V165.897V165.893Z" fill="black"/>
<path d="M184.764 159.534C184.486 156.562 182.194 156.328 179.647 156.373C177.483 156.409 175.356 156.822 173.233 157.159C172.7 157.127 172.595 156.629 172.559 156.184C172.504 155.533 172.481 153.418 172.704 152.888C172.959 152.282 173.479 152.246 174.053 152.107C177.333 151.33 183.775 150.967 186.923 152.103C190.048 153.23 190.891 155.866 191.101 158.91L191.087 176.059C190.95 176.436 190.677 176.674 190.263 176.733C189.429 176.849 187.092 176.827 186.226 176.742C185.852 176.706 185.319 176.391 185.319 175.996V174.398C183.424 176.082 181.247 177.357 178.627 177.523C174.508 177.783 171.133 176.373 170.221 172.134C169.793 170.145 169.912 167.536 170.941 165.74C173.497 161.286 180.326 161.847 184.764 161.833C184.713 161.088 184.832 160.266 184.764 159.53V159.534ZM184.764 165.893C183.748 165.924 182.723 165.852 181.711 165.893C178.322 166.019 176.08 166.459 176.363 170.388C176.527 172.687 178.098 173.248 180.208 173.073C181.966 172.929 183.438 171.897 184.764 170.85V165.897V165.893Z" fill="black"/>
<path d="M262.743 154.501L264.697 153.189C270.424 150.127 278.36 150.419 278.825 158.362C279.043 162.081 278.797 166.149 278.825 169.912C278.838 171.762 279.107 174.012 278.907 175.839C278.852 176.356 278.547 176.751 277.996 176.818C276.998 176.935 274.497 176.912 273.472 176.818C272.943 176.769 272.51 176.463 272.479 175.92C272.255 170.846 272.793 165.507 272.488 160.464C272.356 158.255 271.672 156.997 269.276 156.84C267.681 156.737 266.146 157.19 264.775 157.949C264.46 158.12 263.353 158.753 263.294 159.067V176.001C263.303 176.504 262.857 176.778 262.383 176.823C261.371 176.917 258.847 176.939 257.859 176.823C257.513 176.782 257.148 176.553 257.048 176.216C256.811 168.646 257.016 161.034 256.943 153.45C256.952 152.875 257.121 152.273 257.786 152.17C258.57 152.049 260.907 152.089 261.745 152.161C261.959 152.179 262.242 152.233 262.415 152.363C262.492 152.422 262.734 152.781 262.734 152.83V154.51L262.743 154.501Z" fill="black"/>
<path d="M131.991 142.875C132.119 142.762 132.602 143.512 132.688 143.629C138.816 151.986 140.392 164.833 135.016 173.904C127.823 186.041 112.456 186.481 104.779 174.546C98.5607 164.891 100.652 151.757 107.303 142.875L108.82 146.346C106.652 149.835 105.112 153.903 104.579 157.985C103.877 163.378 104.857 169.085 108.069 173.567C114.265 182.211 125.199 182.153 131.335 173.491C137.003 165.489 135.563 154.303 130.561 146.35C131.071 145.21 131.663 144.092 131.987 142.879L131.991 142.875Z" fill="black"/>
<path d="M290.479 152.161H297.809C297.891 152.161 298.292 152.453 298.361 152.552C298.456 152.691 298.516 152.911 298.543 153.077C298.648 153.782 298.629 155.448 298.566 156.18C298.534 156.557 298.461 156.93 298.115 157.141C298.065 157.172 297.75 157.307 297.732 157.307H290.479V169.521C290.479 170.222 290.989 171.295 291.55 171.744C292.921 172.84 296.101 172.269 297.805 172.211C298.338 172.193 298.807 172.269 298.88 172.876C298.967 173.616 298.953 175.404 298.88 176.158C298.839 176.567 298.607 176.903 298.206 177.056C297.686 177.254 296.274 177.393 295.664 177.442C289.404 177.954 284.525 177.124 284.133 169.993L284.156 146.831C284.297 146.225 284.803 146.108 285.363 146.068C286.397 145.991 288.475 145.964 289.477 146.081C289.659 146.104 289.923 146.171 290.078 146.27C290.183 146.337 290.479 146.737 290.479 146.813V152.157V152.161Z" fill="black"/>
<path d="M220.798 142.269L225.768 142.255C226.238 142.368 226.461 142.781 226.516 143.234L226.529 175.534C226.502 176.091 226.32 176.639 225.691 176.737C224.274 176.953 222.338 176.589 220.866 176.737C220.397 176.625 220.174 176.212 220.119 175.758L220.105 143.382C220.151 142.884 220.297 142.462 220.798 142.269Z" fill="black"/>
<path d="M208.914 142.269L213.884 142.255C214.176 142.3 214.513 142.632 214.559 142.92L214.527 176.118C214.417 176.437 214.148 176.683 213.807 176.733C213.064 176.845 209.725 176.845 208.982 176.733C208.59 176.675 208.308 176.369 208.23 175.992L208.262 142.87C208.376 142.552 208.59 142.363 208.918 142.264L208.914 142.269Z" fill="black"/>
<path d="M197.185 152.179C198.648 152.287 200.502 151.973 201.914 152.17C202.301 152.224 202.666 152.543 202.734 152.925L202.716 176.122C202.602 176.387 202.438 176.639 202.142 176.728L197.09 176.742C196.716 176.625 196.502 176.36 196.429 175.988L196.406 153.064C196.461 152.628 196.766 152.314 197.181 152.188L197.185 152.179Z" fill="black"/>
<path d="M118.423 135.798C120.746 135.609 122.97 135.959 125.07 136.929C125.27 137.024 126.131 137.378 126.113 137.594L124.573 140.293C121.48 138.573 117.935 138.573 114.842 140.293L113.211 137.527C114.746 136.628 116.628 135.941 118.423 135.793V135.798Z" fill="black"/>
<path d="M196.948 142.269C198.556 142.381 200.515 142.067 202.083 142.251C202.616 142.313 202.857 142.65 202.912 143.149C203.017 144.074 203.007 146.274 202.912 147.213C202.853 147.796 202.506 148.124 201.919 148.183C200.843 148.295 198.406 148.286 197.317 148.183C196.798 148.133 196.392 147.913 196.329 147.361C196.219 146.463 196.228 143.97 196.329 143.068C196.374 142.677 196.561 142.408 196.939 142.264L196.948 142.269Z" fill="black"/>
<path d="M124.838 157.64C126.378 157.397 126.214 159.346 125.872 160.298C125.512 161.295 124.173 162.79 122.993 162.31C122.236 162.004 122.701 160.199 122.934 160.123C123.193 160.042 123.918 160.5 124.059 159.826C124.186 159.207 123.403 159.332 123.553 158.789C123.681 158.336 124.369 157.711 124.847 157.64H124.838Z" fill="black"/>
<path d="M115.803 159.166C115.589 159.364 115.338 159.225 115.343 159.768C115.352 160.567 116.354 160.082 116.459 160.154C116.746 160.352 117.088 162.247 116.254 162.381C114.313 162.691 112.865 159.988 113.347 158.349C113.621 157.433 114.701 157.536 115.306 158.093C115.475 158.246 116.017 158.969 115.803 159.166Z" fill="black"/>
<path d="M132.423 168.237C132.851 168.354 132.778 169.234 132.186 169.13L125.566 169.094V168.237H132.423Z" fill="black"/>
<path d="M113.84 168.237C113.753 168.363 113.799 169.018 113.762 169.018H106.906C106.646 169.018 106.646 168.237 106.906 168.237H113.84Z" fill="black"/>
<path d="M124.5 256.768H122.355C105.252 255.744 95.5483 236.369 105.735 222.286C114.628 209.993 133.329 210.297 141.749 222.925C151.198 237.094 141.416 255.911 124.5 256.772V256.768ZM123.116 215.231C108.23 215.462 98.8405 231.665 106.144 244.624C113.162 257.076 130.879 258.272 139.463 246.777C149.326 233.564 139.568 214.968 123.116 215.226V215.231Z" fill="black"/>
<path d="M167.227 220.628H181.52C184.867 220.832 188.096 222.164 189.298 225.494C190.331 228.358 189.871 231.688 187.312 233.555C186.839 233.899 186.292 234.108 185.86 234.484C191.656 236.07 192.754 243.365 188.301 247.13C187.235 248.032 184.667 249.31 183.278 249.31H167.231V220.628H167.227ZM174.398 226.536L174.253 226.681V231.815L174.398 231.96H179.763C182.522 231.96 183.378 227.737 180.787 226.776C180.582 226.699 179.94 226.532 179.763 226.532H174.398V226.536ZM174.348 237.683V243.256L174.494 243.401H180.054C180.318 243.401 181.233 243.211 181.52 243.116C183.838 242.364 184.002 239.11 181.857 238.122C181.589 238 180.5 237.687 180.25 237.687H174.348V237.683Z" fill="black"/>
<path d="M282.132 220.628V231.19H290.912V220.628H298.421V249.31H290.912V237.973H282.132V249.31H274.523V220.628H282.132Z" fill="black"/>
<path d="M205.151 219.98C216.576 219.019 221.671 229.454 219.445 239.409C217.864 246.473 212.213 250.773 204.841 249.881C189.25 247.991 189.769 221.271 205.151 219.98ZM205.834 226.858C198.94 227.596 198.721 241.362 205.169 242.962C214.923 245.386 215.815 225.789 205.834 226.858Z" fill="black"/>
<path d="M231.876 219.88C236.366 219.531 240.797 220.854 243.788 224.275L239.358 228.766C237.614 226.708 233.834 225.245 231.307 226.586C230.059 227.248 229.422 228.852 230.378 230.03C231.516 231.425 235.956 231.933 237.787 232.458C241.279 233.464 243.843 235.173 244.367 239.001C245.815 249.532 232.491 252.25 225.132 247.932C223.634 247.053 222.386 245.816 221.262 244.511L225.811 240.112C225.988 240.08 226.749 241.059 226.972 241.267C228.998 243.138 232.55 244.416 235.237 243.378C237.327 242.567 237.905 239.962 235.788 238.811C234.021 237.851 231.248 237.683 229.267 237.053C218.853 233.736 221.23 220.718 231.876 219.885V219.88Z" fill="black"/>
<path d="M259.385 219.975C261.866 219.821 264.435 220.252 266.625 221.448C268.578 222.513 270.181 224.28 271.392 226.119L265.696 230.025C262.946 225.073 256.47 226.065 254.649 231.262C253.87 233.482 253.925 236.491 254.722 238.702C256.557 243.795 263.023 244.924 265.746 239.953L265.878 239.921L271.584 243.836C269.352 247.393 266.22 249.699 261.894 249.989C242.65 251.272 241.831 221.058 259.389 219.98L259.385 219.975Z" fill="black"/>
<path d="M116.014 221.402V228.865H131.037V221.402H132.548C132.844 221.402 135.185 223.509 135.526 223.872C141.806 230.596 141.264 241.172 134.356 247.23C134.16 247.402 132.753 248.535 132.649 248.535H131.041V241.172H116.014V248.535H114.407C114.056 248.535 111.515 246.097 111.142 245.676C105.619 239.427 105.833 229.934 111.529 223.872C111.884 223.491 114.175 221.402 114.507 221.402H116.019H116.014ZM113.965 224.406C113.797 224.366 113.769 224.474 113.674 224.551C113.168 224.937 112.476 225.748 112.075 226.26C107.781 231.715 108.173 239.645 112.891 244.71C113.182 245.023 113.578 245.476 113.965 245.63V224.406ZM133.086 245.626C138.791 240.614 139.493 231.937 134.743 226.006C134.402 225.58 133.805 224.869 133.382 224.551C133.281 224.474 133.259 224.366 133.09 224.406V245.626H133.086ZM131.037 230.9H116.014V239.037H131.037V230.9Z" fill="black"/>
<path d="M101.059 286.98L101.35 286.847C107.658 287.044 114.103 286.601 120.394 286.852C124.253 287.007 129.751 287.784 130.598 292.383C131.135 295.307 130.147 297.86 127.48 299.235L125.368 300.053C129.524 300.582 132.592 303.784 131.791 308.151C130.962 312.655 126.219 314.619 122.1 314.797H101.059V286.98ZM109.474 297.929H118.696C119.092 297.929 120.189 297.536 120.548 297.317C121.918 296.49 122.291 294.023 120.94 293.037C120.453 292.68 119.115 292.306 118.523 292.306H109.47V297.929H109.474ZM109.474 309.43C112.151 309.325 114.932 309.572 117.594 309.43C119.192 309.348 122.123 309.078 122.387 307.078C122.792 303.976 121.003 303.09 118.277 302.949C115.391 302.798 112.374 303.067 109.479 302.949V309.426L109.474 309.43Z" fill="black"/>
<path d="M191.915 314.715H184.096V312.331L183.244 313.313C177.942 317.488 168.725 315.272 165.225 309.736C161.843 304.392 165.029 297.55 170.382 295.051C174.355 293.197 180.3 293.292 183.841 296.06V286.939H191.788L191.915 287.067V314.715ZM178.201 298.815C173.559 298.838 170.573 304.045 173.399 307.927C175.98 311.477 181.642 311.065 183.618 307.124C185.607 303.15 182.489 298.792 178.201 298.815Z" fill="black"/>
<path d="M297.812 322.891H101.145V325.107H297.812V322.891Z" fill="black"/>
<path d="M223.022 306.447H204.156C204.242 309.124 206.272 310.873 208.871 311.052C210.983 311.198 213.304 310.759 214.483 308.832H222.175C221.497 310.819 219.699 312.504 217.897 313.532C210.519 317.743 195.576 315.674 195.485 305.036C195.403 295.64 205.08 292.785 212.844 294.032C219.162 295.046 223.868 299.746 223.026 306.447H223.022ZM214.351 302.19C213.896 299.235 211.11 297.737 208.297 298.207C206.181 298.563 204.643 300.084 204.237 302.19H214.351Z" fill="black"/>
<path d="M297.986 300.313H290.421C290.494 299.733 289.871 299.116 289.443 298.783C288.241 297.847 285.578 297.778 284.131 298.052C281.546 298.545 281.336 300.194 283.995 300.921C288.578 302.177 299.474 301.336 298.919 308.617C298.286 316.88 283.321 316.497 278.009 313.82C275.747 312.678 274.018 310.673 273.508 308.151H281.286C281.732 309.398 282.438 310.207 283.685 310.687C285.246 311.289 289.438 311.6 290.508 310.07C291.796 308.224 287.945 307.603 286.871 307.411C282.315 306.603 272.329 306.53 274.168 299.313C275.661 293.443 285.974 293.023 290.649 294.17C293.858 294.955 297.062 296.96 297.991 300.313H297.986Z" fill="black"/>
<path d="M253.194 294.69V305.808C253.194 306.228 253.513 307.201 253.691 307.612C255.315 311.372 260.709 310.997 261.888 307.11C261.942 306.923 262.12 306.292 262.12 306.151V294.69H270.108V314.327L269.98 314.455H262.375V312.24L260.668 313.555C254.933 317.232 245.88 314.496 245.293 307.087V294.608L253.194 294.695V294.69Z" fill="black"/>
<path d="M143.215 294.864V305.982C143.215 309.535 147.58 311.719 150.393 309.517C151.139 308.932 152.136 307.366 152.136 306.411V294.868H160.124V314.551H152.391V312.335C146.993 317.89 135.81 315.505 135.305 307.014V294.868H143.211L143.215 294.864Z" fill="black"/>
<path d="M242.994 294.01V299.975C239.753 299.372 235.775 300.359 234.81 303.912C234.755 304.109 234.578 304.812 234.578 304.958V314.542H226.672V294.777H234.237V298.865L234.787 297.499C236.339 294.366 239.835 293.927 242.994 294.01Z" fill="black"/>
<path d="M109.24 395.279C106.768 393.144 105.233 389.445 104.947 386.183C104.561 381.717 104.442 367.569 105.778 363.807C107.518 358.904 111.897 355.878 116.985 355.483C121.796 355.106 133.831 354.852 138.324 355.528C143.212 356.265 147.705 361.762 148.141 366.61C148.6 371.712 148.668 382.93 148.073 387.932C147.459 393.08 142.621 397.764 137.465 398.223C132.372 398.677 119.657 398.836 114.773 398.164C113.001 397.919 110.589 396.442 109.24 395.274V395.279ZM137.215 394.575C136.979 385.347 134.526 375.006 129.229 367.355C123.932 359.704 115.4 354.724 109.508 364.579C126.276 359.481 135.08 381.235 135.402 394.575H137.215ZM137.447 359.131C134.476 358.641 130.342 359.495 127.225 359.131C134.98 367.164 137.974 378.009 139.032 388.895C139.15 390.099 138.946 391.331 139.032 392.535C139.082 393.212 138.682 393.848 139.718 393.671C142.262 392.339 143.961 389.777 144.366 386.955C144.979 382.694 144.92 371.926 144.479 367.541C144.102 363.784 141.358 359.781 137.442 359.131H137.447ZM133.585 394.57C133.245 387.005 126.407 370.435 118.262 368.777C114.909 368.091 110.489 369.181 109.353 372.839C108.695 374.952 108.808 384.084 109.035 386.642C109.208 388.568 109.98 390.667 111.329 392.071C111.938 392.707 114.955 394.575 115.641 394.575H133.585V394.57Z" fill="black"/>
<path d="M176.063 359.586C178.607 359.945 182.009 362.275 182.545 364.915C183.231 368.291 183.022 371.994 180.397 374.366C179.402 375.265 177.875 375.174 178.112 376.387C185.308 377.496 185.616 388.618 180.533 392.221C180.088 392.535 176.78 394.116 176.522 394.116H159.031V374.125H170.616C171.02 374.125 174.514 373.239 174.913 372.971C176.731 371.749 176.83 367.087 175.245 365.638C175.068 365.474 173.451 364.588 173.341 364.588H159.031V359.59C164.315 360.126 170.961 358.872 176.067 359.59L176.063 359.586ZM165.841 389.572H172.428C177.412 389.572 178.979 381.276 174.736 379.086C173.023 378.2 167.917 377.796 166.123 378.268C165.001 378.564 165.841 379.25 165.841 379.35V389.572Z" fill="black"/>
<path d="M230.348 382.303C228.981 389.718 236.136 395.07 237.88 385.456L243.523 385.483C243.523 393.016 237.235 396.697 230.253 394.439C222.457 391.917 222.484 376.21 226.728 370.726C228.467 368.477 230.053 367.887 232.833 367.741C238.444 367.446 242.064 368.482 243.423 374.457C243.868 376.41 244.481 380.795 243.305 382.299H230.357L230.348 382.303ZM230.348 378.214H237.617C238.794 369.159 229.835 369.886 230.348 378.214Z" fill="black"/>
<path d="M192.645 382.303C192.717 385.356 193.431 392.38 198.092 390.245C200.154 389.3 199.663 386.383 199.972 385.997C200.499 385.338 205.628 385.37 205.851 386.21C205.06 398.396 187.802 398.241 186.721 385.729C186.216 379.899 186.139 368.854 193.817 367.805C204.838 366.305 206.523 372.725 206.269 382.303H192.64H192.645ZM200.368 378.214C200.045 374.788 199.618 370.231 195.03 372.198C193.331 372.925 192.308 376.81 193.326 378.214H200.368Z" fill="black"/>
<path d="M295.315 394.116H288.955C288.41 389.232 286.77 393.957 284.34 394.72C275.059 397.642 271.815 383.852 279.165 380.458C281.741 379.272 288.265 378.9 288.483 375.692C288.878 369.895 281.151 370.767 281.687 375.942H276.235C274.323 366.305 291.945 364.974 294.107 371.926C295.461 376.269 293.912 385.992 294.407 391.163C294.511 392.239 294.852 393.162 295.315 394.116ZM288.497 381.399C284.962 382.444 280.805 382.725 281.251 387.473C281.482 389.95 282.641 390.79 285.053 390.458C289.61 389.836 288.356 384.779 288.492 381.394L288.497 381.399Z" fill="black"/>
<path d="M254.881 360.494V367.537C255.453 368.809 258.683 367.927 258.97 368.218V372.048L254.881 372.312V387.987C254.881 390.027 257.448 390.045 258.965 390.036L258.542 394.375C256.362 394.675 251.719 394.984 250.011 393.53C247.458 391.353 248.662 376.742 248.848 372.989C248.366 371.644 245.223 372.934 245 371.649L245.336 368.218L248.221 368.15L248.916 367.5L248.516 360.494H254.876H254.881Z" fill="black"/>
<path d="M269.875 368.218H273.514L273.518 372.044L269.875 372.307V388.891C269.875 389.859 272.646 390.29 273.514 390.022L273.445 393.825L272.764 394.507C269.502 394.697 264.446 395.17 263.619 391.058C262.588 385.938 264.223 378.446 263.451 373.052L262.769 372.371L259.871 372.048V368.218C261.125 368.137 262.651 368.659 263.515 367.537V360.494C265.532 360.776 268.303 359.786 269.875 361.176V368.218Z" fill="black"/>
<path d="M209.453 368.218H215.363C215.627 368.482 214.764 372.039 216.036 371.394C217.603 368.891 219.675 367.31 222.632 367.759L222.596 373.634C220.62 373.698 218.385 373.384 216.963 375.043C216.794 375.238 215.813 376.96 215.813 377.073V394.111H209.453V368.218Z" fill="black"/>
<path d="M136.285 490.777V448.568C136.45 446.189 136.988 443.434 138.993 441.902C140.997 440.371 143.668 440.203 146.101 440.076H156.762V444.666C153.853 444.703 150.936 444.589 148.032 444.734C143.371 445.061 144.914 450.512 144.631 453.634L144.722 453.838H154.662C154.68 453.883 154.602 453.91 154.602 453.928V459.262H144.722L144.631 490.777H136.285Z" fill="black"/>
<path d="M226.412 449.452C228.955 449.289 231.845 449.796 233.813 451.491C236.931 454.173 237.607 459.538 237.776 463.404C238.086 470.459 237.602 481.348 228.257 481.901C217.573 482.53 216.546 471.515 216.879 463.521C217.144 457.119 218.655 449.941 226.417 449.452H226.412ZM227.257 454.214C225.001 454.273 225.065 457.74 224.983 459.348C224.791 463.068 224.864 467.06 224.988 470.785C225.033 472.194 224.974 475.226 225.828 476.327C226.435 477.111 227.503 477.356 228.32 476.712C229.663 475.652 229.562 471.578 229.613 469.951C229.722 466.376 229.749 462.742 229.558 459.171C229.471 457.558 229.654 454.151 227.266 454.214H227.257Z" fill="black"/>
<path d="M178.086 466.114H166.586C166.499 466.168 166.504 466.231 166.494 466.317C166.412 467.015 166.545 467.772 166.558 468.461C166.599 470.364 166.563 472.34 166.873 474.225C167.134 475.815 167.809 477.233 169.699 477.066C171.59 476.898 171.736 475.276 171.777 473.799H177.301C177.351 476.418 176.639 479.15 174.292 480.614C171.731 482.209 167.042 482.34 164.349 481.017C158.728 478.248 158.185 469.059 158.441 463.639C158.779 456.521 161.093 448.972 169.763 449.429C178.438 449.887 178.178 459.724 178.077 466.114H178.086ZM166.558 461.587H171.571C171.658 461.532 171.653 461.469 171.663 461.383C171.745 460.699 171.644 459.371 171.599 458.641C171.503 457.155 171.416 454.536 169.512 454.278C166.49 453.87 166.764 457.101 166.554 459.113V461.587H166.558Z" fill="black"/>
<path d="M221.219 443.515C222.141 444.417 223.095 445.355 223.899 446.366C224.013 446.511 224.62 447.227 224.502 447.349H224.356C216.58 441.585 207.121 437.665 197.442 436.456C187.626 435.232 174.417 436.732 168.596 445.709C168.487 445.876 167.925 446.914 167.848 446.918C167.761 446.896 167.706 446.837 167.647 446.773C167.263 446.352 166.674 445.296 166.368 444.766C164.971 442.342 163.533 438.912 163.323 436.111C163.273 435.436 163.392 435.418 163.853 434.987C167.25 431.838 172.34 429.971 176.874 429.196C191.99 426.609 210.385 432.917 221.224 443.515H221.219Z" fill="black"/>
<path d="M249.722 440.081V475.615C249.722 475.656 249.895 476.218 249.932 476.299C250.379 477.36 251.722 477.432 252.726 477.432V481.601H247.051C243.271 481.316 242.002 478.832 241.855 475.38V440.081H249.726H249.722Z" fill="black"/>
<path d="M197.118 450.027V456.579C195.183 455.895 193.197 455.673 191.151 455.99C190.612 456.076 189.95 456.23 189.553 456.607V481.597H181.746V449.878L181.837 449.787H188.174L188.654 451.278C189.681 450.421 191.074 449.751 192.416 449.556C193.995 449.329 195.657 449.334 197.123 450.027H197.118Z" fill="black"/>
<path d="M215.017 450.027V456.579C213.081 455.909 211.095 455.664 209.05 455.99C208.497 456.081 207.858 456.208 207.452 456.607V481.597H199.645V449.791H206.068L206.488 451.223C206.589 451.309 207.169 450.784 207.31 450.698C208.602 449.891 210.095 449.501 211.62 449.434C212.821 449.379 213.926 449.538 215.017 450.032V450.027Z" fill="black"/>
<path d="M263.717 449.792V481.601H255.91V449.878L256.001 449.792H263.717Z" fill="black"/>
<path d="M263.717 440.081V447.29H255.91V440.171L256.001 440.081H263.567C263.603 440.081 263.658 440.13 263.717 440.081Z" fill="black"/>
</g>
</svg>
