<svg width="1400" height="119" viewBox="0 0 1400 119" fill="none" xmlns="http://www.w3.org/2000/svg">
<g opacity="0.6">
<path d="M192.945 11.147L195.276 17.5342L197.731 11.147H205.337V25.79H200.308V18.2564L196.965 25.7935L193.629 25.7795L190.368 18.3791V25.79H185.4V11.147H192.945Z" fill="black"/>
<path d="M240.544 18.2564V11.147H246.004V25.79H240.391L234.411 18.6806V25.79H228.705V11.147H234.318L240.544 18.2564Z" fill="black"/>
<path d="M262.199 18.2564V11.147H267.594V25.79H261.953L256.001 18.6806V25.79H250.299V11.147H255.908L262.199 18.2564Z" fill="black"/>
<path d="M181.844 3.6765V7.77458H170.343C170.247 7.77458 169.841 7.96038 169.755 8.04101C169.349 8.44416 169.684 9.03311 170.187 9.13126C173.522 9.50637 179.488 8.05504 181.712 11.2487C183.12 13.2714 182.592 16.6544 180.49 18.0426C179.973 18.3826 178.615 18.9225 178.013 18.9225H165.222V14.7052H177.09C177.165 14.7052 177.457 14.5405 177.517 14.4633C177.856 14.0321 177.614 13.345 177.076 13.2118C174.57 13.0611 171.908 13.3661 169.424 13.1978C166.035 12.9699 164.274 10.3232 165.015 7.12254C165.946 3.11209 170.386 3.66247 173.529 3.68C176.302 3.69403 179.075 3.66247 181.844 3.68V3.6765Z" fill="black"/>
<path d="M181.844 20.8472V24.9453H170.404C170.336 24.9453 169.858 25.124 169.787 25.1836C169.224 25.6884 169.808 26.2809 170.4 26.3335C173.782 26.628 179.698 25.2538 181.833 28.6016C182.899 30.2738 182.631 33.1344 181.263 34.5857C180.625 35.2623 179.01 36.0897 178.073 36.0897H165.222V31.932H176.843C176.954 31.932 177.364 31.7777 177.456 31.6936C177.888 31.301 177.638 30.4877 177.061 30.393C174.541 30.2142 171.861 30.5367 169.356 30.3685C167.054 30.2142 165.261 28.8225 164.919 26.5333C164.577 24.2441 165.542 22.1057 167.795 21.2398C168.051 21.1416 169.01 20.8472 169.235 20.8472H181.84H181.844Z" fill="black"/>
<path d="M162.644 11.147V14.9436H152.708V16.451H160.834L160.926 16.5421V19.9461H152.801L152.708 20.0338V21.6919H163.072V25.79H147.309V11.147H162.644Z" fill="black"/>
<path d="M227.293 25.7899H221.253L219.927 23.2343L219.724 23.1327L213.779 23.1467L212.389 25.7864H206.316L213.89 11.1399L219.781 11.203L227.293 25.7829V25.7899ZM215.272 19.2204H218.341L216.776 16.2686L215.272 19.2204Z" fill="black"/>
<path d="M119.525 11.147L124.062 20.1845L128.478 11.147H134.921L127.099 25.79L126.921 25.8531L120.627 25.8181L112.654 11.147H119.525Z" fill="black"/>
<path d="M142.651 11.147H136.945V25.7865H142.651V11.147Z" fill="black"/>
<path fill-rule="evenodd" clip-rule="evenodd" d="M377.279 8.11755L368.116 16.5219C367.784 16.8264 367.594 17.2576 367.594 17.7107V30.4241C367.594 31.3121 368.306 32.0333 369.183 32.0333H387.672C388.546 32.0333 389.258 31.3121 389.258 30.4241V17.7143C389.258 17.2576 389.065 16.8191 388.725 16.5147L379.398 8.10668C378.793 7.56305 377.876 7.56668 377.275 8.11755H377.279ZM378.349 10.9516C380 12.4412 385.656 17.5403 386.537 18.3304V29.3369H370.315V18.3231C371.178 17.5294 376.713 12.452 378.353 10.9516H378.349Z" fill="#010101"/>
<path fill-rule="evenodd" clip-rule="evenodd" d="M378.356 17.0293C377.601 17.7215 375.048 20.0627 374.65 20.4251V25.5025H382.13V20.4323C381.722 20.0663 379.115 17.7179 378.356 17.0293ZM470.116 16.424V19.4502H476.059V30.8191H479.317V19.4502H485.114V16.424H470.116ZM520.151 16.424V26.6478L511.229 17.3228C510.438 16.4784 509.517 16.1305 508.49 16.2936C507.559 16.4385 506.954 17.2105 506.954 18.2542V30.8228H510.144V20.5991L518.919 29.779C519.829 30.7503 520.656 31.1199 521.601 30.9858C523.155 30.7612 523.334 29.6014 523.334 28.7498V16.424H520.144H520.151ZM486.679 23.6035C486.679 29.8442 489.783 31.062 495.372 31.062C500.961 31.062 504.061 29.8442 504.061 23.6035C504.061 17.3627 500.957 16.145 495.372 16.145C489.786 16.145 486.679 17.3627 486.679 23.6035ZM500.62 23.6035C500.62 27.764 498.82 27.9561 495.372 27.9561C491.924 27.9561 490.119 27.764 490.119 23.6035C490.119 19.443 491.917 19.2509 495.372 19.2509C498.827 19.2509 500.62 19.443 500.62 23.6035ZM444.882 30.8155H448.115V16.424H444.882V30.8155ZM437.822 25.3503C439.852 24.8429 441.004 23.2773 441.004 21.1391C441.004 18.2289 439.107 16.4204 436.053 16.4204H425.881V30.8119H429.071V25.6765H434.241L437.822 30.8119H441.567L437.822 25.3467V25.3503ZM429.071 19.4103H435.605C437.528 19.4103 437.761 20.2946 437.761 21.1282C437.761 21.9617 437.51 22.8605 435.616 22.8605H429.075V19.4103H429.071ZM461.398 21.7697H458.541C456.092 21.7697 455.591 21.3021 455.591 20.4142C455.591 19.3342 457.23 18.9175 459.543 18.9175C461.577 18.9175 463.5 19.2654 465.723 20.32L467.431 17.8846C465.003 16.4023 462.597 15.8623 459.565 15.8623C454.932 15.8623 452.161 17.6236 452.161 20.5737C452.161 23.7883 454.789 24.8864 458.172 24.8538H461.316C464.409 24.8538 464.821 25.2126 464.821 26.4049C464.821 27.5973 463.109 28.3221 460.353 28.3221C457.929 28.3221 455.437 27.8401 453.249 26.3578L451.516 28.8512C453.84 30.7213 456.704 31.3664 460.335 31.3664C465.401 31.3664 468.308 29.5 468.308 26.2491C468.308 23.2592 465.981 21.766 461.391 21.766L461.398 21.7697ZM413.894 15.9964C413.236 15.9964 412.587 16.3044 412.276 16.8155L403.837 30.8228H407.632L409.175 28.1916H418.61L420.153 30.8228H423.948L415.509 16.8155C415.198 16.3008 414.549 15.9964 413.887 15.9964H413.894ZM413.898 20.1533C414.009 20.3454 415.538 22.9547 417.059 25.5424H410.736C410.736 25.5424 413.783 20.349 413.898 20.1533Z" fill="#010101"/>
<path d="M667.534 29.6233L667.701 29.2717L673.355 8.13672C673.477 7.89411 673.687 7.70073 673.958 7.63041C675.296 7.71479 676.798 7.50735 678.114 7.62338C678.61 7.66908 678.792 8.02069 678.671 8.48481L670.726 34.145C670.559 34.4755 670.288 34.6021 669.92 34.6372C668.358 34.7743 666.599 34.5282 665.015 34.6372C664.719 34.6021 664.466 34.4052 664.33 34.1485L656.357 8.26681C656.375 7.90466 656.571 7.66205 656.946 7.62338C658.266 7.48977 659.825 7.73237 661.17 7.62338C661.558 7.66908 661.78 7.9785 661.88 8.3301L667.53 29.6198L667.534 29.6233Z" fill="black"/>
<path d="M643.337 13.488C643.237 13.4318 643.351 13.1646 643.383 13.0837C643.74 12.1414 644.546 11.0127 644.999 10.0318C645.762 8.37922 646.611 6.12543 646.915 4.33928C646.982 3.94548 647.257 1.82881 646.383 2.71838C645.941 3.16843 645.491 4.33576 645.227 4.94052C643.964 7.83423 642.894 10.8194 642.163 13.8924C642.17 14.1245 642.962 14.6694 643.18 14.898C644.517 16.3009 645.006 17.8444 644.824 19.7572C644.607 22.0215 643.804 24.2648 644.143 26.5713L648.263 26.3463C648.627 26.4095 648.784 26.7822 648.441 26.9862C646.429 27.1479 644.403 27.2147 642.384 27.3097C642.177 26.5045 640.74 26.4342 641.203 25.418C641.417 24.9469 642.37 24.0749 642.741 23.5721C643.818 22.1235 644.343 20.5518 643.865 18.7516C643.24 16.3958 641.435 17.4225 640.458 18.8782C639.302 20.6045 638.614 23.3189 638.81 25.3793C638.895 26.2619 639.716 26.8491 639.702 27.5593C639.684 28.3821 638.913 28.3574 638.621 28.9235C638.146 29.8342 639.156 30.6429 640.019 30.7273C641.161 30.8398 642.085 30.4319 642.448 29.3208L646.533 29.5072C646.722 29.5916 647.171 29.5248 647.293 29.6443C647.432 29.7814 647.403 30.1612 647.15 30.1788C645.873 30.1471 644.589 30.0381 643.315 29.9432C642.523 31.1175 641.378 32.0563 640.13 32.7349C638.542 33.5999 637.697 33.7475 636.034 32.9424C634.633 32.2638 633.341 31.1914 632.439 29.9432L629.225 30.1823C628.964 30.1436 628.443 30.3088 628.386 29.9643C628.351 29.7533 628.401 29.6338 628.618 29.5845C630.177 29.458 631.747 29.4158 633.309 29.3244C633.691 30.4143 634.661 30.8574 635.803 30.7343C636.68 30.6394 637.708 29.7428 637.101 28.8427C636.794 28.3891 636.131 28.3012 636.081 27.6472C636.031 26.9721 636.709 26.4799 636.894 25.8786C637.518 23.8358 636.152 19.1665 634.404 17.8163C632.963 16.7017 632.043 17.7706 631.811 19.2227C631.543 20.8929 632.096 22.3239 633.081 23.6424C633.455 24.1417 634.269 24.866 634.522 25.3371C635.103 26.4131 633.648 26.4834 633.373 27.3167L629.1 27.1339C628.565 26.9756 627.826 27.176 627.316 26.9932C627.002 26.8807 627.106 26.3533 627.487 26.3955C628.44 26.4553 629.389 26.4799 630.341 26.5185C630.562 26.5291 631.472 26.6838 631.586 26.5185C631.65 26.4271 631.682 25.2176 631.675 25.0172C631.529 21.2726 629.464 17.9956 632.667 14.8101C632.885 14.5921 633.52 14.2159 633.545 13.9557C633.163 12.2152 632.663 10.4959 632.05 8.82224C631.458 7.20134 630.605 4.83856 629.763 3.37588C628.832 1.76201 628.6 2.77463 628.772 4.04744C629.089 6.44539 630.341 9.33559 631.458 11.4839C631.654 11.8601 632.506 13.1224 632.424 13.4599C632.399 13.5197 632.267 13.5549 632.21 13.5478C631.829 13.4916 631.24 12.5422 631.026 12.2152C629.242 9.47975 627.409 4.45179 627.701 1.19241C628.001 -2.14081 630.873 2.48632 631.386 3.30556C633.334 6.41023 635.025 9.83135 636.291 13.2595L636.602 13.3228C637.447 13.1927 638.3 13.2138 639.145 13.3228L639.356 13.2208C640.18 10.9213 641.218 8.69215 642.37 6.53329C643.105 5.15852 645.516 0.752902 646.79 0.13056C647.617 -0.273786 647.91 0.506778 647.981 1.19592C648.313 4.44827 646.508 9.41997 644.724 12.1519C644.542 12.4332 643.75 13.7377 643.337 13.4951V13.488ZM639.484 31.8243C638.892 31.6801 638.389 31.318 637.954 30.9101C637.447 31.2441 636.991 31.6731 636.381 31.8243C637.162 32.7209 638.703 32.7209 639.484 31.8243Z" fill="#070707"/>
<path d="M736.718 32.7982C734.62 34.8059 731.806 35.706 728.898 35.0907C725.281 34.3242 724.125 30.6253 724.921 27.3835C726.112 22.5243 732.323 22.9287 736.282 22.9603V21.2199C736.282 20.5342 735.865 19.606 735.269 19.2227C733.989 18.393 730.76 18.7305 729.248 18.9379C728.595 19.0258 727.45 19.381 726.879 19.3634C726.522 19.3528 726.33 19.1173 726.287 18.7797C726.223 18.2488 726.233 16.9373 726.287 16.3958C726.351 15.777 726.604 15.6399 727.165 15.4887C729.876 14.7679 735.622 14.4233 738.198 15.4781C740.474 16.4099 741.098 18.5477 741.237 20.7944L741.223 34.0992C741.141 34.3347 740.98 34.5879 740.706 34.6301C739.65 34.5598 738.455 34.7356 737.417 34.6371C737.124 34.609 736.707 34.3629 736.707 34.0535V32.8017L736.718 32.7982ZM736.282 26.1388C735.469 26.1634 734.645 26.1037 733.828 26.1388C732.308 26.1986 730.222 26.3111 729.783 28.0832C729.423 29.5388 729.712 31.5465 731.542 31.754C733.414 31.9684 734.916 31.1738 736.282 30.0205V26.1423V26.1388Z" fill="black"/>
<path d="M688.876 21.16C688.658 18.8324 686.864 18.6495 684.87 18.6847C683.175 18.7128 681.509 19.0363 679.847 19.3C679.43 19.2754 679.348 18.8851 679.319 18.537C679.276 18.0272 679.259 16.3711 679.433 15.9562C679.633 15.4816 680.04 15.4534 680.489 15.3444C683.058 14.7362 688.102 14.4514 690.567 15.3409C693.014 16.2235 693.674 18.2874 693.838 20.6713L693.827 34.0991C693.72 34.3944 693.506 34.5808 693.182 34.6265C692.529 34.7179 690.699 34.7003 690.021 34.6335C689.728 34.6054 689.311 34.3593 689.311 34.0498V32.7981C687.827 34.1166 686.122 35.1152 684.071 35.2453C680.846 35.4492 678.203 34.3452 677.489 31.026C677.154 29.4684 677.247 27.4256 678.053 26.0192C680.054 22.5313 685.401 22.9708 688.876 22.9602C688.837 22.3765 688.929 21.7331 688.876 21.1565V21.16ZM688.876 26.1387C688.08 26.1633 687.278 26.1071 686.486 26.1387C683.832 26.2372 682.077 26.5817 682.298 29.6583C682.426 31.4585 683.657 31.898 685.309 31.7609C686.686 31.6484 687.838 30.8397 688.876 30.0204V26.1422V26.1387Z" fill="black"/>
<path d="M749.934 17.2186L751.465 16.1919C755.949 13.7939 762.163 14.0225 762.527 20.2424C762.698 23.1537 762.505 26.3392 762.527 29.2857C762.538 30.7343 762.748 32.4958 762.591 33.9269C762.548 34.3312 762.309 34.6406 761.878 34.6934C761.096 34.7848 759.138 34.7672 758.335 34.6934C757.922 34.6547 757.583 34.4156 757.558 33.9901C757.383 30.017 757.804 25.8364 757.565 21.8879C757.461 20.158 756.926 19.1735 755.05 19.0504C753.801 18.9696 752.599 19.3247 751.525 19.9189C751.279 20.0525 750.412 20.5483 750.366 20.7944V34.0534C750.373 34.4472 750.024 34.6617 749.653 34.6969C748.861 34.7707 746.884 34.7883 746.11 34.6969C745.839 34.6652 745.554 34.4859 745.475 34.2222C745.29 28.2941 745.45 22.3344 745.393 16.3958C745.4 15.9458 745.532 15.4746 746.053 15.3937C746.667 15.2988 748.497 15.3305 749.153 15.3867C749.321 15.4008 749.542 15.443 749.678 15.5449C749.738 15.5906 749.927 15.8719 749.927 15.9106V17.2256L749.934 17.2186Z" fill="black"/>
<path d="M647.553 8.11538C647.653 8.02748 648.031 8.61466 648.099 8.70608C652.897 15.2495 654.131 25.3089 649.922 32.4113C644.289 41.9152 632.257 42.2598 626.246 32.9141C621.377 25.3546 623.014 15.0701 628.223 8.11538L629.41 10.8333C627.712 13.5653 626.507 16.7508 626.089 19.9469C625.54 24.1697 626.307 28.6386 628.822 32.1476C633.673 38.916 642.235 38.8703 647.04 32.0878C651.477 25.8222 650.35 17.0637 646.433 10.8368C646.833 9.94373 647.297 9.06823 647.55 8.1189L647.553 8.11538Z" fill="black"/>
<path d="M771.651 15.3867H777.391C777.455 15.3867 777.769 15.6153 777.822 15.6926C777.897 15.8016 777.943 15.9739 777.965 16.104C778.047 16.656 778.033 17.9605 777.983 18.5336C777.958 18.829 777.901 19.1208 777.63 19.286C777.59 19.3107 777.344 19.4161 777.33 19.4161H771.651V28.9798C771.651 29.5283 772.05 30.3686 772.489 30.7203C773.563 31.5782 776.053 31.1316 777.387 31.0859C777.804 31.0719 778.172 31.1316 778.229 31.6063C778.297 32.1864 778.286 33.5858 778.229 34.1765C778.197 34.4965 778.015 34.7602 777.701 34.8797C777.294 35.0344 776.188 35.1434 775.71 35.1821C770.809 35.583 766.988 34.9325 766.682 29.349L766.699 11.2132C766.81 10.7385 767.206 10.6471 767.645 10.6155C768.455 10.5557 770.081 10.5346 770.866 10.626C771.009 10.6436 771.216 10.6963 771.337 10.7737C771.419 10.8264 771.651 11.1393 771.651 11.1991V15.3832V15.3867Z" fill="black"/>
<path d="M717.089 7.64092L720.981 7.63037C721.348 7.71827 721.523 8.04175 721.566 8.39687L721.577 33.6878C721.555 34.1238 721.413 34.5528 720.92 34.6301C719.811 34.7989 718.295 34.5141 717.143 34.6301C716.775 34.5422 716.6 34.2188 716.558 33.8636L716.547 8.5129C716.583 8.12262 716.697 7.79211 717.089 7.64092Z" fill="black"/>
<path d="M707.783 7.64092L711.675 7.63037C711.903 7.66553 712.167 7.92572 712.203 8.15075L712.178 34.1449C712.092 34.3946 711.882 34.588 711.614 34.6266C711.033 34.7145 708.418 34.7145 707.837 34.6266C707.53 34.5809 707.309 34.3418 707.248 34.0465L707.273 8.11207C707.362 7.86243 707.53 7.71476 707.787 7.6374L707.783 7.64092Z" fill="black"/>
<path d="M698.6 15.4009C699.745 15.4853 701.197 15.2391 702.303 15.3939C702.606 15.436 702.892 15.6857 702.945 15.9846L702.931 34.1485C702.842 34.3559 702.713 34.5528 702.481 34.6232L698.525 34.6337C698.233 34.5423 698.065 34.3348 698.008 34.043L697.99 16.0935C698.033 15.7525 698.272 15.5064 698.597 15.4079L698.6 15.4009Z" fill="black"/>
<path d="M636.931 2.57408C638.75 2.4264 640.491 2.70065 642.135 3.46012C642.292 3.53396 642.966 3.81173 642.952 3.9805L641.746 6.09365C639.324 4.747 636.549 4.747 634.127 6.09365L632.85 3.92776C634.052 3.22455 635.525 2.68659 636.931 2.57056V2.57408Z" fill="black"/>
<path d="M698.416 7.64076C699.675 7.72866 701.209 7.48254 702.436 7.6267C702.854 7.67592 703.043 7.93962 703.085 8.32991C703.167 9.05421 703.16 10.7771 703.085 11.5119C703.039 11.969 702.768 12.2257 702.308 12.2714C701.466 12.3593 699.557 12.3523 698.705 12.2714C698.298 12.2327 697.981 12.0604 697.931 11.628C697.845 10.9248 697.852 8.97334 697.931 8.26662C697.966 7.96072 698.113 7.74976 698.409 7.63724L698.416 7.64076Z" fill="black"/>
<path d="M641.953 19.6764C643.159 19.4865 643.03 21.0125 642.763 21.7579C642.481 22.5384 641.432 23.7093 640.508 23.3331C639.916 23.094 640.28 21.6805 640.462 21.6207C640.665 21.5575 641.232 21.9161 641.343 21.3887C641.443 20.9035 640.829 21.0019 640.947 20.5765C641.047 20.2214 641.586 19.7326 641.96 19.6764H641.953Z" fill="black"/>
<path d="M634.879 20.8718C634.711 21.0265 634.515 20.9175 634.519 21.3429C634.526 21.9688 635.31 21.589 635.393 21.6453C635.617 21.8 635.885 23.2838 635.232 23.3893C633.712 23.6319 632.578 21.5152 632.956 20.2318C633.17 19.5146 634.016 19.5954 634.49 20.0314C634.622 20.151 635.046 20.7171 634.879 20.8718Z" fill="black"/>
<path d="M647.892 27.9741C648.227 28.0655 648.17 28.7547 647.707 28.6738L642.523 28.6457V27.9741H647.892Z" fill="black"/>
<path d="M633.342 27.9741C633.274 28.0726 633.31 28.5859 633.281 28.5859H627.912C627.709 28.5859 627.709 27.9741 627.912 27.9741H633.342Z" fill="black"/>
<path d="M896.22 36.9004H894.541C881.149 36.0986 873.551 20.9278 881.527 9.90086C888.49 0.275386 903.134 0.513095 909.726 10.4011C917.125 21.4954 909.466 36.2299 896.22 36.904V36.9004ZM895.136 4.37677C883.481 4.55771 876.129 17.245 881.848 27.392C887.342 37.1417 901.216 38.0783 907.936 29.0773C915.659 18.7316 908.018 4.17099 895.136 4.37322V4.37677Z" fill="black"/>
<path d="M929.676 8.60229H940.868C943.488 8.76195 946.016 9.80504 946.958 12.4127C947.767 14.655 947.407 17.2627 945.403 18.7245C945.032 18.9941 944.604 19.1573 944.266 19.4518C948.805 20.6936 949.664 26.4057 946.177 29.354C945.343 30.06 943.332 31.0606 942.244 31.0606H929.679V8.60229H929.676ZM935.291 13.2288L935.177 13.3423V17.3621L935.291 17.4756H939.492C941.652 17.4756 942.323 14.169 940.294 13.4168C940.133 13.3565 939.631 13.2252 939.492 13.2252H935.291V13.2288ZM935.252 21.9566V26.3205L935.366 26.4341H939.72C939.927 26.4341 940.643 26.2851 940.868 26.2106C942.683 25.6216 942.811 23.0742 941.132 22.3008C940.921 22.205 940.069 21.9602 939.873 21.9602H935.252V21.9566Z" fill="black"/>
<path d="M1019.65 8.60229V16.8725H1026.52V8.60229H1032.4V31.0606H1026.52V22.1837H1019.65V31.0606H1013.69V8.60229H1019.65Z" fill="black"/>
<path d="M959.372 8.0949C968.318 7.34275 972.307 15.5136 970.564 23.3083C969.327 28.8395 964.902 32.2065 959.129 31.5075C946.921 30.0281 947.328 9.10606 959.372 8.0949ZM959.907 13.4806C954.508 14.0589 954.337 24.8375 959.386 26.0899C967.023 27.988 967.722 12.6433 959.907 13.4806Z" fill="black"/>
<path d="M980.297 8.01699C983.813 7.7438 987.282 8.77979 989.625 11.4585L986.156 14.9744C984.79 13.3637 981.831 12.2177 979.852 13.2679C978.875 13.7859 978.376 15.0419 979.124 15.9643C980.016 17.0571 983.492 17.4544 984.925 17.866C987.66 18.6536 989.668 19.9912 990.078 22.9892C991.211 31.2345 980.779 33.3632 975.017 29.9821C973.844 29.2938 972.867 28.3252 971.986 27.3034L975.548 23.8584C975.687 23.8336 976.283 24.5999 976.457 24.7631C978.044 26.2284 980.825 27.2289 982.929 26.4164C984.565 25.7814 985.018 23.7413 983.36 22.8402C981.977 22.088 979.805 21.9567 978.254 21.4636C970.1 18.8665 971.961 8.67336 980.297 8.02054V8.01699Z" fill="black"/>
<path d="M1001.84 8.0914C1003.78 7.97077 1005.79 8.30782 1007.51 9.24447C1009.03 10.0782 1010.29 11.4619 1011.24 12.9024L1006.78 15.9607C1004.62 12.0828 999.554 12.8598 998.128 16.9292C997.518 18.6677 997.561 21.0235 998.185 22.7549C999.622 26.7428 1004.69 27.6262 1006.82 23.7341L1006.92 23.7093L1011.39 26.7747C1009.64 29.5598 1007.19 31.3657 1003.8 31.5927C988.733 32.5968 988.091 8.93935 1001.84 8.09495L1001.84 8.0914Z" fill="black"/>
<path d="M889.578 9.20898V15.0524H901.34V9.20898H902.524C902.756 9.20898 904.588 10.8588 904.856 11.1426C909.772 16.4077 909.348 24.6885 903.939 29.4321C903.786 29.5669 902.684 30.4539 902.602 30.4539H901.344V24.6885H889.578V30.4539H888.319C888.044 30.4539 886.055 28.5451 885.763 28.2151C881.438 23.3226 881.605 15.8897 886.066 11.1426C886.344 10.8446 888.137 9.20898 888.397 9.20898H889.581H889.578ZM887.973 11.5612C887.841 11.5293 887.82 11.6145 887.745 11.6748C887.349 11.9764 886.807 12.6114 886.493 13.0123C883.131 17.284 883.438 23.4929 887.132 27.4594C887.36 27.7042 887.67 28.059 887.973 28.1796V11.5612ZM902.945 28.1761C907.412 24.2521 907.961 17.4579 904.242 12.8137C903.975 12.4802 903.508 11.9231 903.176 11.6748C903.098 11.6145 903.08 11.5293 902.948 11.5612V28.1761H902.945ZM901.34 16.6454H889.578V23.0174H901.34V16.6454Z" fill="black"/>
<path d="M1132.4 5.02193L1132.63 4.91821C1137.57 5.07201 1142.62 4.72508 1147.54 4.92179C1150.56 5.04339 1154.87 5.65141 1155.53 9.25301C1155.95 11.542 1155.18 13.5413 1153.09 14.6179L1151.44 15.2581C1154.69 15.6729 1157.09 18.1801 1156.47 21.5993C1155.82 25.1258 1152.1 26.6637 1148.88 26.8032H1132.4V5.02193ZM1138.99 13.595H1146.21C1146.52 13.595 1147.38 13.2874 1147.66 13.1157C1148.74 12.4683 1149.03 10.537 1147.97 9.76446C1147.59 9.48549 1146.54 9.19221 1146.08 9.19221H1138.99V13.595H1138.99ZM1138.99 22.6008C1141.09 22.5185 1143.27 22.7116 1145.35 22.6008C1146.6 22.5364 1148.9 22.3254 1149.1 20.7588C1149.42 18.3303 1148.02 17.6365 1145.88 17.5256C1143.63 17.4076 1141.26 17.6186 1139 17.5256V22.5972L1138.99 22.6008Z" fill="black"/>
<path d="M1203.54 26.7388H1197.42V24.8719L1196.75 25.6408C1192.6 28.9098 1185.39 27.1752 1182.65 22.8404C1180 18.6558 1182.49 13.2981 1186.68 11.3417C1189.79 9.88964 1194.45 9.96475 1197.22 12.1321V4.98975H1203.44L1203.54 5.08989V26.7388ZM1192.81 14.2888C1189.17 14.3067 1186.83 18.384 1189.05 21.4241C1191.07 24.2031 1195.5 23.8812 1197.05 20.7946C1198.6 17.683 1196.16 14.2709 1192.81 14.2888Z" fill="black"/>
<path d="M1286.46 33.1409H1132.47V34.8755H1286.46V33.1409Z" fill="black"/>
<path d="M1227.9 20.2651H1213.13C1213.2 22.3609 1214.78 23.7308 1216.82 23.8703C1218.47 23.9847 1220.29 23.6414 1221.21 22.132H1227.24C1226.71 23.6879 1225.3 25.0076 1223.89 25.8123C1218.11 29.1099 1206.41 27.4897 1206.34 19.1599C1206.27 11.8029 1213.85 9.56757 1219.93 10.544C1224.88 11.338 1228.56 15.0183 1227.9 20.2651H1227.9ZM1221.11 16.9317C1220.75 14.6177 1218.57 13.4446 1216.37 13.813C1214.71 14.0919 1213.51 15.2829 1213.19 16.9317H1221.11Z" fill="black"/>
<path d="M1286.6 15.462H1280.68C1280.73 15.0078 1280.24 14.525 1279.91 14.2639C1278.97 13.5307 1276.88 13.477 1275.75 13.6916C1273.73 14.0779 1273.56 15.369 1275.64 15.9377C1279.23 16.9212 1287.76 16.2632 1287.33 21.9642C1286.83 28.4342 1275.12 28.1338 1270.96 26.0379C1269.19 25.1438 1267.83 23.5737 1267.43 21.5994H1273.52C1273.87 22.5758 1274.42 23.2089 1275.4 23.5844C1276.62 24.0565 1279.91 24.2997 1280.74 23.1016C1281.75 21.6566 1278.74 21.1702 1277.9 21.02C1274.33 20.3869 1266.51 20.3297 1267.95 14.6787C1269.12 10.0829 1277.19 9.75381 1280.85 10.6515C1283.37 11.2667 1285.87 12.8368 1286.6 15.462H1286.6Z" fill="black"/>
<path d="M1251.52 11.0593V19.7646C1251.52 20.0937 1251.77 20.8555 1251.91 21.1774C1253.19 24.1209 1257.41 23.8276 1258.33 20.7839C1258.37 20.6373 1258.51 20.1437 1258.51 20.0329V11.0593H1264.77V26.4349L1264.67 26.5351H1258.71V24.8004L1257.38 25.8305C1252.89 28.7096 1245.8 26.5672 1245.34 20.7661V10.9949L1251.52 11.0628V11.0593Z" fill="black"/>
<path d="M1165.41 11.1951V19.9004C1165.41 22.683 1168.83 24.3926 1171.03 22.6687C1171.62 22.2109 1172.4 20.9841 1172.4 20.2366V11.1986H1178.65V26.6101H1172.6V24.8754C1168.37 29.2245 1159.61 27.3576 1159.22 20.7087V11.1986H1165.41L1165.41 11.1951Z" fill="black"/>
<path d="M1243.54 10.5262V15.1972C1241 14.7251 1237.89 15.4977 1237.13 18.2802C1237.09 18.434 1236.95 18.9848 1236.95 19.0993V26.6029H1230.76V11.1271H1236.68V14.3281L1237.11 13.2587C1238.33 10.8052 1241.06 10.4619 1243.54 10.5262Z" fill="black"/>
<path d="M529.043 108.492C527.108 106.82 525.906 103.924 525.681 101.369C525.379 97.8723 525.287 86.7941 526.332 83.8485C527.695 80.0099 531.124 77.6406 535.108 77.3311C538.875 77.0358 548.298 76.8366 551.816 77.3666C555.643 77.943 559.161 82.2476 559.503 86.0435C559.862 90.0386 559.915 98.8222 559.449 102.739C558.969 106.77 555.181 110.438 551.144 110.797C547.156 111.153 537.199 111.277 533.376 110.751C531.988 110.558 530.099 109.402 529.043 108.488V108.492ZM550.948 107.94C550.763 100.715 548.842 92.6178 544.694 86.6269C540.547 80.636 533.866 76.737 529.253 84.4533C542.382 80.4617 549.276 97.4952 549.529 107.94H550.948ZM551.129 80.1878C548.803 79.8036 545.566 80.4724 543.126 80.1878C549.198 86.4775 551.542 94.9693 552.371 103.493C552.463 104.436 552.303 105.4 552.371 106.343C552.41 106.873 552.097 107.371 552.908 107.232C554.9 106.19 556.23 104.183 556.547 101.974C557.027 98.6372 556.981 90.2058 556.636 86.7728C556.341 83.8307 554.192 80.6965 551.126 80.1878H551.129ZM548.106 107.937C547.839 102.013 542.485 89.0389 536.107 87.7404C533.482 87.2032 530.021 88.057 529.132 90.9209C528.616 92.5751 528.705 99.7258 528.883 101.729C529.018 103.237 529.623 104.881 530.679 105.98C531.156 106.478 533.518 107.94 534.055 107.94H548.106V107.937Z" fill="black"/>
<path d="M581.365 80.5436C583.357 80.8246 586.021 82.6496 586.441 84.7166C586.978 87.3598 586.815 90.2592 584.759 92.1162C583.98 92.8206 582.784 92.7495 582.969 93.6993C588.604 94.5674 588.846 103.276 584.865 106.097C584.517 106.343 581.927 107.581 581.724 107.581H568.029V91.9277H577.1C577.417 91.9277 580.152 91.234 580.465 91.0241C581.888 90.0671 581.966 86.4171 580.725 85.2822C580.586 85.1541 579.32 84.4604 579.234 84.4604H568.029V80.5471C572.166 80.9669 577.37 79.985 581.369 80.5471L581.365 80.5436ZM573.361 104.023H578.519C582.422 104.023 583.649 97.5272 580.326 95.8125C578.985 95.1188 574.987 94.8022 573.582 95.1722C572.703 95.4034 573.361 95.9406 573.361 96.0189V104.023Z" fill="black"/>
<path d="M623.872 98.3313C622.801 104.137 628.404 108.328 629.77 100.8L634.188 100.822C634.188 106.72 629.265 109.602 623.797 107.833C617.693 105.859 617.715 93.5606 621.037 89.2666C622.4 87.5057 623.641 87.0432 625.818 86.9293C630.211 86.6981 633.046 87.5092 634.11 92.1874C634.458 93.7171 634.938 97.1501 634.017 98.3277H623.879L623.872 98.3313ZM623.872 95.1295H629.564C630.485 88.0393 623.47 88.6085 623.872 95.1295Z" fill="black"/>
<path d="M594.348 98.3312C594.405 100.722 594.964 106.222 598.614 104.55C600.228 103.81 599.844 101.526 600.086 101.223C600.499 100.708 604.515 100.733 604.689 101.391C604.07 110.932 590.557 110.811 589.71 101.014C589.315 96.4493 589.255 87.8009 595.266 86.9791C603.896 85.8051 605.216 90.8319 605.016 98.3312H594.345H594.348ZM600.396 95.1294C600.143 92.447 599.809 88.8788 596.216 90.4192C594.886 90.9884 594.085 94.0301 594.882 95.1294H600.396Z" fill="black"/>
<path d="M674.741 107.581H669.761C669.334 103.757 668.05 107.456 666.147 108.054C658.88 110.342 656.34 99.5444 662.095 96.8869C664.112 95.9584 669.22 95.6667 669.391 93.155C669.7 88.6156 663.65 89.2987 664.069 93.3507H659.801C658.303 85.8052 672.102 84.7628 673.795 90.2058C674.855 93.6069 673.642 101.22 674.029 105.268C674.111 106.112 674.378 106.834 674.741 107.581ZM669.402 97.6233C666.634 98.4416 663.379 98.6621 663.728 102.38C663.909 104.319 664.816 104.977 666.705 104.717C670.273 104.23 669.291 100.27 669.398 97.6198L669.402 97.6233Z" fill="black"/>
<path d="M643.083 81.2549V86.7691C643.531 87.7652 646.06 87.075 646.284 87.3027V90.3017L643.083 90.508V102.782C643.083 104.379 645.092 104.393 646.28 104.386L645.95 107.783C644.242 108.018 640.607 108.26 639.269 107.122C637.27 105.418 638.213 93.9766 638.359 91.0381C637.982 89.9851 635.52 90.9954 635.346 89.9886L635.609 87.3027L637.868 87.2493L638.412 86.7406L638.099 81.2549H643.079H643.083Z" fill="black"/>
<path d="M654.821 87.3028H657.67L657.674 90.2982L654.821 90.5046V103.49C654.821 104.247 656.991 104.585 657.67 104.375L657.617 107.353L657.083 107.887C654.529 108.036 650.57 108.406 649.923 105.187C649.115 101.177 650.396 95.3108 649.791 91.088L649.258 90.5544L646.988 90.3018V87.3028C647.97 87.2387 649.165 87.6479 649.841 86.7691V81.255C651.42 81.4755 653.59 80.7 654.821 81.7886V87.3028Z" fill="black"/>
<path d="M607.51 87.3028H612.138C612.344 87.5092 611.668 90.2947 612.664 89.7896C613.891 87.8294 615.513 86.5913 617.829 86.9435L617.801 91.5434C616.253 91.5932 614.503 91.3478 613.39 92.6463C613.258 92.7992 612.49 94.1475 612.49 94.2365V107.577H607.51V87.3028Z" fill="black"/>
<path d="M774.742 118.407V85.3566C774.871 83.4938 775.293 81.3366 776.862 80.1374C778.431 78.9381 780.523 78.8069 782.428 78.7075H790.775V82.3017C788.498 82.3301 786.214 82.2414 783.94 82.3549C780.29 82.6104 781.499 86.8787 781.277 89.3233L781.349 89.483H789.131C789.145 89.5184 789.085 89.5397 789.085 89.5539V93.73H781.349L781.277 118.407H774.742Z" fill="black"/>
<path d="M845.311 86.0485C847.302 85.9208 849.565 86.3182 851.106 87.6451C853.547 89.7456 854.076 93.9465 854.209 96.973C854.452 102.497 854.073 111.023 846.755 111.456C838.39 111.949 837.586 103.324 837.847 97.0652C838.054 92.0518 839.237 86.4317 845.314 86.0485H845.311ZM845.972 89.7775C844.206 89.8236 844.256 92.5379 844.192 93.7975C844.042 96.7104 844.099 99.8362 844.196 102.753C844.231 103.856 844.185 106.23 844.853 107.092C845.329 107.706 846.165 107.897 846.805 107.394C847.856 106.563 847.778 103.374 847.817 102.1C847.903 99.3005 847.924 96.4549 847.774 93.6591C847.706 92.396 847.849 89.7278 845.979 89.7775H845.972Z" fill="black"/>
<path d="M807.471 99.0948H798.466C798.398 99.1374 798.401 99.1871 798.394 99.2545C798.33 99.8009 798.433 100.393 798.444 100.933C798.476 102.423 798.448 103.97 798.691 105.446C798.895 106.691 799.424 107.802 800.904 107.67C802.384 107.539 802.498 106.269 802.53 105.112H806.856C806.895 107.163 806.337 109.303 804.5 110.449C802.495 111.698 798.823 111.8 796.714 110.764C792.313 108.597 791.888 101.401 792.088 97.1576C792.353 91.5836 794.165 85.6725 800.954 86.0309C807.746 86.3893 807.542 94.0921 807.464 99.0948H807.471ZM798.444 95.5503H802.369C802.437 95.5078 802.434 95.4581 802.441 95.3907C802.505 94.8549 802.427 93.8153 802.391 93.2441C802.316 92.0803 802.248 90.0296 800.757 89.8273C798.391 89.508 798.605 92.0378 798.441 93.6131V95.5503H798.444Z" fill="black"/>
<path d="M841.246 81.4005C841.968 82.1065 842.715 82.841 843.344 83.6322C843.433 83.7457 843.909 84.3063 843.816 84.4021H843.701C837.613 79.889 830.206 76.8199 822.628 75.8726C814.942 74.9146 804.6 76.089 800.042 83.1177C799.956 83.249 799.516 84.0615 799.455 84.0651C799.387 84.0473 799.345 84.0012 799.298 83.9515C798.998 83.6216 798.537 82.7949 798.297 82.3797C797.203 80.4815 796.077 77.7956 795.913 75.6029C795.873 75.0743 795.966 75.0601 796.327 74.723C798.987 72.2571 802.973 70.7953 806.523 70.1886C818.359 68.1627 832.762 73.1016 841.249 81.4005H841.246Z" fill="black"/>
<path d="M863.564 78.7109V106.535C863.564 106.567 863.7 107.007 863.728 107.071C864.079 107.901 865.13 107.958 865.916 107.958V111.222H861.472C858.513 110.998 857.519 109.054 857.404 106.35V78.7109H863.567H863.564Z" fill="black"/>
<path d="M822.374 86.4992V91.6296C820.859 91.0939 819.304 90.92 817.702 91.1684C817.28 91.2358 816.762 91.3564 816.451 91.6509V111.218H810.338V86.3821L810.409 86.3111H815.371L815.747 87.4784C816.551 86.8078 817.641 86.2827 818.692 86.1302C819.929 85.9528 821.231 85.9563 822.378 86.4992H822.374Z" fill="black"/>
<path d="M836.388 86.4991V91.6296C834.872 91.1045 833.317 90.9129 831.716 91.1684C831.283 91.2393 830.783 91.3387 830.465 91.6509V111.218H824.352V86.3146H829.381L829.71 87.4358C829.789 87.5032 830.243 87.0917 830.354 87.0242C831.365 86.3927 832.534 86.0876 833.728 86.0343C834.669 85.9918 835.534 86.1159 836.388 86.5027V86.4991Z" fill="black"/>
<path d="M874.521 86.3147V111.222H868.408V86.3821L868.48 86.3147H874.521Z" fill="black"/>
<path d="M874.521 78.7109V84.3559H868.408V78.7819L868.48 78.7109H874.403C874.432 78.7109 874.475 78.75 874.521 78.7109Z" fill="black"/>
</g>
</svg>
