<svg width="24" height="24" viewBox="0 0 24 24" fill="none" xmlns="http://www.w3.org/2000/svg">
<path d="M11.9316 7.30139L11.2324 8.00842L9.20703 10.0553L9.20508 10.0563C8.98448 10.278 8.86039 10.5785 8.86035 10.8912C8.86035 11.2031 8.98371 11.5027 9.20312 11.7242L12.292 14.8131L12.3789 14.8912C12.5891 15.0626 12.8533 15.1578 13.127 15.1578C13.4396 15.1577 13.7402 15.0337 13.9619 14.8131L13.9629 14.8112L16.0098 12.7858L16.7168 12.0865L23.5381 18.9078L20.0244 22.4215C18.3633 24.0758 15.7933 24.201 13.2676 23.4586C10.7009 22.7041 7.91571 20.9964 5.46875 18.5494C3.02179 16.1025 1.31415 13.3173 0.55957 10.7506C-0.182907 8.22479 -0.0576305 5.65492 1.59668 3.99377L5.11035 0.480103L11.9316 7.30139ZM3.0127 5.40491C2.11448 6.30687 1.82343 7.95762 2.47852 10.1862C3.12159 12.3738 4.62565 14.8782 6.88281 17.1354C9.13997 19.3925 11.6445 20.8966 13.832 21.5397C16.0605 22.1947 17.7104 21.9027 18.6123 21.0045L20.71 18.9078L16.709 14.9069L15.3701 16.233C14.7739 16.8251 13.9673 17.1577 13.127 17.1578C12.2857 17.1578 11.4783 16.8243 10.8818 16.2311L7.78711 13.1364C7.1938 12.5399 6.86035 11.7326 6.86035 10.8912C6.86039 10.0499 7.19374 9.24259 7.78711 8.64612L9.11035 7.30823L5.11035 3.30823L3.0127 5.40491ZM23.875 1.52112L17.582 7.81409H21.168V9.81409H14.168V2.81409H16.168V6.40002L22.4609 0.107056L23.875 1.52112Z" fill="#05213C"/>
</svg>
