<svg width="24" height="24" viewBox="0 0 24 24" fill="none" xmlns="http://www.w3.org/2000/svg">
<path d="M11.8066 7.30139L11.1074 8.00842L9.08203 10.0553L9.08008 10.0563C8.85948 10.278 8.73539 10.5785 8.73535 10.8912C8.73535 11.2031 8.85871 11.5027 9.07812 11.7242L12.167 14.8131L12.2539 14.8912C12.4641 15.0626 12.7283 15.1578 13.002 15.1578C13.3146 15.1577 13.6152 15.0337 13.8369 14.8131L13.8379 14.8112L15.8848 12.7858L16.5918 12.0865L23.4131 18.9078L19.8994 22.4215C18.2383 24.0758 15.6683 24.201 13.1426 23.4586C10.5759 22.7041 7.79071 20.9964 5.34375 18.5494C2.89679 16.1025 1.18915 13.3173 0.43457 10.7506C-0.307907 8.22479 -0.18263 5.65492 1.47168 3.99377L4.98535 0.480103L11.8066 7.30139ZM2.8877 5.40491C1.98948 6.30687 1.69843 7.95762 2.35352 10.1862C2.99659 12.3738 4.50065 14.8782 6.75781 17.1354C9.01497 19.3925 11.5195 20.8966 13.707 21.5397C15.9355 22.1947 17.5854 21.9027 18.4873 21.0045L20.585 18.9078L16.584 14.9069L15.2451 16.233C14.6489 16.8251 13.8423 17.1577 13.002 17.1578C12.1607 17.1578 11.3533 16.8243 10.7568 16.2311L7.66211 13.1364C7.0688 12.5399 6.73535 11.7326 6.73535 10.8912C6.73539 10.0499 7.06874 9.24259 7.66211 8.64612L8.98535 7.30823L4.98535 3.30823L2.8877 5.40491ZM23.75 1.52112L17.457 7.81409H21.043V9.81409H14.043V2.81409H16.043V6.40002L22.3359 0.107056L23.75 1.52112Z" fill="#05213C"/>
</svg>
