<svg width="24" height="24" viewBox="0 0 24 24" fill="none" xmlns="http://www.w3.org/2000/svg">
<path d="M12.0566 7.30139L11.3574 8.00842L9.33203 10.0553L9.33008 10.0563C9.10948 10.278 8.98539 10.5785 8.98535 10.8912C8.98535 11.2031 9.10871 11.5027 9.32812 11.7242L12.417 14.8131L12.5039 14.8912C12.7141 15.0626 12.9783 15.1578 13.252 15.1578C13.5646 15.1577 13.8652 15.0337 14.0869 14.8131L14.0879 14.8112L16.1348 12.7858L16.8418 12.0865L23.6631 18.9078L20.1494 22.4215C18.4883 24.0758 15.9183 24.201 13.3926 23.4586C10.8259 22.7041 8.04071 20.9964 5.59375 18.5494C3.14679 16.1025 1.43915 13.3173 0.68457 10.7506C-0.0579074 8.22479 0.0673695 5.65492 1.72168 3.99377L5.23535 0.480103L12.0566 7.30139ZM3.1377 5.40491C2.23948 6.30687 1.94843 7.95762 2.60352 10.1862C3.24659 12.3738 4.75065 14.8782 7.00781 17.1354C9.26497 19.3925 11.7695 20.8966 13.957 21.5397C16.1855 22.1947 17.8354 21.9027 18.7373 21.0045L20.835 18.9078L16.834 14.9069L15.4951 16.233C14.8989 16.8251 14.0923 17.1577 13.252 17.1578C12.4107 17.1578 11.6033 16.8243 11.0068 16.2311L7.91211 13.1364C7.3188 12.5399 6.98535 11.7326 6.98535 10.8912C6.98539 10.0499 7.31874 9.24259 7.91211 8.64612L9.23535 7.30823L5.23535 3.30823L3.1377 5.40491ZM24 1.52112L17.707 7.81409H21.293V9.81409H14.293V2.81409H16.293V6.40002L22.5859 0.107056L24 1.52112Z" fill="#05213C"/>
</svg>
