<svg width="25" height="24" viewBox="0 0 25 24" fill="none" xmlns="http://www.w3.org/2000/svg">
<path d="M12.4316 7.30139L11.7324 8.00842L9.70703 10.0553L9.70508 10.0563C9.48448 10.278 9.36039 10.5785 9.36035 10.8912C9.36035 11.2031 9.48371 11.5027 9.70312 11.7242L12.792 14.8131L12.8789 14.8912C13.0891 15.0626 13.3533 15.1578 13.627 15.1578C13.9396 15.1577 14.2402 15.0337 14.4619 14.8131L14.4629 14.8112L16.5098 12.7858L17.2168 12.0865L24.0381 18.9078L20.5244 22.4215C18.8633 24.0758 16.2933 24.201 13.7676 23.4586C11.2009 22.7041 8.41571 20.9964 5.96875 18.5494C3.52179 16.1025 1.81415 13.3173 1.05957 10.7506C0.317093 8.22479 0.44237 5.65492 2.09668 3.99377L5.61035 0.480103L12.4316 7.30139ZM3.5127 5.40491C2.61448 6.30687 2.32343 7.95762 2.97852 10.1862C3.62159 12.3738 5.12565 14.8782 7.38281 17.1354C9.63997 19.3925 12.1445 20.8966 14.332 21.5397C16.5605 22.1947 18.2104 21.9027 19.1123 21.0045L21.21 18.9078L17.209 14.9069L15.8701 16.233C15.2739 16.8251 14.4673 17.1577 13.627 17.1578C12.7857 17.1578 11.9783 16.8243 11.3818 16.2311L8.28711 13.1364C7.6938 12.5399 7.36035 11.7326 7.36035 10.8912C7.36039 10.0499 7.69374 9.24259 8.28711 8.64612L9.61035 7.30823L5.61035 3.30823L3.5127 5.40491ZM24.375 1.52112L18.082 7.81409H21.668V9.81409H14.668V2.81409H16.668V6.40002L22.9609 0.107056L24.375 1.52112Z" fill="#05213C"/>
</svg>
