<svg width="24" height="24" viewBox="0 0 24 24" fill="none" xmlns="http://www.w3.org/2000/svg">
<path d="M5.74493 1.09528L11.2127 6.55524L11.9178 7.25934L11.2166 7.96735L9.16974 10.0318L9.16779 10.0338C8.94317 10.2593 8.81723 10.564 8.8172 10.8814C8.81722 11.1988 8.94323 11.5036 9.16779 11.7291H9.16681L12.2869 14.8443L12.3758 14.9234C12.59 15.0979 12.8592 15.1948 13.1385 15.1949C13.4577 15.1948 13.7642 15.0686 13.9901 14.8443L13.992 14.8423L16.0604 12.7994L16.7664 12.1011L17.4695 12.8023L22.9373 18.2623L23.6463 18.9703L22.9373 19.6773L20.1024 22.5084L20.1004 22.5103C18.4259 24.1751 15.8352 24.3017 13.285 23.5533C10.6935 22.7927 7.87992 21.0711 5.40802 18.6031C2.93613 16.1349 1.21108 13.3252 0.449036 10.7369C-0.300935 8.18934 -0.173393 5.601 1.49493 3.92828L1.49591 3.92633L4.33185 1.09528L5.0379 0.390198L5.74493 1.09528ZM2.909 5.34235C1.99941 6.25619 1.70615 7.92436 2.36798 10.1724C3.01831 12.3811 4.53946 14.9088 6.82111 17.1871C9.10295 19.4654 11.6356 20.9849 13.8484 21.6343C16.1022 22.2957 17.7748 22.0017 18.6902 21.0914L20.8152 18.9693L16.7586 14.9195L15.3983 16.2652C14.7975 16.861 13.9846 17.1948 13.1385 17.1949C12.2916 17.1948 11.4786 16.8601 10.8777 16.2632L10.8758 16.2613L7.75275 13.1431L7.75079 13.1412C7.15298 12.5411 6.81722 11.7285 6.8172 10.8814C6.81723 10.0343 7.15292 9.22171 7.75079 8.62164L9.09454 7.26617L5.0379 3.21637L2.909 5.34235ZM23.285 0.71344L23.992 1.42145L17.618 7.78571H21.2645V9.78571H14.201V2.73199H16.201V6.37262L22.5789 0.00543213L23.285 0.71344Z" fill="#05213C"/>
</svg>
