<svg width="83" height="15" viewBox="0 0 83 15" fill="none" xmlns="http://www.w3.org/2000/svg">
<g clip-path="url(#clip0_33_504)">
<path d="M11.5417 14.0629C11.4431 14.0633 11.3468 14.0326 11.2666 13.9751L7.49877 11.2434L3.7309 13.9751C3.6504 14.0334 3.55342 14.0647 3.45398 14.0644C3.35453 14.064 3.25778 14.032 3.17771 13.973C3.09764 13.9141 3.0384 13.8312 3.00855 13.7363C2.9787 13.6415 2.97979 13.5396 3.01166 13.4454L4.48119 9.09273L0.672596 6.48092C0.5901 6.42441 0.527836 6.34299 0.494902 6.24858C0.461969 6.15416 0.460092 6.05169 0.489545 5.95613C0.518998 5.86057 0.578239 5.77693 0.65861 5.71744C0.738982 5.65794 0.836273 5.62571 0.936268 5.62545H5.6349L7.05287 1.26168C7.08342 1.16747 7.14302 1.08535 7.22312 1.02711C7.30323 0.96887 7.39973 0.9375 7.49877 0.9375C7.59781 0.9375 7.6943 0.96887 7.77441 1.02711C7.85452 1.08535 7.91412 1.16747 7.94467 1.26168L9.36263 5.62691H14.0613C14.1614 5.62686 14.2589 5.65887 14.3395 5.71825C14.4201 5.77763 14.4796 5.86126 14.5092 5.95689C14.5389 6.05253 14.5371 6.15514 14.5042 6.2497C14.4713 6.34426 14.409 6.4258 14.3264 6.48238L10.5163 9.09273L11.985 13.4442C12.0088 13.5146 12.0155 13.5897 12.0045 13.6633C11.9936 13.7368 11.9653 13.8067 11.922 13.8672C11.8786 13.9276 11.8216 13.9769 11.7555 14.011C11.6894 14.045 11.6161 14.0628 11.5417 14.0629Z" fill="#F2B821"/>
</g>
<g clip-path="url(#clip1_33_504)">
<path d="M28.5417 14.0629C28.4431 14.0633 28.3468 14.0326 28.2666 13.9751L24.4988 11.2434L20.7309 13.9751C20.6504 14.0334 20.5534 14.0647 20.454 14.0644C20.3545 14.064 20.2578 14.032 20.1777 13.973C20.0976 13.9141 20.0384 13.8312 20.0085 13.7363C19.9787 13.6415 19.9798 13.5396 20.0117 13.4454L21.4812 9.09273L17.6726 6.48092C17.5901 6.42441 17.5278 6.34299 17.4949 6.24858C17.462 6.15416 17.4601 6.05169 17.4895 5.95613C17.519 5.86057 17.5782 5.77693 17.6586 5.71744C17.739 5.65794 17.8363 5.62571 17.9363 5.62545H22.6349L24.0529 1.26168C24.0834 1.16747 24.143 1.08535 24.2231 1.02711C24.3032 0.96887 24.3997 0.9375 24.4988 0.9375C24.5978 0.9375 24.6943 0.96887 24.7744 1.02711C24.8545 1.08535 24.9141 1.16747 24.9447 1.26168L26.3626 5.62691H31.0613C31.1614 5.62686 31.2589 5.65887 31.3395 5.71825C31.4201 5.77763 31.4796 5.86126 31.5092 5.95689C31.5389 6.05253 31.5371 6.15514 31.5042 6.2497C31.4713 6.34426 31.409 6.4258 31.3264 6.48238L27.5163 9.09273L28.985 13.4442C29.0088 13.5146 29.0155 13.5897 29.0045 13.6633C28.9936 13.7368 28.9653 13.8067 28.922 13.8672C28.8786 13.9276 28.8216 13.9769 28.7555 14.011C28.6894 14.045 28.6161 14.0628 28.5417 14.0629Z" fill="#F2B821"/>
</g>
<g clip-path="url(#clip2_33_504)">
<path d="M45.5417 14.0629C45.4431 14.0633 45.3468 14.0326 45.2666 13.9751L41.4988 11.2434L37.7309 13.9751C37.6504 14.0334 37.5534 14.0647 37.454 14.0644C37.3545 14.064 37.2578 14.032 37.1777 13.973C37.0976 13.9141 37.0384 13.8312 37.0085 13.7363C36.9787 13.6415 36.9798 13.5396 37.0117 13.4454L38.4812 9.09273L34.6726 6.48092C34.5901 6.42441 34.5278 6.34299 34.4949 6.24858C34.462 6.15416 34.4601 6.05169 34.4895 5.95613C34.519 5.86057 34.5782 5.77693 34.6586 5.71744C34.739 5.65794 34.8363 5.62571 34.9363 5.62545H39.6349L41.0529 1.26168C41.0834 1.16747 41.143 1.08535 41.2231 1.02711C41.3032 0.96887 41.3997 0.9375 41.4988 0.9375C41.5978 0.9375 41.6943 0.96887 41.7744 1.02711C41.8545 1.08535 41.9141 1.16747 41.9447 1.26168L43.3626 5.62691H48.0613C48.1614 5.62686 48.2589 5.65887 48.3395 5.71825C48.4201 5.77763 48.4796 5.86126 48.5092 5.95689C48.5389 6.05253 48.5371 6.15514 48.5042 6.2497C48.4713 6.34426 48.409 6.4258 48.3264 6.48238L44.5163 9.09273L45.985 13.4442C46.0088 13.5146 46.0155 13.5897 46.0045 13.6633C45.9936 13.7368 45.9653 13.8067 45.922 13.8672C45.8786 13.9276 45.8216 13.9769 45.7555 14.011C45.6894 14.045 45.6161 14.0628 45.5417 14.0629Z" fill="#F2B821"/>
</g>
<g clip-path="url(#clip3_33_504)">
<path d="M62.5417 14.0629C62.4431 14.0633 62.3468 14.0326 62.2666 13.9751L58.4988 11.2434L54.7309 13.9751C54.6504 14.0334 54.5534 14.0647 54.454 14.0644C54.3545 14.064 54.2578 14.032 54.1777 13.973C54.0976 13.9141 54.0384 13.8312 54.0085 13.7363C53.9787 13.6415 53.9798 13.5396 54.0117 13.4454L55.4812 9.09273L51.6726 6.48092C51.5901 6.42441 51.5278 6.34299 51.4949 6.24858C51.462 6.15416 51.4601 6.05169 51.4895 5.95613C51.519 5.86057 51.5782 5.77693 51.6586 5.71744C51.739 5.65794 51.8363 5.62571 51.9363 5.62545H56.6349L58.0529 1.26168C58.0834 1.16747 58.143 1.08535 58.2231 1.02711C58.3032 0.96887 58.3997 0.9375 58.4988 0.9375C58.5978 0.9375 58.6943 0.96887 58.7744 1.02711C58.8545 1.08535 58.9141 1.16747 58.9447 1.26168L60.3626 5.62691H65.0613C65.1614 5.62686 65.2589 5.65887 65.3395 5.71825C65.4201 5.77763 65.4796 5.86126 65.5092 5.95689C65.5389 6.05253 65.5371 6.15514 65.5042 6.2497C65.4713 6.34426 65.409 6.4258 65.3264 6.48238L61.5163 9.09273L62.985 13.4442C63.0088 13.5146 63.0155 13.5897 63.0045 13.6633C62.9936 13.7368 62.9653 13.8067 62.922 13.8672C62.8786 13.9276 62.8216 13.9769 62.7555 14.011C62.6894 14.045 62.6161 14.0628 62.5417 14.0629Z" fill="#F2B821"/>
</g>
<g clip-path="url(#clip4_33_504)">
<path d="M79.5417 14.0629C79.4431 14.0633 79.3468 14.0326 79.2666 13.9751L75.4988 11.2434L71.7309 13.9751C71.6504 14.0334 71.5534 14.0647 71.454 14.0644C71.3545 14.064 71.2578 14.032 71.1777 13.973C71.0976 13.9141 71.0384 13.8312 71.0085 13.7363C70.9787 13.6415 70.9798 13.5396 71.0117 13.4454L72.4812 9.09273L68.6726 6.48092C68.5901 6.42441 68.5278 6.34299 68.4949 6.24858C68.462 6.15416 68.4601 6.05169 68.4895 5.95613C68.519 5.86057 68.5782 5.77693 68.6586 5.71744C68.739 5.65794 68.8363 5.62571 68.9363 5.62545H73.6349L75.0529 1.26168C75.0834 1.16747 75.143 1.08535 75.2231 1.02711C75.3032 0.96887 75.3997 0.9375 75.4988 0.9375C75.5978 0.9375 75.6943 0.96887 75.7744 1.02711C75.8545 1.08535 75.9141 1.16747 75.9447 1.26168L77.3626 5.62691H82.0613C82.1614 5.62686 82.2589 5.65887 82.3395 5.71825C82.4201 5.77763 82.4796 5.86126 82.5092 5.95689C82.5389 6.05253 82.5371 6.15514 82.5042 6.2497C82.4713 6.34426 82.409 6.4258 82.3264 6.48238L78.5163 9.09273L79.985 13.4442C80.0088 13.5146 80.0155 13.5897 80.0045 13.6633C79.9936 13.7368 79.9653 13.8067 79.922 13.8672C79.8786 13.9276 79.8216 13.9769 79.7555 14.011C79.6894 14.045 79.6161 14.0628 79.5417 14.0629Z" fill="#F2B821"/>
</g>
<defs>
<clipPath id="clip0_33_504">
<rect width="15" height="15" fill="white"/>
</clipPath>
<clipPath id="clip1_33_504">
<rect width="15" height="15" fill="white" transform="translate(17)"/>
</clipPath>
<clipPath id="clip2_33_504">
<rect width="15" height="15" fill="white" transform="translate(34)"/>
</clipPath>
<clipPath id="clip3_33_504">
<rect width="15" height="15" fill="white" transform="translate(51)"/>
</clipPath>
<clipPath id="clip4_33_504">
<rect width="15" height="15" fill="white" transform="translate(68)"/>
</clipPath>
</defs>
</svg>
