<svg width="24" height="25" viewBox="0 0 24 25" fill="none" xmlns="http://www.w3.org/2000/svg">
<g clip-path="url(#clip0_111_2493)">
<path d="M11.8076 7.90723L11.1084 8.61426L9.08301 10.6611L9.08105 10.6621C8.86046 10.8838 8.73637 11.1843 8.73633 11.4971C8.73633 11.809 8.85969 12.1085 9.0791 12.3301L12.168 15.4189L12.2549 15.4971C12.4651 15.6685 12.7293 15.7637 13.0029 15.7637C13.3156 15.7636 13.6162 15.6395 13.8379 15.4189L13.8389 15.417L15.8857 13.3916L16.5928 12.6924L23.4141 19.5137L19.9004 23.0273C18.2393 24.6816 15.6693 24.8069 13.1436 24.0645C10.5769 23.3099 7.79168 21.6022 5.34473 19.1553C2.89776 16.7083 1.19013 13.9231 0.435547 11.3564C-0.306931 8.83062 -0.181654 6.26076 1.47266 4.59961L4.98633 1.08594L11.8076 7.90723ZM2.88867 6.01074C1.99046 6.91271 1.6994 8.56345 2.35449 10.792C2.99757 12.9796 4.50163 15.484 6.75879 17.7412C9.01594 19.9983 11.5204 21.5024 13.708 22.1455C15.9365 22.8005 17.5863 22.5085 18.4883 21.6104L20.5859 19.5137L16.585 15.5127L15.2461 16.8389C14.6499 17.431 13.8433 17.7636 13.0029 17.7637C12.1616 17.7637 11.3543 17.4302 10.7578 16.8369L7.66309 13.7422C7.06977 13.1457 6.73633 12.3384 6.73633 11.4971C6.73637 10.6557 7.06971 9.84843 7.66309 9.25195L8.98633 7.91406L4.98633 3.91406L2.88867 6.01074ZM23.751 2.12695L17.458 8.41992H21.0439V10.4199H14.0439V3.41992H16.0439V7.00586L22.3369 0.712891L23.751 2.12695Z" fill="#05213C"/>
</g>
<defs>
<clipPath id="clip0_111_2493">
<rect width="24" height="24" fill="white" transform="translate(0 0.5)"/>
</clipPath>
</defs>
</svg>
