<svg width="24" height="25" viewBox="0 0 24 25" fill="none" xmlns="http://www.w3.org/2000/svg">
<g clip-path="url(#clip0_111_2185)">
<path d="M11.8078 7.90723L11.1086 8.61426L9.08319 10.6611L9.08124 10.6621C8.86064 10.8838 8.73655 11.1843 8.73651 11.4971C8.73651 11.809 8.85987 12.1085 9.07928 12.3301L12.1682 15.4189L12.2551 15.4971C12.4653 15.6685 12.7295 15.7637 13.0031 15.7637C13.3158 15.7636 13.6164 15.6395 13.8381 15.4189L13.8391 15.417L15.8859 13.3916L16.593 12.6924L23.4142 19.5137L19.9006 23.0273C18.2395 24.6816 15.6695 24.8069 13.1437 24.0645C10.5771 23.3099 7.79187 21.6022 5.34491 19.1553C2.89795 16.7083 1.19031 13.9231 0.43573 11.3564C-0.306748 8.83062 -0.181471 6.26076 1.47284 4.59961L4.98651 1.08594L11.8078 7.90723ZM2.88885 6.01074C1.99064 6.91271 1.69959 8.56345 2.35468 10.792C2.99775 12.9796 4.50181 15.484 6.75897 17.7412C9.01613 19.9983 11.5206 21.5024 13.7082 22.1455C15.9366 22.8005 17.5865 22.5085 18.4885 21.6104L20.5861 19.5137L16.5851 15.5127L15.2463 16.8389C14.65 17.431 13.8435 17.7636 13.0031 17.7637C12.1618 17.7637 11.3545 17.4302 10.758 16.8369L7.66327 13.7422C7.06996 13.1457 6.73651 12.3384 6.73651 11.4971C6.73655 10.6557 7.0699 9.84843 7.66327 9.25195L8.98651 7.91406L4.98651 3.91406L2.88885 6.01074ZM23.7512 2.12695L17.4582 8.41992H21.0441V10.4199H14.0441V3.41992H16.0441V7.00586L22.3371 0.712891L23.7512 2.12695Z" fill="#05213C"/>
</g>
<defs>
<clipPath id="clip0_111_2185">
<rect width="24" height="24" fill="white" transform="translate(0 0.5)"/>
</clipPath>
</defs>
</svg>
