<svg width="8" height="9" viewBox="0 0 8 9" fill="none" xmlns="http://www.w3.org/2000/svg">
<path d="M0.0507469 1.34305C0.0775362 1.17947 0.168129 1.0332 0.302645 0.936332C0.43716 0.839469 0.60461 0.799927 0.768247 0.826386C0.78908 0.830552 0.857413 0.843052 0.893247 0.851386C0.96408 0.866386 1.06325 0.891386 1.18658 0.926386C1.43408 0.998886 1.77991 1.11805 2.19491 1.30805C3.02491 1.68889 4.12908 2.35472 5.27575 3.50055C6.42241 4.64722 7.08825 5.75222 7.46908 6.58222C7.65908 6.99722 7.77741 7.34222 7.84991 7.59055C7.88644 7.71533 7.91786 7.84154 7.94408 7.96889L7.94825 7.99472C7.97569 8.15975 7.93716 8.32895 7.84097 8.46583C7.74478 8.6027 7.59865 8.69629 7.43408 8.72639C7.27091 8.75288 7.10389 8.71365 6.96957 8.61729C6.83526 8.52093 6.74459 8.37528 6.71741 8.21222C6.70036 8.12012 6.67782 8.02913 6.64991 7.93972C6.56477 7.65353 6.45893 7.3739 6.33325 7.10305C6.00825 6.39472 5.42325 5.41639 4.39158 4.38472C3.36075 3.35305 2.38158 2.76889 1.67325 2.44389C1.40267 2.31824 1.12332 2.2124 0.837414 2.12722C0.749732 2.10248 0.661362 2.08025 0.572413 2.06055C0.408567 2.03349 0.261935 1.94308 0.164177 1.80884C0.0664185 1.6746 0.0253769 1.5073 0.0499132 1.34305H0.0507469Z" fill="#F2B821"/>
</svg>
