<svg width="17" height="17" viewBox="0 0 17 17" fill="none" xmlns="http://www.w3.org/2000/svg">
<path fill-rule="evenodd" clip-rule="evenodd" d="M2.43167 1.05622C3.45333 -0.0196088 5.14333 0.181225 5.98833 1.37622L7.03833 2.86289C7.71417 3.81872 7.6575 5.14622 6.85083 5.99622L6.64667 6.21039C6.64609 6.21205 6.64554 6.21372 6.645 6.21539C6.63417 6.24539 6.6075 6.34206 6.63417 6.52539C6.69 6.90456 6.9825 7.67622 8.1725 8.92872C9.36583 10.1854 10.0892 10.4812 10.425 10.5362C10.5059 10.5544 10.59 10.5524 10.67 10.5304L11.01 10.1721C11.7383 9.40539 12.8733 9.25456 13.7892 9.78122L15.3808 10.6979C16.7417 11.4812 17.0583 13.3971 15.9708 14.5421L14.7875 15.7879C14.4183 16.1771 13.9142 16.5096 13.2917 16.5712C11.7717 16.7212 8.25083 16.5254 4.56 12.6387C1.115 9.01289 0.460834 5.85872 0.378334 4.31789C0.337501 3.55622 0.676668 2.90372 1.12333 2.43289L2.43167 1.05622ZM4.9675 2.09789C4.54083 1.49456 3.77333 1.45789 3.3375 1.91706L2.02917 3.29372C1.75417 3.58539 1.60833 3.91872 1.62667 4.25122C1.69333 5.50956 2.23583 8.37789 5.46583 11.7779C8.8525 15.3446 11.9733 15.4446 13.1692 15.3262C13.405 15.3037 13.6483 15.1721 13.8808 14.9271L15.0642 13.6812C15.5758 13.1429 15.4417 12.1746 14.7575 11.7812L13.1658 10.8646C12.7383 10.6187 12.2375 10.6946 11.9167 11.0329L11.5367 11.4329L11.0975 11.0154C11.5367 11.4321 11.5367 11.4329 11.5358 11.4337L11.535 11.4346L11.5325 11.4379L11.5267 11.4429L11.515 11.4546C11.48 11.4889 11.4421 11.5201 11.4017 11.5479C11.335 11.5946 11.2467 11.6471 11.1342 11.6912C10.9042 11.7821 10.6008 11.8304 10.225 11.7696C9.49333 11.6512 8.535 11.1254 7.26667 9.78956C5.99333 8.44956 5.50583 7.45039 5.3975 6.70622C5.34167 6.32789 5.38583 6.02539 5.4675 5.79622C5.51283 5.66851 5.57747 5.54851 5.65917 5.44039L5.68417 5.40956L5.69583 5.39706L5.70083 5.39122L5.70333 5.38872L5.705 5.38789C5.705 5.38789 5.705 5.38622 6.14917 5.80706L5.70583 5.38622L5.945 5.13456C6.31583 4.74372 6.37 4.08206 6.01833 3.58456L4.9675 2.09789Z" fill="#F2B821"/>
</svg>
