<svg width="19" height="19" viewBox="0 0 19 19" fill="none" xmlns="http://www.w3.org/2000/svg">
<path fill-rule="evenodd" clip-rule="evenodd" d="M9.5013 1.77148C7.45693 1.77148 5.49628 2.58361 4.05069 4.0292C2.60509 5.4748 1.79297 7.43544 1.79297 9.47982C1.79297 11.5242 2.60509 13.4848 4.05069 14.9304C5.49628 16.376 7.45693 17.1882 9.5013 17.1882C11.5457 17.1882 13.5063 16.376 14.9519 14.9304C16.3975 13.4848 17.2096 11.5242 17.2096 9.47982C17.2096 7.43544 16.3975 5.4748 14.9519 4.0292C13.5063 2.58361 11.5457 1.77148 9.5013 1.77148ZM0.542969 9.47982C0.542969 4.53232 4.5538 0.521484 9.5013 0.521484C14.4488 0.521484 18.4596 4.53232 18.4596 9.47982C18.4596 14.4273 14.4488 18.4382 9.5013 18.4382C4.5538 18.4382 0.542969 14.4273 0.542969 9.47982ZM9.5013 5.52148C9.66706 5.52148 9.82603 5.58733 9.94324 5.70454C10.0605 5.82175 10.1263 5.98072 10.1263 6.14648V9.22148L12.0263 11.1215C12.0877 11.1787 12.137 11.2477 12.1711 11.3244C12.2053 11.401 12.2236 11.4838 12.2251 11.5677C12.2266 11.6516 12.2112 11.735 12.1797 11.8128C12.1483 11.8906 12.1015 11.9613 12.0422 12.0207C11.9828 12.08 11.9121 12.1268 11.8343 12.1583C11.7565 12.1897 11.6731 12.2051 11.5892 12.2036C11.5053 12.2022 11.4225 12.1838 11.3459 12.1496C11.2692 12.1155 11.2002 12.0662 11.143 12.0048L9.05964 9.92148C8.94239 9.80439 8.87645 9.64552 8.8763 9.47982V6.14648C8.8763 5.98072 8.94215 5.82175 9.05936 5.70454C9.17657 5.58733 9.33554 5.52148 9.5013 5.52148Z" fill="#F2B821"/>
</svg>
