<svg width="35" height="35" viewBox="0 0 35 35" fill="none" xmlns="http://www.w3.org/2000/svg">
<path d="M18.0703 0L19.8475 0.156118C27.0288 1.09715 32.9529 6.50097 34.5701 13.5495C34.7868 14.4935 34.9656 15.559 34.9777 16.528C34.9781 16.5649 34.9636 16.6252 35 16.648V18.3302C34.9638 18.353 34.9781 18.413 34.9777 18.4501C34.9695 19.2248 34.853 20.0427 34.7092 20.8031C33.2708 28.406 26.8503 34.2451 19.1294 34.9342L18.2011 35H16.8468L15.9185 34.9342C7.29344 34.1416 0.585052 27.1534 0.0484178 18.5155C0.0370387 18.3307 0.0682173 18.1379 0.00449473 17.9586C0.0149634 17.6541 -0.00961526 17.3452 0.00449473 17.041C0.0807342 15.4038 0.354058 13.7363 0.850639 12.174C3.08935 5.13187 9.58267 0.256935 16.9779 0H18.0701H18.0703ZM22.1772 15.2932C22.4876 13.8802 22.5607 12.3624 22.2318 10.9453C21.4924 7.75811 18.5555 5.33896 15.5362 4.39156C15.7908 5.40132 15.995 6.47867 15.9074 7.5262C15.3896 13.7165 7.0497 15.239 6.60182 21.4653C6.54857 22.204 6.6239 23.0244 6.78708 23.7484C7.66098 27.6238 11.4359 29.943 15.1211 30.6298C14.5296 30.2118 14.0169 29.7899 13.609 29.182C11.5654 26.1379 14.3141 22.4528 15.7223 19.7505C16.3621 18.5227 16.8678 17.2253 17.2034 15.879L17.5457 14.0042C17.761 15.8976 18.4203 17.7 19.2312 19.4082C20.7546 22.6168 24.1685 26.8061 20.7239 30.0177L19.8836 30.6298C23.3415 30.1171 26.8069 27.4856 28.0103 24.1746C29.3417 20.5113 27.6737 16.5169 24.9737 13.9712C24.8023 13.8096 24.4337 13.5322 24.2775 13.3784C24.1214 13.2245 24.1137 13.2693 24.045 13.3372C23.8572 13.5222 23.5001 14.0861 23.2807 14.3324C22.9639 14.6878 22.5661 15.0194 22.1774 15.2934L22.1772 15.2932Z" fill="#05213C"/>
</svg>
