<svg width="15" height="14" viewBox="0 0 15 14" fill="none" xmlns="http://www.w3.org/2000/svg">
<path fill-rule="evenodd" clip-rule="evenodd" d="M3.87522 1.11879C3.65388 0.560605 3.48434 0.541687 3.14243 0.524687C3.02517 0.518808 2.89801 0.513184 2.75888 0.513184C2.3184 0.513184 1.86168 0.648928 1.58647 0.943553C1.25153 1.30209 0.414062 2.14186 0.414062 3.86615C0.414062 5.59069 1.61432 7.25708 1.78155 7.49099C1.94926 7.72465 4.12245 11.3152 7.5036 12.7812C10.1427 13.9251 10.9263 13.8232 11.5284 13.6854C12.4044 13.4852 13.5045 12.8101 13.7836 11.992C14.0628 11.1735 14.0628 10.4719 13.9791 10.3262C13.8953 10.1798 13.672 10.0925 13.3371 9.91675C13.0021 9.74151 11.3552 8.89368 11.0482 8.77698C10.7411 8.66016 10.4572 8.69582 10.2211 9.03761C9.8952 9.50965 9.58176 9.99472 9.32219 10.2823C9.11844 10.508 8.79059 10.5395 8.50866 10.4141C8.13793 10.2488 7.0944 9.86831 5.81486 8.6746C4.81933 7.74586 4.14701 6.59855 3.95156 6.24756C3.75612 5.89708 3.93434 5.68784 4.08495 5.49713C4.2567 5.27945 4.41513 5.12313 4.5826 4.91875C4.75007 4.71398 4.84364 4.60495 4.95528 4.37078C5.06693 4.13713 4.99181 3.89593 4.90801 3.72044C4.82397 3.54481 4.15348 1.82078 3.87522 1.11879Z" fill="white"/>
</svg>
