<svg width="15" height="15" viewBox="0 0 15 15" fill="none" xmlns="http://www.w3.org/2000/svg">
<path d="M7.33203 0.09375C3.30003 0.09375 0.0195312 3.37425 0.0195312 7.40625C0.0195312 11.4383 3.30003 14.7188 7.33203 14.7188C11.364 14.7188 14.6445 11.4383 14.6445 7.40625C14.6445 3.37425 11.364 0.09375 7.33203 0.09375ZM7.33203 1.21875C10.7554 1.21875 13.5195 3.98288 13.5195 7.40625C13.5195 10.8296 10.7554 13.5938 7.33203 13.5938C3.90866 13.5938 1.14453 10.8296 1.14453 7.40625C1.14453 3.98288 3.90866 1.21875 7.33203 1.21875ZM6.33022 3.62681L5.52078 4.43625L8.49191 7.40625L5.52191 10.3768L6.33022 11.1857L9.70522 7.81069L10.0917 7.40625L9.70522 7.00181L6.33022 3.62681Z" fill="#F2B821"/>
</svg>
