<svg width="5" height="6" viewBox="0 0 5 6" fill="none" xmlns="http://www.w3.org/2000/svg">
<path fill-rule="evenodd" clip-rule="evenodd" d="M0.238998 1.21762C0.261468 1.13865 0.299276 1.06489 0.350265 1.00053C0.401253 0.936181 0.46442 0.882506 0.536159 0.842574C0.607897 0.802642 0.686801 0.777236 0.768361 0.767807C0.849921 0.758378 0.932541 0.765112 1.0115 0.787623L0.839831 1.38846L1.01233 0.788456H1.014L1.01733 0.789289L1.02316 0.790956L1.03983 0.796789C1.10555 0.818804 1.17033 0.843548 1.234 0.870956C1.35566 0.922623 1.5215 1.00262 1.72566 1.12346C2.134 1.36512 2.68983 1.76512 3.344 2.42012C3.99816 3.07429 4.39983 3.63096 4.64066 4.03846C4.7615 4.24262 4.8415 4.40846 4.894 4.53012C4.92143 4.59378 4.94617 4.65856 4.96816 4.72429L4.97316 4.74096L4.97483 4.74762L4.97566 4.75012V4.75179L4.37567 4.92429L4.9765 4.75262C5.02313 4.91175 5.00464 5.08289 4.92509 5.22839C4.84555 5.37388 4.71146 5.48182 4.55233 5.52846C4.3932 5.57509 4.22206 5.5566 4.07657 5.47705C3.93107 5.39751 3.82313 5.26342 3.7765 5.10429L3.774 5.09596C3.7154 4.95083 3.64575 4.81042 3.56566 4.67596C3.379 4.36179 3.044 3.88679 2.46066 3.30346C1.87733 2.72012 1.40233 2.38512 1.089 2.19929C0.954528 2.11921 0.814117 2.04956 0.668998 1.99096L0.660664 1.98762C0.503091 1.94047 0.370458 1.8331 0.291523 1.6888C0.212588 1.54451 0.193716 1.37574 0.238998 1.21762Z" fill="#F2B821"/>
</svg>
