<svg width="15" height="15" viewBox="0 0 15 15" fill="none" xmlns="http://www.w3.org/2000/svg">
<path d="M7.5 0.167969C3.468 0.167969 0.1875 3.44847 0.1875 7.48047C0.1875 11.5125 3.468 14.793 7.5 14.793C11.532 14.793 14.8125 11.5125 14.8125 7.48047C14.8125 3.44847 11.532 0.167969 7.5 0.167969ZM7.5 1.29297C10.9234 1.29297 13.6875 4.05709 13.6875 7.48047C13.6875 10.9038 10.9234 13.668 7.5 13.668C4.07663 13.668 1.3125 10.9038 1.3125 7.48047C1.3125 4.05709 4.07663 1.29297 7.5 1.29297ZM6.49819 3.70103L5.68875 4.51047L8.65987 7.48047L5.68987 10.451L6.49819 11.2599L9.87319 7.88491L10.2596 7.48047L9.87319 7.07603L6.49819 3.70103Z" fill="#F2B821"/>
</svg>
