<svg width="18" height="18" viewBox="0 0 18 18" fill="none" xmlns="http://www.w3.org/2000/svg">
<path fill-rule="evenodd" clip-rule="evenodd" d="M2.93167 1.57576C3.95333 0.499922 5.64333 0.700756 6.48833 1.89576L7.53833 3.38242C8.21417 4.33826 8.1575 5.66576 7.35083 6.51576L7.14667 6.72992C7.14609 6.73158 7.14554 6.73325 7.145 6.73492C7.13417 6.76492 7.1075 6.86159 7.13417 7.04492C7.19 7.42409 7.4825 8.19575 8.6725 9.44825C9.86583 10.7049 10.5892 11.0008 10.925 11.0558C11.0059 11.0739 11.09 11.0719 11.17 11.0499L11.51 10.6916C12.2383 9.92492 13.3733 9.77409 14.2892 10.3008L15.8808 11.2174C17.2417 12.0008 17.5583 13.9166 16.4708 15.0616L15.2875 16.3074C14.9183 16.6966 14.4142 17.0291 13.7917 17.0908C12.2717 17.2408 8.75083 17.0449 5.06 13.1583C1.615 9.53242 0.960834 6.37826 0.878334 4.83742C0.837501 4.07576 1.17667 3.42326 1.62333 2.95242L2.93167 1.57576ZM5.4675 2.61742C5.04083 2.01409 4.27333 1.97742 3.8375 2.43659L2.52917 3.81326C2.25417 4.10492 2.10833 4.43826 2.12667 4.77076C2.19333 6.02909 2.73583 8.89742 5.96583 12.2974C9.3525 15.8641 12.4733 15.9641 13.6692 15.8458C13.905 15.8233 14.1483 15.6916 14.3808 15.4466L15.5642 14.2008C16.0758 13.6624 15.9417 12.6941 15.2575 12.3008L13.6658 11.3841C13.2383 11.1383 12.7375 11.2141 12.4167 11.5524L12.0367 11.9524L11.5975 11.5349C12.0367 11.9516 12.0367 11.9524 12.0358 11.9533L12.035 11.9541L12.0325 11.9574L12.0267 11.9624L12.015 11.9741C11.98 12.0084 11.9421 12.0397 11.9017 12.0674C11.835 12.1141 11.7467 12.1666 11.6342 12.2108C11.4042 12.3016 11.1008 12.3499 10.725 12.2891C9.99333 12.1708 9.035 11.6449 7.76667 10.3091C6.49333 8.96909 6.00583 7.96992 5.8975 7.22576C5.84167 6.84742 5.88583 6.54492 5.9675 6.31575C6.01283 6.18805 6.07747 6.06804 6.15917 5.95992L6.18417 5.92909L6.19583 5.91659L6.20083 5.91076L6.20333 5.90826L6.205 5.90742C6.205 5.90742 6.205 5.90576 6.64917 6.32659L6.20583 5.90576L6.445 5.65409C6.81583 5.26326 6.87 4.60159 6.51833 4.10409L5.4675 2.61742Z" fill="#F2B821"/>
</svg>
