<svg width="16" height="16" viewBox="0 0 16 16" fill="none" xmlns="http://www.w3.org/2000/svg">
<path d="M8 0.6875C3.968 0.6875 0.6875 3.968 0.6875 8C0.6875 12.032 3.968 15.3125 8 15.3125C12.032 15.3125 15.3125 12.032 15.3125 8C15.3125 3.968 12.032 0.6875 8 0.6875ZM8 1.8125C11.4234 1.8125 14.1875 4.57663 14.1875 8C14.1875 11.4234 11.4234 14.1875 8 14.1875C4.57663 14.1875 1.8125 11.4234 1.8125 8C1.8125 4.57663 4.57663 1.8125 8 1.8125ZM6.99819 4.22056L6.18875 5.03L9.15987 8L6.18987 10.9706L6.99819 11.7794L10.3732 8.40444L10.7596 8L10.3732 7.59556L6.99819 4.22056Z" fill="#F2B821"/>
</svg>
