<svg width="18" height="15" viewBox="0 0 18 15" fill="none" xmlns="http://www.w3.org/2000/svg">
<path fill-rule="evenodd" clip-rule="evenodd" d="M7.28797 0.115234H10.7146C12.2463 0.115234 13.4596 0.115234 14.4088 0.242734C15.3855 0.374401 16.1763 0.651067 16.8005 1.2744C17.4238 1.89857 17.7005 2.6894 17.8321 3.66607C17.9596 4.61607 17.9596 5.82857 17.9596 7.36023V7.45357C17.9596 8.98523 17.9596 10.1986 17.8321 11.1477C17.7005 12.1244 17.4238 12.9152 16.8005 13.5394C16.1763 14.1627 15.3855 14.4394 14.4088 14.5711C13.4588 14.6986 12.2463 14.6986 10.7146 14.6986H7.28797C5.7563 14.6986 4.54297 14.6986 3.5938 14.5711C2.61714 14.4394 1.8263 14.1627 1.20214 13.5394C0.578802 12.9152 0.302135 12.1244 0.170469 11.1477C0.0429688 10.1977 0.0429688 8.98523 0.0429688 7.45357V7.36023C0.0429688 5.82857 0.0429688 4.61523 0.170469 3.66607C0.302135 2.6894 0.578802 1.89857 1.20214 1.2744C1.8263 0.651067 2.61714 0.374401 3.5938 0.242734C4.5438 0.115234 5.7563 0.115234 7.28797 0.115234ZM3.75964 1.4819C2.9213 1.5944 2.43797 1.80607 2.08464 2.15857C1.73297 2.51107 1.5213 2.9944 1.4088 3.83273C1.2938 4.6894 1.29214 5.81773 1.29214 7.4069C1.29214 8.99607 1.2938 10.1244 1.4088 10.9819C1.5213 11.8194 1.73297 12.3027 2.08547 12.6552C2.43797 13.0077 2.9213 13.2194 3.75964 13.3319C4.6163 13.4469 5.74464 13.4486 7.3338 13.4486H10.6671C12.2563 13.4486 13.3855 13.4469 14.2421 13.3319C15.0796 13.2194 15.563 13.0077 15.9155 12.6552C16.268 12.3027 16.4796 11.8194 16.5921 10.9811C16.7071 10.1244 16.7088 8.99607 16.7088 7.4069C16.7088 5.81773 16.7071 4.6894 16.5921 3.8319C16.4796 2.9944 16.268 2.51107 15.9155 2.15857C15.563 1.80607 15.0796 1.5944 14.2413 1.4819C13.3855 1.3669 12.2563 1.36523 10.6671 1.36523H7.3338C5.74464 1.36523 4.61714 1.3669 3.75964 1.4819ZM3.52047 3.67357C3.62658 3.54631 3.77889 3.46639 3.94391 3.45139C4.10892 3.43639 4.27315 3.48753 4.40047 3.59357L6.2013 5.09273C6.9788 5.74023 7.51797 6.18857 7.97464 6.4819C8.41547 6.76523 8.71464 6.86107 9.00214 6.86107C9.28964 6.86107 9.5888 6.76607 10.0296 6.4819C10.4855 6.18857 11.0255 5.74023 11.803 5.09273L13.6021 3.59273C13.6652 3.54021 13.738 3.50062 13.8164 3.47623C13.8948 3.45184 13.9772 3.44314 14.059 3.4506C14.1408 3.45807 14.2202 3.48157 14.2929 3.51975C14.3656 3.55794 14.43 3.61006 14.4826 3.67315C14.5351 3.73624 14.5747 3.80906 14.5991 3.88745C14.6234 3.96584 14.6322 4.04826 14.6247 4.13001C14.6172 4.21177 14.5937 4.29125 14.5555 4.36392C14.5173 4.4366 14.4652 4.50104 14.4021 4.55357L12.5721 6.07857C11.833 6.69523 11.2346 7.19357 10.7055 7.53357C10.1555 7.88773 9.61964 8.11107 9.00214 8.11107C8.38464 8.11107 7.8488 7.8869 7.29797 7.53357C6.76964 7.19357 6.1713 6.6944 5.43214 6.0794L3.6013 4.5544C3.53817 4.50185 3.48601 4.43737 3.44782 4.36464C3.40962 4.29192 3.38614 4.21238 3.37871 4.13057C3.37128 4.04876 3.38005 3.96629 3.40451 3.88787C3.42898 3.80946 3.46783 3.73663 3.52047 3.67357Z" fill="#F2B821"/>
</svg>
