<svg width="18" height="19" viewBox="0 0 18 19" fill="none" xmlns="http://www.w3.org/2000/svg">
<path fill-rule="evenodd" clip-rule="evenodd" d="M9.0013 2.06836C6.95693 2.06836 4.99628 2.88049 3.55069 4.32608C2.10509 5.77167 1.29297 7.73232 1.29297 9.77669C1.29297 11.8211 2.10509 13.7817 3.55069 15.2273C4.99628 16.6729 6.95693 17.485 9.0013 17.485C11.0457 17.485 13.0063 16.6729 14.4519 15.2273C15.8975 13.7817 16.7096 11.8211 16.7096 9.77669C16.7096 7.73232 15.8975 5.77167 14.4519 4.32608C13.0063 2.88049 11.0457 2.06836 9.0013 2.06836ZM0.0429688 9.77669C0.0429688 4.82919 4.0538 0.818359 9.0013 0.818359C13.9488 0.818359 17.9596 4.82919 17.9596 9.77669C17.9596 14.7242 13.9488 18.735 9.0013 18.735C4.0538 18.735 0.0429688 14.7242 0.0429688 9.77669ZM9.0013 5.81836C9.16706 5.81836 9.32603 5.88421 9.44324 6.00142C9.56045 6.11863 9.6263 6.2776 9.6263 6.44336V9.51836L11.5263 11.4184C11.5877 11.4756 11.637 11.5446 11.6711 11.6212C11.7053 11.6979 11.7236 11.7807 11.7251 11.8646C11.7266 11.9485 11.7112 12.0319 11.6797 12.1097C11.6483 12.1875 11.6015 12.2582 11.5422 12.3176C11.4828 12.3769 11.4121 12.4237 11.3343 12.4551C11.2565 12.4866 11.1731 12.502 11.0892 12.5005C11.0053 12.499 10.9225 12.4807 10.8459 12.4465C10.7692 12.4124 10.7002 12.3631 10.643 12.3017L8.55964 10.2184C8.44239 10.1013 8.37645 9.9424 8.3763 9.77669V6.44336C8.3763 6.2776 8.44215 6.11863 8.55936 6.00142C8.67657 5.88421 8.83554 5.81836 9.0013 5.81836Z" fill="#F2B821"/>
</svg>
