<svg width="18" height="19" viewBox="0 0 18 19" fill="none" xmlns="http://www.w3.org/2000/svg">
<path fill-rule="evenodd" clip-rule="evenodd" d="M9.0013 1.69727C6.95693 1.69727 4.99628 2.50939 3.55069 3.95498C2.10509 5.40058 1.29297 7.36122 1.29297 9.4056C1.29297 11.45 2.10509 13.4106 3.55069 14.8562C4.99628 16.3018 6.95693 17.1139 9.0013 17.1139C11.0457 17.1139 13.0063 16.3018 14.4519 14.8562C15.8975 13.4106 16.7096 11.45 16.7096 9.4056C16.7096 7.36122 15.8975 5.40058 14.4519 3.95498C13.0063 2.50939 11.0457 1.69727 9.0013 1.69727ZM0.0429688 9.4056C0.0429688 4.4581 4.0538 0.447266 9.0013 0.447266C13.9488 0.447266 17.9596 4.4581 17.9596 9.4056C17.9596 14.3531 13.9488 18.3639 9.0013 18.3639C4.0538 18.3639 0.0429688 14.3531 0.0429688 9.4056ZM9.0013 5.44727C9.16706 5.44727 9.32603 5.51311 9.44324 5.63032C9.56045 5.74753 9.6263 5.90651 9.6263 6.07227V9.14727L11.5263 11.0473C11.5877 11.1045 11.637 11.1735 11.6711 11.2502C11.7053 11.3268 11.7236 11.4096 11.7251 11.4935C11.7266 11.5774 11.7112 11.6608 11.6797 11.7386C11.6483 11.8164 11.6015 11.8871 11.5422 11.9465C11.4828 12.0058 11.4121 12.0526 11.3343 12.084C11.2565 12.1155 11.1731 12.1309 11.0892 12.1294C11.0053 12.1279 10.9225 12.1096 10.8459 12.0754C10.7692 12.0413 10.7002 11.992 10.643 11.9306L8.55964 9.84727C8.44239 9.73017 8.37645 9.5713 8.3763 9.4056V6.07227C8.3763 5.90651 8.44215 5.74753 8.55936 5.63032C8.67657 5.51311 8.83554 5.44727 9.0013 5.44727Z" fill="#F2B821"/>
</svg>
