<svg width="219" height="44" viewBox="0 0 219 44" fill="none" xmlns="http://www.w3.org/2000/svg">
<path d="M9.23741 23.4668C9.8196 28.2543 13.4696 32.8387 18.2108 34.3054C19.2226 34.6176 20.1876 34.9178 21.2677 35.0953V44C9.98726 43.2667 0.741172 34.5337 0 23.4668H9.23741ZM43.6138 29.6518C40.6792 37.4461 32.8725 43.6283 24.2752 43.9864V35.0483C28.9198 34.6021 33.4095 30.999 34.8124 26.62L43.6138 29.6518ZM105.994 8.26747C108.58 8.26747 110.934 8.84767 113.055 10.0081C115.202 11.1685 116.896 12.7957 118.138 14.8894C119.379 16.9581 120 19.3041 120 21.9277C120 24.5512 119.379 26.9101 118.138 29.0038C116.896 31.0725 115.202 32.6996 113.055 33.8852C110.908 35.0457 108.554 35.6258 105.994 35.6258C103.433 35.6258 101.08 35.0457 98.9328 33.8852C96.786 32.6996 95.0788 31.0724 93.8115 29.0038C92.57 26.9101 91.9492 24.5512 91.9492 21.9277C91.9492 19.3041 92.57 16.9581 93.8115 14.8894C95.0788 12.7957 96.7859 11.1685 98.9328 10.0081C101.08 8.84768 103.433 8.26747 105.994 8.26747ZM183.845 8.26747C187.027 8.26747 189.562 8.99897 191.45 10.4621C193.364 11.9 194.385 13.9308 194.515 16.5544H186.251C186.225 15.7471 185.966 15.1418 185.475 14.7381C185.009 14.3345 184.402 14.1326 183.651 14.1326C183.083 14.1326 182.617 14.2967 182.255 14.6246C181.892 14.9525 181.712 15.4192 181.712 16.0246C181.712 16.5291 181.906 16.9707 182.294 17.3491C182.707 17.7023 183.211 18.0175 183.807 18.2951C184.402 18.5473 185.281 18.8753 186.445 19.2789C188.177 19.8592 189.601 20.4393 190.713 21.0195C191.851 21.5745 192.821 22.3693 193.622 23.4035C194.451 24.4126 194.864 25.6992 194.864 27.2632C194.864 28.8525 194.451 30.2777 193.622 31.5391C192.821 32.8005 191.644 33.7969 190.092 34.5285C188.565 35.2601 186.755 35.6258 184.66 35.6258C181.479 35.6258 178.866 34.8942 176.823 33.4311C174.78 31.9427 173.68 29.8236 173.525 27.074H181.634C181.712 28.0073 181.997 28.6886 182.488 29.1173C182.979 29.5462 183.613 29.7606 184.389 29.7606C185.087 29.7606 185.656 29.5966 186.096 29.2687C186.561 28.9155 186.794 28.4362 186.794 27.8308C186.794 27.0488 186.419 26.4433 185.669 26.0144C184.918 25.5855 183.704 25.1063 182.022 24.5765C180.237 23.9963 178.788 23.4413 177.677 22.9116C176.59 22.3566 175.634 21.562 174.806 20.5276C174.004 19.4681 173.603 18.0932 173.603 16.403C173.603 14.6876 174.043 13.2245 174.922 12.0136C175.801 10.7775 177.017 9.84414 178.569 9.21347C180.121 8.5828 181.88 8.26747 183.845 8.26747ZM76.1658 8.41871C79.58 8.41873 82.451 9.31438 84.7789 11.1055C87.1067 12.8714 88.6069 15.2805 89.2794 18.3329H81.0931C80.6017 17.3239 79.9164 16.5544 79.0368 16.0246C78.1833 15.4949 77.1876 15.23 76.0494 15.23C74.2907 15.23 72.881 15.848 71.8205 17.0842C70.7859 18.2951 70.2686 19.9222 70.2686 21.9656C70.2686 24.0341 70.7859 25.6865 71.8205 26.9226C72.881 28.1335 74.2907 28.7389 76.0494 28.7389C77.1876 28.7389 78.1833 28.4741 79.0368 27.9443C79.9164 27.4145 80.6017 26.6451 81.0931 25.636H89.2794C88.6069 28.6884 87.1067 31.1103 84.7789 32.9014C82.451 34.6673 79.58 35.5502 76.1658 35.5502C73.476 35.5502 71.0963 34.9826 69.0271 33.8474C66.9578 32.687 65.3543 31.085 64.2162 29.0417C63.104 26.9731 62.5479 24.6144 62.5479 21.9656C62.5479 19.3419 63.104 17.0085 64.2162 14.9651C65.3543 12.8966 66.9578 11.2947 69.0271 10.1595C71.0963 8.99904 73.476 8.41871 76.1658 8.41871ZM141.148 23.7819V8.68363H148.752V35.361H141.148L131.022 20.4519V35.361H123.418V8.68363H131.022L141.148 23.7819ZM170.582 14.6246H160.689V18.9762H169.418V24.6144H160.689V29.4201H170.582V35.361H153.084V8.68363H170.582V14.6246ZM219 14.5867H211.706V35.361H204.102V14.5867H196.885V8.68363H219V14.5867ZM105.994 15.0786C104.028 15.0786 102.489 15.6966 101.377 16.9328C100.265 18.1436 99.7087 19.8087 99.7087 21.9277C99.7087 24.0214 100.265 25.6865 101.377 26.9226C102.489 28.1335 104.028 28.7389 105.994 28.7389C107.934 28.7389 109.46 28.1208 110.572 26.8848C111.71 25.6487 112.279 23.9963 112.279 21.9277C112.279 19.8087 111.71 18.1436 110.572 16.9328C109.46 15.6966 107.934 15.0786 105.994 15.0786ZM21.2677 9.00946C14.982 9.61917 10.0129 14.4299 9.23741 20.5332H0C0.672433 9.55216 10.0023 0.576189 21.2677 0V9.00946ZM24.2774 0.0136345C24.6024 0.0136352 26.2538 0.270269 26.2538 0.270269C33.9316 1.39123 40.9199 7.07769 43.5601 14.1512L35.1476 17.3758C33.2592 13.6714 30.6814 10.9351 26.5932 9.57943C25.8112 9.31962 25.0707 9.08212 24.2774 8.90471V0.0136345Z" fill="#05213C"/>
</svg>
