<svg width="6" height="6" viewBox="0 0 6 6" fill="none" xmlns="http://www.w3.org/2000/svg">
<path fill-rule="evenodd" clip-rule="evenodd" d="M0.738998 0.920747C0.761468 0.841779 0.799276 0.768011 0.850265 0.703659C0.901253 0.639306 0.96442 0.585631 1.03616 0.545699C1.1079 0.505767 1.1868 0.480361 1.26836 0.470932C1.34992 0.461503 1.43254 0.468237 1.5115 0.490748L1.33983 1.09158L1.51233 0.491581H1.514L1.51733 0.492414L1.52316 0.494081L1.53983 0.499914C1.60555 0.521929 1.67033 0.546673 1.734 0.574081C1.85566 0.625748 2.0215 0.705748 2.22566 0.826581C2.634 1.06825 3.18983 1.46825 3.844 2.12325C4.49816 2.77741 4.89983 3.33408 5.14066 3.74158C5.2615 3.94575 5.3415 4.11158 5.394 4.23325C5.42143 4.2969 5.44617 4.36168 5.46816 4.42741L5.47316 4.44408L5.47483 4.45075L5.47566 4.45325V4.45491L4.87567 4.62741L5.4765 4.45575C5.52313 4.61488 5.50464 4.78602 5.42509 4.93151C5.34555 5.07701 5.21146 5.18495 5.05233 5.23158C4.8932 5.27821 4.72206 5.25972 4.57657 5.18018C4.43107 5.10063 4.32313 4.96654 4.2765 4.80741L4.274 4.79908C4.2154 4.65396 4.14575 4.51354 4.06566 4.37908C3.879 4.06491 3.544 3.58991 2.96066 3.00658C2.37733 2.42325 1.90233 2.08825 1.589 1.90241C1.45453 1.82234 1.31412 1.75269 1.169 1.69408L1.16066 1.69075C1.00309 1.64359 0.870458 1.53623 0.791523 1.39193C0.712588 1.24763 0.693716 1.07887 0.738998 0.920747Z" fill="#F2B821"/>
</svg>
