<svg width="18" height="16" viewBox="0 0 18 16" fill="none" xmlns="http://www.w3.org/2000/svg">
<path fill-rule="evenodd" clip-rule="evenodd" d="M7.28797 0.708984H10.7146C12.2463 0.708984 13.4596 0.708984 14.4088 0.836484C15.3855 0.968151 16.1763 1.24482 16.8005 1.86815C17.4238 2.49232 17.7005 3.28315 17.8321 4.25982C17.9596 5.20982 17.9596 6.42232 17.9596 7.95398V8.04732C17.9596 9.57898 17.9596 10.7923 17.8321 11.7415C17.7005 12.7182 17.4238 13.509 16.8005 14.1332C16.1763 14.7565 15.3855 15.0332 14.4088 15.1648C13.4588 15.2923 12.2463 15.2923 10.7146 15.2923H7.28797C5.7563 15.2923 4.54297 15.2923 3.5938 15.1648C2.61714 15.0332 1.8263 14.7565 1.20214 14.1332C0.578802 13.509 0.302135 12.7182 0.170469 11.7415C0.0429688 10.7915 0.0429688 9.57898 0.0429688 8.04732V7.95398C0.0429688 6.42232 0.0429688 5.20898 0.170469 4.25982C0.302135 3.28315 0.578802 2.49232 1.20214 1.86815C1.8263 1.24482 2.61714 0.968151 3.5938 0.836484C4.5438 0.708984 5.7563 0.708984 7.28797 0.708984ZM3.75964 2.07565C2.9213 2.18815 2.43797 2.39982 2.08464 2.75232C1.73297 3.10482 1.5213 3.58815 1.4088 4.42648C1.2938 5.28315 1.29214 6.41148 1.29214 8.00065C1.29214 9.58982 1.2938 10.7182 1.4088 11.5757C1.5213 12.4132 1.73297 12.8965 2.08547 13.249C2.43797 13.6015 2.9213 13.8132 3.75964 13.9257C4.6163 14.0407 5.74464 14.0423 7.3338 14.0423H10.6671C12.2563 14.0423 13.3855 14.0407 14.2421 13.9257C15.0796 13.8132 15.563 13.6015 15.9155 13.249C16.268 12.8965 16.4796 12.4132 16.5921 11.5748C16.7071 10.7182 16.7088 9.58982 16.7088 8.00065C16.7088 6.41148 16.7071 5.28315 16.5921 4.42565C16.4796 3.58815 16.268 3.10482 15.9155 2.75232C15.563 2.39982 15.0796 2.18815 14.2413 2.07565C13.3855 1.96065 12.2563 1.95898 10.6671 1.95898H7.3338C5.74464 1.95898 4.61714 1.96065 3.75964 2.07565ZM3.52047 4.26732C3.62658 4.14006 3.77889 4.06014 3.94391 4.04514C4.10892 4.03014 4.27315 4.08128 4.40047 4.18732L6.2013 5.68648C6.9788 6.33398 7.51797 6.78232 7.97464 7.07565C8.41547 7.35898 8.71464 7.45482 9.00214 7.45482C9.28964 7.45482 9.5888 7.35982 10.0296 7.07565C10.4855 6.78232 11.0255 6.33398 11.803 5.68648L13.6021 4.18648C13.6652 4.13396 13.738 4.09437 13.8164 4.06998C13.8948 4.04559 13.9772 4.03689 14.059 4.04435C14.1408 4.05182 14.2202 4.07532 14.2929 4.1135C14.3656 4.15169 14.43 4.20381 14.4826 4.2669C14.5351 4.32999 14.5747 4.40281 14.5991 4.4812C14.6234 4.55959 14.6322 4.64201 14.6247 4.72376C14.6172 4.80552 14.5937 4.885 14.5555 4.95767C14.5173 5.03035 14.4652 5.09479 14.4021 5.14732L12.5721 6.67232C11.833 7.28898 11.2346 7.78732 10.7055 8.12732C10.1555 8.48148 9.61964 8.70482 9.00214 8.70482C8.38464 8.70482 7.8488 8.48065 7.29797 8.12732C6.76964 7.78732 6.1713 7.28815 5.43214 6.67315L3.6013 5.14815C3.53817 5.0956 3.48601 5.03112 3.44782 4.95839C3.40962 4.88567 3.38614 4.80613 3.37871 4.72432C3.37128 4.64251 3.38005 4.56004 3.40451 4.48162C3.42898 4.40321 3.46783 4.33038 3.52047 4.26732Z" fill="#F2B821"/>
</svg>
