<svg width="8" height="9" viewBox="0 0 8 9" fill="none" xmlns="http://www.w3.org/2000/svg">
<path d="M0.0507469 0.971959C0.0775362 0.808376 0.168129 0.662102 0.302645 0.565239C0.43716 0.468375 0.60461 0.428834 0.768247 0.455292C0.78908 0.459459 0.857413 0.471959 0.893247 0.480292C0.96408 0.495292 1.06325 0.520292 1.18658 0.555292C1.43408 0.627792 1.77991 0.746959 2.19491 0.936959C3.02491 1.31779 4.12908 1.98363 5.27575 3.12946C6.42241 4.27613 7.08825 5.38113 7.46908 6.21113C7.65908 6.62613 7.77741 6.97113 7.84991 7.21946C7.88644 7.34423 7.91786 7.47045 7.94408 7.59779L7.94825 7.62363C7.97569 7.78865 7.93716 7.95786 7.84097 8.09473C7.74478 8.23161 7.59865 8.32519 7.43408 8.35529C7.27091 8.38179 7.10389 8.34256 6.96957 8.2462C6.83526 8.14983 6.74459 8.00418 6.71741 7.84113C6.70036 7.74903 6.67782 7.65803 6.64991 7.56862C6.56477 7.28243 6.45893 7.00281 6.33325 6.73196C6.00825 6.02363 5.42325 5.04529 4.39158 4.01363C3.36075 2.98196 2.38158 2.39779 1.67325 2.07279C1.40267 1.94714 1.12332 1.84131 0.837414 1.75613C0.749732 1.73139 0.661362 1.70916 0.572413 1.68946C0.408567 1.6624 0.261935 1.57199 0.164177 1.43775C0.0664185 1.30351 0.0253769 1.1362 0.0499132 0.971959H0.0507469Z" fill="#F2B821"/>
</svg>
