<svg width="18" height="17" viewBox="0 0 18 17" fill="none" xmlns="http://www.w3.org/2000/svg">
<path fill-rule="evenodd" clip-rule="evenodd" d="M2.93167 0.982006C3.95333 -0.0938275 5.64333 0.107006 6.48833 1.30201L7.53833 2.78867C8.21417 3.74451 8.1575 5.07201 7.35083 5.92201L7.14667 6.13617C7.14609 6.13783 7.14554 6.1395 7.145 6.14117C7.13417 6.17117 7.1075 6.26784 7.13417 6.45117C7.19 6.83034 7.4825 7.602 8.6725 8.8545C9.86583 10.1112 10.5892 10.407 10.925 10.462C11.0059 10.4801 11.09 10.4781 11.17 10.4562L11.51 10.0978C12.2383 9.33117 13.3733 9.18034 14.2892 9.707L15.8808 10.6237C17.2417 11.407 17.5583 13.3228 16.4708 14.4678L15.2875 15.7137C14.9183 16.1028 14.4142 16.4353 13.7917 16.497C12.2717 16.647 8.75083 16.4512 5.06 12.5645C1.615 8.93867 0.960834 5.78451 0.878334 4.24367C0.837501 3.48201 1.17667 2.82951 1.62333 2.35867L2.93167 0.982006ZM5.4675 2.02367C5.04083 1.42034 4.27333 1.38367 3.8375 1.84284L2.52917 3.21951C2.25417 3.51117 2.10833 3.84451 2.12667 4.17701C2.19333 5.43534 2.73583 8.30367 5.96583 11.7037C9.3525 15.2703 12.4733 15.3703 13.6692 15.252C13.905 15.2295 14.1483 15.0978 14.3808 14.8528L15.5642 13.607C16.0758 13.0687 15.9417 12.1003 15.2575 11.707L13.6658 10.7903C13.2383 10.5445 12.7375 10.6203 12.4167 10.9587L12.0367 11.3587L11.5975 10.9412C12.0367 11.3578 12.0367 11.3587 12.0358 11.3595L12.035 11.3603L12.0325 11.3637L12.0267 11.3687L12.015 11.3803C11.98 11.4147 11.9421 11.4459 11.9017 11.4737C11.835 11.5203 11.7467 11.5728 11.6342 11.617C11.4042 11.7078 11.1008 11.7562 10.725 11.6953C9.99333 11.577 9.035 11.0512 7.76667 9.71534C6.49333 8.37534 6.00583 7.37617 5.8975 6.63201C5.84167 6.25367 5.88583 5.95117 5.9675 5.72201C6.01283 5.5943 6.07747 5.47429 6.15917 5.36617L6.18417 5.33534L6.19583 5.32284L6.20083 5.31701L6.20333 5.31451L6.205 5.31367C6.205 5.31367 6.205 5.31201 6.64917 5.73284L6.20583 5.31201L6.445 5.06034C6.81583 4.66951 6.87 4.00784 6.51833 3.51034L5.4675 2.02367Z" fill="#F2B821"/>
</svg>
