<svg width="9" height="9" viewBox="0 0 9 9" fill="none" xmlns="http://www.w3.org/2000/svg">
<path d="M0.550747 1.04618C0.577536 0.882595 0.668129 0.736321 0.802645 0.639457C0.93716 0.542594 1.10461 0.503052 1.26825 0.529511C1.28908 0.533677 1.35741 0.546177 1.39325 0.554511C1.46408 0.569511 1.56325 0.594511 1.68658 0.629511C1.93408 0.702011 2.27991 0.821178 2.69491 1.01118C3.52491 1.39201 4.62908 2.05784 5.77575 3.20368C6.92241 4.35034 7.58825 5.45534 7.96908 6.28534C8.15908 6.70034 8.27741 7.04534 8.34991 7.29368C8.38644 7.41845 8.41786 7.54467 8.44408 7.67201L8.44825 7.69784C8.47569 7.86287 8.43716 8.03208 8.34097 8.16895C8.24478 8.30583 8.09865 8.39941 7.93408 8.42951C7.77091 8.45601 7.60389 8.41678 7.46957 8.32042C7.33526 8.22405 7.24459 8.0784 7.21741 7.91534C7.20036 7.82325 7.17782 7.73225 7.14991 7.64284C7.06477 7.35665 6.95893 7.07703 6.83325 6.80618C6.50825 6.09784 5.92325 5.11951 4.89158 4.08784C3.86075 3.05618 2.88158 2.47201 2.17325 2.14701C1.90267 2.02136 1.62332 1.91553 1.33741 1.83034C1.24973 1.80561 1.16136 1.78338 1.07241 1.76368C0.908567 1.73662 0.761935 1.64621 0.664177 1.51197C0.566419 1.37772 0.525377 1.21042 0.549913 1.04618H0.550747Z" fill="#F2B821"/>
</svg>
