<svg width="5" height="6" viewBox="0 0 5 6" fill="none" xmlns="http://www.w3.org/2000/svg">
<path fill-rule="evenodd" clip-rule="evenodd" d="M0.238998 1.44028C0.261468 1.36131 0.299276 1.28754 0.350265 1.22319C0.401253 1.15884 0.46442 1.10516 0.536159 1.06523C0.607897 1.0253 0.686801 0.999892 0.768361 0.990463C0.849921 0.981034 0.932541 0.987768 1.0115 1.01028L0.839831 1.61111L1.01233 1.01111H1.014L1.01733 1.01195L1.02316 1.01361L1.03983 1.01945C1.10555 1.04146 1.17033 1.0662 1.234 1.09361C1.35566 1.14528 1.5215 1.22528 1.72566 1.34611C2.134 1.58778 2.68983 1.98778 3.344 2.64278C3.99816 3.29695 4.39983 3.85361 4.64066 4.26111C4.7615 4.46528 4.8415 4.63111 4.894 4.75278C4.92143 4.81643 4.94617 4.88121 4.96816 4.94695L4.97316 4.96361L4.97483 4.97028L4.97566 4.97278V4.97445L4.37567 5.14694L4.9765 4.97528C5.02313 5.13441 5.00464 5.30555 4.92509 5.45104C4.84555 5.59654 4.71146 5.70448 4.55233 5.75111C4.3932 5.79775 4.22206 5.77926 4.07657 5.69971C3.93107 5.62016 3.82313 5.48608 3.7765 5.32695L3.774 5.31861C3.7154 5.17349 3.64575 5.03307 3.56566 4.89861C3.379 4.58444 3.044 4.10945 2.46066 3.52611C1.87733 2.94278 1.40233 2.60778 1.089 2.42195C0.954528 2.34187 0.814117 2.27222 0.668998 2.21361L0.660664 2.21028C0.503091 2.16313 0.370458 2.05576 0.291523 1.91146C0.212588 1.76716 0.193716 1.5984 0.238998 1.44028Z" fill="#F2B821"/>
</svg>
