<svg width="16" height="19" viewBox="0 0 16 19" fill="none" xmlns="http://www.w3.org/2000/svg">
<path fill-rule="evenodd" clip-rule="evenodd" d="M0.707031 8.22919C0.707031 4.14669 3.9612 0.818359 7.9987 0.818359C12.0362 0.818359 15.2904 4.14669 15.2904 8.22919C15.2904 10.2 14.7287 12.3167 13.7354 14.145C12.7437 15.9709 11.2954 17.5575 9.48203 18.405C9.01771 18.6223 8.51133 18.7349 7.9987 18.7349C7.48606 18.7349 6.97969 18.6223 6.51537 18.405C4.70203 17.5575 3.2537 15.9717 2.26203 14.145C1.2687 12.3167 0.707031 10.2 0.707031 8.22919ZM7.9987 2.06836C4.67203 2.06836 1.95703 4.81586 1.95703 8.22919C1.95703 9.97669 2.45953 11.8892 3.36036 13.5484C4.26203 15.2092 5.53703 16.5684 7.0437 17.2725C7.34246 17.4125 7.66835 17.4851 7.99828 17.4851C8.32821 17.4851 8.6541 17.4125 8.95287 17.2725C10.4604 16.5684 11.7354 15.2092 12.637 13.5484C13.5379 11.89 14.0404 9.97669 14.0404 8.22919C14.0404 4.81586 11.3254 2.06836 7.9987 2.06836ZM7.9987 6.23503C7.75247 6.23503 7.50865 6.28352 7.28117 6.37775C7.05368 6.47198 6.84698 6.61009 6.67287 6.7842C6.49876 6.95831 6.36065 7.16501 6.26642 7.39249C6.1722 7.61998 6.1237 7.8638 6.1237 8.11003C6.1237 8.35626 6.1722 8.60007 6.26642 8.82756C6.36065 9.05504 6.49876 9.26174 6.67287 9.43585C6.84698 9.60996 7.05368 9.74807 7.28117 9.8423C7.50865 9.93653 7.75247 9.98503 7.9987 9.98503C8.49598 9.98503 8.97289 9.78748 9.32452 9.43585C9.67615 9.08422 9.8737 8.60731 9.8737 8.11003C9.8737 7.61275 9.67615 7.13583 9.32452 6.7842C8.97289 6.43257 8.49598 6.23503 7.9987 6.23503ZM4.8737 8.11003C4.8737 7.28123 5.20294 6.48637 5.78899 5.90032C6.37504 5.31427 7.1699 4.98503 7.9987 4.98503C8.8275 4.98503 9.62236 5.31427 10.2084 5.90032C10.7945 6.48637 11.1237 7.28123 11.1237 8.11003C11.1237 8.93883 10.7945 9.73368 10.2084 10.3197C9.62236 10.9058 8.8275 11.235 7.9987 11.235C7.1699 11.235 6.37504 10.9058 5.78899 10.3197C5.20294 9.73368 4.8737 8.93883 4.8737 8.11003Z" fill="#F2B821"/>
</svg>
