<svg width="15" height="15" viewBox="0 0 15 15" fill="none" xmlns="http://www.w3.org/2000/svg">
<path d="M7.33398 0.09375C3.30198 0.09375 0.0214844 3.37425 0.0214844 7.40625C0.0214844 11.4383 3.30198 14.7188 7.33398 14.7188C11.366 14.7188 14.6465 11.4383 14.6465 7.40625C14.6465 3.37425 11.366 0.09375 7.33398 0.09375ZM7.33398 1.21875C10.7574 1.21875 13.5215 3.98288 13.5215 7.40625C13.5215 10.8296 10.7574 13.5938 7.33398 13.5938C3.91061 13.5938 1.14648 10.8296 1.14648 7.40625C1.14648 3.98288 3.91061 1.21875 7.33398 1.21875ZM6.33217 3.62681L5.52273 4.43625L8.49386 7.40625L5.52386 10.3768L6.33217 11.1857L9.70717 7.81069L10.0936 7.40625L9.70717 7.00181L6.33217 3.62681Z" fill="#F2B821"/>
</svg>
