<svg width="15" height="15" viewBox="0 0 15 15" fill="none" xmlns="http://www.w3.org/2000/svg">
<path d="M7.66797 0.09375C3.63597 0.09375 0.355469 3.37425 0.355469 7.40625C0.355469 11.4383 3.63597 14.7188 7.66797 14.7188C11.7 14.7188 14.9805 11.4383 14.9805 7.40625C14.9805 3.37425 11.7 0.09375 7.66797 0.09375ZM7.66797 1.21875C11.0913 1.21875 13.8555 3.98288 13.8555 7.40625C13.8555 10.8296 11.0913 13.5938 7.66797 13.5938C4.24459 13.5938 1.48047 10.8296 1.48047 7.40625C1.48047 3.98288 4.24459 1.21875 7.66797 1.21875ZM6.66616 3.62681L5.85672 4.43625L8.82784 7.40625L5.85784 10.3768L6.66616 11.1857L10.0412 7.81069L10.4276 7.40625L10.0412 7.00181L6.66616 3.62681Z" fill="#F2B821"/>
</svg>
