<svg width="16" height="18" viewBox="0 0 16 18" fill="none" xmlns="http://www.w3.org/2000/svg">
<path fill-rule="evenodd" clip-rule="evenodd" d="M0.707031 7.45185C0.707031 3.36935 3.9612 0.0410156 7.9987 0.0410156C12.0362 0.0410156 15.2904 3.36935 15.2904 7.45185C15.2904 9.42268 14.7287 11.5394 13.7354 13.3677C12.7437 15.1935 11.2954 16.7802 9.48203 17.6277C9.01771 17.8449 8.51133 17.9576 7.9987 17.9576C7.48606 17.9576 6.97969 17.8449 6.51537 17.6277C4.70203 16.7802 3.2537 15.1944 2.26203 13.3677C1.2687 11.5394 0.707031 9.42268 0.707031 7.45185ZM7.9987 1.29102C4.67203 1.29102 1.95703 4.03852 1.95703 7.45185C1.95703 9.19935 2.45953 11.1118 3.36036 12.771C4.26203 14.4318 5.53703 15.791 7.0437 16.4952C7.34246 16.6352 7.66835 16.7077 7.99828 16.7077C8.32821 16.7077 8.6541 16.6352 8.95287 16.4952C10.4604 15.791 11.7354 14.4318 12.637 12.771C13.5379 11.1127 14.0404 9.19935 14.0404 7.45185C14.0404 4.03852 11.3254 1.29102 7.9987 1.29102ZM7.9987 5.45768C7.75247 5.45768 7.50865 5.50618 7.28117 5.60041C7.05368 5.69464 6.84698 5.83275 6.67287 6.00686C6.49876 6.18097 6.36065 6.38767 6.26642 6.61515C6.1722 6.84264 6.1237 7.08645 6.1237 7.33268C6.1237 7.57891 6.1722 7.82273 6.26642 8.05021C6.36065 8.2777 6.49876 8.4844 6.67287 8.65851C6.84698 8.83262 7.05368 8.97073 7.28117 9.06496C7.50865 9.15918 7.75247 9.20768 7.9987 9.20768C8.49598 9.20768 8.97289 9.01014 9.32452 8.65851C9.67615 8.30688 9.8737 7.82996 9.8737 7.33268C9.8737 6.8354 9.67615 6.35849 9.32452 6.00686C8.97289 5.65523 8.49598 5.45768 7.9987 5.45768ZM4.8737 7.33268C4.8737 6.50388 5.20294 5.70903 5.78899 5.12297C6.37504 4.53692 7.1699 4.20768 7.9987 4.20768C8.8275 4.20768 9.62236 4.53692 10.2084 5.12297C10.7945 5.70903 11.1237 6.50388 11.1237 7.33268C11.1237 8.16148 10.7945 8.95634 10.2084 9.54239C9.62236 10.1284 8.8275 10.4577 7.9987 10.4577C7.1699 10.4577 6.37504 10.1284 5.78899 9.54239C5.20294 8.95634 4.8737 8.16148 4.8737 7.33268Z" fill="#F2B821"/>
</svg>
