<svg width="19" height="15" viewBox="0 0 19 15" fill="none" xmlns="http://www.w3.org/2000/svg">
<path fill-rule="evenodd" clip-rule="evenodd" d="M7.78797 0.189453H11.2146C12.7463 0.189453 13.9596 0.189453 14.9088 0.316953C15.8855 0.44862 16.6763 0.725286 17.3005 1.34862C17.9238 1.97279 18.2005 2.76362 18.3321 3.74029C18.4596 4.69029 18.4596 5.90279 18.4596 7.43445V7.52779C18.4596 9.05945 18.4596 10.2728 18.3321 11.222C18.2005 12.1986 17.9238 12.9895 17.3005 13.6136C16.6763 14.237 15.8855 14.5136 14.9088 14.6453C13.9588 14.7728 12.7463 14.7728 11.2146 14.7728H7.78797C6.2563 14.7728 5.04297 14.7728 4.0938 14.6453C3.11714 14.5136 2.3263 14.237 1.70214 13.6136C1.0788 12.9895 0.802135 12.1986 0.670469 11.222C0.542969 10.272 0.542969 9.05945 0.542969 7.52779V7.43445C0.542969 5.90279 0.542969 4.68945 0.670469 3.74029C0.802135 2.76362 1.0788 1.97279 1.70214 1.34862C2.3263 0.725286 3.11714 0.44862 4.0938 0.316953C5.0438 0.189453 6.2563 0.189453 7.78797 0.189453ZM4.25964 1.55612C3.4213 1.66862 2.93797 1.88029 2.58464 2.23279C2.23297 2.58529 2.0213 3.06862 1.9088 3.90695C1.7938 4.76362 1.79214 5.89195 1.79214 7.48112C1.79214 9.07029 1.7938 10.1986 1.9088 11.0561C2.0213 11.8936 2.23297 12.377 2.58547 12.7295C2.93797 13.082 3.4213 13.2936 4.25964 13.4061C5.1163 13.5211 6.24464 13.5228 7.8338 13.5228H11.1671C12.7563 13.5228 13.8855 13.5211 14.7421 13.4061C15.5796 13.2936 16.063 13.082 16.4155 12.7295C16.768 12.377 16.9796 11.8936 17.0921 11.0553C17.2071 10.1986 17.2088 9.07029 17.2088 7.48112C17.2088 5.89195 17.2071 4.76362 17.0921 3.90612C16.9796 3.06862 16.768 2.58529 16.4155 2.23279C16.063 1.88029 15.5796 1.66862 14.7413 1.55612C13.8855 1.44112 12.7563 1.43945 11.1671 1.43945H7.8338C6.24464 1.43945 5.11714 1.44112 4.25964 1.55612ZM4.02047 3.74779C4.12658 3.62052 4.27889 3.54061 4.44391 3.52561C4.60892 3.5106 4.77315 3.56175 4.90047 3.66779L6.7013 5.16695C7.4788 5.81445 8.01797 6.26279 8.47464 6.55612C8.91547 6.83945 9.21464 6.93529 9.50214 6.93529C9.78964 6.93529 10.0888 6.84029 10.5296 6.55612C10.9855 6.26279 11.5255 5.81445 12.303 5.16695L14.1021 3.66695C14.1652 3.61442 14.238 3.57484 14.3164 3.55045C14.3948 3.52606 14.4772 3.51735 14.559 3.52482C14.6408 3.53229 14.7202 3.55579 14.7929 3.59397C14.8656 3.63216 14.93 3.68428 14.9826 3.74737C15.0351 3.81046 15.0747 3.88328 15.0991 3.96167C15.1234 4.04005 15.1322 4.12248 15.1247 4.20423C15.1172 4.28599 15.0937 4.36547 15.0555 4.43814C15.0173 4.51082 14.9652 4.57526 14.9021 4.62779L13.0721 6.15279C12.333 6.76945 11.7346 7.26779 11.2055 7.60779C10.6555 7.96195 10.1196 8.18529 9.50214 8.18529C8.88464 8.18529 8.3488 7.96112 7.79797 7.60779C7.26964 7.26779 6.6713 6.76862 5.93214 6.15362L4.1013 4.62862C4.03817 4.57607 3.98601 4.51159 3.94782 4.43886C3.90962 4.36614 3.88614 4.28659 3.87871 4.20479C3.87128 4.12298 3.88005 4.04051 3.90451 3.96209C3.92898 3.88368 3.96783 3.81085 4.02047 3.74779Z" fill="#F2B821"/>
</svg>
