<svg width="15" height="15" viewBox="0 0 15 15" fill="none" xmlns="http://www.w3.org/2000/svg">
<path d="M7.66602 0.09375C3.63402 0.09375 0.353516 3.37425 0.353516 7.40625C0.353516 11.4383 3.63402 14.7188 7.66602 14.7188C11.698 14.7188 14.9785 11.4383 14.9785 7.40625C14.9785 3.37425 11.698 0.09375 7.66602 0.09375ZM7.66602 1.21875C11.0894 1.21875 13.8535 3.98288 13.8535 7.40625C13.8535 10.8296 11.0894 13.5938 7.66602 13.5938C4.24264 13.5938 1.47852 10.8296 1.47852 7.40625C1.47852 3.98288 4.24264 1.21875 7.66602 1.21875ZM6.6642 3.62681L5.85477 4.43625L8.82589 7.40625L5.85589 10.3768L6.6642 11.1857L10.0392 7.81069L10.4256 7.40625L10.0392 7.00181L6.6642 3.62681Z" fill="#F2B821"/>
</svg>
