<svg width="5" height="6" viewBox="0 0 5 6" fill="none" xmlns="http://www.w3.org/2000/svg">
<path fill-rule="evenodd" clip-rule="evenodd" d="M0.238998 0.846529C0.261468 0.76756 0.299276 0.693792 0.350265 0.62944C0.401253 0.565088 0.46442 0.511412 0.536159 0.47148C0.607897 0.431548 0.686801 0.406142 0.768361 0.396713C0.849921 0.387284 0.932541 0.394018 1.0115 0.416529L0.839831 1.01736L1.01233 0.417362H1.014L1.01733 0.418195L1.02316 0.419862L1.03983 0.425695C1.10555 0.447711 1.17033 0.472454 1.234 0.499862C1.35566 0.551529 1.5215 0.631529 1.72566 0.752362C2.134 0.994029 2.68983 1.39403 3.344 2.04903C3.99816 2.7032 4.39983 3.25986 4.64066 3.66736C4.7615 3.87153 4.8415 4.03736 4.894 4.15903C4.92143 4.22268 4.94617 4.28746 4.96816 4.3532L4.97316 4.36986L4.97483 4.37653L4.97566 4.37903V4.3807L4.37566 4.5532L4.9765 4.38153C5.02313 4.54066 5.00464 4.7118 4.92509 4.85729C4.84555 5.00279 4.71146 5.11073 4.55233 5.15736C4.3932 5.204 4.22206 5.18551 4.07657 5.10596C3.93107 5.02641 3.82313 4.89233 3.7765 4.7332L3.774 4.72486C3.7154 4.57974 3.64575 4.43932 3.56566 4.30486C3.379 3.99069 3.044 3.5157 2.46066 2.93236C1.87733 2.34903 1.40233 2.01403 1.089 1.8282C0.954528 1.74812 0.814117 1.67847 0.668998 1.61986L0.660664 1.61653C0.503091 1.56938 0.370458 1.46201 0.291523 1.31771C0.212588 1.17341 0.193716 1.00465 0.238998 0.846529Z" fill="#F2B821"/>
</svg>
