<svg width="8" height="8" viewBox="0 0 8 8" fill="none" xmlns="http://www.w3.org/2000/svg">
<path d="M0.0507469 0.565709C0.0775362 0.402126 0.168129 0.255852 0.302645 0.158989C0.43716 0.0621249 0.60461 0.0225836 0.768247 0.0490421C0.78908 0.0532087 0.857413 0.0657087 0.893247 0.074042C0.96408 0.089042 1.06325 0.114042 1.18658 0.149042C1.43408 0.221542 1.77991 0.340709 2.19491 0.530709C3.02491 0.911542 4.12908 1.57738 5.27575 2.72321C6.42241 3.86988 7.08825 4.97488 7.46908 5.80488C7.65908 6.21988 7.77741 6.56488 7.84991 6.81321C7.88644 6.93798 7.91786 7.0642 7.94408 7.19154L7.94825 7.21738C7.97569 7.3824 7.93716 7.55161 7.84097 7.68848C7.74478 7.82536 7.59865 7.91894 7.43408 7.94904C7.27091 7.97554 7.10389 7.93631 6.96957 7.83995C6.83526 7.74358 6.74459 7.59793 6.71741 7.43488C6.70036 7.34278 6.67782 7.25178 6.64991 7.16237C6.56477 6.87618 6.45893 6.59656 6.33325 6.32571C6.00825 5.61738 5.42325 4.63904 4.39158 3.60738C3.36075 2.57571 2.38158 1.99154 1.67325 1.66654C1.40267 1.54089 1.12332 1.43506 0.837414 1.34988C0.749732 1.32514 0.661362 1.30291 0.572413 1.28321C0.408567 1.25615 0.261935 1.16574 0.164177 1.0315C0.0664185 0.897255 0.0253769 0.729951 0.0499132 0.565709H0.0507469Z" fill="#F2B821"/>
</svg>
