<svg width="35" height="36" viewBox="0 0 35 36" fill="none" xmlns="http://www.w3.org/2000/svg">
<path d="M18.0703 0.480469L19.8475 0.636587C27.0288 1.57762 32.9529 6.98144 34.5701 14.03C34.7868 14.9739 34.9656 16.0395 34.9777 17.0085C34.9781 17.0454 34.9636 17.1057 35 17.1284V18.8107C34.9638 18.8334 34.9781 18.8935 34.9777 18.9306C34.9695 19.7053 34.853 20.5232 34.7092 21.2835C33.2708 28.8864 26.8503 34.7256 19.1294 35.4147L18.2011 35.4805H16.8468L15.9185 35.4147C7.29344 34.6221 0.585052 27.6338 0.0484178 18.9959C0.0370387 18.8111 0.0682173 18.6184 0.00449473 18.439C0.0149634 18.1345 -0.00961526 17.8257 0.00449473 17.5214C0.0807342 15.8843 0.354058 14.2168 0.850639 12.6545C3.08935 5.61233 9.58267 0.737403 16.9779 0.480469H18.0701H18.0703ZM22.1772 15.7737C22.4876 14.3606 22.5607 12.8429 22.2318 11.4258C21.4924 8.23857 18.5555 5.81943 15.5362 4.87203C15.7908 5.88179 15.995 6.95914 15.9074 8.00667C15.3896 14.197 7.0497 15.7195 6.60182 21.9458C6.54857 22.6845 6.6239 23.5049 6.78708 24.2288C7.66098 28.1042 11.4359 30.4235 15.1211 31.1103C14.5296 30.6922 14.0169 30.2703 13.609 29.6625C11.5654 26.6184 14.3141 22.9332 15.7223 20.231C16.3621 19.0032 16.8678 17.7058 17.2034 16.3594L17.5457 14.4847C17.761 16.3781 18.4203 18.1805 19.2312 19.8887C20.7546 23.0973 24.1685 27.2866 20.7239 30.4981L19.8836 31.1103C23.3415 30.5976 26.8069 27.9661 28.0103 24.6551C29.3417 20.9918 27.6737 16.9973 24.9737 14.4517C24.8023 14.2901 24.4337 14.0127 24.2775 13.8588C24.1214 13.705 24.1137 13.7498 24.045 13.8176C23.8572 14.0026 23.5001 14.5666 23.2807 14.8128C22.9639 15.1683 22.5661 15.4999 22.1774 15.7739L22.1772 15.7737Z" fill="#05213C"/>
</svg>
