<svg width="18" height="18" viewBox="0 0 18 18" fill="none" xmlns="http://www.w3.org/2000/svg">
<path fill-rule="evenodd" clip-rule="evenodd" d="M9.0013 1.29102C6.95693 1.29102 4.99628 2.10314 3.55069 3.54873C2.10509 4.99433 1.29297 6.95497 1.29297 8.99935C1.29297 11.0437 2.10509 13.0044 3.55069 14.45C4.99628 15.8956 6.95693 16.7077 9.0013 16.7077C11.0457 16.7077 13.0063 15.8956 14.4519 14.45C15.8975 13.0044 16.7096 11.0437 16.7096 8.99935C16.7096 6.95497 15.8975 4.99433 14.4519 3.54873C13.0063 2.10314 11.0457 1.29102 9.0013 1.29102ZM0.0429688 8.99935C0.0429688 4.05185 4.0538 0.0410156 9.0013 0.0410156C13.9488 0.0410156 17.9596 4.05185 17.9596 8.99935C17.9596 13.9468 13.9488 17.9577 9.0013 17.9577C4.0538 17.9577 0.0429688 13.9468 0.0429688 8.99935ZM9.0013 5.04102C9.16706 5.04102 9.32603 5.10686 9.44324 5.22407C9.56045 5.34128 9.6263 5.50026 9.6263 5.66602V8.74102L11.5263 10.641C11.5877 10.6982 11.637 10.7672 11.6711 10.8439C11.7053 10.9206 11.7236 11.0033 11.7251 11.0872C11.7266 11.1712 11.7112 11.2545 11.6797 11.3323C11.6483 11.4102 11.6015 11.4809 11.5422 11.5402C11.4828 11.5996 11.4121 11.6464 11.3343 11.6778C11.2565 11.7092 11.1731 11.7247 11.0892 11.7232C11.0053 11.7217 10.9225 11.7033 10.8459 11.6692C10.7692 11.635 10.7002 11.5858 10.643 11.5243L8.55964 9.44102C8.44239 9.32392 8.37645 9.16505 8.3763 8.99935V5.66602C8.3763 5.50026 8.44215 5.34128 8.55936 5.22407C8.67657 5.10686 8.83554 5.04102 9.0013 5.04102Z" fill="#F2B821"/>
</svg>
