<svg width="15" height="19" viewBox="0 0 15 19" fill="none" xmlns="http://www.w3.org/2000/svg">
<path fill-rule="evenodd" clip-rule="evenodd" d="M0.207031 7.93232C0.207031 3.84982 3.4612 0.521484 7.4987 0.521484C11.5362 0.521484 14.7904 3.84982 14.7904 7.93232C14.7904 9.90315 14.2287 12.0198 13.2354 13.8482C12.2437 15.674 10.7954 17.2607 8.98203 18.1082C8.51771 18.3254 8.01133 18.438 7.4987 18.438C6.98606 18.438 6.47969 18.3254 6.01537 18.1082C4.20203 17.2607 2.7537 15.6748 1.76203 13.8482C0.768698 12.0198 0.207031 9.90315 0.207031 7.93232ZM7.4987 1.77148C4.17203 1.77148 1.45703 4.51898 1.45703 7.93232C1.45703 9.67982 1.95953 11.5923 2.86036 13.2515C3.76203 14.9123 5.03703 16.2715 6.5437 16.9757C6.84246 17.1156 7.16835 17.1882 7.49828 17.1882C7.82821 17.1882 8.1541 17.1156 8.45287 16.9757C9.96037 16.2715 11.2354 14.9123 12.137 13.2515C13.0379 11.5932 13.5404 9.67982 13.5404 7.93232C13.5404 4.51898 10.8254 1.77148 7.4987 1.77148ZM7.4987 5.93815C7.25247 5.93815 7.00865 5.98665 6.78117 6.08088C6.55368 6.17511 6.34698 6.31322 6.17287 6.48733C5.99876 6.66144 5.86065 6.86813 5.76642 7.09562C5.6722 7.32311 5.6237 7.56692 5.6237 7.81315C5.6237 8.05938 5.6722 8.3032 5.76642 8.53068C5.86065 8.75817 5.99876 8.96487 6.17287 9.13898C6.34698 9.31309 6.55368 9.4512 6.78117 9.54543C7.00865 9.63965 7.25247 9.68815 7.4987 9.68815C7.99598 9.68815 8.47289 9.49061 8.82452 9.13898C9.17615 8.78735 9.3737 8.31043 9.3737 7.81315C9.3737 7.31587 9.17615 6.83896 8.82452 6.48733C8.47289 6.1357 7.99598 5.93815 7.4987 5.93815ZM4.3737 7.81315C4.3737 6.98435 4.70294 6.18949 5.28899 5.60344C5.87504 5.01739 6.6699 4.68815 7.4987 4.68815C8.3275 4.68815 9.12236 5.01739 9.70841 5.60344C10.2945 6.18949 10.6237 6.98435 10.6237 7.81315C10.6237 8.64195 10.2945 9.43681 9.70841 10.0229C9.12236 10.6089 8.3275 10.9382 7.4987 10.9382C6.6699 10.9382 5.87504 10.6089 5.28899 10.0229C4.70294 9.43681 4.3737 8.64195 4.3737 7.81315Z" fill="#F2B821"/>
</svg>
