<svg width="16" height="19" viewBox="0 0 16 19" fill="none" xmlns="http://www.w3.org/2000/svg">
<path fill-rule="evenodd" clip-rule="evenodd" d="M0.707031 7.8581C0.707031 3.7756 3.9612 0.447266 7.9987 0.447266C12.0362 0.447266 15.2904 3.7756 15.2904 7.8581C15.2904 9.82893 14.7287 11.9456 13.7354 13.7739C12.7437 15.5998 11.2954 17.1864 9.48203 18.0339C9.01771 18.2512 8.51133 18.3638 7.9987 18.3638C7.48606 18.3638 6.97969 18.2512 6.51537 18.0339C4.70203 17.1864 3.2537 15.6006 2.26203 13.7739C1.2687 11.9456 0.707031 9.82893 0.707031 7.8581ZM7.9987 1.69727C4.67203 1.69727 1.95703 4.44477 1.95703 7.8581C1.95703 9.6056 2.45953 11.5181 3.36036 13.1773C4.26203 14.8381 5.53703 16.1973 7.0437 16.9014C7.34246 17.0414 7.66835 17.114 7.99828 17.114C8.32821 17.114 8.6541 17.0414 8.95287 16.9014C10.4604 16.1973 11.7354 14.8381 12.637 13.1773C13.5379 11.5189 14.0404 9.6056 14.0404 7.8581C14.0404 4.44477 11.3254 1.69727 7.9987 1.69727ZM7.9987 5.86393C7.75247 5.86393 7.50865 5.91243 7.28117 6.00666C7.05368 6.10089 6.84698 6.239 6.67287 6.41311C6.49876 6.58722 6.36065 6.79392 6.26642 7.0214C6.1722 7.24889 6.1237 7.4927 6.1237 7.73893C6.1237 7.98516 6.1722 8.22898 6.26642 8.45646C6.36065 8.68395 6.49876 8.89065 6.67287 9.06476C6.84698 9.23887 7.05368 9.37698 7.28117 9.47121C7.50865 9.56543 7.75247 9.61393 7.9987 9.61393C8.49598 9.61393 8.97289 9.41639 9.32452 9.06476C9.67615 8.71313 9.8737 8.23621 9.8737 7.73893C9.8737 7.24165 9.67615 6.76474 9.32452 6.41311C8.97289 6.06148 8.49598 5.86393 7.9987 5.86393ZM4.8737 7.73893C4.8737 6.91013 5.20294 6.11528 5.78899 5.52922C6.37504 4.94317 7.1699 4.61393 7.9987 4.61393C8.8275 4.61393 9.62236 4.94317 10.2084 5.52922C10.7945 6.11528 11.1237 6.91013 11.1237 7.73893C11.1237 8.56773 10.7945 9.36259 10.2084 9.94864C9.62236 10.5347 8.8275 10.8639 7.9987 10.8639C7.1699 10.8639 6.37504 10.5347 5.78899 9.94864C5.20294 9.36259 4.8737 8.56773 4.8737 7.73893Z" fill="#F2B821"/>
</svg>
