<svg width="18" height="16" viewBox="0 0 18 16" fill="none" xmlns="http://www.w3.org/2000/svg">
<path fill-rule="evenodd" clip-rule="evenodd" d="M7.28797 0.486328H10.7146C12.2463 0.486328 13.4596 0.486328 14.4088 0.613828C15.3855 0.745495 16.1763 1.02216 16.8005 1.64549C17.4238 2.26966 17.7005 3.06049 17.8321 4.03716C17.9596 4.98716 17.9596 6.19966 17.9596 7.73133V7.82466C17.9596 9.35633 17.9596 10.5697 17.8321 11.5188C17.7005 12.4955 17.4238 13.2863 16.8005 13.9105C16.1763 14.5338 15.3855 14.8105 14.4088 14.9422C13.4588 15.0697 12.2463 15.0697 10.7146 15.0697H7.28797C5.7563 15.0697 4.54297 15.0697 3.5938 14.9422C2.61714 14.8105 1.8263 14.5338 1.20214 13.9105C0.578802 13.2863 0.302135 12.4955 0.170469 11.5188C0.0429688 10.5688 0.0429688 9.35633 0.0429688 7.82466V7.73133C0.0429688 6.19966 0.0429688 4.98633 0.170469 4.03716C0.302135 3.06049 0.578802 2.26966 1.20214 1.64549C1.8263 1.02216 2.61714 0.745495 3.5938 0.613828C4.5438 0.486328 5.7563 0.486328 7.28797 0.486328ZM3.75964 1.85299C2.9213 1.96549 2.43797 2.17716 2.08464 2.52966C1.73297 2.88216 1.5213 3.36549 1.4088 4.20383C1.2938 5.06049 1.29214 6.18883 1.29214 7.77799C1.29214 9.36716 1.2938 10.4955 1.4088 11.353C1.5213 12.1905 1.73297 12.6738 2.08547 13.0263C2.43797 13.3788 2.9213 13.5905 3.75964 13.703C4.6163 13.818 5.74463 13.8197 7.3338 13.8197H10.6671C12.2563 13.8197 13.3855 13.818 14.2421 13.703C15.0796 13.5905 15.563 13.3788 15.9155 13.0263C16.268 12.6738 16.4796 12.1905 16.5921 11.3522C16.7071 10.4955 16.7088 9.36716 16.7088 7.77799C16.7088 6.18883 16.7071 5.06049 16.5921 4.20299C16.4796 3.36549 16.268 2.88216 15.9155 2.52966C15.563 2.17716 15.0796 1.96549 14.2413 1.85299C13.3855 1.73799 12.2563 1.73633 10.6671 1.73633H7.3338C5.74463 1.73633 4.61714 1.73799 3.75964 1.85299ZM3.52047 4.04466C3.62658 3.9174 3.77889 3.83748 3.94391 3.82248C4.10892 3.80748 4.27315 3.85862 4.40047 3.96466L6.2013 5.46383C6.9788 6.11133 7.51797 6.55966 7.97463 6.85299C8.41547 7.13633 8.71464 7.23216 9.00214 7.23216C9.28964 7.23216 9.5888 7.13716 10.0296 6.85299C10.4855 6.55966 11.0255 6.11133 11.803 5.46383L13.6021 3.96383C13.6652 3.9113 13.738 3.87171 13.8164 3.84732C13.8948 3.82294 13.9772 3.81423 14.059 3.8217C14.1408 3.82916 14.2202 3.85266 14.2929 3.89085C14.3656 3.92903 14.43 3.98116 14.4826 4.04424C14.5351 4.10733 14.5747 4.18015 14.5991 4.25854C14.6234 4.33693 14.6322 4.41935 14.6247 4.50111C14.6172 4.58286 14.5937 4.66235 14.5555 4.73502C14.5173 4.80769 14.4652 4.87213 14.4021 4.92466L12.5721 6.44966C11.833 7.06633 11.2346 7.56466 10.7055 7.90466C10.1555 8.25883 9.61964 8.48216 9.00214 8.48216C8.38464 8.48216 7.8488 8.25799 7.29797 7.90466C6.76964 7.56466 6.1713 7.06549 5.43214 6.45049L3.6013 4.92549C3.53817 4.87294 3.48601 4.80846 3.44782 4.73574C3.40962 4.66301 3.38614 4.58347 3.37871 4.50166C3.37128 4.41985 3.38005 4.33738 3.40451 4.25897C3.42898 4.18055 3.46783 4.10773 3.52047 4.04466Z" fill="#F2B821"/>
</svg>
