<svg width="35" height="36" viewBox="0 0 35 36" fill="none" xmlns="http://www.w3.org/2000/svg">
<path d="M18.0703 0.40625L19.8475 0.562368C27.0288 1.5034 32.9529 6.90722 34.5701 13.9557C34.7868 14.8997 34.9656 15.9652 34.9777 16.9343C34.9781 16.9711 34.9636 17.0314 35 17.0542V18.7365C34.9638 18.7592 34.9781 18.8193 34.9777 18.8564C34.9695 19.6311 34.853 20.449 34.7092 21.2093C33.2708 28.8122 26.8503 34.6514 19.1294 35.3405L18.2011 35.4063H16.8468L15.9185 35.3405C7.29344 34.5478 0.585052 27.5596 0.0484178 18.9217C0.0370387 18.7369 0.0682173 18.5441 0.00449473 18.3648C0.0149634 18.0603 -0.00961526 17.7515 0.00449473 17.4472C0.0807342 15.81 0.354058 14.1426 0.850639 12.5803C3.08935 5.53812 9.58267 0.663185 16.9779 0.40625H18.0701H18.0703ZM22.1772 15.6994C22.4876 14.2864 22.5607 12.7687 22.2318 11.3516C21.4924 8.16436 18.5555 5.74521 15.5362 4.79781C15.7908 5.80757 15.995 6.88492 15.9074 7.93245C15.3896 14.1228 7.0497 15.6453 6.60182 21.8716C6.54857 22.6103 6.6239 23.4307 6.78708 24.1546C7.66098 28.03 11.4359 30.3493 15.1211 31.0361C14.5296 30.618 14.0169 30.1961 13.609 29.5882C11.5654 26.5442 14.3141 22.859 15.7223 20.1568C16.3621 18.929 16.8678 17.6316 17.2034 16.2852L17.5457 14.4104C17.761 16.3039 18.4203 18.1063 19.2312 19.8145C20.7546 23.0231 24.1685 27.2123 20.7239 30.4239L19.8836 31.0361C23.3415 30.5234 26.8069 27.8919 28.0103 24.5809C29.3417 20.9176 27.6737 16.9231 24.9737 14.3774C24.8023 14.2159 24.4337 13.9384 24.2775 13.7846C24.1214 13.6308 24.1137 13.6756 24.045 13.7434C23.8572 13.9284 23.5001 14.4924 23.2807 14.7386C22.9639 15.0941 22.5661 15.4257 22.1774 15.6997L22.1772 15.6994Z" fill="#05213C"/>
</svg>
