<svg width="32" height="32" viewBox="0 0 32 32" fill="none" xmlns="http://www.w3.org/2000/svg">
<path fill-rule="evenodd" clip-rule="evenodd" d="M16.658 0.309692C8.18132 0.309692 1.30981 7.18093 1.30981 15.6576C1.30981 18.557 2.11451 21.2688 3.51209 23.5822L0.742188 31.8164L9.23959 29.0956C11.4383 30.3117 13.967 31.0047 16.658 31.0047C25.1341 31.0047 32.0056 24.1337 32.0056 15.6576C32.0056 7.18093 25.1341 0.309692 16.658 0.309692ZM16.658 28.5605C14.0368 28.5605 11.5964 27.7743 9.55873 26.4266L4.59999 28.0146L6.2116 23.2226C4.66694 21.0953 3.75426 18.4814 3.75426 15.6573C3.75426 8.54228 9.54281 2.75387 16.658 2.75387C23.7728 2.75387 29.5615 8.54228 29.5615 15.6573C29.5615 22.7721 23.7728 28.5605 16.658 28.5605Z" fill="white"/>
</svg>
