<svg width="35" height="36" viewBox="0 0 35 36" fill="none" xmlns="http://www.w3.org/2000/svg">
<path d="M18.0703 0.777344L19.8475 0.933462C27.0288 1.87449 32.9529 7.27831 34.5701 14.3268C34.7868 15.2708 34.9656 16.3363 34.9777 17.3054C34.9781 17.3422 34.9636 17.4025 35 17.4253V19.1075C34.9638 19.1303 34.9781 19.1904 34.9777 19.2275C34.9695 20.0022 34.853 20.8201 34.7092 21.5804C33.2708 29.1833 26.8503 35.0225 19.1294 35.7116L18.2011 35.7773H16.8468L15.9185 35.7116C7.29344 34.9189 0.585052 27.9307 0.0484178 19.2928C0.0370387 19.108 0.0682173 18.9152 0.00449473 18.7359C0.0149634 18.4314 -0.00961526 18.1226 0.00449473 17.8183C0.0807342 16.1811 0.354058 14.5137 0.850639 12.9514C3.08935 5.90921 9.58267 1.03428 16.9779 0.777344H18.0701H18.0703ZM22.1772 16.0705C22.4876 14.6575 22.5607 13.1398 22.2318 11.7227C21.4924 8.53545 18.5555 6.1163 15.5362 5.1689C15.7908 6.17866 15.995 7.25601 15.9074 8.30355C15.3896 14.4939 7.0497 16.0164 6.60182 22.2426C6.54857 22.9814 6.6239 23.8018 6.78708 24.5257C7.66098 28.4011 11.4359 30.7204 15.1211 31.4072C14.5296 30.9891 14.0169 30.5672 13.609 29.9593C11.5654 26.9153 14.3141 23.2301 15.7223 20.5279C16.3621 19.3001 16.8678 18.0027 17.2034 16.6563L17.5457 14.7815C17.761 16.675 18.4203 18.4774 19.2312 20.1856C20.7546 23.3942 24.1685 27.5834 20.7239 30.795L19.8836 31.4072C23.3415 30.8945 26.8069 28.263 28.0103 24.952C29.3417 21.2886 27.6737 17.2942 24.9737 14.7485C24.8023 14.587 24.4337 14.3095 24.2775 14.1557C24.1214 14.0019 24.1137 14.0467 24.045 14.1145C23.8572 14.2995 23.5001 14.8635 23.2807 15.1097C22.9639 15.4652 22.5661 15.7968 22.1774 16.0708L22.1772 16.0705Z" fill="#05213C"/>
</svg>
