<svg width="18" height="17" viewBox="0 0 18 17" fill="none" xmlns="http://www.w3.org/2000/svg">
<path fill-rule="evenodd" clip-rule="evenodd" d="M2.93167 1.3531C3.95333 0.277266 5.64333 0.4781 6.48833 1.6731L7.53833 3.15977C8.21417 4.1156 8.1575 5.4431 7.35083 6.2931L7.14667 6.50727C7.14609 6.50893 7.14554 6.51059 7.145 6.51227C7.13417 6.54227 7.1075 6.63893 7.13417 6.82227C7.19 7.20143 7.4825 7.9731 8.6725 9.2256C9.86583 10.4823 10.5892 10.7781 10.925 10.8331C11.0059 10.8512 11.09 10.8492 11.17 10.8273L11.51 10.4689C12.2383 9.70226 13.3733 9.55143 14.2892 10.0781L15.8808 10.9948C17.2417 11.7781 17.5583 13.6939 16.4708 14.8389L15.2875 16.0848C14.9183 16.4739 14.4142 16.8064 13.7917 16.8681C12.2717 17.0181 8.75083 16.8223 5.06 12.9356C1.615 9.30976 0.960834 6.1556 0.878334 4.61477C0.837501 3.8531 1.17667 3.2006 1.62333 2.72977L2.93167 1.3531ZM5.4675 2.39477C5.04083 1.79143 4.27333 1.75477 3.8375 2.21393L2.52917 3.5906C2.25417 3.88227 2.10833 4.2156 2.12667 4.5481C2.19333 5.80643 2.73583 8.67477 5.96583 12.0748C9.3525 15.6414 12.4733 15.7414 13.6692 15.6231C13.905 15.6006 14.1483 15.4689 14.3808 15.2239L15.5642 13.9781C16.0758 13.4398 15.9417 12.4714 15.2575 12.0781L13.6658 11.1614C13.2383 10.9156 12.7375 10.9914 12.4167 11.3298L12.0367 11.7298L11.5975 11.3123C12.0367 11.7289 12.0367 11.7298 12.0358 11.7306L12.035 11.7314L12.0325 11.7348L12.0267 11.7398L12.015 11.7514C11.98 11.7858 11.9421 11.817 11.9017 11.8448C11.835 11.8914 11.7467 11.9439 11.6342 11.9881C11.4042 12.0789 11.1008 12.1273 10.725 12.0664C9.99333 11.9481 9.035 11.4223 7.76667 10.0864C6.49333 8.74643 6.00583 7.74727 5.8975 7.0031C5.84167 6.62477 5.88583 6.32227 5.9675 6.0931C6.01283 5.96539 6.07747 5.84538 6.15917 5.73727L6.18417 5.70643L6.19583 5.69393L6.20083 5.6881L6.20333 5.6856L6.205 5.68477C6.205 5.68477 6.205 5.6831 6.64917 6.10393L6.20583 5.6831L6.445 5.43143C6.81583 5.0406 6.87 4.37893 6.51833 3.88143L5.4675 2.39477Z" fill="#F2B821"/>
</svg>
