<svg width="16" height="15" viewBox="0 0 16 15" fill="none" xmlns="http://www.w3.org/2000/svg">
<path d="M8 0.09375C3.968 0.09375 0.6875 3.37425 0.6875 7.40625C0.6875 11.4383 3.968 14.7188 8 14.7188C12.032 14.7188 15.3125 11.4383 15.3125 7.40625C15.3125 3.37425 12.032 0.09375 8 0.09375ZM8 1.21875C11.4234 1.21875 14.1875 3.98288 14.1875 7.40625C14.1875 10.8296 11.4234 13.5938 8 13.5938C4.57663 13.5938 1.8125 10.8296 1.8125 7.40625C1.8125 3.98288 4.57663 1.21875 8 1.21875ZM6.99819 3.62681L6.18875 4.43625L9.15987 7.40625L6.18987 10.3768L6.99819 11.1857L10.3732 7.81069L10.7596 7.40625L10.3732 7.00181L6.99819 3.62681Z" fill="#F2B821"/>
</svg>
