<svg width="16" height="16" viewBox="0 0 16 16" fill="none" xmlns="http://www.w3.org/2000/svg">
<path d="M8 0.464844C3.968 0.464844 0.6875 3.74534 0.6875 7.77734C0.6875 11.8093 3.968 15.0898 8 15.0898C12.032 15.0898 15.3125 11.8093 15.3125 7.77734C15.3125 3.74534 12.032 0.464844 8 0.464844ZM8 1.58984C11.4234 1.58984 14.1875 4.35397 14.1875 7.77734C14.1875 11.2007 11.4234 13.9648 8 13.9648C4.57663 13.9648 1.8125 11.2007 1.8125 7.77734C1.8125 4.35397 4.57663 1.58984 8 1.58984ZM6.99819 3.99791L6.18875 4.80734L9.15988 7.77734L6.18987 10.7479L6.99819 11.5568L10.3732 8.18178L10.7596 7.77734L10.3732 7.37291L6.99819 3.99791Z" fill="#F2B821"/>
</svg>
