<svg width="197" height="36" viewBox="0 0 197 36" fill="none" xmlns="http://www.w3.org/2000/svg">
<path d="M0.601562 18.2617C0.601562 14.9368 1.29663 11.9795 2.68674 9.38986C4.1092 6.76824 6.11355 4.73816 8.69982 3.29949C11.2861 1.8288 14.2603 1.09353 17.6225 1.09353C21.8898 1.09353 25.4783 2.22852 28.3878 4.49838C31.2974 6.73636 33.1723 9.78945 34.013 13.6579H23.781C23.1668 12.3791 22.31 11.404 21.2109 10.7326C20.1441 10.0612 18.8994 9.72555 17.477 9.72555C15.2786 9.72555 13.5168 10.5088 12.1913 12.0754C10.8982 13.61 10.2516 15.6721 10.2516 18.2617C10.2516 20.8833 10.8982 22.9773 12.1913 24.5439C13.5168 26.0785 15.2786 26.8457 17.477 26.8457C18.8994 26.8457 20.1441 26.5101 21.2109 25.8387C22.31 25.1673 23.1668 24.1922 23.781 22.9134H34.013C33.1723 26.7818 31.2974 29.851 28.3878 32.1209C25.4783 34.3589 21.8898 35.4778 17.6225 35.4778C14.2603 35.4778 11.2861 34.7584 8.69982 33.3198C6.11355 31.8491 4.1092 29.819 2.68674 27.2294C1.29663 24.6078 0.601562 21.6186 0.601562 18.2617ZM54.9041 35.5737C51.7036 35.5737 48.7617 34.8384 46.0785 33.3677C43.3953 31.8652 41.2616 29.8031 39.6775 27.1814C38.1257 24.5279 37.3498 21.5386 37.3498 18.2137C37.3498 14.8888 38.1257 11.9156 39.6775 9.29395C41.2616 6.64045 43.3953 4.57835 46.0785 3.10767C48.7617 1.63698 51.7036 0.901703 54.9041 0.901703C58.137 0.901703 61.0788 1.63698 63.7298 3.10767C66.413 4.57835 68.5305 6.64045 70.0823 9.29395C71.634 11.9156 72.4099 14.8888 72.4099 18.2137C72.4099 21.5386 71.634 24.5279 70.0823 27.1814C68.5305 29.8031 66.413 31.8652 63.7298 33.3677C61.0466 34.8384 58.1046 35.5737 54.9041 35.5737ZM108.348 35.238H98.8436L86.187 16.3434V35.238H76.6825V1.42921H86.187L98.8436 20.5635V1.42921H108.348V35.238ZM123.267 8.95826V14.4732H134.177V21.6186H123.267V27.7089H135.632V35.238H113.762V1.42921H135.632V8.95826H123.267ZM153.228 35.5737C149.252 35.5737 145.986 34.6466 143.433 32.7923C140.879 30.906 139.505 28.2205 139.31 24.7357H149.445C149.542 25.9186 149.898 26.7818 150.512 27.3253C151.127 27.8688 151.918 28.1405 152.888 28.1405C153.761 28.1405 154.473 27.9328 155.023 27.5171C155.604 27.0696 155.896 26.4621 155.896 25.6948C155.896 24.7037 155.427 23.9364 154.489 23.3929C153.552 22.8495 152.032 22.242 149.93 21.5706C147.7 20.8353 145.89 20.1319 144.499 19.4606C143.141 18.7572 141.946 17.7501 140.911 16.4394C139.909 15.0966 139.408 13.3542 139.408 11.2122C139.408 9.03823 139.958 7.1839 141.056 5.64932C142.155 4.08272 143.674 2.8999 145.614 2.10059C147.554 1.30129 149.753 0.901703 152.21 0.901703C156.186 0.901703 159.355 1.8288 161.715 3.68313C164.107 5.50545 165.383 8.07912 165.544 11.404H155.216C155.184 10.381 154.86 9.6137 154.246 9.10213C153.664 8.59056 152.904 8.33484 151.967 8.33484C151.256 8.33484 150.674 8.5426 150.222 8.95826C149.769 9.37392 149.542 9.96533 149.542 10.7326C149.542 11.372 149.785 11.9315 150.27 12.4111C150.787 12.8586 151.417 13.2583 152.161 13.61C152.904 13.9297 154.004 14.3452 155.459 14.8568C157.624 15.5921 159.403 16.3275 160.793 17.0628C162.216 17.7662 163.427 18.7732 164.43 20.084C165.464 21.3629 165.981 22.9933 165.981 24.9755C165.981 26.9896 165.464 28.796 164.43 30.3945C163.427 31.9929 161.957 33.2559 160.017 34.183C158.109 35.1101 155.846 35.5737 153.228 35.5737ZM196.15 1.42921V8.91031H187.033V35.238H177.528V8.91031H168.509V1.42921H196.15Z" fill="#05213C"/>
</svg>
