<svg width="197" height="36" viewBox="0 0 197 36" fill="none" xmlns="http://www.w3.org/2000/svg">
<path d="M0.601562 18.1681C0.601562 14.8432 1.29663 11.8859 2.68674 9.29627C4.1092 6.67464 6.11355 4.64456 8.69982 3.20589C11.2861 1.73521 14.2603 0.999928 17.6225 0.999928C21.8898 0.999928 25.4783 2.13492 28.3878 4.40478C31.2974 6.64276 33.1723 9.69585 34.013 13.5643H23.781C23.1668 12.2855 22.31 11.3104 21.2109 10.639C20.1441 9.96765 18.8994 9.63196 17.477 9.63196C15.2786 9.63196 13.5168 10.4152 12.1913 11.9818C10.8982 13.5164 10.2516 15.5785 10.2516 18.1681C10.2516 20.7897 10.8982 22.8837 12.1913 24.4503C13.5168 25.9849 15.2786 26.7521 17.477 26.7521C18.8994 26.7521 20.1441 26.4165 21.2109 25.7451C22.31 25.0737 23.1668 24.0986 23.781 22.8198H34.013C33.1723 26.6883 31.2974 29.7574 28.3878 32.0273C25.4783 34.2653 21.8898 35.3842 17.6225 35.3842C14.2603 35.3842 11.2861 34.6648 8.69982 33.2262C6.11355 31.7555 4.1092 29.7254 2.68674 27.1358C1.29663 24.5142 0.601562 21.525 0.601562 18.1681ZM108.348 35.1444H98.8436L86.187 16.2498V35.1444H76.6825V1.33562H86.187L98.8436 20.4699V1.33562H108.348V35.1444ZM123.267 8.86467V14.3796H134.177V21.525H123.267V27.6154H135.632V35.1444H113.762V1.33562H135.632V8.86467H123.267ZM153.228 35.4801C149.252 35.4801 145.986 34.553 143.433 32.6987C140.879 30.8124 139.505 28.1269 139.31 24.6421H149.445C149.542 25.825 149.898 26.6883 150.512 27.2317C151.127 27.7752 151.918 28.047 152.888 28.047C153.761 28.047 154.473 27.8392 155.023 27.4235C155.604 26.976 155.896 26.3685 155.896 25.6012C155.896 24.6101 155.427 23.8428 154.489 23.2993C153.552 22.7559 152.032 22.1484 149.93 21.477C147.7 20.7417 145.89 20.0383 144.499 19.367C143.141 18.6636 141.946 17.6565 140.911 16.3458C139.909 15.003 139.408 13.2607 139.408 11.1186C139.408 8.94464 139.958 7.0903 141.056 5.55572C142.155 3.98912 143.674 2.8063 145.614 2.007C147.554 1.20769 149.753 0.808105 152.21 0.808105C156.186 0.808105 159.355 1.73521 161.715 3.58954C164.107 5.41185 165.383 7.98552 165.544 11.3104H155.216C155.184 10.2874 154.86 9.52011 154.246 9.00853C153.664 8.49696 152.904 8.24124 151.967 8.24124C151.256 8.24124 150.674 8.449 150.222 8.86467C149.769 9.28033 149.542 9.87174 149.542 10.639C149.542 11.2784 149.785 11.8379 150.27 12.3175C150.787 12.765 151.417 13.1647 152.161 13.5164C152.904 13.8361 154.004 14.2516 155.459 14.7632C157.624 15.4985 159.403 16.2339 160.793 16.9692C162.216 17.6726 163.427 18.6796 164.43 19.9904C165.464 21.2693 165.981 22.8997 165.981 24.8819C165.981 26.896 165.464 28.7024 164.43 30.3009C163.427 31.8994 161.957 33.1623 160.017 34.0894C158.109 35.0165 155.846 35.4801 153.228 35.4801ZM196.15 1.33562V8.81671H187.033V35.1444H177.528V8.81671H168.509V1.33562H196.15Z" fill="#05213C"/>
</svg>
