<svg width="197" height="36" viewBox="0 0 197 36" fill="none" xmlns="http://www.w3.org/2000/svg">
<path d="M0.601562 18.1676C0.601562 14.8427 1.29663 11.8854 2.68674 9.29578C4.1092 6.67416 6.11355 4.64407 8.69982 3.2054C11.2861 1.73472 14.2603 0.99944 17.6225 0.99944C21.8898 0.99944 25.4783 2.13444 28.3878 4.4043C31.2974 6.64227 33.1723 9.69537 34.013 13.5638H23.781C23.1668 12.285 22.31 11.3099 21.2109 10.6385C20.1441 9.96716 18.8994 9.63147 17.477 9.63147C15.2786 9.63147 13.5168 10.4147 12.1913 11.9813C10.8982 13.5159 10.2516 15.578 10.2516 18.1676C10.2516 20.7892 10.8982 22.8832 12.1913 24.4498C13.5168 25.9844 15.2786 26.7517 17.477 26.7517C18.8994 26.7517 20.1441 26.416 21.2109 25.7446C22.31 25.0732 23.1668 24.0982 23.781 22.8193H34.013C33.1723 26.6878 31.2974 29.7569 28.3878 32.0268C25.4783 34.2648 21.8898 35.3837 17.6225 35.3837C14.2603 35.3837 11.2861 34.6644 8.69982 33.2257C6.11355 31.755 4.1092 29.7249 2.68674 27.1353C1.29663 24.5137 0.601562 21.5245 0.601562 18.1676ZM54.9041 35.4796C51.7036 35.4796 48.7617 34.7443 46.0785 33.2736C43.3953 31.7711 41.2616 29.709 39.6775 27.0873C38.1257 24.4338 37.3498 21.4445 37.3498 18.1196C37.3498 14.7947 38.1257 11.8215 39.6775 9.19987C41.2616 6.54636 43.3953 4.48427 46.0785 3.01358C48.7617 1.54289 51.7036 0.807617 54.9041 0.807617C58.137 0.807617 61.0788 1.54289 63.7298 3.01358C66.413 4.48427 68.5305 6.54636 70.0823 9.19987C71.634 11.8215 72.4099 14.7947 72.4099 18.1196C72.4099 21.4445 71.634 24.4338 70.0823 27.0873C68.5305 29.709 66.413 31.7711 63.7298 33.2736C61.0466 34.7443 58.1046 35.4796 54.9041 35.4796ZM108.348 35.1439H98.8436L86.187 16.2494V35.1439H76.6825V1.33513H86.187L98.8436 20.4695V1.33513H108.348V35.1439ZM123.267 8.86418V14.3791H134.177V21.5245H123.267V27.6149H135.632V35.1439H113.762V1.33513H135.632V8.86418H123.267ZM153.228 35.4796C149.252 35.4796 145.986 34.5525 143.433 32.6982C140.879 30.812 139.505 28.1264 139.31 24.6416H149.445C149.542 25.8246 149.898 26.6878 150.512 27.2312C151.127 27.7747 151.918 28.0465 152.888 28.0465C153.761 28.0465 154.473 27.8387 155.023 27.423C155.604 26.9755 155.896 26.368 155.896 25.6007C155.896 24.6096 155.427 23.8423 154.489 23.2988C153.552 22.7554 152.032 22.1479 149.93 21.4765C147.7 20.7413 145.89 20.0379 144.499 19.3665C143.141 18.6631 141.946 17.656 140.911 16.3453C139.909 15.0025 139.408 13.2602 139.408 11.1181C139.408 8.94415 139.958 7.08982 141.056 5.55523C142.155 3.98864 143.674 2.80582 145.614 2.00651C147.554 1.2072 149.753 0.807617 152.21 0.807617C156.186 0.807617 159.355 1.73472 161.715 3.58905C164.107 5.41137 165.383 7.98503 165.544 11.3099H155.216C155.184 10.2869 154.86 9.51962 154.246 9.00805C153.664 8.49647 152.904 8.24075 151.967 8.24075C151.256 8.24075 150.674 8.44852 150.222 8.86418C149.769 9.27984 149.542 9.87125 149.542 10.6385C149.542 11.2779 149.785 11.8374 150.27 12.317C150.787 12.7645 151.417 13.1643 152.161 13.5159C152.904 13.8356 154.004 14.2512 155.459 14.7627C157.624 15.498 159.403 16.2334 160.793 16.9687C162.216 17.6721 163.427 18.6792 164.43 19.9899C165.464 21.2688 165.981 22.8993 165.981 24.8814C165.981 26.8955 165.464 28.7019 164.43 30.3004C163.427 31.8989 161.957 33.1618 160.017 34.0889C158.109 35.016 155.846 35.4796 153.228 35.4796ZM196.15 1.33513V8.81622H187.033V35.1439H177.528V8.81622H168.509V1.33513H196.15Z" fill="#05213C"/>
</svg>
