<svg width="197" height="36" viewBox="0 0 197 36" fill="none" xmlns="http://www.w3.org/2000/svg">
<path d="M0.601562 18.2418C0.601562 14.9169 1.29663 11.9596 2.68674 9.37C4.1092 6.74837 6.11355 4.71829 8.69982 3.27962C11.2861 1.80894 14.2603 1.07366 17.6225 1.07366C21.8898 1.07366 25.4783 2.20865 28.3878 4.47851C31.2974 6.71649 33.1723 9.76958 34.013 13.6381H23.781C23.1668 12.3592 22.31 11.3841 21.2109 10.7128C20.1441 10.0414 18.8994 9.70569 17.477 9.70569C15.2786 9.70569 13.5168 10.4889 12.1913 12.0555C10.8982 13.5901 10.2516 15.6522 10.2516 18.2418C10.2516 20.8634 10.8982 22.9574 12.1913 24.524C13.5168 26.0586 15.2786 26.8259 17.477 26.8259C18.8994 26.8259 20.1441 26.4902 21.2109 25.8188C22.31 25.1474 23.1668 24.1724 23.781 22.8935H34.013C33.1723 26.762 31.2974 29.8311 28.3878 32.101C25.4783 34.339 21.8898 35.4579 17.6225 35.4579C14.2603 35.4579 11.2861 34.7386 8.69982 33.2999C6.11355 31.8292 4.1092 29.7991 2.68674 27.2095C1.29663 24.5879 0.601562 21.5987 0.601562 18.2418ZM108.348 35.2181H98.8436L86.187 16.3236V35.2181H76.6825V1.40935H86.187L98.8436 20.5437V1.40935H108.348V35.2181ZM123.267 8.9384V14.4533H134.177V21.5987H123.267V27.6891H135.632V35.2181H113.762V1.40935H135.632V8.9384H123.267ZM153.228 35.5538C149.252 35.5538 145.986 34.6267 143.433 32.7724C140.879 30.8862 139.505 28.2007 139.31 24.7158H149.445C149.542 25.8988 149.898 26.762 150.512 27.3054C151.127 27.8489 151.918 28.1207 152.888 28.1207C153.761 28.1207 154.473 27.9129 155.023 27.4973C155.604 27.0497 155.896 26.4422 155.896 25.6749C155.896 24.6838 155.427 23.9165 154.489 23.3731C153.552 22.8296 152.032 22.2221 149.93 21.5507C147.7 20.8155 145.89 20.1121 144.499 19.4407C143.141 18.7373 141.946 17.7302 140.911 16.4195C139.909 15.0767 139.408 13.3344 139.408 11.1923C139.408 9.01837 139.958 7.16403 141.056 5.62945C142.155 4.06285 143.674 2.88003 145.614 2.08073C147.554 1.28142 149.753 0.881836 152.21 0.881836C156.186 0.881836 159.355 1.80894 161.715 3.66327C164.107 5.48559 165.383 8.05925 165.544 11.3841H155.216C155.184 10.3611 154.86 9.59384 154.246 9.08226C153.664 8.57069 152.904 8.31497 151.967 8.31497C151.256 8.31497 150.674 8.52274 150.222 8.9384C149.769 9.35406 149.542 9.94547 149.542 10.7128C149.542 11.3521 149.785 11.9117 150.27 12.3912C150.787 12.8387 151.417 13.2385 152.161 13.5901C152.904 13.9098 154.004 14.3254 155.459 14.8369C157.624 15.5722 159.403 16.3076 160.793 17.0429C162.216 17.7463 163.427 18.7534 164.43 20.0641C165.464 21.343 165.981 22.9735 165.981 24.9556C165.981 26.9697 165.464 28.7761 164.43 30.3746C163.427 31.9731 161.957 33.236 160.017 34.1631C158.109 35.0902 155.846 35.5538 153.228 35.5538ZM196.15 1.40935V8.89044H187.033V35.2181H177.528V8.89044H168.509V1.40935H196.15Z" fill="#05213C"/>
</svg>
