<svg width="197" height="35" viewBox="0 0 197 35" fill="none" xmlns="http://www.w3.org/2000/svg">
<path d="M0.601562 17.5387C0.601562 14.2138 1.29663 11.2565 2.68674 8.66687C4.1092 6.04525 6.11355 4.01517 8.69982 2.5765C11.2861 1.10581 14.2603 0.370534 17.6225 0.370534C21.8898 0.370534 25.4783 1.50553 28.3878 3.77539C31.2974 6.01337 33.1723 9.06646 34.013 12.9349H23.781C23.1668 11.6561 22.31 10.681 21.2109 10.0096C20.1441 9.33825 18.8994 9.00256 17.477 9.00256C15.2786 9.00256 13.5168 9.78579 12.1913 11.3524C10.8982 12.887 10.2516 14.9491 10.2516 17.5387C10.2516 20.1603 10.8982 22.2543 12.1913 23.8209C13.5168 25.3555 15.2786 26.1228 17.477 26.1228C18.8994 26.1228 20.1441 25.7871 21.2109 25.1157C22.31 24.4443 23.1668 23.4692 23.781 22.1904H34.013C33.1723 26.0589 31.2974 29.128 28.3878 31.3979C25.4783 33.6359 21.8898 34.7548 17.6225 34.7548C14.2603 34.7548 11.2861 34.0354 8.69982 32.5968C6.11355 31.1261 4.1092 29.096 2.68674 26.5064C1.29663 23.8848 0.601562 20.8956 0.601562 17.5387ZM108.348 34.515H98.8436L86.187 15.6205V34.515H76.6825V0.706223H86.187L98.8436 19.8406V0.706223H108.348V34.515ZM123.267 8.23527V13.7502H134.177V20.8956H123.267V26.986H135.632V34.515H113.762V0.706223H135.632V8.23527H123.267ZM153.228 34.8507C149.252 34.8507 145.986 33.9236 143.433 32.0693C140.879 30.183 139.505 27.4975 139.31 24.0127H149.445C149.542 25.1957 149.898 26.0589 150.512 26.6023C151.127 27.1458 151.918 27.4176 152.888 27.4176C153.761 27.4176 154.473 27.2098 155.023 26.7941C155.604 26.3466 155.896 25.7391 155.896 24.9718C155.896 23.9807 155.427 23.2134 154.489 22.6699C153.552 22.1265 152.032 21.519 149.93 20.8476C147.7 20.1123 145.89 19.409 144.499 18.7376C143.141 18.0342 141.946 17.0271 140.911 15.7164C139.909 14.3736 139.408 12.6313 139.408 10.4892C139.408 8.31524 139.958 6.46091 141.056 4.92633C142.155 3.35973 143.674 2.17691 145.614 1.3776C147.554 0.578297 149.753 0.178711 152.21 0.178711C156.186 0.178711 159.355 1.10581 161.715 2.96014C164.107 4.78246 165.383 7.35613 165.544 10.681H155.216C155.184 9.658 154.86 8.89071 154.246 8.37914C153.664 7.86757 152.904 7.61185 151.967 7.61185C151.256 7.61185 150.674 7.81961 150.222 8.23527C149.769 8.65093 149.542 9.24234 149.542 10.0096C149.542 10.649 149.785 11.2085 150.27 11.6881C150.787 12.1356 151.417 12.5353 152.161 12.887C152.904 13.2067 154.004 13.6223 155.459 14.1338C157.624 14.8691 159.403 15.6045 160.793 16.3398C162.216 17.0432 163.427 18.0503 164.43 19.361C165.464 20.6399 165.981 22.2704 165.981 24.2525C165.981 26.2666 165.464 28.073 164.43 29.6715C163.427 31.27 161.957 32.5329 160.017 33.46C158.109 34.3871 155.846 34.8507 153.228 34.8507ZM196.15 0.706223V8.18732H187.033V34.515H177.528V8.18732H168.509V0.706223H196.15Z" fill="#05213C"/>
</svg>
