<svg width="197" height="36" viewBox="0 0 197 36" fill="none" xmlns="http://www.w3.org/2000/svg">
<path d="M0.601562 17.7613C0.601562 14.4365 1.29663 11.4791 2.68674 8.88953C4.1092 6.26791 6.11355 4.23782 8.69982 2.79915C11.2861 1.32847 14.2603 0.59319 17.6225 0.59319C21.8898 0.59319 25.4783 1.72819 28.3878 3.99805C31.2974 6.23602 33.1723 9.28912 34.013 13.1576H23.781C23.1668 11.8787 22.31 10.9037 21.2109 10.2323C20.1441 9.56091 18.8994 9.22522 17.477 9.22522C15.2786 9.22522 13.5168 10.0084 12.1913 11.575C10.8982 13.1096 10.2516 15.1717 10.2516 17.7613C10.2516 20.383 10.8982 22.4769 12.1913 24.0435C13.5168 25.5781 15.2786 26.3454 17.477 26.3454C18.8994 26.3454 20.1441 26.0097 21.2109 25.3383C22.31 24.667 23.1668 23.6919 23.781 22.413H34.013C33.1723 26.2815 31.2974 29.3507 28.3878 31.6205C25.4783 33.8585 21.8898 34.9774 17.6225 34.9774C14.2603 34.9774 11.2861 34.2581 8.69982 32.8194C6.11355 31.3487 4.1092 29.3187 2.68674 26.7291C1.29663 24.1074 0.601562 21.1182 0.601562 17.7613ZM54.9041 35.0733C51.7036 35.0733 48.7617 34.3381 46.0785 32.8674C43.3953 31.3648 41.2616 29.3027 39.6775 26.6811C38.1257 24.0276 37.3498 21.0383 37.3498 17.7134C37.3498 14.3885 38.1257 11.4152 39.6775 8.79362C41.2616 6.14011 43.3953 4.07802 46.0785 2.60733C48.7617 1.13664 51.7036 0.401367 54.9041 0.401367C58.137 0.401367 61.0788 1.13664 63.7298 2.60733C66.413 4.07802 68.5305 6.14011 70.0823 8.79362C71.634 11.4152 72.4099 14.3885 72.4099 17.7134C72.4099 21.0383 71.634 24.0276 70.0823 26.6811C68.5305 29.3027 66.413 31.3648 63.7298 32.8674C61.0466 34.3381 58.1046 35.0733 54.9041 35.0733ZM108.348 34.7377H98.8436L86.187 15.8431V34.7377H76.6825V0.928879H86.187L98.8436 20.0632V0.928879H108.348V34.7377ZM123.267 8.45793V13.9728H134.177V21.1182H123.267V27.2086H135.632V34.7377H113.762V0.928879H135.632V8.45793H123.267ZM153.228 35.0733C149.252 35.0733 145.986 34.1462 143.433 32.2919C140.879 30.4057 139.505 27.7202 139.31 24.2354H149.445C149.542 25.4183 149.898 26.2815 150.512 26.825C151.127 27.3684 151.918 27.6402 152.888 27.6402C153.761 27.6402 154.473 27.4324 155.023 27.0168C155.604 26.5692 155.896 25.9618 155.896 25.1945C155.896 24.2033 155.427 23.4361 154.489 22.8926C153.552 22.3491 152.032 21.7417 149.93 21.0703C147.7 20.335 145.89 19.6316 144.499 18.9602C143.141 18.2568 141.946 17.2498 140.911 15.939C139.909 14.5963 139.408 12.8539 139.408 10.7118C139.408 8.5379 139.958 6.68357 141.056 5.14898C142.155 3.58239 143.674 2.39957 145.614 1.60026C147.554 0.800953 149.753 0.401367 152.21 0.401367C156.186 0.401367 159.355 1.32847 161.715 3.1828C164.107 5.00512 165.383 7.57878 165.544 10.9037H155.216C155.184 9.88066 154.86 9.11337 154.246 8.6018C153.664 8.09022 152.904 7.8345 151.967 7.8345C151.256 7.8345 150.674 8.04227 150.222 8.45793C149.769 8.87359 149.542 9.465 149.542 10.2323C149.542 10.8717 149.785 11.4312 150.27 11.9107C150.787 12.3583 151.417 12.758 152.161 13.1096C152.904 13.4294 154.004 13.8449 155.459 14.3565C157.624 15.0918 159.403 15.8272 160.793 16.5624C162.216 17.2658 163.427 18.2729 164.43 19.5837C165.464 20.8625 165.981 22.493 165.981 24.4751C165.981 26.4893 165.464 28.2957 164.43 29.8941C163.427 31.4926 161.957 32.7555 160.017 33.6826C158.109 34.6097 155.846 35.0733 153.228 35.0733ZM196.15 0.928879V8.40997H187.033V34.7377H177.528V8.40997H168.509V0.928879H196.15Z" fill="#05213C"/>
</svg>
