<svg width="197" height="36" viewBox="0 0 197 36" fill="none" xmlns="http://www.w3.org/2000/svg">
<path d="M0.601562 17.7617C0.601562 14.4368 1.29663 11.4795 2.68674 8.8899C4.1092 6.26827 6.11355 4.23819 8.69982 2.79952C11.2861 1.32883 14.2603 0.593556 17.6225 0.593556C21.8898 0.593556 25.4783 1.72855 28.3878 3.99841C31.2974 6.23639 33.1723 9.28948 34.013 13.158H23.781C23.1668 11.8791 22.31 10.904 21.2109 10.2327C20.1441 9.56128 18.8994 9.22558 17.477 9.22558C15.2786 9.22558 13.5168 10.0088 12.1913 11.5754C10.8982 13.11 10.2516 15.1721 10.2516 17.7617C10.2516 20.3833 10.8982 22.4773 12.1913 24.0439C13.5168 25.5785 15.2786 26.3458 17.477 26.3458C18.8994 26.3458 20.1441 26.0101 21.2109 25.3387C22.31 24.6673 23.1668 23.6923 23.781 22.4134H34.013C33.1723 26.2819 31.2974 29.351 28.3878 31.6209C25.4783 33.8589 21.8898 34.9778 17.6225 34.9778C14.2603 34.9778 11.2861 34.2585 8.69982 32.8198C6.11355 31.3491 4.1092 29.319 2.68674 26.7294C1.29663 24.1078 0.601562 21.1186 0.601562 17.7617ZM108.348 34.738H98.8436L86.187 15.8435V34.738H76.6825V0.929245H86.187L98.8436 20.0636V0.929245H108.348V34.738ZM123.267 8.45829V13.9732H134.177V21.1186H123.267V27.209H135.632V34.738H113.762V0.929245H135.632V8.45829H123.267ZM153.228 35.0737C149.252 35.0737 145.986 34.1466 143.433 32.2923C140.879 30.4061 139.505 27.7206 139.31 24.2357H149.445C149.542 25.4187 149.898 26.2819 150.512 26.8253C151.127 27.3688 151.918 27.6406 152.888 27.6406C153.761 27.6406 154.473 27.4328 155.023 27.0172C155.604 26.5696 155.896 25.9621 155.896 25.1948C155.896 24.2037 155.427 23.4364 154.489 22.893C153.552 22.3495 152.032 21.742 149.93 21.0706C147.7 20.3354 145.89 19.632 144.499 18.9606C143.141 18.2572 141.946 17.2501 140.911 15.9394C139.909 14.5966 139.408 12.8543 139.408 10.7122C139.408 8.53827 139.958 6.68393 141.056 5.14935C142.155 3.58275 143.674 2.39993 145.614 1.60063C147.554 0.801319 149.753 0.401733 152.21 0.401733C156.186 0.401733 159.355 1.32883 161.715 3.18317C164.107 5.00548 165.383 7.57915 165.544 10.904H155.216C155.184 9.88102 154.86 9.11373 154.246 8.60216C153.664 8.09059 152.904 7.83487 151.967 7.83487C151.256 7.83487 150.674 8.04263 150.222 8.45829C149.769 8.87395 149.542 9.46536 149.542 10.2327C149.542 10.872 149.785 11.4315 150.27 11.9111C150.787 12.3586 151.417 12.7584 152.161 13.11C152.904 13.4297 154.004 13.8453 155.459 14.3568C157.624 15.0921 159.403 15.8275 160.793 16.5628C162.216 17.2662 163.427 18.2733 164.43 19.584C165.464 20.8629 165.981 22.4934 165.981 24.4755C165.981 26.4896 165.464 28.296 164.43 29.8945C163.427 31.493 161.957 32.7559 160.017 33.683C158.109 34.6101 155.846 35.0737 153.228 35.0737ZM196.15 0.929245V8.41034H187.033V34.738H177.528V8.41034H168.509V0.929245H196.15Z" fill="#05213C"/>
</svg>
